<?xml version="1.0" encoding="UTF-8"?>
<svg id="DECEMBER_10_x2C__2024_xA0_Image" xmlns="http://www.w3.org/2000/svg" xmlns:xlink="http://www.w3.org/1999/xlink" version="1.1" viewBox="0 0 50 50">
  <!-- Generator: Adobe Illustrator 29.1.0, SVG Export Plug-In . SVG Version: 2.1.0 Build 142)  -->
  <defs>
    <style>
      .st0 {
        fill: url(#linear-gradient1);
      }

      .st1 {
        fill: url(#linear-gradient);
      }
    </style>
    <linearGradient id="linear-gradient" x1="22.4" y1="48" x2="14.4" y2="2.9" gradientUnits="userSpaceOnUse">
      <stop offset="0" stop-color="#ffdb73"/>
      <stop offset=".4" stop-color="#f6f6d7"/>
      <stop offset=".5" stop-color="#fdde7d"/>
      <stop offset=".7" stop-color="#f5e69e"/>
      <stop offset=".9" stop-color="#ffdb73"/>
    </linearGradient>
    <linearGradient id="linear-gradient1" x1="41.4" x2="33.4" y2="2.9" xlink:href="#linear-gradient"/>
  </defs>
  <path class="st1" d="M20.5,48c-.1,0-.2-.1-.2-.1s-.1,0-.2,0h-.2c0-.1,0-.3-.2-.5s-.2-.4-.4-.5-.2-.2-.4-.1-.2.3-.2.7h-1.8c-.2-.2-.5-.3-.7-.4s-.4-.2-.7-.3l-.6-.3c-.2-.1-.4-.2-.6-.4,0-.4.1-.7.1-1s0-.6,0-.9,0-.6,0-.9.1-.6.3-.8c-.2-.2-.3-.4-.4-.6s-.2-.4-.2-.6,0-.4,0-.6v-.4c0-.2,0-.4.1-.5s.2-.3.3-.4.2-.2.3-.3.2-.2.3-.2c-.2-.2-.4-.4-.5-.6s-.1-.3-.2-.5,0-.3,0-.4-.1-.3-.3-.3c.2-.3.3-.6.4-.8s.2-.5.2-.8,0-.5,0-.7v-.6c.1-.2.2-.4.2-.5s0-.2,0-.2,0-.1,0-.2v-.2c-.4-.4-.6-.7-.8-.9s-.2-.4-.2-.5l-.4-4.4c.2-.3.3-.6.3-.8s.1-.5.2-.8.1-.5.2-.7.2-.4.4-.7c0-.2-.1-.3,0-.5s0-.3,0-.5,0-.3.1-.4,0-.2-.1-.3v-3.6c0-.2-.2-.3-.2-.4s-.1-.2-.2-.2,0-.1,0-.2.2-.1.3-.2c0-.2-.2-.4-.2-.6s-.1-.3-.1-.5,0-.3,0-.4v-.3c-.2-.2-.3-.4-.4-.5l-.2-.2c0,0-.1-.1-.2-.2s-.2-.1-.3-.2c0,.2-.2.4-.3.5s-.3.2-.4.4-.2.2-.2.3.1.2.3.2c-.3.2-.4.4-.5.6s0,.4,0,.6,0,.3,0,.5-.3.2-.6.2-.5,0-.8,0-.5.1-.7.2-.4.1-.6.1-.4,0-.5-.2c-.2-.2-.3-.3-.5-.5s-.3-.3-.4-.5-.3-.4-.4-.6-.3-.4-.5-.5c0-.3,0-.5-.1-.7s-.2-.3-.2-.4-.2-.2-.2-.2h-.1v-1.5l2.9-2.9c-.3,0-.5,0-.5-.2s0-.2.2-.3.3-.2.4-.3l.2-.2h1.9l.2-.5c0-.1,0-.2,0-.2s0-.1,0-.2v-.2l-.2-.5c0-.1,0-.2,0-.2s0-.1,0-.2v-.2c.3-.5.7-.9,1.1-1.5s.7-1,1.1-1.5.7-.8,1.1-1.2.8-.5,1.1-.6c0,.2.2.3.4.5s.3.4.5.5.3.3.5.3.3,0,.4,0c0,0,0,0,0-.2s.2-.2.3-.4.2-.3.3-.4l.2-.2c.3,0,.6,0,.9.2s.6.3.8.5l2.6-1.9c.2,0,.4,0,.6.2s.4.3.6.5.3.4.4.5l.2.2v1.8l-1.4,2.2c0,.3.2.5.3.7s.2.3.3.4.2.2.3.2h.1c0,.6-.1,1.1-.2,1.6s0,1,0,1.4.1.9.2,1.4.2.9.2,1.4c0,.2-.2.3-.3.5l-.4.5c-.1.2-.2.3-.4.4l-.3.3c0,.2,0,.5,0,.7s-.2.4-.3.5-.1.3-.1.4.1.3.4.5c-.2.2-.3.4-.5.6l-.3.2v.8c.2.2.4.3.7.3s.4.1.7.2.4.1.5.2.3.2.3.4c0,.2-.1.5,0,.8s0,.6,0,.9,0,.5-.1.7-.2.4-.5.4l.7,7.9-1.4,2.2c0,0-.1,0,0,.2s.1.2.2.4.2.2.3.4l.2.2c0,.3,0,.7-.2,1s-.3.6-.5.8c.2.2.3.4.5.6s.4.3.6.5c0,.3-.1.7-.1,1s0,.6,0,.9,0,.6,0,.8-.1.6-.3.8c-.2,0-.3-.1-.5-.2s-.4,0-.5,0h-.4c-.1,0-.2,0-.3-.2l-.5.5c-.1.1-.2.2-.2.2s0,.1,0,.2v.2c.2.2.3.4.4.5l.2.2c0,0,.1.1.2.2s.1.1.2.2c.4.2.7.3.9.3s.4,0,.6,0c-.1,0-.2,0,0,.2s.2.2.3.4.2.2.3.4l.2.2c-.2.2-.4.5-.5.7s-.1.4-.2.7-.1.4-.2.6-.2.3-.5.5c-.2-.2-.4-.2-.6-.1s-.4.2-.5.3-.3.3-.4.3-.3,0-.3-.1h0c0,0-.1.2-.1.2h-.1c0,.1,0,.2,0,.2-.2,0-.3-.2-.4-.2ZM18.8,31.9c0-.1,0-.3,0-.4s0-.3,0-.5,0-.3,0-.5c0,0-.2,0-.3,0s-.3.2-.4.3-.3.3-.4.4-.2.3-.2.4l.2.2.4.3c.1.1.2.2.4.2s.2,0,.2,0c.2,0,.3-.2.3-.3ZM19.3,42.6c.1-.1.3-.2.4-.4s.1-.2,0-.4-.3-.2-.7-.2-.6,0-.6,0,0,.1,0,.2l.3.3c.1.1.2.3.2.5l.2-.2ZM20.8,26.4c0,0,.2,0,.2,0s.2,0,.2-.1h0c0-.2,0-.5,0-.8s.2-.7.4-1.1c-.2,0-.4,0-.5.2s-.2.3-.3.5-.2.4-.3.6-.2.4-.4.6h0c0,0,.1.2.1.2,0,0,0,0,.1,0h0s.1,0,.1,0ZM20.8,14.1h.2c0,0,.1-.1.2-.2s.3-.1.5-.2h0c0,0,.2.2.2.2,0,0,.1.1.2.2s.2.1.2.1.1,0,.2,0,0,0,0,0,0-.1-.2-.2l-.4-.6c-.2,0-.4,0-.6,0s-.5-.1-.8-.3v1.1c0,0,.2,0,.2,0Z"/>
  <path class="st0" d="M39.5,48c-.1,0-.2-.1-.2-.1s-.1,0-.2,0h-.2c0-.1,0-.3-.2-.5s-.2-.4-.4-.5-.2-.2-.4-.1-.2.3-.2.7h-1.8c-.2-.2-.5-.3-.7-.4s-.4-.2-.7-.3l-.6-.3c-.2-.1-.4-.2-.6-.4,0-.4.1-.7.1-1s0-.6,0-.9,0-.6,0-.9.1-.6.3-.8c-.2-.2-.3-.4-.4-.6s-.2-.4-.2-.6,0-.4,0-.6v-.4c0-.2,0-.4.1-.5s.2-.3.3-.4.2-.2.3-.3.2-.2.3-.2c-.2-.2-.4-.4-.5-.6s-.1-.3-.2-.5,0-.3,0-.4-.1-.3-.3-.3c.2-.3.3-.6.4-.8s.2-.5.2-.8,0-.5,0-.7v-.6c.1-.2.2-.4.2-.5s0-.2,0-.2,0-.1,0-.2v-.2c-.4-.4-.6-.7-.8-.9s-.2-.4-.2-.5l-.4-4.4c.2-.3.3-.6.3-.8s.1-.5.2-.8.1-.5.2-.7.2-.4.4-.7c0-.2-.1-.3,0-.5s0-.3,0-.5,0-.3.1-.4,0-.2-.1-.3v-3.6c0-.2-.2-.3-.2-.4s-.1-.2-.2-.2,0-.1,0-.2.2-.1.3-.2c0-.2-.2-.4-.2-.6s-.1-.3-.1-.5,0-.3,0-.4v-.3c-.2-.2-.3-.4-.4-.5l-.2-.2c0,0-.1-.1-.2-.2s-.2-.1-.3-.2c0,.2-.2.4-.3.5s-.3.2-.4.4-.2.2-.2.3.1.2.3.2c-.3.2-.4.4-.5.6s0,.4,0,.6,0,.3,0,.5-.3.2-.6.2-.5,0-.8,0-.5.1-.7.2-.4.1-.6.1-.4,0-.5-.2c-.2-.2-.3-.3-.5-.5s-.3-.3-.4-.5-.3-.4-.4-.6-.3-.4-.5-.5c0-.3,0-.5-.1-.7s-.2-.3-.2-.4-.2-.2-.2-.2h-.1v-1.5l2.9-2.9c-.3,0-.5,0-.5-.2s0-.2.2-.3.3-.2.4-.3l.2-.2h1.9l.2-.5c0-.1,0-.2,0-.2s0-.1,0-.2v-.2l-.2-.5c0-.1,0-.2,0-.2s0-.1,0-.2v-.2c.3-.5.7-.9,1.1-1.5s.7-1,1.1-1.5.7-.8,1.1-1.2.8-.5,1.1-.6c0,.2.2.3.4.5s.3.4.5.5.3.3.5.3.3,0,.4,0c0,0,0,0,0-.2s.2-.2.3-.4.2-.3.3-.4l.2-.2c.3,0,.6,0,.9.2s.6.3.8.5l2.6-1.9c.2,0,.4,0,.6.2s.4.3.6.5.3.4.4.5l.2.2v1.8l-1.4,2.2c0,.3.2.5.3.7s.2.3.3.4.2.2.3.2h.1c0,.6-.1,1.1-.2,1.6s0,1,0,1.4.1.9.2,1.4.2.9.2,1.4c0,.2-.2.3-.3.5l-.4.5c-.1.2-.2.3-.4.4l-.3.3c0,.2,0,.5,0,.7s-.2.4-.3.5-.1.3-.1.4.1.3.4.5c-.2.2-.3.4-.5.6l-.3.2v.8c.2.2.4.3.7.3s.4.1.7.2.4.1.5.2.3.2.3.4c0,.2-.1.5,0,.8s0,.6,0,.9,0,.5-.1.7-.2.4-.5.4l.7,7.9-1.4,2.2c0,0-.1,0,0,.2s.1.2.2.4.2.2.3.4l.2.2c0,.3,0,.7-.2,1s-.3.6-.5.8c.2.2.3.4.5.6s.4.3.6.5c0,.3-.1.7-.1,1s0,.6,0,.9,0,.6,0,.8-.1.6-.3.8c-.2,0-.3-.1-.5-.2s-.4,0-.5,0h-.4c-.1,0-.2,0-.3-.2l-.5.5c-.1.1-.2.2-.2.2s0,.1,0,.2v.2c.2.2.3.4.4.5l.2.2c0,0,.1.1.2.2s.1.1.2.2c.4.2.7.3.9.3s.4,0,.6,0c-.1,0-.2,0,0,.2s.2.2.3.4.2.2.3.4l.2.2c-.2.2-.4.5-.5.7s-.1.4-.2.7-.1.4-.2.6-.2.3-.5.5c-.2-.2-.4-.2-.6-.1s-.4.2-.5.3-.3.3-.4.3-.3,0-.3-.1h0c0,0-.1.2-.1.2h-.1c0,.1,0,.2,0,.2-.2,0-.3-.2-.4-.2ZM37.8,31.9c0-.1,0-.3,0-.4s0-.3,0-.5,0-.3,0-.5c0,0-.2,0-.3,0s-.3.2-.4.3-.3.3-.4.4-.2.3-.2.4l.2.2.4.3c.1.1.2.2.4.2s.2,0,.2,0c.2,0,.3-.2.3-.3ZM38.3,42.6c.1-.1.3-.2.4-.4s.1-.2,0-.4-.3-.2-.7-.2-.6,0-.6,0,0,.1,0,.2l.3.3c.1.1.2.3.2.5l.2-.2ZM39.8,26.4c0,0,.2,0,.2,0s.2,0,.2-.1h0c0-.2,0-.5,0-.8s.2-.7.4-1.1c-.2,0-.4,0-.5.2s-.2.3-.3.5-.2.4-.3.6-.2.4-.4.6h0c0,0,.1.2.1.2,0,0,0,0,.1,0h0s.1,0,.1,0ZM39.8,14.1h.2c0,0,.1-.1.2-.2s.3-.1.5-.2h0c0,0,.2.2.2.2,0,0,.1.1.2.2s.2.1.2.1.1,0,.2,0,0,0,0,0,0-.1-.2-.2l-.4-.6c-.2,0-.4,0-.6,0s-.5-.1-.8-.3v1.1c0,0,.2,0,.2,0Z"/>
</svg>