<?xml version="1.0" encoding="UTF-8"?>
<svg id="DECEMBER_10_x2C__2024_xA0_Image" xmlns="http://www.w3.org/2000/svg" xmlns:xlink="http://www.w3.org/1999/xlink" version="1.1" viewBox="0 0 50 50">
  <!-- Generator: Adobe Illustrator 29.1.0, SVG Export Plug-In . SVG Version: 2.1.0 Build 142)  -->
  <defs>
    <style>
      .st0 {
        fill: url(#linear-gradient1);
      }

      .st1 {
        fill: url(#linear-gradient);
      }
    </style>
    <linearGradient id="linear-gradient" x1="16.8" y1="2" x2="8.7" y2="-44.6" gradientTransform="translate(0 4.4) scale(1 -1)" gradientUnits="userSpaceOnUse">
      <stop offset="0" stop-color="#ffdb73"/>
      <stop offset=".4" stop-color="#f6f6d7"/>
      <stop offset=".5" stop-color="#fdde7d"/>
      <stop offset=".7" stop-color="#f5e69e"/>
      <stop offset=".9" stop-color="#ffdb73"/>
    </linearGradient>
    <linearGradient id="linear-gradient1" x1="40.1" y1="2.2" x2="32" y2="-43.6" gradientTransform="translate(0 4.4) scale(1 -1)" gradientUnits="userSpaceOnUse">
      <stop offset="0" stop-color="#ffdb73"/>
      <stop offset=".4" stop-color="#f6f6d7"/>
      <stop offset=".5" stop-color="#fdde7d"/>
      <stop offset=".7" stop-color="#f5e69e"/>
      <stop offset=".9" stop-color="#ffdb73"/>
    </linearGradient>
  </defs>
  <path class="st1" d="M4.7,48h-1.2c-.4-.5-.7-1-1-1.4s-.6-.8-.8-1.2c0-.2.2-.5.4-.8s.3-.5.4-.7,0-.3,0-.4-.2-.2-.4-.2v-1.9c0-.2-.2-.3-.3-.4s0-.2,0-.3v-.4c.5-.5.9-1,1.1-1.4.2-.4.3-.8.3-1.1.4-.2.8-.5,1.1-.7s.7-.4,1.1-.7c.4-.3.7-.4,1-.6s.6-.3.8-.5v-1.5c.2-.3.5-.6.9-.8s.6-.4.9-.6.5-.4.7-.6.3-.5.3-.8l1.7-2.2v-1.4c.2-.2.4-.5.6-.7s.3-.4.3-.6,0-.4,0-.6v-.7c0-.2,0-.3.2-.5s.2-.4.4-.5.3-.3.4-.4.2-.2.2-.3v-.8c0-.2,0-.5.2-.7s.2-.4.3-.6.3-.3.4-.3h1.7c.2-.2.3-.4.5-.6s.3-.4.4-.5,0-.3,0-.4,0-.2-.3-.4c0-.2.2-.3.2-.4v-.6c-.2-.2-.3-.3-.4-.5l-.2-.2c-.3,0-.5.3-.6.4s-.2.3-.2.5v.8c-.3.4-.6.6-.8.8s-.4.2-.6,0c-.2-.2-.3-.4-.5-.6l-.2-.2c0-.2,0-.5.2-.7s0-.4,0-.5,0-.3,0-.5v-.5c-.2-.3-.3-.7-.3-1v-.8c.2-.2.3-.3.3-.5v-.7c0,0,0-.2.3-.3l-3.4-3.2c-.2.2-.3.5-.4.8s-.2.5-.4.8-.3.5-.4.7-.3.4-.6.6c0,.2,0,.3.2.5.2.2.2.4.3.5s.2.3.4.4.2.2.2.3c-.2.4-.3.7-.3.9v1.2c0,.2,0,.4-.2.6s0,.4-.2.5,0,.3,0,.4c-.2.4-.5.7-.8.8s-.5.3-.7.5-.4.2-.6.4-.3.3-.4.5l-4.4-.4c-.2-.2-.4-.3-.5-.5s-.2-.4-.2-.5,0-.3,0-.4,0-.2-.2-.3v-1.1l.2-.7v-1c0-.2,0-.3-.2-.5v-1.1l1.3-2.2c-.2,0-.3-.3-.5-.4s-.3-.3-.4-.5-.2-.3-.2-.4,0-.2,0-.3c.2-.2.3-.3.5-.5s.3-.4.5-.5v-1.8c.2,0,.3,0,.5,0s.3-.2.4-.3.2-.2.3-.3.2-.2.3-.3c0,0,0-.2,0-.4s.2-.3.4-.4.3-.2.5-.3.2,0,.2,0c.3.4.6.6.8.8s.4,0,.6,0c0,0-.2,0,0-.2s.2-.2.3-.4.2-.3.3-.4l.2-.2c-.2-.4-.4-.6-.6-.7s-.2,0-.2-.2,0,0,0,0v-.5l.4-.4.2-.2h.4c.2,0,.3,0,.4,0h.7c0,0,.2,0,.2-.3h2c.2-.2.4-.3.5-.4s.2-.2.2-.2h.4c.2,0,.4-.2.5,0,0,0,.2,0,.4,0h.3c0,0,.2,0,.2-.3.3.4.6.7.8.8s.3.4.3.6h-1.3l-.4.4-.2.2-.2.2-.2.2c0,.4,0,.7.2,1s.3.5.5.8c.5-.4.9-.8,1.2-1.2s.7-.7,1-1,.7-.5,1-.6.7,0,1,0c.3.2.6.3.8.5s.5.3.7.4.4.2.5.3.2.2.2.3v1.3c.3.2.5.4.7.5s.4.2.5.2l.4.2c0,0,.3,0,.5.2v1.1c.2.2.3.3.5.5s.3.3.5.4l.3.3h0v1.8s-.2,0-.4.2-.3.3-.5.4-.2.3-.3.5,0,.3,0,.4l1.7,2.1v4.7l-.4.4-.2.2v2.5c-.2.3-.4.6-.6.8s-.3.4-.4.6,0,.4,0,.6,0,.4.3.6c-.2.4-.4.7-.6.9s-.4.5-.6.7-.3.5-.3.7v.9l-1.9,1.5h-2c-.2,0-.4,0-.6.3s-.4.3-.6.5-.3.3-.3.5v.4c.2,0,.3,0,.5.2s.4.2.5.4.3.2.4.3.2.2.2.2v1.4l-2,3.6c.2,0,.4.2.5.2h.2v-.7c.2.2.3.3.5.3h.5c.2,0,.3,0,.4-.2s.2,0,.3,0c.3,0,.5.2.7.2s.4,0,.5,0h.9c.2,0,.4-.2.5-.2s.2,0,.2,0h.4c.2,0,.3.2.4.2s.2,0,.2,0h.4c.2,0,.3,0,.5.2s.4.2.5.3.3.2.4.3.3.2.3.2l.3,6.5c-.2.2-.3.3-.3.4v.7c0,0,0,.2-.3.2,0,.2,0,.5,0,.7s-.2.3-.2.5-.2.2-.2.2h-2.9c0-.2-.2-.3-.3-.5s-.2-.3-.2-.4l-.2-.3c0,0-.2-.2-.3-.3h-1.3v1.2c0,0,0,.2-.3.3,0-.2-.2-.3-.2-.5v-.5c0-.2,0-.3,0-.3s-.2,0-.5,0l-2,1.8c-.2-.2-.5-.4-.7-.5s-.4-.2-.7-.2h-1.2c-.2.2-.3.3-.5.3h-.7c0,0-.2,0-.2.3-.2,0-.5,0-.8-.3s-.6-.4-.9-.6-.6-.4-.8-.6-.5-.3-.6-.3l-1.8,1.8c-.2-.2-.3-.3-.5-.4l.4.5ZM3.8,17.5h.7c0-.2.2-.4.2-.6s0-.4-.2-.8v-.8c-.2.2-.4.3-.5.5s-.2.3-.2.5v1.2h0,0ZM4.7,41.6h.4l.5-.2c0-.2-.2-.3-.4-.3h-.3c0,0-.2.2-.2.3v.3h.2-.2ZM8.1,13.3c.2,0,.3-.3.5-.5-.2-.2-.3-.4-.5-.6l-.5-.5-.2.2c0,0-.2.2-.4.3s-.3.2-.4.2h-.2c0,0,.2.2.3.3s.2,0,.3.2.2,0,.3.2,0,.2,0,.4c.2,0,.3,0,.5-.2h.2ZM10.8,44.2c.2,0,.5-.4.8-.7,0-.2-.2-.3-.3-.3h-.3c0,0-.2.2-.4.3s-.3.2-.5.3h0v.5h0c.2,0,.4,0,.6,0h0ZM11.4,7.2h.6v-1.2q0,0,0-.2c0,0,0-.2-.2-.4h-.6l-.5.2c0,0,.2.2.3.2s0,0,.2.2,0,.2.2.3l.4.4h0v.2h-.2v.2h0-.2ZM20.1,17.7c0,0,.2-.2.4-.3s.3-.2.4-.3.2,0,.2,0h-.7c-.2,0-.3,0-.4.2s0,.3,0,.6l.2-.2h0Z"/>
  <path class="st0" d="M32.3,47.9c0,0-.2-.2-.3-.4s-.2-.3-.3-.4l-.2-.2c.2-.4.4-.6.6-.7s.4,0,.6-.2.3,0,.4,0,.2-.2.2-.5c.2-.2.3-.4.5-.5l.2-.2c-.4,0-.7,0-1.1,0s-.6,0-.9,0h-.8c-.2,0-.5,0-.8.3,0,0,0,0,0,.3s0,.4-.2.5-.2.3-.3.3-.2,0-.3-.3c0-.2.2-.4.2-.5s0-.2.2-.3,0,0,0-.2-.2,0-.3-.2c0-.2,0-.3,0-.5s0-.3,0-.5,0-.2,0-.3-.2,0-.5,0c-.3.5-.7.9-1.1,1s-.8,0-1.1-.3c0-.5,0-.9-.2-1.3s-.3-.8-.5-1.1v-1.8c-.4-.3-.7-.6-.9-.8s-.4-.3-.6-.3c0-.9,0-1.7-.2-2.5s-.3-1.4-.4-2.2v-7.9l1.3-1.4c0-.2-.2-.4-.4-.6s-.2-.4-.4-.5-.2-.3-.4-.4l-.3-.3v-2.8c0-.2,0-.5.2-.8s.2-.5.3-.7,0-.3,0-.5-.2-.2-.6-.2c.2-.5.3-.9.3-1.2s0-.7,0-1.1v-1c0-.3,0-.7,0-1v-2.5c.3-.3.5-.7.7-1s.3-.6.3-.9,0-.6,0-.8v-.8l2.5-3.6h1.7c.2,0,.3-.2.4-.2s.2,0,.2,0h.4c.3-.2.5-.4.7-.6s.4-.4.5-.5.3-.3.4-.3h.5c.2.2.4.4.6.5s.3,0,.5.2.3,0,.4,0,.3,0,.3.3c.4,0,.6-.2.7-.3s0-.3,0-.5v-.5c0,0,0-.3.2-.4h2.1c.2,0,.3.2.4.2s.2,0,.3,0c0,0,0,0,.2,0h.2l1.8,1.8c0,.3,0,.5.2.5s.2,0,.3-.2.2-.3.4-.4l.2-.2,3.1,2.5c-.2.3-.3.7-.3,1v.9h.5c.2,0,.3,0,.4.2s.2.2.3.3.2.2.3.4.3.3.3.5,0,.3.2.5c0,.2,0,.3.2.4s.2.2.3.3c-.2.4-.3.7-.3.9v.5c.4.4.6.7.8.9s.2.4.2.6v1.1c-.2.3-.3.5-.4.7s-.2.4-.2.5l-.2.4c0,0,0,.3-.2.5.2.2.4.3.5.4s.2.2.2.3l.2.2.2.2c.4,0,.6,0,.6.2s0,.2-.2.4-.3.3-.4.4l-.2.2c.4,0,.6,0,.6.2s0,.2-.2.4-.3.3-.5.4l-.2.2c0,.3,0,.6,0,.8s.2.5.3.7.2.4.3.5.2.2.3.2l-.4,7.9c0,.5,0,1.1-.2,1.6s-.4.9-.8,1.3c0,.2.2.3.2.4s0,.2.2.2,0,0,0,.2-.2,0-.4.2c0,.2,0,.3,0,.5s.2.3.3.4.2.2.3.3l.3.3c-.3.3-.6.5-.8.7s-.4,0-.6,0v.2c0,.2-.2.2-.3.4s-.2.3-.3.4l-.2.2c0,.2,0,.4.2.4s0,.2,0,.2v.4c.2,0,.3,0,.5.2s.3.2.5.4.3.3.3.5,0,.3,0,.4c-.2.2-.4.4-.5.6s-.2.4-.2.6,0,.3-.2.4-.2,0-.5,0c-.2.2-.3.4-.5.6s-.3.3-.4.5-.2.3-.2.4v.3l-2.5,2.9v1.4h-2.4c-.3,0-.5,0-.6,0h-1.4c-.2,0-.3,0-.5,0h-.7c0,0-.2,0-.2-.3-.2,0-.4.2-.6.4s-.3.4-.5.5-.3.2-.4.3-.2,0-.3-.2h-1.7c-.2,0-.3.2-.4.2s-.2,0-.3,0h-.4v-.2l.3-.2ZM30.8,38.8h.2c0,0,.2,0,.2-.2l.4-.4c0-.4.2-.6,0-.6h-.3c0,0-.4.2-.6.3s-.4.2-.6.2h0v.5h0c0,0,.2,0,.2,0h.5ZM38.7,41.7h.6l.2-.2c.2,0,.3-.3.5-.5v-.7c0,0-.2-.2-.3-.4s-.4-.4-.7-.6c0-.3,0-.5,0-.7s.4-.4.6-.6.5-.4.7-.6.3-.4.3-.7l-.2-.2-.5-.5c-.2,0-.3.2-.4.4s-.2.3-.2.4v1.1s0,.2,0,.4-.2.3-.3.5-.3.3-.4.4-.3.2-.5.2c-.4,0-.6,0-.6-.2v-.5c0-.2,0-.4.2-.7s0-.5,0-.8,0-.3.3-.5.4-.5.8-.9v-1.1c0-.2,0-.4-.2-.7s-.2-.5-.4-.8l.7-5-.2-.2c0,0-.2-.2-.3-.4s-.2-.3-.2-.4v-.2c0-.2,0-.3.2-.4s.3-.2.4-.3.4,0,.6-.2.4,0,.6,0v-.6c0-.2-.3-.4-.5-.6s-.4-.4-.7-.7-.5-.5-.6-.7c-.2,0-.3-.2-.2-.4s.2-.3.3-.4.3-.3.4-.5.2-.3.2-.5v-2.5c-.2-.2-.3-.3-.3-.5s0-.4-.2-.6l-.2-.7c0-.2-.2-.5-.3-.7.2-.2.3-.4.3-.6v-1.7c0-.3,0-.6,0-.9,0,0,0-.2-.2-.4s-.3-.4-.5-.5-.4-.3-.6-.5-.4-.3-.6-.3h-1.1c-.2,0-.4,0-.7.2s-.5.2-.8.4c-.2,0-.2.2-.2.3s.2.3.3.4l.4.5c0,.2.2.3.2.5-.2.2-.3.3-.3.5v2c-.3.2-.5.4-.6.6s0,.4-.2.6,0,.4-.2.6-.3.5-.6.8h-.6c0,0-.3,0-.5.2,0,.2,0,.4.2.5s.3,0,.4,0h.6c.2,0,.4,0,.6,0,.3,0,.5.2.5.4v1.7c0,.3,0,.7.2,1.1,0,.2-.2.4-.2.6v.6c0,.2,0,.4.2.6s.3.3.5.4v1.4h-.2c0,.2-.2.3-.3.5s-.3.3-.4.5-.3.4-.5.6h-1.1l.2.2c0,0,.3.3.4.4.3.2.5.4.7.6s.3.4.4.7.2.5.3.8.3.5.5.8c-.2.3-.3.6-.3.8v3.3c0,.2-.2.5-.4.8,0,.2.3.4.4.5s.4.2.6.3.5.2.7.2h1c.2.2.3.3.5.4s.3.3.4.5,0,.3,0,.5c.2,0,.4,0,.5,0s0,.2,0,.3v.5c0,.2,0,.3,0,.5h0c0,0,.2.4.2.4l.2.2h0c0,0,0,0,0,0v.4ZM42,23.3v-.8c-.2,0-.3.2-.3.3v.3c0,0,0,.2.2.4s0,.3,0,.5v-.6h0Z"/>
</svg>