<?xml version="1.0" encoding="UTF-8"?>
<svg id="DECEMBER_10_x2C__2024_xA0_Image" xmlns="http://www.w3.org/2000/svg" xmlns:xlink="http://www.w3.org/1999/xlink" version="1.1" viewBox="0 0 50 50">
  <!-- Generator: Adobe Illustrator 29.1.0, SVG Export Plug-In . SVG Version: 2.1.0 Build 142)  -->
  <defs>
    <style>
      .st0 {
        fill: url(#linear-gradient1);
      }

      .st1 {
        fill: url(#linear-gradient);
      }
    </style>
    <linearGradient id="linear-gradient" x1="18.6" y1="1081" x2="10.4" y2="1127.9" gradientTransform="translate(0 -1078.8)" gradientUnits="userSpaceOnUse">
      <stop offset="0" stop-color="#ffdb73"/>
      <stop offset=".4" stop-color="#f6f6d7"/>
      <stop offset=".5" stop-color="#fdde7d"/>
      <stop offset=".7" stop-color="#f5e69e"/>
      <stop offset=".9" stop-color="#ffdb73"/>
    </linearGradient>
    <linearGradient id="linear-gradient1" x1="40.9" y1="1080.1" x2="32.9" y2="1125.4" gradientTransform="translate(0 -1078.8)" gradientUnits="userSpaceOnUse">
      <stop offset="0" stop-color="#ffdb73"/>
      <stop offset=".4" stop-color="#f6f6d7"/>
      <stop offset=".5" stop-color="#fdde7d"/>
      <stop offset=".7" stop-color="#f5e69e"/>
      <stop offset=".9" stop-color="#ffdb73"/>
    </linearGradient>
  </defs>
  <path class="st1" d="M6.2,48h-1.2c-.4-.5-.7-1-1-1.4s-.6-.8-.8-1.2c0-.2.2-.5.4-.8s.3-.5.4-.7.1-.3,0-.4-.2-.2-.4-.2v-1.9c0-.2-.2-.3-.3-.4s-.1-.2-.1-.3v-.4c.5-.5.9-1,1.1-1.4.2-.4.3-.8.3-1.1.4-.2.8-.5,1.1-.7s.7-.4,1.1-.7c.4-.3.7-.4,1-.6s.6-.3.8-.5v-1.5c.2-.3.5-.6.9-.8s.6-.4.9-.6.5-.4.7-.6.3-.5.3-.8l1.8-2.2v-1.4c.2-.2.4-.5.6-.7s.3-.4.3-.6.1-.4.1-.6v-.7c0-.2,0-.3.2-.5s.2-.4.4-.5.3-.3.4-.4.2-.2.2-.3v-.8c0-.2.1-.5.2-.7s.2-.4.3-.6.3-.3.4-.3h1.8c.2-.2.3-.4.5-.6s.3-.4.4-.5.1-.3.1-.4-.1-.2-.3-.4c.1-.2.2-.3.2-.4v-.6c-.2-.2-.3-.3-.4-.5l-.2-.2c-.3.1-.5.3-.6.4s-.2.3-.2.5v.8c-.3.4-.6.6-.8.8s-.4.2-.6,0c-.2-.2-.3-.4-.5-.6l-.2-.2c0-.2.1-.5.2-.7s0-.4.1-.5,0-.3,0-.5v-.5c-.2-.3-.3-.7-.3-1v-.8c.2-.2.3-.3.3-.5v-.7c0-.1.1-.2.3-.3l-3.5-3.2c-.2.2-.3.5-.4.8s-.2.5-.4.8-.3.5-.4.7-.3.4-.6.6c0,.2,0,.3.2.5.2.2.2.4.3.5s.2.3.4.4.2.2.2.3c-.2.4-.3.7-.3.9v1.2c0,.2,0,.4-.2.6s-.1.4-.2.5,0,.3,0,.4c-.2.4-.5.7-.8.8s-.5.3-.7.5-.4.2-.6.4-.3.3-.4.5l-4.6-.4c-.2-.2-.4-.3-.5-.5s-.2-.4-.2-.5v-.4c0-.1-.2-.2-.3-.3v-1.1l.2-.7v-1c0-.2-.1-.3-.2-.5v-1.1l1.4-2.2c-.2-.1-.3-.3-.5-.4s-.3-.3-.4-.5-.2-.3-.2-.4v-.3c.2-.2.3-.3.5-.5s.3-.4.5-.5v-1.8h.5c.2,0,.3-.2.4-.3s.2-.2.3-.3.2-.2.3-.3v-.4c0-.2.2-.3.4-.4s.3-.2.5-.3.2,0,.2,0c.3.4.6.6.8.8s.4,0,.6,0c0,0-.2,0,0-.2s.2-.2.3-.4.2-.3.3-.4l.2-.2c-.2-.4-.4-.6-.6-.7s-.2,0-.2-.2,0,0,0,0v-.5l.4-.4.2-.2h.4c.2,0,.3-.1.4,0h.7c0,0,.2-.1.2-.3h2.1c.2-.2.4-.3.5-.4s.2-.2.2-.2h.4c.2,0,.4-.2.5,0h.7c.1,0,.2,0,.2-.3.3.4.6.7.8.8s.3.4.3.6h-1.4l-.4.4-.2.2-.2.2-.2.2c0,.4,0,.7.2,1s.3.5.5.8c.5-.4.9-.8,1.2-1.2s.7-.7,1-1,.7-.5,1-.6.7-.1,1,0c.3.2.6.3.8.5s.5.3.7.4.4.2.5.3.2.2.2.3v1.3c.3.2.5.4.7.5s.4.2.5.2l.4.2c.1,0,.3,0,.5.2v1.1c.2.2.3.3.5.5s.3.3.5.4l.3.3h.1v1.8s-.2,0-.4.2-.3.3-.5.4-.2.3-.3.5,0,.3,0,.4l1.8,2.1v4.7l-.4.4-.2.2v2.5c-.2.3-.4.6-.6.8s-.3.4-.4.6-.1.4,0,.6.1.4.3.6c-.2.4-.4.7-.6.9s-.4.5-.6.7-.3.5-.3.7v.9l-2,1.5h-2.1c-.2,0-.4.1-.6.3s-.4.3-.6.5-.3.3-.3.5v.4c.2,0,.3,0,.5.2s.4.2.5.4.3.2.4.3.2.2.2.2v1.4l-2.1,3.6c.2,0,.4.2.5.2h.2v-.7c.2.2.3.3.5.3h.5c.2,0,.3,0,.4-.2s.2,0,.3,0c.3,0,.5.2.7.2h1.4c.2,0,.4-.2.5-.2h.6c.2,0,.3.2.4.2h.6c.2,0,.3,0,.5.2s.4.2.5.3.3.2.4.3.3.2.3.2l.3,6.5c-.2.2-.3.3-.3.4v.7s-.1.2-.3.2c0,.2,0,.5-.1.7s-.2.3-.2.5-.2.2-.2.2h-3c-.1-.2-.2-.3-.3-.5s-.2-.3-.2-.4l-.2-.3-.3-.3h-1.4v1.2s-.1.2-.3.3c-.1-.2-.2-.3-.2-.5v-.5c0-.2,0-.3-.1-.3h-.5l-2.1,1.8c-.2-.2-.5-.4-.7-.5s-.4-.2-.7-.2h-1.2c-.2.2-.3.3-.5.3h-.7c-.1,0-.2,0-.2.3-.2,0-.5,0-.8-.3s-.6-.4-.9-.6-.6-.4-.8-.6-.5-.3-.6-.3l-1.9,1.8c-.2-.2-.3-.3-.5-.4l.4.5v-.2ZM5.3,17.4h.7c0-.2.2-.4.2-.6s0-.4-.2-.8v-.8c-.2.2-.4.3-.5.5s-.2.3-.2.5v1.2h0ZM6.2,41.6h.4l.5-.2c0-.2-.2-.3-.4-.3h-.3s-.2.2-.2.3v.3h.2-.2ZM9.7,13.2c.2-.1.3-.3.5-.5-.2-.2-.3-.4-.5-.6l-.5-.5-.2.2c0,.1-.2.2-.4.3s-.3.2-.4.2h-.2c0,.1.2.2.3.3s.2.1.3.2.2.1.3.2,0,.2,0,.4c.2,0,.3,0,.5-.2h.3ZM12.6,44.2c.2,0,.5-.4.8-.7,0-.2-.2-.3-.3-.3h-.3c-.1,0-.2.2-.4.3s-.3.2-.5.3h0v.5h.7ZM13.2,7.1h.6v-1.2s0,0-.1-.2c-.1,0-.1-.2-.2-.4h-.6l-.5.2c.1,0,.2.2.3.2s.1,0,.2.2q0,.2.2.3l.4.4h0v.2h-.2v.2h.1-.2ZM22.2,17.6c.1-.1.2-.2.4-.3s.3-.2.4-.3.2,0,.2,0h-.7c-.2,0-.3,0-.4.2s0,.3,0,.6l.2-.2s-.1,0-.1,0Z"/>
  <path class="st0" d="M40.8,47.9h-.6s0-.3-.2-.5-.2-.4-.4-.5-.2-.2-.4,0-.2.3-.2.7h-1.8c-.2-.2-.5-.3-.7-.4s-.4-.2-.7-.3l-.6-.3c-.2,0-.4-.2-.6-.4,0-.4.1-.7.1-1v-1.8c0-.3.1-.6.3-.8-.2-.2-.3-.4-.4-.6s-.2-.4-.2-.6v-1c0-.2,0-.4.1-.5s.2-.3.3-.4.2-.2.3-.3.2-.2.3-.2c-.2-.2-.4-.4-.5-.6s-.1-.3-.2-.5,0-.3,0-.4-.1-.3-.3-.3c.2-.3.3-.6.4-.8s.2-.5.2-.8v-1.3c.1-.2.2-.4.2-.5v-.6c-.4-.4-.6-.7-.8-.9s-.2-.4-.2-.5l-.4-4.4c.2-.3.3-.6.3-.8s.1-.5.2-.8.1-.5.2-.7.2-.4.4-.7c0-.2-.1-.3,0-.5s0-.3,0-.5,0-.3.1-.4,0-.2-.1-.3v-3.6c0-.2-.2-.3-.2-.4s-.1-.2-.2-.2,0-.1,0-.2.2-.1.3-.2c0-.2-.2-.4-.2-.6s-.1-.3-.1-.5v-.7c-.2-.2-.3-.4-.4-.5l-.2-.2s-.1-.1-.2-.2-.2-.1-.3-.2c0,.2-.2.4-.3.5s-.3.2-.4.4-.2.2-.2.3.1.2.3.2c-.3.2-.4.4-.5.6s0,.4,0,.6v.5c0,.2-.3.2-.6.2h-.8c-.3,0-.5.1-.7.2s-.4.1-.6.1-.4,0-.5-.2l-.5-.5c-.2-.2-.3-.3-.4-.5s-.3-.4-.4-.6-.3-.4-.5-.5c0-.3,0-.5-.1-.7s-.2-.3-.2-.4-.2-.2-.2-.2h-.1v-1.5l2.9-2.9c-.3,0-.5,0-.5-.2s0-.2.2-.3.3-.2.4-.3l.2-.2h1.9l.2-.5v-.6l-.2-.5v-.6c.3-.5.7-.9,1.1-1.5s.7-1,1.1-1.5.7-.8,1.1-1.2.8-.5,1.1-.6c0,.2.2.3.4.5s.3.4.5.5.3.3.5.3h.4v-.2c0-.2.2-.2.3-.4s.2-.3.3-.4l.2-.2c.3,0,.6,0,.9.2s.6.3.8.5l2.6-1.9c.2,0,.4,0,.6.2s.4.3.6.5.3.4.4.5l.2.2v1.8l-1.4,2.2c0,.3.2.5.3.7s.2.3.3.4.2.2.3.2h0c0,.6,0,1.1-.2,1.6s0,1,0,1.4,0,.9.2,1.4.2.9.2,1.4-.2.3-.3.5l-.4.5c0,.2-.2.3-.4.4l-.3.3v.7c0,.2-.2.4-.3.5s0,.3,0,.4,0,.3.4.5c-.2.2-.3.4-.5.6l-.3.2v.8c.2.2.4.3.7.3s.4.1.7.2.4.1.5.2.3.2.3.4v2.4c0,.2-.2.4-.5.4l.7,7.9-1.4,2.2v.2q0,.2.2.4t.3.4l.2.2c0,.3,0,.7-.2,1s-.3.6-.5.8c.2.2.3.4.5.6s.4.3.6.5v2.7c0,.2,0,.6-.3.8-.2,0-.3,0-.5-.2s-.4,0-.5,0h-.4s-.2,0-.3-.2l-.5.5-.2.2v.4c.2.2.3.4.4.5l.2.2.2.2.2.2c.4.2.7.3.9.3h.6s-.2,0,0,.2.2.2.3.4.2.2.3.4l.2.2c-.2.2-.4.5-.5.7s0,.4-.2.7,0,.4-.2.6-.2.3-.5.5c-.2-.2-.4-.2-.6,0s-.4.2-.5.3-.3.3-.4.3h-.3v.2h-.2v.2c-.2,0-.3-.2-.4-.2l-.4.5-.2-.4ZM39.1,31.8v-1.4h-.3s-.3.2-.4.3-.3.3-.4.4-.2.3-.2.4l.2.2.4.3c0,.1.2.2.4.2h.2c.2,0,.3-.2.3-.3h-.2ZM39.6,42.5s.3-.2.4-.4,0-.2,0-.4-.3-.2-.7-.2h-.6v.2l.3.3s.2.3.2.5l.2-.2s.2.2.2.2ZM41,26.3h.2s.2,0,.2-.1h0v-.8c0-.3.2-.7.4-1.1-.2,0-.4,0-.5.2s-.2.3-.3.5-.2.4-.3.6-.2.4-.4.6h0v.2h.7,0ZM41.1,14h.2s0-.1.2-.2.3-.1.5-.2h0l.2.2s0,.1.2.2.2.1.2.1h.2c0,0,0,0,0,0,0,0,0-.1-.2-.2l-.4-.6h-.6c-.2,0-.5-.1-.8-.3v1.1h.3,0Z"/>
</svg>