<?xml version="1.0" encoding="UTF-8"?>
<svg id="DECEMBER_10_x2C__2024_xA0_Image" xmlns="http://www.w3.org/2000/svg" xmlns:xlink="http://www.w3.org/1999/xlink" version="1.1" viewBox="0 0 48.5 47">
  <!-- Generator: Adobe Illustrator 29.0.1, SVG Export Plug-In . SVG Version: 2.1.0 Build 192)  -->
  <defs>
    <style>
      .st0 {
        fill: url(#New_Gradient_Swatch_11);
      }

      .st1 {
        fill: url(#New_Gradient_Swatch_1);
      }
    </style>
    <linearGradient id="New_Gradient_Swatch_1" data-name="New Gradient Swatch 1" x1="12.73" y1=".26" x2="10.26" y2="47.35" gradientUnits="userSpaceOnUse">
      <stop offset="0" stop-color="#ffdb73"/>
      <stop offset=".37" stop-color="#f6f6d7"/>
      <stop offset=".52" stop-color="#fdde7d"/>
      <stop offset=".74" stop-color="#f5e69e"/>
      <stop offset=".89" stop-color="#ffdb73"/>
    </linearGradient>
    <linearGradient id="New_Gradient_Swatch_11" data-name="New Gradient Swatch 1" x1="37.91" y1="-.02" x2="35.45" y2="46.96" xlink:href="#New_Gradient_Swatch_1"/>
  </defs>
  <path class="st1" d="M3.06,46.59c-.17-.06-.33-.08-.5-.06s-.31.04-.44.06-.23.03-.31.03c-.38-.54-.72-1-1.03-1.38s-.57-.77-.78-1.19c.08-.25.21-.5.38-.75s.29-.47.38-.66.11-.33.09-.44-.16-.16-.41-.16v-1.88c-.12-.17-.22-.3-.28-.41s-.1-.2-.12-.28-.03-.15-.03-.19v-.19c.54-.54.92-1.01,1.12-1.41s.31-.76.31-1.09c.38-.25.75-.49,1.12-.72s.74-.45,1.09-.66.69-.4,1-.56.57-.33.78-.5v-1.5c.25-.33.54-.6.88-.81s.64-.41.91-.59.5-.39.69-.59.28-.48.28-.81l1.81-2.19v-1.38c.25-.25.45-.47.59-.66s.26-.38.34-.56.12-.38.12-.56v-.72c0-.17.05-.34.16-.53s.23-.36.38-.53.27-.31.38-.44.16-.23.16-.31c0-.29.02-.56.06-.81s.11-.49.22-.72.22-.43.34-.59.27-.27.44-.31h1.81c.17-.21.33-.41.5-.59s.3-.35.41-.5.15-.28.12-.41-.14-.25-.34-.38c.12-.17.21-.29.25-.38s.07-.16.09-.22.03-.14.03-.22v-.25c-.17-.17-.31-.32-.44-.47l-.19-.22c-.29.12-.49.26-.59.41s-.18.31-.22.5-.05.35-.03.5.03.26.03.34c-.33.38-.6.64-.81.78s-.42.16-.62.03c-.17-.21-.32-.4-.47-.56l-.22-.25c.08-.25.15-.47.19-.66s.08-.36.12-.53.06-.32.06-.47v-.47c-.21-.33-.32-.67-.34-1s-.03-.58-.03-.75c.17-.17.27-.32.31-.47s.06-.27.06-.38.01-.21.03-.31.11-.2.28-.28l-3.5-3.19c-.17.25-.31.51-.44.78s-.25.53-.38.78-.26.48-.41.69-.34.4-.59.56c0,.17.05.34.16.53s.22.36.34.53.25.31.38.44.19.23.19.31c-.17.38-.26.67-.28.88s-.03.4-.03.56-.02.36-.06.59-.09.44-.16.62-.11.36-.16.53-.06.29-.06.38c-.25.38-.5.66-.75.84s-.49.34-.72.47-.43.25-.59.38-.31.29-.44.5l-4.62-.38c-.25-.17-.43-.34-.53-.53s-.18-.36-.22-.53-.08-.31-.12-.44-.1-.23-.19-.31v-1.06l.22-.66c.06-.19.09-.36.09-.53s-.03-.32-.09-.47-.14-.3-.22-.47v-1.12l1.44-2.19c-.17-.12-.33-.27-.5-.44s-.3-.33-.41-.5-.18-.31-.22-.44,0-.23.12-.31c.17-.17.33-.34.5-.53s.33-.36.5-.53v-1.81c.17,0,.32-.04.47-.12s.27-.18.38-.28.21-.22.31-.34.22-.23.34-.31c-.12-.08-.14-.21-.03-.38s.24-.31.41-.44.32-.23.47-.31.22-.08.22,0c.33.38.6.65.81.81s.42.15.62-.06c-.12,0-.16-.05-.09-.16s.16-.23.28-.38.24-.27.34-.38l.16-.16c-.25-.38-.44-.6-.56-.69s-.2-.14-.22-.16-.01-.05.03-.09.06-.21.06-.5l.41-.41c.1-.1.19-.18.25-.22s.12-.06.19-.06h.22c.17-.08.31-.11.44-.09l.38.06c.12.02.23.02.31,0s.17-.14.25-.34h2.12c.21-.17.36-.3.47-.41s.19-.18.25-.22.11-.06.16-.06h.19c.21-.12.38-.17.5-.12s.25.07.38.09.23.01.31-.03.17-.15.25-.31c.33.38.59.66.78.84s.28.39.28.59h-1.44l-.41.41-.25.25-.19.19-.22.22c0,.38.07.71.22,1s.32.54.53.75c.46-.42.86-.82,1.22-1.22s.7-.73,1.03-1,.67-.46,1-.56.67-.11,1-.03c.29.17.56.32.81.47s.48.27.69.38.36.21.47.31.16.22.16.34v1.31c.29.21.53.36.72.47s.35.19.5.25l.44.19c.15.06.32.14.53.22v1.12c.17.17.33.32.5.47s.32.29.47.44l.34.34.12.12v1.69c-.08,0-.21.06-.38.19s-.32.27-.47.44-.25.33-.31.5-.05.29.03.38l1.81,2.12v4.69c-.17.17-.3.29-.41.38s-.18.16-.22.22-.06.14-.06.22v2.31c-.21.29-.4.55-.56.78s-.29.44-.38.62-.11.39-.09.59.11.4.28.56c-.17.38-.35.68-.56.91s-.4.46-.56.69-.28.46-.34.69-.07.53-.03.91l-2,1.5h-2.12c-.21.04-.42.15-.62.31s-.4.33-.56.5-.28.33-.34.5-.05.29.03.38c.17,0,.34.06.53.19s.36.25.53.38.31.24.44.34.21.16.25.16v1.44l-2.12,3.62c.21.08.36.16.47.22s.18.09.22.09.06-.05.06-.16v-.53c.17.17.33.26.5.28s.33.01.5-.03.31-.09.44-.16.23-.09.31-.09c.29.08.53.16.72.22s.36.1.53.12.32.03.47.03h.41c.21-.08.36-.16.47-.22s.19-.1.25-.12.11-.03.16-.03h.25c.17.08.3.16.41.22s.19.1.25.12.12.03.19.03h.22c.17,0,.34.05.53.16s.35.22.5.34.29.24.44.34.26.16.34.16l.31,6.5c-.17.17-.27.31-.31.44s-.06.25-.06.38-.01.23-.03.31-.11.17-.28.25c0,.25-.04.47-.12.66s-.17.34-.25.47-.17.21-.25.25l-.12.06h-2.88c-.12-.17-.24-.32-.34-.47s-.19-.27-.25-.38l-.19-.31c-.06-.1-.16-.2-.28-.28h-1.44c-.04.17-.05.32-.03.47s.04.27.06.38.02.21,0,.31-.11.2-.28.28c-.12-.17-.18-.33-.16-.5s.02-.32,0-.47-.06-.26-.12-.34-.24-.12-.53-.12l-2.12,1.81c-.25-.21-.49-.36-.72-.47s-.45-.18-.66-.22-.4-.06-.56-.06h-.56c-.17.17-.32.27-.47.31s-.27.06-.38.06-.2.01-.28.03-.17.14-.25.34c-.25,0-.53-.09-.84-.28s-.61-.4-.91-.62-.56-.44-.81-.62-.46-.28-.62-.28l-1.88,1.81c-.17-.21-.33-.34-.5-.41ZM2.25,15.94h.69c.12-.21.19-.41.19-.59s-.06-.45-.19-.78v-.75c-.21.17-.36.32-.47.47s-.18.3-.22.47-.07.34-.09.53-.03.41-.03.66h.12ZM3.09,40.19c.06,0,.12-.01.19-.03s.15-.05.25-.09l.47-.19c-.12-.21-.25-.32-.38-.34s-.24.01-.34.09-.19.18-.25.28-.09.2-.09.28h.16ZM6.62,11.78c.17-.15.33-.3.5-.47-.17-.21-.33-.4-.5-.56l-.5-.5-.16.16c-.1.1-.23.21-.38.31s-.27.19-.38.25-.16.03-.16-.09c.08.12.19.22.31.28s.24.12.34.19.2.15.28.25.12.24.12.41c.17,0,.33-.07.5-.22ZM9.53,42.78c.23-.15.51-.39.84-.72-.08-.21-.18-.32-.28-.34s-.21,0-.31.06-.23.16-.38.28-.3.23-.47.31v.62c.17,0,.36-.07.59-.22ZM10.12,5.62h.62v-.97c0-.06-.01-.12-.03-.19s-.06-.15-.12-.25-.14-.24-.22-.41h-.22c-.06,0-.12.01-.19.03s-.15.05-.25.09l-.47.19c.12.08.22.16.28.22s.12.14.19.22.15.18.25.28l.41.41-.06.06-.12.12-.12.12-.06.06h.12ZM19.09,16.16c.1-.1.23-.22.38-.34s.27-.22.38-.28.16-.05.16.03l-.22-.03c-.15-.02-.3-.02-.47,0s-.3.09-.41.22-.09.31.03.56l.16-.16Z"/>
  <path class="st0" d="M32.06,46.59c-.21-.15-.41-.3-.59-.47s-.33-.32-.44-.47l-.16-.22h-2.56c-.21,0-.38-.04-.5-.12s-.25-.19-.38-.31-.23-.24-.31-.34-.17-.2-.25-.28c-.12-.21-.28-.44-.47-.69s-.4-.48-.62-.69-.45-.36-.66-.47-.35-.11-.44-.03c-.38-.33-.65-.59-.81-.78s-.25-.39-.25-.59c.17-.21.29-.38.38-.5l.25-.38c.08-.12.16-.23.22-.31s.14-.17.22-.25c0-.29.04-.53.12-.72s.17-.36.25-.53.16-.32.22-.47.09-.3.09-.47c.38-.08.65-.23.81-.44s.29-.41.38-.59.17-.35.25-.5.23-.22.44-.22c0-.21.01-.42.03-.62s.05-.42.09-.62.08-.4.12-.56.06-.29.06-.38l.41-.41c.1-.1.2-.19.28-.25s.15-.09.19-.09h.19c.29.33.55.6.78.81s.45.39.66.53.4.27.56.38.33.24.5.41c.12.29.25.5.38.62s.26.22.41.28.28.14.41.22.23.21.31.38c.17-.17.34-.27.53-.31s.35-.06.5-.06.28-.01.41-.03.23-.11.31-.28c.21,0,.41.07.59.22s.35.28.5.41.29.21.44.25.26-.02.34-.19c.33-.33.6-.61.81-.84s.31-.45.31-.66v-1.75c.04-.17.08-.3.12-.41s.07-.19.09-.25.03-.12.03-.19v-.28c.21-.17.36-.35.47-.56s.18-.42.22-.62.07-.4.09-.56.03-.29.03-.38c-.21-.25-.32-.47-.34-.66s.01-.34.09-.47.18-.22.28-.28.22-.09.34-.09c.17.12.33.18.5.16s.32-.04.47-.06.28-.02.41,0,.25.14.38.34c.17,0,.32-.04.47-.12s.27-.19.38-.31.21-.24.31-.34.22-.2.34-.28c-.12-.29-.27-.49-.44-.59s-.35-.18-.56-.22-.42-.05-.62-.03-.4.03-.56.03c-.21-.17-.36-.3-.47-.41l-.25-.25-.19-.19c-.06-.06-.11-.14-.16-.22-.21-.17-.41-.26-.59-.28s-.39-.03-.59-.03c-.04-.25-.07-.48-.09-.69s-.03-.39-.03-.53-.01-.29-.03-.44-.05-.32-.09-.53c-.29,0-.55-.01-.78-.03s-.45-.06-.66-.12-.42-.1-.62-.12-.4-.03-.56-.03c-.33-.42-.6-.7-.81-.84s-.42-.14-.62.03c-.29,0-.52.07-.69.22s-.33.3-.5.47-.32.3-.47.41-.32.11-.53.03c-.25.29-.47.49-.66.59s-.35.2-.5.28-.29.15-.44.19-.3.15-.47.31c-.12-.12-.23-.22-.31-.28s-.18-.1-.28-.12-.21-.02-.31,0-.2.03-.28.03h-.25c-.08,0-.16-.02-.22-.06s-.1-.11-.12-.22-.03-.24-.03-.41v-1.75c-.21-.17-.36-.31-.47-.44s-.18-.22-.22-.28-.07-.11-.09-.16-.03-.1-.03-.19c.21-.29.41-.55.59-.78s.34-.45.47-.66.23-.41.31-.59.12-.36.12-.53c-.33-.33-.59-.61-.78-.84s-.28-.45-.28-.66l1.06-2.81c-.38-.29-.65-.56-.81-.81s-.29-.48-.38-.69-.16-.38-.22-.5-.2-.19-.41-.19c.17-.38.26-.66.28-.84s.03-.39.03-.59c.12-.25.2-.49.22-.72s.03-.45.03-.66v-.56c0-.17.06-.33.19-.5.17.08.31.1.44.06s.25-.07.38-.09.24-.02.34,0,.2.11.28.28c.08-.17.15-.3.19-.41s.07-.19.09-.25.03-.12.03-.19v-.22c-.17-.08-.3-.15-.41-.19s-.19-.07-.25-.09-.12-.03-.19-.03h-.22c-.08-.17-.15-.31-.19-.44l-.09-.28c-.02-.06-.03-.11-.03-.16v-.19c.04-.21.09-.36.16-.47s.09-.19.09-.25.01-.12.03-.19.03-.14.03-.22c-.17-.21-.32-.42-.47-.62s-.26-.42-.34-.62-.16-.4-.22-.56-.09-.29-.09-.38c.12-.17.29-.38.5-.62s.43-.49.66-.72.44-.43.62-.59.32-.25.41-.25c.21.08.36.18.47.28s.19.17.25.19.12,0,.19-.06.14-.2.22-.41c.29-.08.57-.1.84-.06l.81.12c.27.04.54.06.81.06s.53-.04.78-.12c.17.08.35.14.56.16s.41.05.59.09.33.09.44.16.16.2.16.41h1.06c.21-.21.4-.41.56-.59s.35-.36.56-.53c.38.08.77.11,1.19.09s.83-.03,1.25-.03.79.04,1.12.12.58.25.75.5c.21-.08.4-.11.56-.09l.5.06c.17.02.31.02.44,0s.25-.14.38-.34c.17.17.34.28.53.34s.38.1.56.12.38.02.56,0,.36-.03.53-.03h.47c.15,0,.28.02.41.06s.23.1.31.19.15.23.19.44c-.08.17-.14.34-.16.53s-.03.35-.03.5-.01.28-.03.41-.07.23-.16.31c.17.38.33.67.5.88s.25.42.25.62c-.08.17-.12.32-.12.47s.01.28.03.41.02.23,0,.31-.11.17-.28.25c.17.38.27.73.31,1.06s.06.6.06.81c-.38.33-.67.57-.88.72s-.4.22-.56.22c-.29.12-.57.18-.84.16s-.53-.04-.78-.06-.48-.01-.69.03-.42.15-.62.31h-2.5c-.29.08-.53.15-.72.19s-.35.07-.5.09l-.44.06c-.15.02-.32.03-.53.03-.17-.21-.31-.4-.44-.56l-.19-.25c-.29.12-.55.29-.78.5s-.43.44-.59.69-.29.5-.38.75-.12.48-.12.69c-.21.17-.36.33-.47.5s-.2.33-.28.5-.18.31-.28.44-.24.23-.41.31c.38.29.66.57.84.84s.35.53.5.78.27.48.38.69.26.42.47.62c.33.17.61.31.84.44s.41.19.53.19c.12-.17.21-.29.25-.38s.07-.16.09-.22.03-.12.03-.19v-.28c-.08-.17-.2-.32-.34-.47l-.38-.38c-.1-.1-.14-.2-.09-.28s.19-.17.44-.25h2.94c.25.17.54.34.88.53s.65.38.94.56.54.4.75.62.31.47.31.72c.21.12.4.2.56.22s.33.03.5.03.31.01.44.03.25.07.38.16c.17.29.29.56.38.81s.15.5.19.75.06.48.06.69v.56c.29.29.56.51.81.66s.48.29.69.44.38.3.5.47.19.38.19.62c-.08.21-.12.4-.12.56v.5c0,.17-.01.31-.03.44s-.07.25-.16.38l.31,2.81c-.17.21-.26.42-.28.62s0,.41.06.59.16.34.28.47.23.19.31.19c0,.33-.01.68-.03,1.03s-.06.68-.12.97-.17.54-.31.75-.36.35-.66.44c0,.29-.01.57-.03.84s-.05.54-.09.81l-.12.81c-.04.27-.06.53-.06.78,0,.21.07.4.22.56s.28.32.41.47.22.29.28.44.01.26-.16.34c-.29.38-.53.67-.72.88s-.34.39-.47.53-.21.3-.25.47-.06.4-.06.69l-2.88,3.88c-.17,0-.36.08-.59.25s-.43.34-.59.53-.31.35-.44.5l-.19.22h-1.75l-1.44,1.44c-.21-.17-.43-.3-.66-.41s-.44-.19-.62-.25-.36-.09-.53-.09h-.38c0,.08-.05.23-.16.44s-.24.39-.41.53-.33.22-.5.22-.31-.15-.44-.44h-1.75l-.06.06-.12.12s-.08.07-.12.09l-.06.03c-.17,0-.35-.07-.56-.22ZM31.56,40.53v-1.09s.02-.1.06-.19.11-.17.22-.25.24-.23.41-.44c0-.33-.08-.55-.25-.66s-.36-.15-.59-.12-.49.05-.78.09-.58.02-.88-.06c-.08.17-.07.34.03.53s.26.38.47.56.44.38.69.56.46.36.62.53v.75-.22ZM34.44,20.09s.08-.05.12-.09.08-.07.12-.09l.06-.03c.21-.21.23-.43.06-.66s-.42-.51-.75-.84c.17-.04.27-.08.31-.12s.06-.07.06-.09-.02-.05-.06-.09l-.12-.12s-.08-.07-.12-.09-.06-.06-.06-.12.02-.12.06-.19.12-.14.25-.22c0-.08-.01-.22-.03-.41s-.05-.39-.09-.59l-.12-.62c-.04-.21-.06-.4-.06-.56-.08-.17-.15-.28-.19-.34s-.1-.08-.19-.06-.18.07-.28.16-.24.17-.41.25v2.19c0,.17.08.35.25.56s.44.5.81.88c.08.08.11.17.09.25s-.04.19-.06.31-.02.25,0,.38.11.27.28.44l.06-.03ZM38.84,18.19c.02-.21.11-.38.28-.5,0,.08-.06.15-.19.19s-.23.09-.31.16-.12.16-.12.28.1.27.31.44c0-.17.01-.35.03-.56ZM41.38,38.56h.69c.08-.12.12-.23.12-.31s-.03-.16-.09-.22-.14-.1-.22-.12-.17-.03-.25-.03-.17.02-.25.06-.15.09-.19.16-.06.14-.06.22.04.17.12.25h.12ZM42.81,34.62c.08-.04.17-.09.25-.16s.17-.11.25-.16l.12-.06c.08-.08.16-.18.22-.28l.19-.31c.06-.1.15-.23.25-.38s.24-.3.41-.47l-1.81,1.44v.44l.12-.06Z"/>
</svg>