<?xml version="1.0" encoding="UTF-8"?>
<svg id="DECEMBER_10_x2C__2024_xA0_Image" xmlns="http://www.w3.org/2000/svg" xmlns:xlink="http://www.w3.org/1999/xlink" version="1.1" viewBox="0 0 48.5 46.79">
  <!-- Generator: Adobe Illustrator 29.0.1, SVG Export Plug-In . SVG Version: 2.1.0 Build 192)  -->
  <defs>
    <style>
      .st0 {
        fill: url(#linear-gradient1);
      }

      .st1 {
        fill: url(#linear-gradient);
      }
    </style>
    <linearGradient id="linear-gradient" x1="13.23" y1="94.75" x2="9.94" y2="47.59" gradientTransform="translate(0 94.8) scale(1 -1)" gradientUnits="userSpaceOnUse">
      <stop offset="0" stop-color="#ffdb73"/>
      <stop offset=".37" stop-color="#f6f6d7"/>
      <stop offset=".52" stop-color="#fdde7d"/>
      <stop offset=".74" stop-color="#f5e69e"/>
      <stop offset=".89" stop-color="#ffdb73"/>
    </linearGradient>
    <linearGradient id="linear-gradient1" x1="38.07" y1="94.83" x2="34.8" y2="47.98" gradientTransform="translate(0 94.8) scale(1 -1)" gradientUnits="userSpaceOnUse">
      <stop offset="0" stop-color="#ffdb73"/>
      <stop offset=".37" stop-color="#f6f6d7"/>
      <stop offset=".52" stop-color="#fdde7d"/>
      <stop offset=".74" stop-color="#f5e69e"/>
      <stop offset=".89" stop-color="#ffdb73"/>
    </linearGradient>
  </defs>
  <path class="st1" d="M3.06,46.37c-.17-.06-.33-.08-.5-.06s-.31.04-.44.06-.23.03-.31.03c-.38-.54-.72-1-1.03-1.38S.21,44.25,0,43.83c.08-.25.21-.5.38-.75s.29-.47.38-.66.11-.33.09-.44-.16-.16-.41-.16v-1.88c-.12-.17-.22-.3-.28-.41s-.1-.2-.12-.28-.03-.15-.03-.19v-.19c.54-.54.92-1.01,1.12-1.41s.31-.76.31-1.09c.38-.25.75-.49,1.12-.72s.74-.45,1.09-.66.69-.4,1-.56.57-.33.78-.5v-1.5c.25-.33.54-.6.88-.81s.64-.41.91-.59.5-.39.69-.59.28-.48.28-.81l1.81-2.19v-1.38c.25-.25.45-.47.59-.66s.26-.38.34-.56.12-.38.12-.56v-.69c0-.17.05-.34.16-.53.11-.19.23-.36.38-.53.15-.17.27-.31.38-.44s.16-.23.16-.31c0-.29.02-.56.06-.81s.11-.49.22-.72.22-.43.34-.59.27-.27.44-.31h1.81c.17-.21.33-.41.5-.59s.3-.35.41-.5.15-.28.12-.41-.14-.25-.34-.38c.12-.17.21-.29.25-.38s.07-.16.09-.22.03-.14.03-.22v-.25c-.17-.17-.31-.32-.44-.47l-.19-.22c-.29.12-.49.26-.59.41s-.18.31-.22.5-.05.35-.03.5.03.26.03.34c-.33.38-.6.64-.81.78s-.42.16-.62.03c-.17-.21-.32-.4-.47-.56l-.22-.25c.08-.25.15-.47.19-.66s.08-.36.12-.53.06-.32.06-.47v-.47c-.21-.33-.32-.67-.34-1s-.03-.58-.03-.75c.17-.17.27-.32.31-.47s.06-.27.06-.38.01-.21.03-.31.11-.2.28-.28l-3.5-3.19c-.17.25-.31.51-.44.78s-.25.53-.38.78-.26.48-.41.69-.34.4-.59.56c0,.17.05.34.16.53s.22.36.34.53.25.31.38.44.19.23.19.31c-.17.38-.26.67-.28.88s-.03.4-.03.56-.02.36-.06.59-.09.44-.16.62-.11.36-.16.53-.06.29-.06.38c-.25.38-.5.66-.75.84s-.49.34-.72.47-.43.25-.59.38-.31.29-.44.5l-4.62-.38c-.25-.17-.43-.34-.53-.53s-.18-.36-.22-.53-.08-.31-.12-.44-.1-.23-.19-.31v-1.06l.22-.66c.06-.19.09-.36.09-.53s-.03-.32-.09-.47-.14-.3-.22-.47v-1.12l1.44-2.19c-.17-.12-.33-.27-.5-.44s-.3-.33-.41-.5-.18-.31-.22-.44,0-.23.12-.31c.17-.17.33-.34.5-.53s.33-.36.5-.53v-1.81c.17,0,.32-.04.47-.12s.27-.18.38-.28.21-.22.31-.34.22-.23.34-.31c-.12-.08-.14-.21-.03-.38s.24-.31.41-.44.32-.23.47-.31.22-.08.22,0c.33.38.6.65.81.81s.42.15.62-.06c-.12,0-.16-.05-.09-.16s.16-.23.28-.38.24-.27.34-.38l.16-.16c-.25-.38-.44-.6-.56-.69s-.2-.14-.22-.16-.01-.05.03-.09.06-.21.06-.5l.41-.41c.1-.1.19-.18.25-.22s.12-.06.19-.06h.22c.17-.08.31-.11.44-.09l.38.06c.12.02.23.02.31,0s.17-.14.25-.34h2.12c.21-.17.36-.3.47-.41s.19-.18.25-.22.11-.06.16-.06h.19c.21-.12.38-.17.5-.12s.25.07.38.09.23.01.31-.03.17-.15.25-.31c.33.38.59.66.78.84s.28.39.28.59h-1.44l-.41.41-.25.25-.19.19-.22.22c0,.38.07.71.22,1s.32.54.53.75c.46-.42.86-.82,1.22-1.22s.7-.73,1.03-1,.67-.46,1-.56.67-.11,1-.03c.29.17.56.32.81.47s.48.27.69.38.36.21.47.31.16.22.16.34v1.31c.29.21.53.36.72.47s.35.19.5.25l.44.19c.15.06.32.14.53.22v1.12c.17.17.33.32.5.47s.32.29.47.44l.34.34.12.12v1.69c-.08,0-.21.06-.38.19s-.32.27-.47.44-.25.33-.31.5-.05.29.03.38l1.81,2.12v4.69c-.17.17-.3.29-.41.38s-.18.16-.22.22-.06.14-.06.22v2.31c-.21.29-.4.55-.56.78s-.29.44-.38.62-.11.39-.09.59.11.4.28.56c-.17.38-.35.68-.56.91-.21.23-.4.46-.56.69s-.28.46-.34.69-.07.53-.03.91l-2,1.5h-2.12c-.21.04-.42.15-.62.31s-.4.33-.56.5-.28.33-.34.5-.05.29.03.38c.17,0,.34.06.53.19s.36.25.53.38.31.24.44.34.21.16.25.16v1.44l-2.12,3.62c.21.08.36.16.47.22s.18.09.22.09.06-.05.06-.16v-.53c.17.17.33.26.5.28s.33.01.5-.03.31-.09.44-.16.23-.09.31-.09c.29.08.53.16.72.22s.36.1.53.12.32.03.47.03h.41c.21-.08.36-.16.47-.22s.19-.1.25-.12.11-.03.16-.03h.25c.17.08.3.16.41.22s.19.1.25.12.12.03.19.03h.22c.17,0,.34.05.53.16s.35.22.5.34.29.24.44.34.26.16.34.16l.31,6.5c-.17.17-.27.31-.31.44s-.06.25-.06.38,0,.23-.03.31-.11.17-.28.25c0,.25-.04.47-.12.66s-.17.34-.25.47-.17.21-.25.25l-.12.06h-2.88c-.12-.17-.24-.32-.34-.47s-.19-.27-.25-.38l-.19-.31c-.06-.1-.16-.2-.28-.28h-1.44c-.04.17-.05.32-.03.47s.04.27.06.38.02.21,0,.31-.11.2-.28.28c-.12-.17-.18-.33-.16-.5s.02-.32,0-.47-.06-.26-.12-.34-.24-.12-.53-.12l-2.12,1.81c-.25-.21-.49-.36-.72-.47s-.45-.18-.66-.22-.4-.06-.56-.06h-.56c-.17.17-.32.27-.47.31s-.27.06-.38.06-.2.01-.28.03-.17.14-.25.34c-.25,0-.53-.09-.84-.28s-.61-.4-.91-.62-.56-.44-.81-.62-.46-.28-.62-.28l-1.88,1.81c-.17-.21-.33-.34-.5-.41h-.05ZM2.24,15.71h.69c.12-.21.19-.41.19-.59s-.06-.45-.19-.78v-.75c-.21.17-.36.32-.47.47s-.18.3-.22.47-.07.34-.09.53-.03.41-.03.66h.12,0ZM3.09,39.96c.06,0,.12-.01.19-.03s.15-.05.25-.09l.47-.19c-.12-.21-.25-.32-.38-.34s-.24.01-.34.09-.19.18-.25.28-.09.2-.09.28h.16-.01ZM6.62,11.56c.17-.15.33-.3.5-.47-.17-.21-.33-.4-.5-.56l-.5-.5-.16.16c-.1.1-.23.21-.38.31s-.27.19-.38.25-.16.03-.16-.09c.08.12.19.22.31.28s.24.12.34.19.2.15.28.25.12.24.12.41c.17,0,.33-.07.5-.22h.03ZM9.53,42.56c.23-.15.51-.39.84-.72-.08-.21-.18-.32-.28-.34s-.21,0-.31.06-.23.16-.38.28-.3.23-.47.31v.62c.17,0,.36-.07.59-.22h.01ZM10.12,5.4h.62v-.97c0-.06-.01-.12-.03-.19s-.06-.15-.12-.25-.14-.24-.22-.41h-.22c-.06,0-.12.01-.19.03s-.15.05-.25.09l-.47.19c.12.08.22.16.28.22s.12.14.19.22.15.18.25.28l.41.41-.06.06-.12.12-.12.12-.06.06h.12v.02ZM19.09,15.93c.1-.1.23-.22.38-.34s.27-.22.38-.28.16-.05.16.03l-.22-.03c-.15-.02-.3-.02-.47,0s-.3.09-.41.22-.09.31.03.56l.16-.16h-.01Z"/>
  <path class="st0" d="M30.06,44.65c-.5-.33-.92-.68-1.25-1.03s-.5-.74-.5-1.16c-.08,0-.2-.05-.34-.16s-.29-.23-.44-.38-.25-.29-.31-.44-.05-.28.03-.41c.08-.17.15-.3.19-.41s.07-.19.09-.25.03-.12.03-.19v-.22l-2.82-2.85c0-.54-.08-1.06-.25-1.56s-.33-.92-.5-1.25c.17-.33.33-.61.5-.84s.25-.43.25-.59c-.21-.21-.34-.4-.41-.56s-.11-.33-.16-.5-.09-.31-.16-.44-.18-.23-.34-.31c.08-.25.16-.49.22-.72s.1-.45.12-.66.01-.41-.03-.59c-.04-.18-.15-.36-.31-.53,0-.17.05-.33.16-.5s.23-.33.38-.5.27-.31.38-.44.16-.23.16-.31l-.44-8.64c.29-.17.44-.33.44-.5s0-.31-.03-.44,0-.23.06-.31c.06-.08.26-.12.59-.12v.69c.21.17.36.3.47.41s.2.19.28.25.15.12.19.19.1.14.19.22c.17-.25.33-.51.5-.78s.29-.51.38-.72.09-.41.03-.59-.24-.34-.53-.47h-1.82c.17-.12.33-.26.5-.41l.25-.22c-.08-.29-.16-.53-.22-.72s-.1-.35-.12-.5l-.06-.44c-.02-.15-.03-.32-.03-.53.5-.46.83-.91,1-1.34s.31-.85.44-1.25.26-.77.41-1.12.41-.66.78-.91c.08-.17.12-.35.12-.56s0-.41.03-.59c.02-.18.06-.34.12-.47.06-.13.18-.19.34-.19.38-.17.67-.26.88-.28s.4-.03.56-.03v-1.81c.17-.17.34-.33.53-.5s.36-.31.53-.44.31-.21.44-.25.23-.02.31.06c.25-.17.49-.36.72-.59s.45-.44.66-.62.41-.34.59-.47.36-.15.53-.06c.17,0,.34-.05.53-.16s.35-.23.5-.38.29-.27.44-.38.26-.16.34-.16c.54,0,1.06-.06,1.56-.19s.92-.29,1.25-.5l2.5.69c.29-.08.53-.15.72-.19s.35-.07.5-.09.29-.03.44-.03h.53c.25.33.54.6.88.81s.66.4.97.56.59.35.84.56.42.5.5.88c-.08.38-.11.72-.09,1.03s.05.61.09.91.07.57.09.84-.01.53-.09.78v2.5c-.38.21-.72.32-1.03.34s-.55.03-.72.03c-.21.17-.4.27-.56.31s-.33.06-.5.06c0-.21-.02-.41-.06-.59s-.11-.36-.22-.53-.23-.28-.38-.34-.3-.05-.47.03c0,.17-.07.35-.22.56s-.31.4-.5.56-.35.31-.5.44l-.22.19c-.29-.08-.55-.14-.78-.16s-.44-.03-.62-.03h-.56c-.19,0-.36-.04-.53-.12-.08.25-.21.44-.38.56s-.35.2-.56.22-.42.01-.62-.03-.4-.06-.56-.06c-.29-.17-.53-.35-.72-.56s-.35-.4-.5-.56-.29-.28-.44-.34-.3-.05-.47.03c-.17.46-.23.91-.19,1.34s.12.88.25,1.31.26.85.41,1.25.22.78.22,1.16c-.29.08-.51.21-.66.38s-.26.33-.34.5-.15.33-.19.5-.1.27-.19.31c.12.21.29.41.5.59s.4.36.56.53c.25,0,.53.02.84.06s.6.08.88.12l.81.12c.27.04.51.06.72.06.12-.33.26-.61.41-.84s.22-.45.22-.66h2.5c.17.21.3.36.41.47l.25.25.19.19.22.22h1.81c.08.17.19.3.31.41s.22.2.28.28.08.15.06.19-.11.1-.28.19l2.44,3.56c.21.38.32.67.34.88s.03.42.03.62c-.21.17-.38.31-.5.44l-.19.19c-.21-.04-.36-.08-.47-.12s-.19-.07-.25-.09-.11-.03-.16-.03h-.19c-.08.17-.2.31-.34.44s-.27.25-.38.38c-.11.13-.14.23-.09.31s.19.17.44.25c.17,0,.35.02.56.06s.42.09.62.16.4.14.56.22.29.19.38.31c0,.33.07.66.22.97s.29.61.44.91.24.57.28.84-.04.53-.25.78c0,.92-.06,1.75-.19,2.5s-.29,1.48-.5,2.19c0,.33.02.68.06,1.03s.08.7.12,1.03.08.65.12.94.06.58.06.88c0,.17-.07.36-.22.59s-.3.44-.47.62-.33.33-.5.44l-.25.16c0,.54-.07,1.02-.22,1.44s-.3.79-.47,1.12c-.17.04-.35.07-.56.09s-.4.04-.56.06-.31.07-.44.16-.19.21-.19.38v1.75c-.29.17-.55.34-.78.53s-.45.33-.66.44-.41.17-.59.19-.36-.01-.53-.09c-.33.21-.67.33-1,.38s-.58.06-.75.06c-.21-.21-.38-.36-.5-.47s-.25-.19-.38-.25l-.31-.16c-.08-.04-.15-.12-.19-.25-.21.17-.41.21-.59.12s-.36-.19-.53-.31-.31-.23-.44-.31-.23-.04-.31.12c-.17.17-.3.34-.41.53s-.2.36-.28.53-.18.31-.28.44-.24.23-.41.31l-.12.06-.25.12c-.08.04-.17.07-.25.09l-.12.03-4.31-2.12.02-.02ZM28.31,30.34l-1.81-1.75c-.17.17-.26.38-.28.62s-.02.52,0,.81.04.59.06.91,0,.59-.09.84l.03.06s.05.08.09.12l.12.12.06.06,1.81-1.81v.02ZM28.68,36.06s.09-.05.16-.09.11-.08.16-.12l.06-.06c0-.17-.06-.32-.19-.47s-.28-.26-.47-.34-.39-.15-.59-.19-.4-.06-.56-.06c0,.08.04.2.12.34s.19.3.31.47.27.3.44.41c.17.11.33.16.5.16l.06-.03v-.02ZM29.28,16.81c.06-.02.12-.05.19-.09s.14-.11.22-.22l.38-.47v-.16c0-.06-.02-.12-.06-.19s-.11-.15-.22-.25-.24-.26-.41-.47c-.17.21-.26.47-.28.78s-.03.68-.03,1.09c.08,0,.16-.01.22-.03h0ZM30.15,27.15h.59v-.19s-.01-.09-.03-.16l-.09-.28c-.04-.12-.08-.27-.12-.44,0,.08-.05.16-.16.22l-.31.19c-.1.06-.17.15-.19.25s.05.24.22.41h.09ZM37.09,37.56c.23-.15.51-.41.84-.78.08-.17.2-.21.34-.12s.29.19.44.31.3.23.47.31.35.04.56-.12c-.08-.08-.19-.18-.31-.28l-.38-.31c-.12-.1-.23-.22-.31-.34s-.12-.27-.12-.44v-6.12c0-.08.01-.16.03-.22s.05-.12.09-.19.11-.15.22-.25.26-.24.47-.41c-.21-.08-.32-.17-.34-.25s-.02-.19,0-.31l.06-.38c.02-.12-.03-.29-.16-.5-.08-.17-.14-.34-.16-.53s-.03-.38-.03-.56-.01-.4-.03-.62-.07-.47-.16-.72c-.17,0-.38,0-.62.03s-.52.05-.81.09-.59.08-.91.12-.59.06-.84.06c-.08,0-.19.05-.31.16s-.24.26-.34.47-.2.44-.28.69-.12.52-.12.81l.06.03s.1.06.19.12l.25.19c.08.06.16.12.22.19s.11.12.16.19.06.12.06.19-.04.1-.12.12-.23.03-.44.03l-.06.06s-.1.08-.19.12-.17.09-.25.16-.16.12-.22.19-.11.12-.16.19-.06.12-.06.19.04.1.12.12.23.03.44.03c-.17.21-.34.38-.53.5s-.39.25-.59.38-.43.28-.66.47-.47.47-.72.84l.22.22c.15.15.32.3.53.47l.16-.25c.1-.17.23-.32.38-.47s.27-.21.38-.19.16.2.16.53l.16.19c.1.12.22.25.34.38s.21.25.25.38.02.19-.06.19c0,.17-.04.32-.12.47s-.17.3-.25.47-.16.34-.22.53-.09.41-.09.66l.22.22.19.19.25.25.41.41c-.08.38-.07.6.03.69s.25.14.44.16.41.06.66.12.46.22.62.47c.17.17.36.18.59.03l-.04-.03ZM34.78,6.46c.02-.12.08-.27.19-.44s.2-.33.28-.5.04-.33-.12-.5c-.25-.08-.42-.11-.5-.09s-.12.09-.12.22v.44c0,.17-.04.35-.12.56l.12.09c.08.06.17.14.25.22s.17.16.25.22l.12.09c-.25-.08-.36-.19-.34-.31h0Z"/>
</svg>