<?xml version="1.0" encoding="UTF-8"?>
<svg id="DECEMBER_10_x2C__2024_xA0_Image" xmlns="http://www.w3.org/2000/svg" xmlns:xlink="http://www.w3.org/1999/xlink" version="1.1" viewBox="0 0 112.23 47.11">
  <!-- Generator: Adobe Illustrator 29.0.1, SVG Export Plug-In . SVG Version: 2.1.0 Build 192)  -->
  <defs>
    <style>
      .st0 {
        fill: url(#New_Gradient_Swatch_13);
      }

      .st1 {
        fill: url(#New_Gradient_Swatch_11);
      }

      .st2 {
        fill: url(#New_Gradient_Swatch_12);
      }

      .st3 {
        fill: url(#New_Gradient_Swatch_1);
      }
    </style>
    <linearGradient id="New_Gradient_Swatch_1" data-name="New Gradient Swatch 1" x1="15.88" y1=".28" x2="10.04" y2="47.85" gradientUnits="userSpaceOnUse">
      <stop offset="0" stop-color="#ffdb73"/>
      <stop offset=".37" stop-color="#f6f6d7"/>
      <stop offset=".52" stop-color="#fdde7d"/>
      <stop offset=".74" stop-color="#f5e69e"/>
      <stop offset=".89" stop-color="#ffdb73"/>
    </linearGradient>
    <linearGradient id="New_Gradient_Swatch_11" data-name="New Gradient Swatch 1" x1="48.92" y1=".59" x2="43.09" y2="48.06" xlink:href="#New_Gradient_Swatch_1"/>
    <linearGradient id="New_Gradient_Swatch_12" data-name="New Gradient Swatch 1" x1="74.08" y1="-.96" x2="68.3" y2="46.11" xlink:href="#New_Gradient_Swatch_1"/>
    <linearGradient id="New_Gradient_Swatch_13" data-name="New Gradient Swatch 1" x1="103.65" y1="-.41" x2="97.84" y2="46.95" xlink:href="#New_Gradient_Swatch_1"/>
  </defs>
  <path class="st3" d="M2.91,46.85c-.21-.12-.39-.26-.53-.41s-.29-.24-.44-.28-.26.02-.34.19c-.29-.17-.49-.34-.59-.53s-.19-.36-.25-.53-.1-.32-.12-.47-.09-.28-.22-.41l-.31-6.31c.21-.25.36-.48.47-.69s.19-.4.25-.56.12-.32.19-.47.14-.3.22-.47l-.19-.47c-.04-.1-.07-.19-.09-.25l-.06-.19c-.02-.06-.03-.14-.03-.22.08-.21.16-.36.22-.47s.1-.19.12-.25.03-.12.03-.19v-.22c0-.21-.04-.39-.12-.53s-.19-.27-.31-.38l-.38-.31c-.12-.1-.23-.22-.31-.34.21-.17.36-.3.47-.41s.18-.19.22-.25.06-.12.06-.19v-.22c-.08-.21-.12-.38-.12-.5s.02-.25.06-.38.04-.24,0-.34-.17-.2-.38-.28v-5.94c0-.21.04-.39.12-.53s.19-.28.31-.41.26-.23.41-.31.26-.19.34-.31c-.17-.17-.27-.32-.31-.47s-.06-.27-.06-.38-.01-.21-.03-.31-.14-.2-.34-.28c.08-.29.07-.57-.03-.84s-.23-.53-.38-.78-.27-.49-.38-.72-.09-.45.03-.66v-5.25c.21-.17.32-.34.34-.53s.03-.35.03-.5.02-.29.06-.44.15-.28.31-.41l-.44-3.69c0-.21.08-.4.25-.56s.32-.33.47-.5.24-.32.28-.47-.02-.28-.19-.41c-.21-.25-.36-.49-.47-.72s-.18-.45-.22-.66-.07-.41-.09-.59-.03-.39-.03-.59c.29-.17.53-.36.72-.59s.33-.44.44-.62.22-.34.34-.47.27-.19.44-.19h3.38c.38.17.67.25.88.25s.4-.08.56-.25c.29.08.56.14.81.16s.48.03.69.03.41.01.59.03.39.07.59.16c.25-.21.5-.35.75-.44l.66-.22c.19-.06.38-.09.56-.09h.59c.29.08.55.17.78.25s.45.16.66.22.41.08.59.06.39-.07.59-.16h1.88c.17.08.3.16.41.22s.19.1.25.12.12.03.19.03h.28l.69.69c.17.17.31.28.44.34s.27.1.44.12.38.03.62.03l1.5,2.12c.12.21.18.41.16.59s-.03.35-.03.5.04.26.12.34.27.12.56.12c.17-.08.3-.15.41-.19s.19-.07.25-.09l.19-.06c.06-.02.14-.03.22-.03.38.54.73,1.02,1.06,1.44s.62.81.88,1.19c0,.54.07,1.09.22,1.66s.3,1.14.47,1.72c.08.17.11.34.09.53s-.04.36-.06.53-.01.31.03.44.15.23.31.31v4.06c.17.29.3.54.41.75l.28.56c.08.17.15.32.19.47s.1.32.19.53c-.17.17-.28.34-.34.53s-.11.36-.16.53-.1.32-.19.47-.21.26-.38.34c0,.17.07.34.22.53s.29.36.44.53.25.32.31.47-.01.26-.22.34l-1.5,1.88c.21.08.35.18.44.28s.16.22.22.34.09.26.09.41v.84c0,.12.03.25.09.38s.14.25.22.38.23.23.44.31c-.38,0-.58.05-.62.16s-.02.23.06.38.2.28.34.41l.22.19c-.08.46-.12.89-.12,1.28v1.09c0,.33-.04.68-.12,1.03s-.25.72-.5,1.09c-.08.25-.11.5-.09.75s.04.48.06.69.02.41,0,.59-.14.36-.34.53v1.88c-.29.42-.51.79-.66,1.12s-.26.65-.34.94-.12.57-.12.84v.84l-4.12,4.12c-.25,0-.47.03-.66.09s-.34.15-.47.25-.22.2-.28.28l-.09.12c-.25,0-.52.01-.81.03s-.57.05-.84.09-.55.08-.84.12-.58.06-.88.06c0,.08-.05.09-.16.03s-.23-.15-.38-.25-.27-.21-.38-.31l-.16-.16c0-.08-.06-.09-.19-.03s-.25.15-.38.25l-.38.31-.19.16c-.38-.17-.68-.32-.91-.47s-.43-.22-.59-.22c-.21.21-.36.34-.47.41s-.19.12-.25.19-.12.09-.19.09h-2.09c-.21-.17-.38-.3-.5-.41s-.25-.19-.38-.25-.23-.12-.31-.19-.19-.14-.31-.22l-2.94.38-.47.19c-.1.04-.19.07-.25.09l-.19.06c-.06.02-.16.03-.28.03l-.06.03s-.07.05-.09.09-.05.08-.09.12l-.06.06c-.17,0-.35-.06-.56-.19ZM7.04,4.1s.1-.01.19-.03.18-.05.28-.09.24-.1.41-.19l-.16-.16c-.1-.1-.23-.22-.38-.34s-.27-.22-.38-.28-.16-.05-.16.03l-.22.19c-.15.12-.27.25-.38.38s-.12.24-.06.34.28.16.66.16h.19ZM6.91,43.29s.1-.08.19-.12.17-.09.25-.16.16-.12.22-.19.11-.12.16-.19.05-.12.03-.19-.07-.1-.16-.12-.23-.03-.44-.03c-.17-.12-.31-.18-.44-.16s-.22.09-.28.22-.06.28,0,.47.2.36.41.53l.06-.06ZM10.79,37.5c.21-.15.5-.32.88-.53.17.21.35.34.56.41s.42.1.62.12.43.04.66.06.49.07.78.16l.12-.12.34-.34c.15-.15.31-.3.5-.47s.36-.35.53-.56c-.21-.17-.31-.35-.31-.56s.1-.5.31-.88l.31-5.25,1.5-1.88c0-.17-.09-.39-.28-.66s-.4-.56-.62-.88-.44-.62-.62-.94-.28-.59-.28-.84v-.28c0-.06.01-.12.03-.19s.05-.15.09-.25.1-.24.19-.41v-2.62c-.08-.21-.12-.41-.12-.59v-.59c0-.21-.01-.43-.03-.66s-.07-.49-.16-.78c-.08-.08-.14-.2-.16-.34s-.03-.3-.03-.47-.01-.34-.03-.53-.09-.36-.22-.53c0-.08.03-.18.09-.28s.12-.22.19-.34.14-.25.22-.38.17-.29.25-.5c-.08-.17-.17-.35-.25-.56s-.16-.42-.22-.62-.12-.43-.19-.66-.09-.47-.09-.72c-.25-.12-.51-.29-.78-.5s-.55-.44-.84-.69-.57-.51-.84-.78-.55-.49-.84-.66c-.21.08-.36.19-.47.31s-.18.27-.22.44-.06.34-.06.53v.59l-.09.12c-.06.08-.15.18-.25.28s-.25.22-.44.34-.41.23-.66.31v.22c0,.06.01.14.03.22s.05.18.09.28.1.24.19.41c0,.08.02.22.06.41s.05.38.03.56-.09.36-.22.53-.33.29-.62.38c.08.08.17.16.25.22s.16.12.22.19l.25.25.47.47v.22c0,.06.01.12.03.19l.09.28c.04.12.1.27.19.44l-.31,4.44.69,2.62-.09.06-.19.12c-.06.04-.15.1-.25.19s-.19.16-.25.22-.11.12-.16.19-.05.12-.03.19.08.1.19.12.24.03.41.03c-.17.17-.25.38-.25.62s.08.56.25.94v1.81c-.08.21-.14.39-.16.53s-.03.3-.03.47v.53c0,.19-.04.43-.12.72.25.17.4.33.44.5s.01.33-.09.5-.23.34-.38.53-.28.43-.41.72v4.06c.21,0,.42-.07.62-.22ZM16.01,8.82c.15-.19.32-.36.53-.53-.12-.08-.26-.11-.41-.09s-.28.09-.41.22-.19.27-.19.44.08.35.25.56c0-.21.07-.41.22-.59ZM22.57,41.41s.06-.08.12-.12.11-.08.16-.12l.06-.06v-2.19h-2.25v1.44c.08.08.19.14.31.16s.27.06.44.12.34.15.53.25.39.3.59.59l.03-.06ZM24.95,28.75l.19-.06c.06-.02.15-.05.25-.09l.47-.19c-.29-.25-.46-.4-.5-.44s-.06-.02-.06.06-.02.21-.06.38-.21.29-.5.38c.08,0,.16-.01.22-.03Z"/>
  <path class="st1" d="M32.04,45.35c0,.08-.06.21-.19.38s-.27.31-.44.44-.33.23-.5.31-.29.08-.38,0c-.21,0-.4-.06-.56-.19s-.32-.27-.47-.44-.26-.33-.34-.5-.12-.29-.12-.38v-1.5c.21-.17.36-.3.47-.41l.25-.25c.06-.06.11-.12.16-.19s.12-.14.25-.22c0-.29-.04-.54-.12-.75s-.17-.39-.25-.53l-.25-.44c-.08-.15-.12-.32-.12-.53.21-.33.32-.67.34-1s.03-.58.03-.75c0-.21.08-.43.25-.66s.34-.44.53-.62.35-.34.5-.47l.22-.19.38-8.12c.08-.25.19-.47.31-.66s.25-.33.38-.44.22-.18.28-.22l.09-.06c-.08-.29-.11-.54-.09-.75s.04-.4.06-.56.02-.32,0-.47-.14-.3-.34-.47c.21-.29.35-.55.44-.78s.16-.45.22-.66.09-.41.09-.59v-.53c.21-.21.42-.36.62-.47s.41-.2.59-.28.33-.18.44-.28.16-.24.16-.41c-.38-.38-.65-.69-.81-.94s-.25-.46-.25-.62v-2.19c.21-.21.35-.36.44-.47s.15-.19.19-.25.07-.11.09-.16.03-.1.03-.19c-.12-.29-.2-.55-.22-.78s-.03-.45-.03-.66v-.59c0-.19-.06-.39-.19-.59l1.88-1.81c.12-.17.2-.33.22-.5s.02-.33,0-.5-.05-.34-.09-.53l-.12-.56c-.04-.19-.07-.35-.09-.5s0-.27.06-.38.16-.19.28-.25.31-.09.56-.09l.38-.47c.08-.1.17-.19.25-.25s.15-.12.19-.19.12-.14.25-.22c-.21-.17-.35-.3-.44-.41s-.17-.18-.25-.22l-.19-.09s-.1-.03-.19-.03c0-.17.02-.36.06-.59s.09-.45.16-.66.14-.4.22-.56.17-.31.25-.44v-1.38h1.06c.21-.17.34-.34.41-.53s.11-.36.16-.53.09-.32.16-.47.2-.26.41-.34c.38-.17.68-.33.91-.5s.43-.25.59-.25h1.44c.29.17.55.3.78.41s.45.18.66.22.41.07.59.09.36.03.53.03c.29-.08.53-.16.72-.22s.36-.1.53-.12.33-.03.5-.03h.5l2.56,2.56c0,.21-.07.4-.22.56l-.44.5c-.15.17-.24.31-.28.44s.04.23.25.31c0,.29.07.54.22.75s.31.4.5.56.35.32.5.47.22.3.22.47c-.12.29-.19.53-.19.72v.53c0,.17-.01.32-.03.47s-.07.32-.16.53c.33.33.6.61.81.84s.31.45.31.66c-.12.17-.18.31-.16.44l.06.38c.02.12.02.23,0,.31s-.14.17-.34.25c0,.21.07.4.22.56l.44.5c.15.17.25.32.31.47s-.01.28-.22.41c0,.17-.04.32-.12.47s-.18.27-.28.38-.22.2-.34.28-.23.17-.31.25c.17.12.3.21.41.25s.19.07.25.09l.19.06c.06.02.14.03.22.03.21.17.36.32.47.47s.19.27.25.38l.19.31c.06.1.16.22.28.34-.21.17-.35.35-.44.56s-.16.42-.22.62-.09.4-.09.56v.38c.17.17.3.31.41.44s.19.21.25.25.12.06.19.06h.22c.29.54.47,1.09.53,1.66s.12,1.1.19,1.62.14,1.03.22,1.53.25,1,.5,1.5c-.17.33-.27.67-.31,1s-.06.58-.06.75c.21.38.39.68.53.91s.22.43.22.59v1.81c-.21.21-.38.36-.5.47s-.24.19-.34.25l-.31.19c-.1.06-.2.16-.28.28.25.25.51.46.78.62s.51.32.72.47.38.3.5.47.19.4.19.69c-.08.33-.11.66-.09.97l.06.94c.02.31.02.6,0,.88s-.11.55-.28.84c.17.25.32.53.47.84s.26.61.34.91.15.57.19.84.06.51.06.72l.41.41c.1.1.19.2.25.28s.12.15.19.19.14.12.22.25c.21.33.33.61.38.84s.06.41.06.53c-.21.42-.46.79-.75,1.12s-.54.6-.75.81c0-.38-.05-.57-.16-.59s-.23.04-.38.19-.27.3-.38.47l-.16.25-4.5-.31c-.17-.21-.32-.32-.47-.34s-.27-.03-.38-.03-.21-.02-.31-.06-.2-.15-.28-.31c-.33.17-.68.26-1.03.28s-.64.03-.84.03c.12,0,.16-.05.09-.16s-.16-.22-.28-.34-.24-.25-.34-.38l-.16-.19c.17-.17.3-.36.41-.59s.18-.45.22-.66.06-.4.06-.56v-.44l-.53-.53-.53-.53c0-.17-.02-.36-.06-.59s-.08-.45-.12-.66-.09-.4-.16-.56-.09-.29-.09-.38c-.17-.29-.33-.49-.5-.59s-.33-.18-.5-.22-.31-.07-.44-.09-.23-.07-.31-.16c-.21.08-.42.12-.62.12s-.41.02-.59.06-.34.09-.47.16-.19.18-.19.34h-1.12c-.17,0-.33.06-.5.19l-.5.38c-.17.12-.32.24-.47.34s-.26.16-.34.16c-.38-.17-.67-.32-.88-.47s-.42-.22-.62-.22c-.25.08-.43.21-.53.38s-.18.33-.22.5-.04.33,0,.5.06.29.06.38c.17.25.32.45.47.59l.22.22c.21-.08.4-.07.56.03s.32.24.47.41.26.32.34.47l.12.22v.69c-.21.17-.36.3-.47.41s-.18.19-.22.25-.06.14-.06.22v.25c-.08.21-.14.42-.16.62s-.04.4-.06.56-.06.31-.12.44-.2.19-.41.19c-.33,0-.68-.02-1.03-.06l-1.06-.12c-.35-.04-.7-.07-1.03-.09s-.65-.03-.94-.03l-.06.03s-.07.05-.09.09-.05.08-.09.12l-.06.06-1.81-1.44ZM35.82,30.85c.06-.08.09-.19.09-.31v-.47c0-.19.04-.36.12-.53-.17,0-.35.08-.56.25s-.5.44-.88.81l.22.06c.15.04.32.15.53.31.25,0,.41-.04.47-.12ZM45.45,29.85h.84v-.19s-.02-.1-.06-.19-.11-.18-.22-.28l-.41-.41v-3c-.17-.08-.28-.15-.34-.19s-.08-.1-.06-.19.07-.18.16-.28.17-.24.25-.41c0-.17-.01-.34-.03-.53s-.05-.39-.09-.59-.1-.43-.19-.66-.21-.49-.38-.78v-1.88c0-.17.01-.36.03-.59s.11-.51.28-.84c0-.21-.08-.42-.25-.62s-.44-.48-.81-.81c-.17-.12-.23-.26-.19-.41s.14-.3.28-.47l.44-.5c.15-.17.22-.35.22-.56l-1.5-1.38c-.29.08-.46.19-.5.31s-.06.27-.06.44-.02.33-.06.5-.21.35-.5.56c.17.17.22.36.16.59s-.17.47-.31.72-.31.51-.5.78-.32.55-.41.84c-.21.08-.28.19-.22.31s.16.27.28.44.26.34.41.53.22.39.22.59c0,.25-.02.46-.06.62s-.12.32-.25.47-.28.33-.47.56-.41.53-.66.91c.17.08.27.17.31.25s.05.19.03.31-.04.26-.06.41.01.3.09.47c-.08.17-.14.35-.16.56s-.03.42-.03.62-.01.43-.03.66-.07.47-.16.72c.08.29.22.47.41.53s.39.09.59.09h.72c.27,0,.53.04.78.12l.22.25c.15.17.32.35.53.56s.45.41.72.59.53.32.78.41h.22ZM41.26,36.79s.05-.08.09-.12l.12-.12.06-.06c-.08-.08-.14-.19-.16-.31s-.03-.27-.03-.44v-.53c0-.19-.04-.36-.12-.53-.29-.08-.47-.07-.53.03s-.09.26-.09.47v.69c0,.25-.04.46-.12.62l.12.06.25.12.25.12.12.06.03-.06ZM42.85,33.41l.38-.38c.12-.12.25-.22.38-.28s.19-.03.19.09h.72s0-.01-.06-.03-.14-.03-.22-.03-.19-.01-.31-.03-.24-.05-.34-.09l-.31-.12c-.1-.04-.2-.08-.28-.12l-.06.06s-.09.08-.16.12-.14.09-.22.16-.17.14-.25.22-.14.16-.16.22-.03.12-.03.19.05.11.16.16.24.06.41.06l.19-.19ZM43.01,13.07l.06-.19c.02-.06.06-.15.12-.25s.14-.26.22-.47l-.25-.22c-.17-.15-.33-.3-.5-.47-.29.08-.44.2-.44.34s.06.29.19.44.25.31.38.5.19.36.19.53c0-.08.01-.16.03-.22ZM48.35,26.22h.62c.08-.12.12-.24.12-.34s-.02-.19-.06-.25-.1-.1-.19-.12-.18-.02-.28,0-.2.05-.28.09-.15.09-.19.16-.05.14-.03.22.07.17.16.25h.12ZM49.51,38.22c.1-.12.21-.26.31-.41s.19-.28.25-.41.05-.19-.03-.19c-.25-.08-.42-.1-.5-.06s-.12.11-.12.22.01.25.03.44-.01.39-.09.59l.16-.19ZM52.45,34.13c.19-.19.39-.36.59-.53h-.53c-.15,0-.26.03-.34.09s-.16.17-.22.31-.09.36-.09.66c.21-.17.41-.34.59-.53ZM52.51,43.47h.84l-.12-.25c-.08-.17-.2-.33-.34-.5s-.3-.27-.47-.31-.35.06-.56.31l.06.12c.04.08.09.17.16.25s.11.17.16.25l.06.12h.22Z"/>
  <path class="st2" d="M70.23,45.97c-.38.38-.67.27-.88-.31s-.4-.6-.56-.06c-.21-.17-.39-.34-.53-.53l-.22-.28c.17-.5.3-1.07.41-1.72s-.03-1.16-.41-1.53c.38-.38.5-.73.38-1.06s0-.6.38-.81l-.75-10.94v-2.62c-.21-.54-.56-1.04-1.06-1.5l-.75-.69c.12-.38.17-.73.12-1.06s.02-.58.19-.75c-.58-.54-.92-.97-1-1.28s-.12-.76-.12-1.34c.54-.33.88-.67,1-1s.31-.6.56-.81c-1-.5-1.62-.62-1.88-.38-.38-.54-.83-1.01-1.38-1.41s-.71-.78-.5-1.16c0-.33.22-.68.66-1.03s.49-.61.16-.78c-1.21-1.12-1.96-2-2.25-2.62.5-.33.48-.6-.06-.81s-.52-.42.06-.62c0-.38-.22-.72-.66-1.03s-.45-.57-.03-.78c-1-1.33-1.5-2.67-1.5-4,.5-.58.67-1.01.5-1.28s.02-.59.56-.97c.54.25,1.17.38,1.88.38.46-.5.83-.75,1.12-.75.17.58.46.85.88.81s.71-.06.88-.06c.38-.38.67-.5.88-.38s.44,0,.69-.38c.71.25,1.44.38,2.19.38.75.54,1.15,1.05,1.19,1.53s.25.72.62.72c-.17.38-.18.73-.03,1.06s.05.58-.28.75c0-.75-.2-.88-.59-.38l-.59.75c0-.17.2-.09.59.22l.59.47c-.25,0-.2.19.16.56l.53.56c-.75,0-.88.18-.38.53l.75.53-1.88,2.62,2.94,3.69c.17.38.22.72.16,1.03s.01.55.22.72c-.38.42-.74.89-1.09,1.41s-.72.68-1.09.47c-.38,0-.68.15-.91.44s-.43.52-.59.69c.71.71,1.21,1.06,1.5,1.06.71,0,1.05-.24,1.03-.72s.24-.72.78-.72c.38.21.67.23.88.06s.4-.06.56.31c.38-.38.6-.67.69-.88s.25-.42.5-.62c-.75,0-.89-.18-.41-.53l.72-.53c-.54-.38-.82-.73-.84-1.06s-.09-.6-.22-.81c.38-.54.88-.91,1.5-1.09s.85-.55.69-1.09c-.38-.54-.58-1.01-.62-1.41s-.06-.78-.06-1.16l1.38-1.88c-.38-.5-.7-.61-.97-.34s-.41.03-.41-.72c-.25-.54-.29-.95-.12-1.22s.06-.59-.31-.97c.29-.5.44-1.1.44-1.81l2.19-2.25c.33.21.66.46.97.75s.59.54.84.75c0,.17.19.08.56-.25l.56-.5c0-.54.11-.93.34-1.16l.34-.34c.79,0,1.65.25,2.56.75,1.54,0,2.54.35,3,1.06v1.5c-.29.5-.44.88-.44,1.12,0-.17-.18-.08-.53.25l-.53.5c.75,0,.88.18.38.53l-.75.53c0,.58-.11.98-.34,1.19l-.34.31v2.19c-.75.17-1.18.54-1.28,1.12s-.41,1.06-.91,1.44c.5.38.71.74.62,1.09s.06.61.44.78c.33.38.21.67-.38.88s-.58.38,0,.5c-.25.54-.38.94-.38,1.19,0,.54-.25.95-.75,1.22s-.75.59-.75.97-.08.76-.25,1.16-.44.49-.81.28c-.42-.33-.68-.35-.78-.06s-.22.44-.34.44c.12.58.5,1.19,1.12,1.81s.5,1-.38,1.12c-.25.92-.42,1.76-.5,2.53s-.29,1.53-.62,2.28c0,.54-.11.91-.34,1.09l-.34.28c.12.62.17,1.12.12,1.5s.02.73.19,1.06c-.17.42-.23.79-.19,1.12s0,.58-.12.75c.33.75.53,1.48.59,2.19s.09,1.33.09,1.88c-.38.54-.62,1.09-.75,1.66s-.38,1.11-.75,1.66l1.5,1.81c-.46.5-.69.85-.69,1.06-.21.42-.28.79-.22,1.12s.01.58-.16.75c-.58-.17-1.23-.16-1.94.03s-1.06-.05-1.06-.72h-1.06c-.5.46-.88.69-1.12.69l-2.56-.69ZM71.16,43.57l.19-.16c-.25-.29-.62-.69-1.12-1.19,0,.25.08.47.25.66s.33.47.5.84l.19-.16ZM75.41,43.41c0-.38-.23-.67-.69-.88s-.85-.31-1.19-.31c-.58.25-.66.56-.22.94s.74.56.91.56c.29,0,.69-.1,1.19-.31ZM75.04,38.41l.38-.19-.59-.5c-.4-.33-.59-.42-.59-.25,0,.29.15.67.44,1.12l.38-.19ZM77.6,24.29h.38c.17-.17.35-.4.56-.69s.5-.44.88-.44c-.21-.71-.49-.83-.84-.38s-.8.96-1.34,1.5h.38ZM78.88,5.07c.35-.31.53-.39.53-.22l.03-.22c.02-.15.11-.32.28-.53-.17-.38-.42-.31-.75.19s-.67.56-1,.19c0,.25.12.6.38,1.06l.53-.47ZM80.54,16.6l-.56-.56c-.38-.38-.56-.19-.56.56.38.21.35.41-.06.59s-.52.47-.31.84l1.5-1.44ZM83.57,3.35c.31-.38.41-.88.28-1.5-.54.38-.73.72-.56,1.03s0,.72-.5,1.22l.16.19.16.19c0-.38.16-.75.47-1.12Z"/>
  <path class="st0" d="M96.23,46.04c-.17-.71-.36-1.3-.59-1.78s-.53-1.07-.91-1.78c-.38.17-.6.35-.69.56s-.21.12-.38-.25c-.38.38-.61.76-.72,1.16s.14.49.72.28c.38.38.68.79.91,1.25s.18.79-.16,1c-.62,0-1.19-.07-1.69-.22s-.92-.22-1.25-.22c-.38-.38-.61-.6-.72-.69s-.22-.21-.34-.38c0-.54-.12-.95-.38-1.22s-.38-.59-.38-.97c-.25-.54-.31-1.12-.19-1.75s-.06-1.12-.56-1.5l.31-3c.38-.12.76-.41,1.16-.84s.51-.76.34-.97c.54.21,1.17.44,1.88.69s1.06.62,1.06,1.12c0,.38.14.68.41.91s.49.43.66.59c.58-.38.89-.77.91-1.19s.22-.62.59-.62h2.19c.71-.71,1.21-.96,1.5-.75.29,0,.59-.19.91-.56s.47-.67.47-.88v-2.56l-2.56-3.25c-.54-.58-1.21-1.2-2-1.84s-1.06-1.26-.81-1.84c-1.08-.38-1.71-.48-1.88-.31-.25-.5-.38-.88-.38-1.12-.38-.33-.72-.66-1.03-.97l-.47-.47c-.21-.5-.31-1-.31-1.5.12-.33.11-.6-.03-.81s-.03-.42.34-.62c-.54-.75-1.09-1.23-1.66-1.44s-.84-.58-.84-1.12c.38-.71.83-1.01,1.38-.91s.56-.2.06-.91c-.38,0-.82-.04-1.34-.12s-.7-.4-.53-.94c-.17-.38-.01-.73.47-1.06s.47-.6-.03-.81v-1.75l2.19-3.31c.75-.79,1.12-1.27,1.12-1.44v-1.19c.92-.92,1.5-1.27,1.75-1.06l1.5-1.44c.38.38.72.32,1.03-.16s.57-.53.78-.16c.33-.21.61-.46.84-.75s.43-.19.59.31c.38-.17.73-.22,1.06-.16s.58-.01.75-.22c.33.21.68.28,1.03.22s.64-.01.84.16c.5-.17.89-.17,1.16,0s.59.04.97-.38l2.94.38c.62-.5,1.05-.25,1.28.75s.53,1.75.91,2.25c-.25.46-.38.79-.38,1-1,1-1.35,1.62-1.06,1.88.12.21.29.4.5.56s.4.33.56.5v2.56c0,.38-.2.71-.59,1s-.68.44-.84.44c-.75-.17-1.44-.19-2.06-.06s-1.04-.08-1.25-.62c-.54-.17-1.06-.11-1.56.16s-.94.22-1.31-.16c-.88-.62-1.51-.45-1.91.53s-.59,1.66-.59,2.03c.42.92.62,1.4.62,1.44.21.5.27.96.19,1.38s0,.79.25,1.12c.33.38.67.57,1,.59s.6.22.81.59c.33.54.66,1,.97,1.38s.47.75.47,1.12c.5.17.96.18,1.38.03s.81-.05,1.19.28c0,.71.23,1.33.69,1.88.38.21.88.5,1.5.88s.88.81.75,1.31c.79.62,1.26,1.38,1.41,2.25s.41,1.69.78,2.44c-.25.54-.38.92-.38,1.12.46.5.69.88.69,1.12v2.19c-.46.46-.69.81-.69,1.06,0,1.12-.08,2.22-.25,3.28s-.35,2.03-.56,2.91c-.38.42-.73.69-1.06.81s-.56.33-.69.62c-.38,1.88-.94,2.72-1.69,2.53s-1.42-.05-2,.41c-1.08.25-2.1.31-3.06.19s-1.88.06-2.75.56h-2.19c-.5-.5-.85-.75-1.06-.75ZM98.79,43.1h.38l-.53-.53c-.35-.35-.43-.53-.22-.53-.58.25-.7.42-.34.5s.47.27.34.56h.38ZM102.73,2.91c.5-.38.4-.56-.31-.56,0,.46-.15.83-.44,1.12l.75-.56ZM102.79,44.22h.38c.33-.17.43-.35.28-.56s-.14-.5.03-.88c-.71,0-1.06.48-1.06,1.44h.38ZM105.73,39.1c-.25-.33-.55-.44-.91-.31s-.45.38-.28.75c.29,0,.69-.15,1.19-.44ZM106.63,4.66c.15-.17.32-.33.53-.5-.25-.29-.62-.67-1.12-1.12,0,.25-.03.53-.09.84s.09.66.47,1.03l.22-.25ZM106.45,35.79h.72c0-.46-.12-.81-.38-1.06,0,.21-.12.35-.38.44s-.38.29-.38.62h.41Z"/>
</svg>