<?xml version="1.0" encoding="UTF-8"?>
<svg id="DECEMBER_10_x2C__2024_xA0_Image" xmlns="http://www.w3.org/2000/svg" xmlns:xlink="http://www.w3.org/1999/xlink" version="1.1" viewBox="0 0 406.01 51.62">
  <!-- Generator: Adobe Illustrator 29.0.1, SVG Export Plug-In . SVG Version: 2.1.0 Build 192)  -->
  <defs>
    <style>
      .st0 {
        fill: url(#linear-gradient);
      }

      .st0, .st1, .st2, .st3, .st4, .st5, .st6, .st7, .st8, .st9, .st10, .st11, .st12, .st13, .st14 {
        stroke: #000;
        stroke-miterlimit: 10;
        stroke-width: .5px;
      }

      .st1 {
        fill: url(#linear-gradient3);
      }

      .st2 {
        fill: url(#linear-gradient6);
      }

      .st3 {
        fill: url(#linear-gradient5);
      }

      .st4 {
        fill: url(#linear-gradient7);
      }

      .st5 {
        fill: url(#linear-gradient4);
      }

      .st6 {
        fill: url(#linear-gradient2);
      }

      .st7 {
        fill: url(#linear-gradient1);
      }

      .st8 {
        fill: url(#linear-gradient9);
      }

      .st9 {
        fill: url(#linear-gradient8);
      }

      .st10 {
        fill: url(#linear-gradient14);
      }

      .st11 {
        fill: url(#linear-gradient13);
      }

      .st12 {
        fill: url(#linear-gradient12);
      }

      .st13 {
        fill: url(#linear-gradient11);
      }

      .st14 {
        fill: url(#linear-gradient10);
      }
    </style>
    <linearGradient id="linear-gradient" x1="19.42" y1="1.68" x2="5.22" y2="48.1" gradientUnits="userSpaceOnUse">
      <stop offset="0" stop-color="#ffdb73"/>
      <stop offset=".37" stop-color="#f6f6d7"/>
      <stop offset=".52" stop-color="#fdde7d"/>
      <stop offset=".74" stop-color="#f5e69e"/>
      <stop offset=".89" stop-color="#ffdb73"/>
    </linearGradient>
    <linearGradient id="linear-gradient1" x1="47.46" y1=".39" x2="33.08" y2="47.41" xlink:href="#linear-gradient"/>
    <linearGradient id="linear-gradient2" x1="71.3" y1="1.12" x2="57.68" y2="45.69" xlink:href="#linear-gradient"/>
    <linearGradient id="linear-gradient3" x1="91.83" y1=".39" x2="77.46" y2="47.41" xlink:href="#linear-gradient"/>
    <linearGradient id="linear-gradient4" x1="121.45" y1="-1.18" x2="106.04" y2="49.2" xlink:href="#linear-gradient"/>
    <linearGradient id="linear-gradient5" x1="151.11" y1="1.94" x2="137.01" y2="48.06" xlink:href="#linear-gradient"/>
    <linearGradient id="linear-gradient6" x1="177.39" y1=".39" x2="163.02" y2="47.41" xlink:href="#linear-gradient"/>
    <linearGradient id="linear-gradient7" x1="203.85" y1="1.8" x2="189.67" y2="48.21" xlink:href="#linear-gradient"/>
    <linearGradient id="linear-gradient8" x1="250.02" y1=".88" x2="236.76" y2="44.26" xlink:href="#linear-gradient"/>
    <linearGradient id="linear-gradient9" x1="270.76" y1="2.03" x2="257.24" y2="46.25" xlink:href="#linear-gradient"/>
    <linearGradient id="linear-gradient10" x1="283.19" y1="38.34" x2="279.24" y2="51.27" xlink:href="#linear-gradient"/>
    <linearGradient id="linear-gradient11" x1="324.9" y1="2.56" x2="311.02" y2="47.95" xlink:href="#linear-gradient"/>
    <linearGradient id="linear-gradient12" x1="348.76" y1="2.03" x2="335.24" y2="46.25" xlink:href="#linear-gradient"/>
    <linearGradient id="linear-gradient13" x1="374.52" y1="2.56" x2="360.64" y2="47.95" xlink:href="#linear-gradient"/>
    <linearGradient id="linear-gradient14" x1="401.87" y1="1.61" x2="388.3" y2="45.99" xlink:href="#linear-gradient"/>
  </defs>
  <path class="st0" d="M3.16,47.42c-.21-.12-.39-.26-.53-.41s-.29-.24-.44-.28-.26.02-.34.19c-.29-.17-.49-.34-.59-.53s-.19-.36-.25-.53-.1-.32-.12-.47-.09-.28-.22-.41l-.31-6.31c.21-.25.36-.48.47-.69s.19-.4.25-.56.12-.32.19-.47.14-.3.22-.47l-.19-.47c-.04-.1-.07-.19-.09-.25l-.06-.19c-.02-.06-.03-.14-.03-.22.08-.21.16-.36.22-.47s.1-.19.12-.25.03-.12.03-.19v-.22c0-.21-.04-.39-.12-.53s-.19-.27-.31-.38l-.38-.31c-.12-.1-.23-.22-.31-.34.21-.17.36-.3.47-.41s.18-.19.22-.25.06-.12.06-.19v-.22c-.08-.21-.12-.38-.12-.5s.02-.25.06-.38.04-.24,0-.34-.17-.2-.38-.28v-5.94c0-.21.04-.39.12-.53s.19-.28.31-.41.26-.23.41-.31.26-.19.34-.31c-.17-.17-.27-.32-.31-.47s-.06-.27-.06-.38-.01-.21-.03-.31-.14-.2-.34-.28c.08-.29.07-.57-.03-.84s-.23-.53-.38-.78-.27-.49-.38-.72-.09-.45.03-.66v-5.25c.21-.17.32-.34.34-.53s.03-.35.03-.5.02-.29.06-.44.15-.28.31-.41l-.44-3.69c0-.21.08-.4.25-.56s.32-.33.47-.5.24-.32.28-.47-.02-.28-.19-.41c-.21-.25-.36-.49-.47-.72s-.18-.45-.22-.66-.07-.41-.09-.59-.03-.39-.03-.59c.29-.17.53-.36.72-.59s.33-.44.44-.62.22-.34.34-.47.27-.19.44-.19h3.38c.38.17.67.25.88.25s.4-.08.56-.25c.29.08.56.14.81.16s.48.03.69.03.41.01.59.03.39.07.59.16c.25-.21.5-.35.75-.44l.66-.22c.19-.06.38-.09.56-.09h.59c.29.08.55.17.78.25s.45.16.66.22.41.08.59.06.39-.07.59-.16h1.88c.17.08.3.16.41.22s.19.1.25.12.12.03.19.03h.28l.69.69c.17.17.31.28.44.34s.27.1.44.12.38.03.62.03l1.5,2.12c.12.21.18.41.16.59s-.03.35-.03.5.04.26.12.34.27.12.56.12c.17-.08.3-.15.41-.19s.19-.07.25-.09l.19-.06c.06-.02.14-.03.22-.03.38.54.73,1.02,1.06,1.44s.62.81.88,1.19c0,.54.07,1.09.22,1.66s.3,1.14.47,1.72c.08.17.11.34.09.53s-.04.36-.06.53-.01.31.03.44.15.23.31.31v4.06c.17.29.3.54.41.75l.28.56c.08.17.15.32.19.47s.1.32.19.53c-.17.17-.28.34-.34.53s-.11.36-.16.53-.1.32-.19.47-.21.26-.38.34c0,.17.07.34.22.53s.29.36.44.53.25.32.31.47-.01.26-.22.34l-1.5,1.88c.21.08.35.18.44.28s.16.22.22.34.09.26.09.41v.84c0,.12.03.25.09.38s.14.25.22.38.23.23.44.31c-.38,0-.58.05-.62.16s-.02.23.06.38.2.28.34.41l.22.19c-.08.46-.12.89-.12,1.28v1.09c0,.33-.04.68-.12,1.03s-.25.72-.5,1.09c-.08.25-.11.5-.09.75s.04.48.06.69.02.41,0,.59-.14.36-.34.53v1.88c-.29.42-.51.79-.66,1.12s-.26.65-.34.94-.12.57-.12.84v.84l-4.12,4.12c-.25,0-.47.03-.66.09s-.34.15-.47.25-.22.2-.28.28l-.09.12c-.25,0-.52.01-.81.03s-.57.05-.84.09-.55.08-.84.12-.58.06-.88.06c0,.08-.05.09-.16.03s-.23-.15-.38-.25-.27-.21-.38-.31l-.16-.16c0-.08-.06-.09-.19-.03s-.25.15-.38.25l-.38.31-.19.16c-.38-.17-.68-.32-.91-.47s-.43-.22-.59-.22c-.21.21-.36.34-.47.41s-.19.12-.25.19-.12.09-.19.09h-2.09c-.21-.17-.38-.3-.5-.41s-.25-.19-.38-.25-.23-.12-.31-.19-.19-.14-.31-.22l-2.94.38-.47.19c-.1.04-.19.07-.25.09l-.19.06c-.06.02-.16.03-.28.03l-.06.03s-.07.05-.09.09-.05.08-.09.12l-.06.06c-.17,0-.35-.06-.56-.19ZM7.29,4.67s.1-.01.19-.03.18-.05.28-.09.24-.1.41-.19l-.16-.16c-.1-.1-.23-.22-.38-.34s-.27-.22-.38-.28-.16-.05-.16.03l-.22.19c-.15.12-.27.25-.38.38s-.12.24-.06.34.28.16.66.16h.19ZM7.16,43.86s.1-.08.19-.12.17-.09.25-.16.16-.12.22-.19.11-.12.16-.19.05-.12.03-.19-.07-.1-.16-.12-.23-.03-.44-.03c-.17-.12-.31-.18-.44-.16s-.22.09-.28.22-.06.28,0,.47.2.36.41.53l.06-.06ZM11.04,38.08c.21-.15.5-.32.88-.53.17.21.35.34.56.41s.42.1.62.12.43.04.66.06.49.07.78.16l.12-.12.34-.34c.15-.15.31-.3.5-.47s.36-.35.53-.56c-.21-.17-.31-.35-.31-.56s.1-.5.31-.88l.31-5.25,1.5-1.88c0-.17-.09-.39-.28-.66s-.4-.56-.62-.88-.44-.62-.62-.94-.28-.59-.28-.84v-.28c0-.06.01-.12.03-.19s.05-.15.09-.25.1-.24.19-.41v-2.62c-.08-.21-.12-.41-.12-.59v-.59c0-.21-.01-.43-.03-.66s-.07-.49-.16-.78c-.08-.08-.14-.2-.16-.34s-.03-.3-.03-.47-.01-.34-.03-.53-.09-.36-.22-.53c0-.08.03-.18.09-.28s.12-.22.19-.34.14-.25.22-.38.17-.29.25-.5c-.08-.17-.17-.35-.25-.56s-.16-.42-.22-.62-.12-.43-.19-.66-.09-.47-.09-.72c-.25-.12-.51-.29-.78-.5s-.55-.44-.84-.69-.57-.51-.84-.78-.55-.49-.84-.66c-.21.08-.36.19-.47.31s-.18.27-.22.44-.06.34-.06.53v.59l-.09.12c-.06.08-.15.18-.25.28s-.25.22-.44.34-.41.23-.66.31v.22c0,.06.01.14.03.22s.05.18.09.28.1.24.19.41c0,.08.02.22.06.41s.05.38.03.56-.09.36-.22.53-.33.29-.62.38c.08.08.17.16.25.22s.16.12.22.19l.25.25.47.47v.22c0,.06.01.12.03.19l.09.28c.04.12.1.27.19.44l-.31,4.44.69,2.62-.09.06-.19.12c-.06.04-.15.1-.25.19s-.19.16-.25.22-.11.12-.16.19-.05.12-.03.19.08.1.19.12.24.03.41.03c-.17.17-.25.38-.25.62s.08.56.25.94v1.81c-.08.21-.14.39-.16.53s-.03.3-.03.47v.53c0,.19-.04.43-.12.72.25.17.4.33.44.5s.01.33-.09.5-.23.34-.38.53-.28.43-.41.72v4.06c.21,0,.42-.07.62-.22ZM16.26,9.39c.15-.19.32-.36.53-.53-.12-.08-.26-.11-.41-.09s-.28.09-.41.22-.19.27-.19.44.08.35.25.56c0-.21.07-.41.22-.59ZM22.82,41.99s.06-.08.12-.12.11-.08.16-.12l.06-.06v-2.19h-2.25v1.44c.08.08.19.14.31.16s.27.06.44.12.34.15.53.25.39.3.59.59l.03-.06ZM25.2,29.33l.19-.06c.06-.02.15-.05.25-.09l.47-.19c-.29-.25-.46-.4-.5-.44s-.06-.02-.06.06-.02.21-.06.38-.21.29-.5.38c.08,0,.16-.01.22-.03Z"/>
  <path class="st7" d="M38.35,47.3l-.12-.12-.09-.09-.03-.03h-4.06c-.21-.21-.4-.41-.56-.59s-.35-.36-.56-.53c-.25-.08-.52-.08-.81,0s-.57.19-.84.31-.54.21-.81.25-.55-.02-.84-.19v-2.25c-.08-.17-.15-.3-.19-.41s-.07-.19-.09-.25-.03-.12-.03-.19v-.22l.41-.41c.1-.1.18-.2.22-.28s.07-.16.09-.22.03-.16.03-.28v-3.62c.25-.29.44-.55.56-.78s.21-.45.25-.66.07-.4.09-.56.07-.33.16-.5c-.29-.21-.49-.43-.59-.66s-.2-.44-.28-.62-.17-.34-.25-.47-.21-.19-.38-.19v-1.81l1.12-2.56c-.17-.21-.3-.36-.41-.47s-.18-.19-.22-.25-.06-.12-.06-.19v-4.97c.08-.29.22-.55.41-.78s.34-.45.47-.66.2-.41.22-.59-.11-.39-.41-.59c-.08-.25-.11-.51-.09-.78s.03-.53.03-.78-.04-.49-.12-.72-.25-.43-.5-.59c.08-.29.1-.58.06-.88s-.07-.56-.09-.81-.02-.48,0-.69.14-.42.34-.62c-.08-.21-.14-.4-.16-.56s-.03-.33-.03-.5v-.44c0-.12-.04-.23-.12-.31v-2.62c.17-.17.31-.35.44-.56s.2-.41.22-.59-.02-.34-.12-.47-.28-.19-.53-.19c.17-.21.3-.36.41-.47s.18-.19.22-.25.06-.12.06-.19v-.22c-.17-.38-.32-.67-.47-.88s-.22-.4-.22-.56v-1.88c-.12-.17-.22-.3-.28-.41s-.1-.19-.12-.25-.03-.12-.03-.19v-.22c.08-.17.24-.39.47-.66s.46-.51.69-.72.44-.36.62-.47.32-.11.41-.03c.21.08.36.16.47.22s.2.1.28.12.15.03.19.03h.19c.38-.38.68-.66.91-.84s.43-.28.59-.28.32.04.47.12.28.18.41.28.24.23.34.38.2.26.28.34c.17-.21.35-.38.56-.5s.42-.24.62-.34.4-.18.56-.22.31-.06.44-.06c.08.17.15.3.19.41s.07.2.09.28.03.16.03.22v.22l.47.19c.1.04.2.07.28.09s.15.03.19.03h.25c.54-.5,1.01-.86,1.41-1.09s.78-.34,1.16-.34c.17.08.35.21.56.38s.4.34.56.53.28.38.34.56.05.32-.03.41c.21.08.39.19.53.31s.27.22.38.28.21.08.31.06.2-.11.28-.28V.99l2.94-.38c.17,0,.32.04.47.12s.27.18.38.28.21.23.31.38.2.26.28.34c.21.17.34.34.41.53s.11.36.16.53.09.31.16.44.18.23.34.31c-.17.21-.3.36-.41.47s-.18.19-.22.25-.06.11-.06.16v.19c.08.21.11.39.09.53s-.04.28-.06.41-.01.24.03.34.15.2.31.28c-.08.42-.12.88-.12,1.38s-.02.97-.06,1.41-.16.82-.34,1.16-.49.6-.91.81c-.29,0-.55.02-.78.06s-.45.09-.66.16-.41.11-.59.16-.36.06-.53.06l-1.5-1.5c-.29.08-.53.19-.72.31s-.33.24-.44.34-.19.2-.25.28l-.09.12c-.17-.08-.34-.14-.53-.16s-.36-.03-.53-.03-.31-.01-.44-.03-.23-.07-.31-.16c-.25.08-.55.12-.91.12s-.69.01-1,.03-.57.09-.78.22-.31.38-.31.75c.21.29.41.46.59.5s.36.06.53.06.31.02.44.06.23.19.31.44l-.69,5.25.47.47.22.22c.21-.17.38-.27.5-.31s.25-.06.38-.06.23-.01.31-.03.17-.11.25-.28c.38.17.74.26,1.09.28s.61.03.78.03c.21-.21.39-.32.53-.34s.27-.03.38-.03.21-.02.31-.06.2-.15.28-.31c0-.21.01-.35.03-.44s.06-.14.12-.16.12,0,.19.06l.19.19c.06.06.12.14.19.22l.19.25c.06.08.11.16.16.22l.06.09c0-.21.01-.35.03-.44s.05-.14.09-.16.1-.01.19.03.16.09.22.16.12.14.19.22.11.17.16.25.08.15.12.19l.06.06c0,.17.01.3.03.41s.06.16.12.16.12-.01.19-.03.14-.07.22-.16.16-.17.22-.25.12-.16.19-.22.1-.11.12-.16l.03-.06c.17.17.32.26.47.28s.27.03.38.03.21.02.31.06.2.15.28.31c.17,0,.3.02.41.06s.17.08.19.12.01.09-.03.16-.09.12-.16.19-.15.12-.25.19-.19.12-.25.19-.12.1-.19.12l-.09.03c-.17,0-.29.02-.38.06s-.14.08-.16.12-.01.1.03.19.09.16.16.22.14.12.22.19.16.12.22.19.12.1.19.12l.09.03c.21.38.32.67.34.88s.03.42.03.62c-.17.29-.3.53-.41.72s-.2.36-.28.53-.16.32-.22.47-.14.3-.22.47c.21.38.39.67.53.88s.22.42.22.62c-.38.25-.68.49-.91.72l-.62.62c-.19.19-.36.35-.53.5s-.33.26-.5.34c-.21-.29-.4-.49-.56-.59s-.33-.18-.5-.22-.31-.07-.44-.09-.23-.07-.31-.16c-.21.17-.35.3-.44.41s-.17.18-.25.22-.15.06-.19.06h-.19c-.29-.08-.54-.11-.75-.09s-.4.04-.56.06-.32.02-.47,0-.3-.11-.47-.28c-.17.08-.39.22-.66.41s-.52.4-.75.62-.43.45-.59.66-.25.35-.25.44v1.5c.21.29.32.53.34.72s-.01.34-.09.47-.18.21-.28.25-.2.06-.28.06v2.56c.71.54,1.35.93,1.94,1.16s1.15.34,1.69.34c.17.17.34.38.53.62s.38.48.56.69.38.36.56.47.39.09.59-.03c.17-.33.33-.6.5-.81s.25-.42.25-.62c.5,0,1.02-.07,1.56-.22s.98-.3,1.31-.47c.21,0,.4.05.56.16s.31.24.44.41.23.33.31.5.12.29.12.38c-.08.29-.07.59.03.91s.2.6.28.88.09.51.03.72-.28.35-.66.44c0,.54.07,1.02.22,1.44s.32.79.53,1.12c-.17.29-.27.57-.31.84s-.06.53-.06.78-.01.5-.03.75-.14.46-.34.62c-.54,0-1.01.07-1.41.22s-.76.32-1.09.53l-6,.31c-.25-.08-.47-.15-.66-.19s-.36-.07-.53-.09-.32-.03-.47-.03h-.47l-.47.19c-.1.04-.19.07-.25.09s-.12.03-.19.03h-.28l-.06-.06ZM33.7,44.33c.02-.06.06-.12.12-.19s.12-.14.19-.22.14-.17.22-.25.16-.14.22-.16.11-.02.16,0,.08.07.12.16.06.21.06.38c.08-.08.18-.15.28-.19s.21-.1.31-.19.24-.18.41-.28.33-.24.5-.41c-.08-.17-.18-.27-.28-.31s-.22-.05-.34-.03-.26.04-.41.06-.3-.01-.47-.09c-.08-.08-.2-.06-.34.06s-.3.26-.47.41-.33.24-.5.28-.35-.08-.56-.38c.21.08.32.18.34.28s.03.21.03.31.02.22.06.34.15.29.31.5l.03-.09ZM33.66,40.55c.12-.04.26-.12.41-.25s.31-.26.5-.41.36-.22.53-.22c-.08-.29-.19-.46-.31-.5s-.27-.03-.44.03-.33.11-.5.16-.33.02-.5-.06v1.06c.08.17.19.23.31.19ZM34.48,36.58l1-.06c.33-.02.65-.07.94-.16s.48-.21.56-.38c-.08.08-.28.14-.59.16s-.66.05-1.03.09-.72.09-1.03.16-.51.2-.59.41c.17-.12.42-.2.75-.22ZM39.07,21.3h.84c.12-.33.1-.55-.06-.66s-.38-.18-.62-.22-.52-.08-.81-.12-.52-.1-.69-.19c.17.21.34.41.53.59l.59.59h.22ZM39.07,39.46c.06-.06.12-.14.19-.22s.15-.18.25-.28.24-.26.41-.47c-.08-.17-.17-.26-.25-.28s-.19-.02-.31,0-.26.04-.41.06-.32-.01-.53-.09c-.17.08-.28.19-.34.31s-.06.26,0,.41.16.29.28.44.29.26.5.34l.22-.22ZM47.41,44.77c.08-.06.17-.11.25-.16l.25-.12.12-.06c0-.21-.04-.38-.12-.5s-.17-.27-.25-.44-.17-.34-.25-.53-.12-.43-.12-.72c-.08,0-.16.01-.22.03l-.19.06c-.06.02-.15.05-.25.09s-.24.1-.41.19c-.12.08-.17.2-.12.34s.11.29.22.44.24.3.41.47l.56.56v.44l.12-.09Z"/>
  <path class="st6" d="M64.54,46.8c-.17-.12-.35-.2-.56-.22s-.42-.02-.62,0-.4.03-.56.03c-.21.21-.4.32-.56.34s-.33.01-.5-.03-.32-.1-.47-.19-.28-.12-.41-.12c-.08-.25-.19-.47-.31-.66s-.24-.34-.34-.47-.2-.22-.28-.28l-.12-.09h-1.81l-2.19-2.5v-1.12c.17-.38.26-.73.28-1.06s.03-.58.03-.75c.38-.38.64-.68.78-.91s.14-.43-.03-.59c-.21-.17-.36-.3-.47-.41s-.19-.18-.25-.22-.11-.07-.16-.09-.1-.03-.19-.03c-.21.21-.42.38-.62.5s-.41.2-.59.22-.34-.02-.47-.12-.19-.3-.19-.59c.38-.33.66-.61.84-.84s.28-.43.28-.59c-.21-.08-.39-.17-.53-.25s-.27-.17-.38-.25-.21-.15-.31-.19-.2-.06-.28-.06c0-.54-.08-1.08-.25-1.62s-.44-1-.81-1.38l.19-.38c.04-.08.07-.17.09-.25s.03-.16.03-.22v-.22c.12-.25.29-.49.5-.72l.62-.69c.21-.23.39-.44.53-.62s.22-.36.22-.53l-.53-.53-.22-.22c-.17-.08-.34-.06-.53.06s-.36.26-.53.41-.32.23-.47.25-.26-.09-.34-.34v-1.88c.08-.17.18-.3.28-.41s.17-.19.19-.25-.01-.12-.09-.19-.21-.14-.38-.22v-2.94c.17-.21.27-.4.31-.56s.06-.33.06-.5.02-.31.06-.44.15-.23.31-.31l-.31-3,.19-.47c.04-.1.07-.19.09-.25s.03-.11.03-.16v-.19l.28-.47c.06-.1.1-.19.12-.25s.01-.12-.03-.19-.17-.14-.38-.22v-1.88c.12-.17.21-.3.25-.41s.07-.19.09-.25.03-.12.03-.19v-.22c.21-.17.36-.3.47-.41s.18-.19.22-.25.06-.12.06-.19v-.22c0-.21.02-.43.06-.66s.09-.45.16-.66.15-.4.25-.56.2-.29.28-.38c0-.17.02-.36.06-.59s.08-.45.12-.66.08-.4.12-.56.06-.31.06-.44l5.12-4c.38-.21.73-.38,1.06-.5s.65-.24.94-.34.58-.23.88-.38.56-.36.81-.66h1.5c.25.08.51.11.78.09l.81-.06c.27-.02.55-.02.84,0s.58.14.88.34l.66-.22c.19-.06.36-.1.53-.12s.33-.03.5-.03h.5c.17.21.3.36.41.47s.18.19.22.25.06.11.06.16v.19c.12.38.16.77.09,1.19s-.11.82-.16,1.22-.04.77,0,1.12.19.68.44.97c0,.25-.03.51-.09.78s-.16.51-.28.72-.25.38-.38.5-.23.19-.31.19c-.08.29-.16.57-.22.84s-.11.53-.16.78-.08.49-.12.72-.1.43-.19.59c-.21.08-.41.11-.59.09s-.36-.04-.53-.06-.31-.01-.44.03-.25.15-.38.31c-.33-.17-.67-.27-1-.31s-.6-.06-.81-.06l-2.25,1.5c0,.08-.05.09-.16.03s-.23-.16-.38-.28-.27-.24-.38-.34l-.16-.16c0-.08-.05-.09-.16-.03s-.23.15-.38.25-.27.22-.38.34l-.16.19c.17.17.33.34.5.53s.32.34.47.47.25.24.31.34l.09.16v1.81c.12.17.22.3.28.41s.1.19.12.25.03.12.03.19v.22c-.17.17-.31.34-.44.53s-.23.36-.31.53-.18.32-.28.47-.26.26-.47.34c.21.17.27.34.19.53s-.2.35-.34.5-.25.29-.31.44-.01.28.16.41c.17,0,.36.07.59.22s.44.3.62.47.33.33.44.5l.16.25c-.08.33-.14.67-.16,1s-.05.65-.09.94-.12.58-.25.88-.31.56-.56.81c-.38-.17-.68-.25-.91-.25s-.43.08-.59.25c0,.29.04.53.12.72s.17.34.25.47.17.21.25.25l.12.06c.38.17.66.27.84.31s.36.06.53.06c0,.25.03.54.09.88s.11.65.16.94.08.57.12.84.06.49.06.66l-.53.53c-.19.19-.33.35-.44.5s-.18.29-.22.44,0,.28.12.41c.17.17.29.3.38.41s.17.18.25.22.16.07.22.09.14.03.22.03c0,.17.06.34.19.53s.25.36.38.53.25.31.38.44.19.23.19.31v1.44c.33.38.61.64.84.78s.43.14.59-.03c.38.38.67.65.88.81s.42.17.62,0c.38-.42.68-.76.91-1.03s.45-.49.66-.66.42-.27.62-.31.46-.02.75.06c0,.21.07.4.22.56s.28.33.41.5.22.32.28.47-.01.28-.22.41l-.5.5c-.17.17-.3.33-.41.5s-.18.31-.22.44-.02.23.06.31c.21.08.4.14.56.16s.33.03.5.03.31.01.44.03.23.07.31.16c0,.38.02.73.06,1.06s.08.65.12.94l.12.88c.04.29.06.58.06.88-.08.17-.16.3-.22.41s-.1.19-.12.25-.03.12-.03.19v.22c-.21.17-.35.3-.44.41s-.17.19-.25.25-.15.12-.19.19l-.19.28c-.38-.38-.67-.66-.88-.84s-.42-.28-.62-.28h-1.06c-.29.08-.55.19-.78.31s-.45.26-.66.41-.41.28-.59.41-.39.23-.59.31h-1.06c-.12-.25-.27-.44-.44-.56ZM58.95,32.99c.06,0,.12-.01.19-.03s.15-.05.25-.09.24-.1.41-.19c0-.17-.02-.3-.06-.41s-.1-.18-.19-.22-.18-.05-.28-.03-.2.06-.28.12-.16.14-.22.22-.11.17-.16.25-.05.16-.03.22.07.11.16.16h.22Z"/>
  <path class="st1" d="M82.73,47.3l-.12-.12-.09-.09-.03-.03h-4.06c-.21-.21-.4-.41-.56-.59s-.35-.36-.56-.53c-.25-.08-.52-.08-.81,0s-.57.19-.84.31-.54.21-.81.25-.55-.02-.84-.19v-2.25c-.08-.17-.15-.3-.19-.41s-.07-.19-.09-.25-.03-.12-.03-.19v-.22l.41-.41c.1-.1.18-.2.22-.28s.07-.16.09-.22.03-.16.03-.28v-3.62c.25-.29.44-.55.56-.78s.21-.45.25-.66.07-.4.09-.56.07-.33.16-.5c-.29-.21-.49-.43-.59-.66s-.2-.44-.28-.62-.17-.34-.25-.47-.21-.19-.38-.19v-1.81l1.12-2.56c-.17-.21-.3-.36-.41-.47s-.18-.19-.22-.25-.06-.12-.06-.19v-4.97c.08-.29.22-.55.41-.78s.34-.45.47-.66.2-.41.22-.59-.11-.39-.41-.59c-.08-.25-.11-.51-.09-.78s.03-.53.03-.78-.04-.49-.12-.72-.25-.43-.5-.59c.08-.29.1-.58.06-.88s-.07-.56-.09-.81-.02-.48,0-.69.14-.42.34-.62c-.08-.21-.14-.4-.16-.56s-.03-.33-.03-.5v-.44c0-.12-.04-.23-.12-.31v-2.62c.17-.17.31-.35.44-.56s.2-.41.22-.59-.02-.34-.12-.47-.28-.19-.53-.19c.17-.21.3-.36.41-.47s.18-.19.22-.25.06-.12.06-.19v-.22c-.17-.38-.32-.67-.47-.88s-.22-.4-.22-.56v-1.88c-.12-.17-.22-.3-.28-.41s-.1-.19-.12-.25-.03-.12-.03-.19v-.22c.08-.17.24-.39.47-.66s.46-.51.69-.72.44-.36.62-.47.32-.11.41-.03c.21.08.36.16.47.22s.2.1.28.12.15.03.19.03h.19c.38-.38.68-.66.91-.84s.43-.28.59-.28.32.04.47.12.28.18.41.28.24.23.34.38.2.26.28.34c.17-.21.35-.38.56-.5s.42-.24.62-.34.4-.18.56-.22.31-.06.44-.06c.08.17.15.3.19.41s.07.2.09.28.03.16.03.22v.22l.47.19c.1.04.2.07.28.09s.15.03.19.03h.25c.54-.5,1.01-.86,1.41-1.09s.78-.34,1.16-.34c.17.08.35.21.56.38s.4.34.56.53.28.38.34.56.05.32-.03.41c.21.08.39.19.53.31s.27.22.38.28.21.08.31.06.2-.11.28-.28V.99l2.94-.38c.17,0,.32.04.47.12s.27.18.38.28.21.23.31.38.2.26.28.34c.21.17.34.34.41.53s.11.36.16.53.09.31.16.44.18.23.34.31c-.17.21-.3.36-.41.47s-.18.19-.22.25-.06.11-.06.16v.19c.08.21.11.39.09.53s-.04.28-.06.41-.01.24.03.34.15.2.31.28c-.08.42-.12.88-.12,1.38s-.02.97-.06,1.41-.16.82-.34,1.16-.49.6-.91.81c-.29,0-.55.02-.78.06s-.45.09-.66.16-.41.11-.59.16-.36.06-.53.06l-1.5-1.5c-.29.08-.53.19-.72.31s-.33.24-.44.34-.19.2-.25.28l-.09.12c-.17-.08-.34-.14-.53-.16s-.36-.03-.53-.03-.31-.01-.44-.03-.23-.07-.31-.16c-.25.08-.55.12-.91.12s-.69.01-1,.03-.57.09-.78.22-.31.38-.31.75c.21.29.41.46.59.5s.36.06.53.06.31.02.44.06.23.19.31.44l-.69,5.25.47.47.22.22c.21-.17.38-.27.5-.31s.25-.06.38-.06.23-.01.31-.03.17-.11.25-.28c.38.17.74.26,1.09.28s.61.03.78.03c.21-.21.39-.32.53-.34s.27-.03.38-.03.21-.02.31-.06.2-.15.28-.31c0-.21.01-.35.03-.44s.06-.14.12-.16.12,0,.19.06l.19.19c.06.06.12.14.19.22l.19.25c.06.08.11.16.16.22l.06.09c0-.21.01-.35.03-.44s.05-.14.09-.16.1-.01.19.03.16.09.22.16.12.14.19.22.11.17.16.25.08.15.12.19l.06.06c0,.17.01.3.03.41s.06.16.12.16.12-.01.19-.03.14-.07.22-.16.16-.17.22-.25.12-.16.19-.22.1-.11.12-.16l.03-.06c.17.17.32.26.47.28s.27.03.38.03.21.02.31.06.2.15.28.31c.17,0,.3.02.41.06s.17.08.19.12.01.09-.03.16-.09.12-.16.19-.15.12-.25.19-.19.12-.25.19-.12.1-.19.12l-.09.03c-.17,0-.29.02-.38.06s-.14.08-.16.12-.01.1.03.19.09.16.16.22.14.12.22.19.16.12.22.19.12.1.19.12l.09.03c.21.38.32.67.34.88s.03.42.03.62c-.17.29-.3.53-.41.72s-.2.36-.28.53-.16.32-.22.47-.14.3-.22.47c.21.38.39.67.53.88s.22.42.22.62c-.38.25-.68.49-.91.72l-.62.62c-.19.19-.36.35-.53.5s-.33.26-.5.34c-.21-.29-.4-.49-.56-.59s-.33-.18-.5-.22-.31-.07-.44-.09-.23-.07-.31-.16c-.21.17-.35.3-.44.41s-.17.18-.25.22-.15.06-.19.06h-.19c-.29-.08-.54-.11-.75-.09s-.4.04-.56.06-.32.02-.47,0-.3-.11-.47-.28c-.17.08-.39.22-.66.41s-.52.4-.75.62-.43.45-.59.66-.25.35-.25.44v1.5c.21.29.32.53.34.72s-.01.34-.09.47-.18.21-.28.25-.2.06-.28.06v2.56c.71.54,1.35.93,1.94,1.16s1.15.34,1.69.34c.17.17.34.38.53.62s.38.48.56.69.38.36.56.47.39.09.59-.03c.17-.33.33-.6.5-.81s.25-.42.25-.62c.5,0,1.02-.07,1.56-.22s.98-.3,1.31-.47c.21,0,.4.05.56.16s.31.24.44.41.23.33.31.5.12.29.12.38c-.08.29-.07.59.03.91s.2.6.28.88.09.51.03.72-.28.35-.66.44c0,.54.07,1.02.22,1.44s.32.79.53,1.12c-.17.29-.27.57-.31.84s-.06.53-.06.78-.01.5-.03.75-.14.46-.34.62c-.54,0-1.01.07-1.41.22s-.76.32-1.09.53l-6,.31c-.25-.08-.47-.15-.66-.19s-.36-.07-.53-.09-.32-.03-.47-.03h-.47l-.47.19c-.1.04-.19.07-.25.09s-.12.03-.19.03h-.28l-.06-.06ZM78.07,44.33c.02-.06.06-.12.12-.19s.12-.14.19-.22.14-.17.22-.25.16-.14.22-.16.11-.02.16,0,.08.07.12.16.06.21.06.38c.08-.08.18-.15.28-.19s.21-.1.31-.19.24-.18.41-.28.33-.24.5-.41c-.08-.17-.18-.27-.28-.31s-.22-.05-.34-.03-.26.04-.41.06-.3-.01-.47-.09c-.08-.08-.2-.06-.34.06s-.3.26-.47.41-.33.24-.5.28-.35-.08-.56-.38c.21.08.32.18.34.28s.03.21.03.31.02.22.06.34.15.29.31.5l.03-.09ZM78.04,40.55c.12-.04.26-.12.41-.25s.31-.26.5-.41.36-.22.53-.22c-.08-.29-.19-.46-.31-.5s-.27-.03-.44.03-.33.11-.5.16-.33.02-.5-.06v1.06c.08.17.19.23.31.19ZM78.85,36.58l1-.06c.33-.02.65-.07.94-.16s.48-.21.56-.38c-.08.08-.28.14-.59.16s-.66.05-1.03.09-.72.09-1.03.16-.51.2-.59.41c.17-.12.42-.2.75-.22ZM83.45,21.3h.84c.12-.33.1-.55-.06-.66s-.38-.18-.62-.22-.52-.08-.81-.12-.52-.1-.69-.19c.17.21.34.41.53.59l.59.59h.22ZM83.45,39.46c.06-.06.12-.14.19-.22s.15-.18.25-.28.24-.26.41-.47c-.08-.17-.17-.26-.25-.28s-.19-.02-.31,0-.26.04-.41.06-.32-.01-.53-.09c-.17.08-.28.19-.34.31s-.06.26,0,.41.16.29.28.44.29.26.5.34l.22-.22ZM91.79,44.77c.08-.06.17-.11.25-.16l.25-.12.12-.06c0-.21-.04-.38-.12-.5s-.17-.27-.25-.44-.17-.34-.25-.53-.12-.43-.12-.72c-.08,0-.16.01-.22.03l-.19.06c-.06.02-.15.05-.25.09s-.24.1-.41.19c-.12.08-.17.2-.12.34s.11.29.22.44.24.3.41.47l.56.56v.44l.12-.09Z"/>
  <path class="st5" d="M97.48,44.74c.38-1.25.39-2.44.03-3.56s-.22-2.23.41-3.31c-.25-.54-.33-.95-.25-1.22s.02-.59-.19-.97c.58-.17.85-.47.81-.91s-.06-.74-.06-.91c-.75-.71-1-1.21-.75-1.5.29-.46.44-.81.44-1.06,0-.38-.22-.72-.66-1.03s-.47-.59-.09-.84c.5-.5.75-.85.75-1.06-.25-.5-.29-1.02-.12-1.56s.06-1-.31-1.38v-2.5c.29-.25.44-.62.44-1.12-.25-.71-.31-1.42-.19-2.12s-.06-1.33-.56-1.88c.38-.38.6-.68.69-.91s.21-.41.38-.53c0,.75.18.86.53.34l.53-.78c-.54-.33-.93-.51-1.16-.53s-.45-.3-.66-.84c0-.58.2-1.19.59-1.81s.59-1.12.59-1.5c0-.33-.15-.61-.44-.84s-.54-.43-.75-.59c.38-.54.72-.83,1.03-.88s.47-.25.47-.62c-.38-.33-.72-.66-1.03-.97l-.47-.47v-1.81c1-1,1.4-1.6,1.19-1.81-.79-.75-1.04-1.23-.75-1.44.5-.54.85-.81,1.06-.81.33-.17.67-.22,1-.16s.58-.01.75-.22c.58,0,1.01.25,1.28.75s.59.75.97.75c0,.21.18.14.53-.22l.53-.53h3.31c.17.38.29.61.38.72s-.04.24-.38.41c.54.21.91.52,1.09.94s.55.81,1.09,1.19c-.75.75-1,1.25-.75,1.5.38.21.73.28,1.06.22s.6-.01.81.16c.12,1.12.21,2.25.25,3.38s.42,1.94,1.12,2.44c-.17.42-.11.85.16,1.31s.22.77-.16.94c.46,1.25.6,2.08.44,2.5.12.38.41.77.84,1.19s.76.62.97.62c.17-.12.33-.29.5-.5s.35-.4.56-.56c0-.58-.1-1.06-.31-1.44s-.23-.75-.06-1.12c.25-.46.38-1.08.38-1.88.96-.96,1.58-1.31,1.88-1.06.46.25.81.38,1.06.38.54.33.92.33,1.12,0-.21-.38-.29-.77-.25-1.19s-.1-.62-.44-.62c-.42-.12-.79-.17-1.12-.12s-.58-.02-.75-.19v-2.25c.17-.5.32-.9.47-1.19s.22-.62.22-1c.79-.79,1.19-1.29,1.19-1.5-.25-.5-.35-1.05-.31-1.66s.25-.99.62-1.16l7.69-.44c.42-.25,1.02-.38,1.81-.38.46.54.81.81,1.06.81.25.46.38,1.04.38,1.75,0,.38-.22.74-.66,1.09s-.47.59-.09.72c-.38.25-.73.52-1.06.81s-.6.52-.81.69c.21.54.54.8,1,.78s.88-.03,1.25-.03c-.21.38-.28.73-.22,1.06s.01.56-.16.69c.5.5.75.9.75,1.19l.31,6.06c.21.62.09,1.19-.34,1.69s-.55.94-.34,1.31c.25.5.38.98.38,1.44-.38.38-.61.67-.72.88s-.24.42-.41.62c.5.5.88.85,1.12,1.06,0,1-.25,1.75-.75,2.25.38.75.69,1.46.94,2.12s.19,1.29-.19,1.88c.12.75.11,1.47-.03,2.16s-.03,1.3.34,1.84c-.21.5-.31,1.1-.31,1.81v5.81c.12.38.25.61.38.72s0,.24-.38.41v2.5l-2.19,1.88h-1.06c-.58-.38-1.1-.82-1.56-1.34s-.69-.34-.69.53c-.38-.12-.73-.17-1.06-.12s-.56-.02-.69-.19c-.79.79-1.29,1.04-1.5.75l-.53-.53-.22-.22c-.25-.5-.38-.98-.38-1.44.25-.5.38-1.1.38-1.81-.54-.71-.6-1.42-.19-2.12s.35-1.33-.19-1.88c0-.58.24-1,.72-1.25s.72-.58.72-1c-.17-.5-.39-.86-.66-1.09l-.41-.34c-.21-.5-.23-1.02-.06-1.56s.06-1-.31-1.38l1.44-2.12c-.54-.38-.81-.73-.81-1.06s-.08-.6-.25-.81c.25-.71.38-1.42.38-2.12-.25-.5-.38-.9-.38-1.19.38-.5.67-.98.88-1.44s.04-.69-.5-.69c-.54-.21-.95-.27-1.22-.19s-.57,0-.91-.25c-.42.42-.75.85-1,1.31s-.19.77.19.94c-.21.75-.25,1.45-.12,2.09s-.06,1.03-.56,1.16v2.56c-.25.5-.38.88-.38,1.12-.25.46-.38.81-.38,1.06-.58.38-1.06.72-1.44,1.03s-.75.47-1.12.47c-.46-.5-.83-.88-1.12-1.12.21-.38.19-.66-.06-.84s-.48-.39-.69-.59c.21-.17.39-.33.53-.5l.22-.25c-1.21-.75-1.69-1.38-1.44-1.88-.38-.5-.7-.95-.97-1.34s-.3-.78-.09-1.16c-.75-.75-1.12-1.25-1.12-1.5-.21-.5-.23-.89-.06-1.16s.06-.59-.31-.97c-.54,0-.92.12-1.12.38l-.31.38c0,.92-.08,1.69-.25,2.31s-.31,1.29-.44,2c.12.54.12,1.05,0,1.53s.1.72.69.72c.17.54.18,1.06.03,1.56s-.03.94.34,1.31c-.21.75-.24,1.48-.09,2.19s.05,1.31-.28,1.81l.38,6.62c-.25.46-.38,1.04-.38,1.75-.62.92-1.23,1.54-1.81,1.88-.54-.17-.96-.18-1.25-.03s-.62.03-1-.34h-1.75c-.42.21-.73.39-.94.53s-.4.22-.56.22l-2.56-2.62ZM99.88,42.61h1.28c.17-.17.06-.45-.31-.84s-.65-.59-.81-.59c-.38-.21-.57-.18-.59.09s-.28.59-.78.97l.16.19.16.19h.91ZM103.32,21.42h.72c.21-.17.3-.42.28-.75s.26-.69.84-1.06l-.25-.19c-.17-.12-.31-.31-.44-.56-.38.25-.59.55-.66.91s-.34.43-.84.22v1.44h.34ZM105.73,35.83l.19-.16c.12-.17-.06-.52-.56-1.06s-.94-.94-1.31-1.19c0,.71.5,1.56,1.5,2.56l.19-.16ZM107.01,21.05h.34v-1.06c-.21-.17-.47-.11-.78.16s-.28.57.09.91h.34ZM114.98,27.61c-.17-.33-.39-.4-.66-.19s-.41.4-.41.56c.25,0,.6-.12,1.06-.38ZM127.35,41.17l-.5-.59c-.33-.4-.38-.59-.12-.59-.38-.33-.71-.57-1-.72s-.71-.49-1.25-1.03c-.75,0-.94.09-.56.28s.56.45.56.78c0,.58.01.83.03.75s.14-.21.34-.38c.25,0,.62.1,1.12.31-.38.25-.5.47-.38.66s0,.47-.38.84c-.38-.38-.36-.32.03.16s.51.8.34.97l1.75-1.44Z"/>
  <path class="st3" d="M142.13,47.42s-.05-.07-.09-.09-.08-.05-.12-.09l-.06-.06h-1.81c0-.17-.06-.33-.19-.5s-.27-.32-.44-.47-.33-.26-.5-.34-.29-.12-.38-.12l-.53.53-.47.47-.31.31-.12.12h-3c-.38-.33-.65-.61-.81-.84s-.25-.43-.25-.59c-.08-.46-.16-.88-.22-1.25s-.11-.74-.16-1.09-.08-.7-.12-1.03-.12-.69-.25-1.06c.12-.29.19-.54.19-.75v-.62c0-.21.01-.42.03-.62s.07-.4.16-.56v-1.81c.21-.17.35-.36.44-.59s.17-.45.25-.66.19-.4.31-.56.27-.29.44-.38c0-.29-.07-.53-.22-.72s-.31-.36-.5-.53-.35-.33-.5-.5-.22-.33-.22-.5c.21-.33.32-.67.34-1s.03-.6.03-.81c-.17-.17-.27-.34-.31-.53s-.06-.36-.06-.53-.01-.31-.03-.44-.14-.23-.34-.31c.21-.38.32-.73.34-1.06s.03-.58.03-.75c.21-.08.38-.2.5-.34s.25-.25.38-.31.23-.08.31-.06.17.11.25.28c.38-.33.67-.6.88-.81s.31-.42.31-.62c-.12-.17-.18-.34-.16-.53s.04-.35.06-.5.02-.29,0-.44-.14-.26-.34-.34c-.25.08-.47.19-.66.31s-.34.25-.47.38l-.28.28-.09.09c.21,0,.35.02.44.06s.14.08.16.12.01.1-.03.19-.09.16-.16.22-.14.12-.22.19l-.25.19c-.08.06-.15.1-.19.12l-.06.03c-.17-.38-.27-.67-.31-.88s-.06-.4-.06-.56v-3.31c.08-.17.16-.3.22-.41s.1-.2.12-.28.03-.15.03-.19v-.19c.25-.12.45-.27.59-.44s.25-.34.31-.53.1-.36.12-.53.03-.31.03-.44c-.17,0-.35-.02-.56-.06s-.41-.1-.59-.19-.34-.19-.47-.31-.19-.29-.19-.5v-5.06l.47-.47.25-.25c.06-.06.11-.12.16-.19l.19-.28c.21,0,.42-.02.62-.06s.41-.1.59-.19.35-.19.5-.31.22-.29.22-.5c0,.08-.06.09-.19.03s-.26-.15-.41-.25-.28-.21-.41-.31l-.19-.16c-.17-.21-.31-.42-.44-.62s-.23-.42-.31-.62-.17-.41-.25-.59-.23-.32-.44-.41c.08-.29.16-.53.22-.72s.09-.36.09-.53-.03-.32-.09-.47-.14-.32-.22-.53v-1.06c.29-.17.57-.36.84-.59s.52-.45.75-.66.43-.4.59-.56.31-.29.44-.38h4.75c.21.17.4.27.56.31s.32.06.47.06.29.01.44.03.26.11.34.28c.08-.25.21-.43.38-.53s.35-.17.56-.19.43-.02.66,0,.43.03.59.03c.17.17.33.32.5.47l.25.22.41-.41c.1-.1.19-.18.25-.22s.12-.06.19-.06h2.03c.21.08.36.16.47.22s.19.1.25.12.12.03.19.03h.28l2.12,1.81c.38-.38.68-.64.91-.78s.43-.14.59.03l4,4.06c.12.17.18.32.16.47s-.04.28-.06.41-.02.23,0,.31.14.17.34.25c-.21.21-.32.41-.34.59s-.03.35-.03.5-.02.29-.06.44-.15.26-.31.34l.75,2.19c-.17.08-.26.18-.28.28s-.02.21,0,.31.06.21.12.31.11.2.16.28l.12.25c.04.08.04.15,0,.19s-.14.08-.28.12-.34.06-.59.06c0,.58.07,1.14.22,1.66s.32.95.53,1.28c-.21.21-.35.42-.44.62s-.16.42-.22.62-.09.41-.09.59v.41c-.17,0-.32.04-.47.12s-.28.18-.41.28-.24.22-.34.34-.2.23-.28.31c0,.29-.07.53-.22.72s-.31.36-.5.53-.35.32-.5.47-.22.32-.22.53c.25.38.55.67.91.88s.69.41,1,.59.59.39.84.59.42.48.5.81v1.12c-.17.38-.32.67-.47.88s-.22.42-.22.62c.25.08.47.19.66.31s.34.24.47.34.21.2.25.28l.06.12c.08.25.11.51.09.78s-.02.51,0,.72.07.38.16.5.25.19.5.19v5.5c-.08.17-.16.3-.22.41s-.1.2-.12.28-.04.16-.06.22-.03.14-.03.22c-.25.17-.45.34-.59.53s-.26.36-.34.53l-.22.44c-.06.12-.14.23-.22.31.08,0,.2.06.34.19s.29.26.44.41.25.3.31.47.05.29-.03.38c-.17,0-.35.08-.56.25s-.41.34-.59.53-.34.35-.47.5l-.19.22v1.5c-.29.33-.57.58-.84.75s-.53.31-.78.44-.49.25-.72.38-.43.33-.59.62c-.54,0-1.01.09-1.41.28s-.78.45-1.16.78c-.38.12-.67.21-.88.25s-.42.06-.62.06c-.17-.17-.32-.26-.47-.28s-.27-.03-.38-.03-.21-.02-.31-.06-.2-.15-.28-.31c0-.17-.02-.3-.06-.41s-.08-.16-.12-.16-.09.02-.16.06-.12.09-.19.16-.12.14-.19.22l-.19.25c-.06.08-.1.15-.12.19l-.03.06c-.42-.17-.79-.27-1.12-.31s-.58-.06-.75-.06-.34.07-.53.22-.36.28-.53.41-.31.21-.44.25-.25-.02-.38-.19l-.03-.06ZM135.04,31.11v-.44c0-.17.01-.34.03-.53s.09-.36.22-.53c-.21-.29-.36-.42-.47-.38s-.2.16-.28.34-.18.4-.28.62-.26.39-.47.47c.08,0,.15.01.19.03s.09.05.16.09.16.11.28.22.27.24.44.41c.12-.08.19-.19.19-.31ZM137.41,12.21c.12-.06.27-.17.44-.31l.5-.44c.17-.15.35-.22.56-.22,0-.08-.01-.16-.03-.22l-.06-.19c-.02-.06-.05-.15-.09-.25s-.1-.24-.19-.41c-.38-.08-.6-.07-.69.03s-.14.26-.16.47-.06.44-.12.69-.22.46-.47.62c.08.21.19.28.31.22ZM139.41,17.77c.08-.02.17-.05.25-.09l.25-.12.12-.06h-1.5l.22.03c.15.02.32.11.53.28l.12-.03ZM139.95,13.11c.02-.12.02-.27,0-.44s-.03-.33-.03-.5.04-.33.12-.5c0,.08-.05.19-.16.31s-.21.27-.31.44-.17.33-.19.5.05.35.22.56c.21-.12.32-.25.34-.38ZM141.57,5.67c.06-.04.15-.08.25-.12s.19-.08.25-.12l.09-.06c0-.17-.03-.26-.09-.28s-.15,0-.25.06-.19.16-.25.28-.09.23-.09.31l.09-.06ZM145.57,40.17c.06-.04.15-.08.25-.12s.19-.08.25-.12l.09-.06c-.04-.08-.09-.16-.16-.22l-.19-.19c-.06-.06-.15-.16-.25-.28s-.26-.27-.47-.44l2.25-2.5c0-.21.02-.41.06-.59s.08-.39.12-.59.07-.43.09-.66.03-.47.03-.72l1.88-1.88c-.17-.25-.36-.5-.59-.75s-.46-.49-.69-.72-.46-.47-.69-.72-.43-.5-.59-.75c-.08-.17-.22-.31-.41-.44s-.39-.23-.59-.31-.42-.18-.62-.28-.4-.24-.56-.41c-.38.08-.7.25-.97.5s-.53.55-.78.91-.47.72-.66,1.09-.36.75-.53,1.12v.25s.02.09.06.16.11.15.22.25l.41.41v3.31c-.17.21-.34.41-.53.59l-.53.53c.08.08.17.19.25.31s.19.25.31.38.25.23.38.31.29.12.5.12c.17-.08.35-.06.56.06s.41.3.59.53.4.44.62.62.49.28.78.28v1.06l.09-.06ZM143.66,19.83v-.84l3.69-2.94v-.59c0-.19.03-.39.09-.59s.14-.43.22-.66.23-.47.44-.72c.08-.21.03-.42-.16-.62s-.42-.44-.69-.69-.52-.52-.75-.81-.34-.58-.34-.88h-1.75c-.08-.25-.19-.35-.31-.31s-.27.12-.44.25-.34.26-.53.41-.39.18-.59.09c-.25.17-.38.32-.38.47s.04.3.12.47.17.34.25.53.08.41,0,.66c.29.21.46.39.5.53s.01.3-.09.47-.23.34-.38.53-.28.43-.41.72v1.44c0,.17.09.36.28.59s.49.53.91.91c0,.17.01.42.03.75s.11.69.28,1.06v-.22ZM148.54,27.36c.08-.04.18-.08.28-.12s.19-.08.25-.12l.09-.06c.08-.29.07-.51-.03-.66s-.26-.26-.47-.34-.44-.12-.69-.12h-.62c0,.17.08.35.25.56s.44.52.81.94l.12-.06ZM150.38,33.99h.59c.08-.12.14-.24.16-.34s0-.18-.06-.22-.14-.07-.22-.09-.17-.03-.25-.03-.17.02-.25.06-.15.09-.19.16-.06.14-.06.22.06.17.19.25h.09ZM151.48,11.99h.69c.08-.12.12-.24.12-.34s-.02-.18-.06-.22-.1-.07-.19-.09-.18-.03-.28-.03-.2.02-.28.06-.15.09-.19.16-.06.14-.06.22.04.17.12.25h.12ZM151.57,4.67h.91c-.08-.12-.19-.21-.31-.25s-.25-.06-.38-.06-.23.02-.31.06-.12.12-.12.25h.22Z"/>
  <path class="st2" d="M168.29,47.3l-.12-.12-.09-.09-.03-.03h-4.06c-.21-.21-.4-.41-.56-.59s-.35-.36-.56-.53c-.25-.08-.52-.08-.81,0s-.57.19-.84.31-.54.21-.81.25-.55-.02-.84-.19v-2.25c-.08-.17-.15-.3-.19-.41s-.07-.19-.09-.25-.03-.12-.03-.19v-.22l.41-.41c.1-.1.18-.2.22-.28s.07-.16.09-.22.03-.16.03-.28v-3.62c.25-.29.44-.55.56-.78s.21-.45.25-.66.07-.4.09-.56.07-.33.16-.5c-.29-.21-.49-.43-.59-.66s-.2-.44-.28-.62-.17-.34-.25-.47-.21-.19-.38-.19v-1.81l1.12-2.56c-.17-.21-.3-.36-.41-.47s-.18-.19-.22-.25-.06-.12-.06-.19v-4.97c.08-.29.22-.55.41-.78s.34-.45.47-.66.2-.41.22-.59-.11-.39-.41-.59c-.08-.25-.11-.51-.09-.78s.03-.53.03-.78-.04-.49-.12-.72-.25-.43-.5-.59c.08-.29.1-.58.06-.88s-.07-.56-.09-.81-.02-.48,0-.69.14-.42.34-.62c-.08-.21-.14-.4-.16-.56s-.03-.33-.03-.5v-.44c0-.12-.04-.23-.12-.31v-2.62c.17-.17.31-.35.44-.56s.2-.41.22-.59-.02-.34-.12-.47-.28-.19-.53-.19c.17-.21.3-.36.41-.47s.18-.19.22-.25.06-.12.06-.19v-.22c-.17-.38-.32-.67-.47-.88s-.22-.4-.22-.56v-1.88c-.12-.17-.22-.3-.28-.41s-.1-.19-.12-.25-.03-.12-.03-.19v-.22c.08-.17.24-.39.47-.66s.46-.51.69-.72.44-.36.62-.47.32-.11.41-.03c.21.08.36.16.47.22s.2.1.28.12.15.03.19.03h.19c.38-.38.68-.66.91-.84s.43-.28.59-.28.32.04.47.12.28.18.41.28.24.23.34.38.2.26.28.34c.17-.21.35-.38.56-.5s.42-.24.62-.34.4-.18.56-.22.31-.06.44-.06c.08.17.15.3.19.41s.07.2.09.28.03.16.03.22v.22l.47.19c.1.04.2.07.28.09s.15.03.19.03h.25c.54-.5,1.01-.86,1.41-1.09s.78-.34,1.16-.34c.17.08.35.21.56.38s.4.34.56.53.28.38.34.56.05.32-.03.41c.21.08.39.19.53.31s.27.22.38.28.21.08.31.06.2-.11.28-.28V.99l2.94-.38c.17,0,.32.04.47.12s.27.18.38.28.21.23.31.38.2.26.28.34c.21.17.34.34.41.53s.11.36.16.53.09.31.16.44.18.23.34.31c-.17.21-.3.36-.41.47s-.18.19-.22.25-.06.11-.06.16v.19c.08.21.11.39.09.53s-.04.28-.06.41-.01.24.03.34.15.2.31.28c-.08.42-.12.88-.12,1.38s-.02.97-.06,1.41-.16.82-.34,1.16-.49.6-.91.81c-.29,0-.55.02-.78.06s-.45.09-.66.16-.41.11-.59.16-.36.06-.53.06l-1.5-1.5c-.29.08-.53.19-.72.31s-.33.24-.44.34-.19.2-.25.28l-.09.12c-.17-.08-.34-.14-.53-.16s-.36-.03-.53-.03-.31-.01-.44-.03-.23-.07-.31-.16c-.25.08-.55.12-.91.12s-.69.01-1,.03-.57.09-.78.22-.31.38-.31.75c.21.29.41.46.59.5s.36.06.53.06.31.02.44.06.23.19.31.44l-.69,5.25.47.47.22.22c.21-.17.38-.27.5-.31s.25-.06.38-.06.23-.01.31-.03.17-.11.25-.28c.38.17.74.26,1.09.28s.61.03.78.03c.21-.21.39-.32.53-.34s.27-.03.38-.03.21-.02.31-.06.2-.15.28-.31c0-.21.01-.35.03-.44s.06-.14.12-.16.12,0,.19.06l.19.19c.06.06.12.14.19.22l.19.25c.06.08.11.16.16.22l.06.09c0-.21.01-.35.03-.44s.05-.14.09-.16.1-.01.19.03.16.09.22.16.12.14.19.22.11.17.16.25.08.15.12.19l.06.06c0,.17.01.3.03.41s.06.16.12.16.12-.01.19-.03.14-.07.22-.16.16-.17.22-.25.12-.16.19-.22.1-.11.12-.16l.03-.06c.17.17.32.26.47.28s.27.03.38.03.21.02.31.06.2.15.28.31c.17,0,.3.02.41.06s.17.08.19.12.01.09-.03.16-.09.12-.16.19-.15.12-.25.19-.19.12-.25.19-.12.1-.19.12l-.09.03c-.17,0-.29.02-.38.06s-.14.08-.16.12-.01.1.03.19.09.16.16.22.14.12.22.19.16.12.22.19.12.1.19.12l.09.03c.21.38.32.67.34.88s.03.42.03.62c-.17.29-.3.53-.41.72s-.2.36-.28.53-.16.32-.22.47-.14.3-.22.47c.21.38.39.67.53.88s.22.42.22.62c-.38.25-.68.49-.91.72l-.62.62c-.19.19-.36.35-.53.5s-.33.26-.5.34c-.21-.29-.4-.49-.56-.59s-.33-.18-.5-.22-.31-.07-.44-.09-.23-.07-.31-.16c-.21.17-.35.3-.44.41s-.17.18-.25.22-.15.06-.19.06h-.19c-.29-.08-.54-.11-.75-.09s-.4.04-.56.06-.32.02-.47,0-.3-.11-.47-.28c-.17.08-.39.22-.66.41s-.52.4-.75.62-.43.45-.59.66-.25.35-.25.44v1.5c.21.29.32.53.34.72s-.01.34-.09.47-.18.21-.28.25-.2.06-.28.06v2.56c.71.54,1.35.93,1.94,1.16s1.15.34,1.69.34c.17.17.34.38.53.62s.38.48.56.69.38.36.56.47.39.09.59-.03c.17-.33.33-.6.5-.81s.25-.42.25-.62c.5,0,1.02-.07,1.56-.22s.98-.3,1.31-.47c.21,0,.4.05.56.16s.31.24.44.41.23.33.31.5.12.29.12.38c-.08.29-.07.59.03.91s.2.6.28.88.09.51.03.72-.28.35-.66.44c0,.54.07,1.02.22,1.44s.32.79.53,1.12c-.17.29-.27.57-.31.84s-.06.53-.06.78-.01.5-.03.75-.14.46-.34.62c-.54,0-1.01.07-1.41.22s-.76.32-1.09.53l-6,.31c-.25-.08-.47-.15-.66-.19s-.36-.07-.53-.09-.32-.03-.47-.03h-.47l-.47.19c-.1.04-.19.07-.25.09s-.12.03-.19.03h-.28l-.06-.06ZM163.63,44.33c.02-.06.06-.12.12-.19s.12-.14.19-.22.14-.17.22-.25.16-.14.22-.16.11-.02.16,0,.08.07.12.16.06.21.06.38c.08-.08.18-.15.28-.19s.21-.1.31-.19.24-.18.41-.28.33-.24.5-.41c-.08-.17-.18-.27-.28-.31s-.22-.05-.34-.03-.26.04-.41.06-.3-.01-.47-.09c-.08-.08-.2-.06-.34.06s-.3.26-.47.41-.33.24-.5.28-.35-.08-.56-.38c.21.08.32.18.34.28s.03.21.03.31.02.22.06.34.15.29.31.5l.03-.09ZM163.6,40.55c.12-.04.26-.12.41-.25s.31-.26.5-.41.36-.22.53-.22c-.08-.29-.19-.46-.31-.5s-.27-.03-.44.03-.33.11-.5.16-.33.02-.5-.06v1.06c.08.17.19.23.31.19ZM164.41,36.58l1-.06c.33-.02.65-.07.94-.16s.48-.21.56-.38c-.08.08-.28.14-.59.16s-.66.05-1.03.09-.72.09-1.03.16-.51.2-.59.41c.17-.12.42-.2.75-.22ZM169.01,21.3h.84c.12-.33.1-.55-.06-.66s-.38-.18-.62-.22-.52-.08-.81-.12-.52-.1-.69-.19c.17.21.34.41.53.59l.59.59h.22ZM169.01,39.46c.06-.06.12-.14.19-.22s.15-.18.25-.28.24-.26.41-.47c-.08-.17-.17-.26-.25-.28s-.19-.02-.31,0-.26.04-.41.06-.32-.01-.53-.09c-.17.08-.28.19-.34.31s-.06.26,0,.41.16.29.28.44.29.26.5.34l.22-.22ZM177.35,44.77c.08-.06.17-.11.25-.16l.25-.12.12-.06c0-.21-.04-.38-.12-.5s-.17-.27-.25-.44-.17-.34-.25-.53-.12-.43-.12-.72c-.08,0-.16.01-.22.03l-.19.06c-.06.02-.15.05-.25.09s-.24.1-.41.19c-.12.08-.17.2-.12.34s.11.29.22.44.24.3.41.47l.56.56v.44l.12-.09Z"/>
  <path class="st4" d="M204.04,47.05c-.5-.04-.92-.06-1.25-.06h-1.81c0-.38-.22-.73-.66-1.06s-.47-.6-.09-.81c-.54-.33-.83-.71-.88-1.12s-.23-.62-.56-.62v-2.62c-.71-.71-1.21-1.06-1.5-1.06-.54-.5-.68-1.05-.41-1.66s.05-1.03-.66-1.28c-.21-.5-.26-.98-.16-1.44s-.09-.69-.59-.69v-1.19l-2.5-3.25c-.38,0-.77.09-1.19.28s-.52.47-.31.84c.5.38.81.73.94,1.06s.31.58.56.75c-.38.75-.88,1.18-1.5,1.28s-1.1.53-1.44,1.28c.5.54,1.05.73,1.66.56s1.03,0,1.28.5c-.25.75-.23,1.42.06,2s.27,1.15-.06,1.69c.12.75.11,1.41-.03,1.97s-.03,1.11.34,1.66c-.21.46-.31.81-.31,1.06l-2.56,1.88c-.62-.54-1.16-.77-1.59-.69s-.66.31-.66.69h-2.5c-.5-.54-.88-.81-1.12-.81-.38-.12-.72-.17-1.03-.12s-.57-.02-.78-.19v-2.19c.38-.38.5-.72.38-1.03s0-.57.38-.78c-.67-.96-.77-1.81-.31-2.56-.25-.33-.33-.67-.25-1s.02-.62-.19-.88c-.21-.33-.28-.67-.22-1s.01-.58-.16-.75c0,.17.19.08.56-.25l.56-.5.47-.47.28-.28c.46-.5.79-.85,1-1.06-.46-.54-.69-.92-.69-1.12-.38.38-.72.74-1.03,1.09s-.57.24-.78-.34c0-.5-.11-.96-.34-1.38s-.24-.81-.03-1.19c.25-.71.38-1.44.38-2.19-.21-.71-.34-1.45-.41-2.22s.22-1.24.84-1.41h1.06l1.44-1.44c.71,0,.81-.19.31-.56l-.75-.56c-.5-.17-1.04.02-1.62.56s-.88.35-.88-.56c.5-.38.76-.72.78-1.03s.11-.57.28-.78l-.31-2.94c-.5-.46-.75-.83-.75-1.12-.21-.33-.28-.66-.22-.97s.01-.57-.16-.78c.17-.75.24-1.53.22-2.34s.18-1.49.59-2.03v-2.19c.21-.5.31-.88.31-1.12-.17-.17-.35-.33-.56-.5s-.4-.38-.56-.62c0-.5.11-.95.34-1.34s.24-.78.03-1.16c0-.38.25-.78.75-1.22l.75-.66c.33-.17.59-.18.78-.03s.41.03.66-.34c.38.38.66.5.84.38s.39,0,.59.38c0,.75.18.88.53.38l.53-.75c.5.21,1.05.41,1.66.59s.91-.01.91-.59c.38-.17.73-.22,1.06-.16s.58-.01.75-.22h1.88c.5.38.83.78,1,1.22s.44.66.81.66c0-.33.14-.61.41-.84s.49-.45.66-.66l5.12.38c.5.38.96.82,1.38,1.34s.81.7,1.19.53c.75.67,1.23.88,1.44.62l1.44,1.5c-.75,0-.86.19-.34.56l.78.56c-.62.96-.77,1.81-.44,2.56h1.12c0,.54-.1,1.01-.31,1.41s-.23.78-.06,1.16c.75.71,1.12,1.21,1.12,1.5v2.5c.21.5.31.83.31,1,0,.62-.23,1.06-.69,1.31s-.58.56-.38.94c.5.5.75.88.75,1.12-.21.38-.24.73-.09,1.06s.05.58-.28.75l-.75,5.5c-.83,1.42-2.04,2.75-3.62,4,.12,1.25.56,2.23,1.31,2.94s1.27,2.04,1.56,4v1.44c.38.54.78.89,1.22,1.03s.66.41.66.78c.38.96.56,1.75.56,2.38s.31,1.29.94,2c-.5.5-.9.75-1.19.75-.79-.5-1.27-.75-1.44-.75-.38.38-.7.72-.97,1.03l-.41.47h-1.5c-.62-.17-1.19-.27-1.69-.31ZM186.41,44.05v.38l.03.22c.02.15.11.3.28.47,0-.25-.1-.6-.31-1.06ZM187.48,9.36h.69c.21-.17-.02-.65-.69-1.44-.21.21-.47.42-.78.62s-.18.48.41.81h.38ZM195.7,23.99c.27-.08.7-.31,1.28-.69.12.71.36.79.72.25s.72-.62,1.09-.25l.22-.22c.15-.15.3-.32.47-.53,0-.29-.1-.67-.31-1.12v-4c.12-.17.17-.42.12-.75s.02-.69.19-1.06c-.38-.38-.55-.75-.53-1.12s-.16-.83-.53-1.38c.38-.21.48-.48.31-.81s-.15-.69.06-1.06c-.38-.33-.82-.43-1.34-.28s-1.05.11-1.59-.09c0-.75-.22-.98-.66-.69s-.82.17-1.16-.38l-.53.5c-.35.33-.53.42-.53.25-.5,2.08-.62,4.01-.38,5.78s.38,3.59.38,5.47c0,.21.23.58.69,1.12-.58.21-.55.46.09.75s.97.52.97.69c.38-.17.7-.29.97-.38ZM194.38,7.61h.34c0-.54-.15-.75-.44-.62s-.62.08-1-.12l.22.25c.15.17.32.33.53.5h.34ZM195.1,29.42h.38v-1.06c-.54-.17-.75-.12-.62.12s.08.56-.12.94h.38ZM200.76,10.71l.22-.16c.12,0,.01-.26-.34-.78s-.61-.51-.78.03c0,.17.11.29.34.38s.34.31.34.69l.22-.16ZM202.41,43.14l.38-.22c0-.21-.12-.56-.38-1.06-.21.21-.46.42-.75.62s-.17.5.38.88l.38-.22ZM203.35,17.99c.38-.38.19-.56-.56-.56l-.56.56c-.38.38-.19.56.56.56l.56-.56ZM203.13,8.83c.15-.23.16-.53.03-.91-.38.21-.51.47-.41.78s.34.53.72.66c-.38-.12-.49-.3-.34-.53Z"/>
  <path class="st9" d="M246.76,46.83c-.1-.06-.19-.1-.25-.12s-.12-.03-.19-.03h-.22c0-.12-.06-.29-.19-.5s-.25-.39-.38-.53-.25-.19-.38-.12-.19.3-.19.72h-1.75c-.25-.17-.49-.29-.72-.38s-.45-.18-.66-.28l-.62-.31c-.21-.1-.4-.24-.56-.41.08-.38.12-.72.12-1.03s0-.61-.03-.91-.02-.58,0-.88.12-.56.28-.81c-.17-.21-.3-.42-.41-.62s-.18-.42-.22-.62-.06-.4-.06-.56v-.38c0-.21.04-.39.12-.53s.18-.27.28-.38.22-.2.34-.28.23-.17.31-.25c-.25-.21-.42-.4-.5-.56s-.13-.32-.16-.47-.05-.29-.09-.44-.15-.26-.31-.34c.17-.29.3-.57.41-.84s.18-.52.22-.75.06-.46.06-.69v-.59c.12-.21.21-.36.25-.47s.07-.19.09-.25.03-.12.03-.19v-.22c-.38-.38-.65-.67-.81-.88s-.25-.38-.25-.5l-.38-4.38c.17-.29.28-.57.34-.84s.12-.53.16-.78.1-.49.19-.72.21-.45.38-.66c-.08-.17-.12-.33-.09-.5s.05-.33.09-.5.08-.31.12-.44,0-.23-.12-.31v-3.62c-.08-.17-.17-.3-.25-.41s-.13-.19-.16-.25,0-.12.06-.19.18-.14.34-.22c-.08-.21-.16-.4-.22-.56s-.1-.33-.12-.5-.03-.31-.03-.44v-.31c-.17-.21-.3-.36-.41-.47l-.25-.25c-.06-.06-.12-.11-.19-.16s-.16-.12-.28-.25c-.08.21-.2.38-.34.5s-.28.25-.41.38-.19.23-.19.31.1.17.31.25c-.29.17-.45.36-.47.59s-.02.44,0,.62,0,.34-.06.47-.26.19-.59.19c-.25,0-.5.03-.75.09s-.48.12-.69.19-.41.1-.59.12-.37-.03-.53-.16c-.17-.17-.32-.33-.47-.5s-.28-.34-.41-.53-.26-.38-.41-.56-.32-.36-.53-.53c0-.29-.04-.52-.12-.69s-.17-.3-.25-.41-.17-.19-.25-.25l-.12-.09v-1.44l2.94-2.94c-.33,0-.51-.05-.53-.16s.03-.22.16-.34.27-.24.44-.34l.25-.16h1.88l.19-.47c.04-.1.07-.19.09-.25s.03-.11.03-.16v-.19l-.19-.47c-.04-.1-.07-.19-.09-.25s-.03-.12-.03-.19v-.22c.33-.46.69-.95,1.06-1.47s.74-1.01,1.09-1.47.72-.84,1.09-1.16.75-.51,1.12-.59c.08.17.21.34.38.53s.33.36.5.53.33.28.5.34.29.05.38-.03c-.08,0-.08-.05,0-.16s.18-.23.28-.38.22-.27.34-.38l.19-.16c.29,0,.6.07.94.22s.6.32.81.53l2.56-1.88c.17,0,.35.07.56.22s.4.31.56.5.31.35.44.5l.19.22v1.81l-1.38,2.25c.08.29.19.52.31.69s.24.31.34.44.2.21.28.25l.12.06c-.08.54-.13,1.06-.16,1.56s0,.98.03,1.44.1.92.19,1.38.17.94.25,1.44c-.08.17-.19.33-.31.5l-.38.5c-.12.17-.25.31-.38.44l-.31.31c.08.25.07.48-.03.69s-.2.39-.28.53-.12.29-.12.44.15.3.44.47c-.17.25-.34.45-.53.59l-.28.22v.75c.21.17.43.28.66.34s.45.11.66.16.38.1.53.19.26.21.34.38c-.08.25-.12.53-.09.84s.03.6.03.88-.04.51-.12.72-.25.35-.5.44l.69,7.94-1.38,2.25c-.08,0-.1.06-.06.19s.12.25.25.38.24.25.34.38l.16.19c0,.33-.07.66-.22.97s-.3.57-.47.78c.17.21.33.4.5.56s.35.33.56.5c-.08.33-.12.67-.12,1s0,.65.03.94.02.57,0,.84-.12.55-.28.84c-.17-.08-.34-.14-.53-.16s-.37-.03-.53-.03h-.44c-.12,0-.23-.06-.31-.19l-.47.47c-.1.1-.18.19-.22.25s-.06.12-.06.19v.22c.17.21.3.36.41.47l.25.25c.06.06.12.11.19.16s.13.1.22.19c.42.21.72.32.91.34s.38.03.59.03c-.12,0-.16.06-.09.19s.16.25.28.38.24.25.34.38l.16.19c-.25.25-.42.49-.5.72s-.15.45-.19.66-.1.4-.19.56-.25.33-.5.5c-.21-.17-.41-.21-.59-.12s-.35.2-.5.34-.29.26-.44.34-.26.04-.34-.12l-.06.06-.12.12-.12.12-.06.06c-.17-.08-.3-.16-.41-.22ZM245.01,30.74c.02-.12.02-.27,0-.44s-.05-.33-.09-.5-.02-.33.06-.5c-.08-.08-.2-.09-.34-.03s-.29.16-.44.28-.28.27-.41.44-.19.31-.19.44l.19.16.38.31c.12.1.25.18.38.22s.19.02.19-.06c.17-.08.26-.19.28-.31ZM245.57,41.42c.15-.12.27-.25.38-.38s.12-.25.06-.38-.28-.19-.66-.19-.58.02-.62.06,0,.11.09.22l.34.34c.12.12.19.29.19.5l.22-.19ZM246.98,25.21c.08-.02.17-.05.25-.09s.16-.08.22-.12l.09-.06c0-.17.02-.42.06-.75s.17-.71.38-1.12c-.21,0-.38.06-.5.19s-.23.28-.31.47-.18.4-.28.62-.24.43-.41.59l.06.06.12.12s.08.07.12.09l.06.03.12-.03ZM247.07,12.96l.19-.06c.06-.02.15-.05.25-.09s.26-.12.47-.25l.06.06.16.16c.06.06.13.12.22.19s.16.1.22.12.12.03.16.03.05-.02.03-.06-.07-.12-.16-.25l-.38-.56c-.17,0-.37-.01-.59-.03s-.51-.14-.84-.34v1.12c.08,0,.16-.01.22-.03Z"/>
  <path class="st8" d="M259.88,46.89c-.06-.1-.16-.23-.28-.38s-.24-.27-.34-.38l-.16-.16c.21-.38.42-.6.62-.69s.41-.14.59-.16.33-.06.44-.12.16-.22.16-.47c.17-.21.33-.39.5-.53l.25-.22c-.38.08-.73.11-1.06.09s-.65-.04-.94-.06-.57-.02-.84,0-.53.11-.78.28c.08,0,.12.09.09.28s-.07.36-.16.53-.19.27-.31.31-.23-.06-.31-.31c.08-.21.17-.36.25-.47s.13-.2.16-.28,0-.15-.06-.19-.18-.1-.34-.19c-.08-.17-.12-.34-.09-.53s.03-.34.03-.47-.04-.23-.12-.31-.25-.12-.5-.12c-.33.54-.69.89-1.06,1.03s-.75.03-1.12-.34c0-.46-.07-.9-.22-1.31s-.3-.79-.47-1.12v-1.81c-.38-.33-.67-.59-.88-.78s-.42-.28-.62-.28c0-.92-.06-1.74-.19-2.47s-.27-1.45-.44-2.16v-7.88l1.44-1.38c-.12-.21-.25-.41-.38-.59s-.25-.36-.38-.53-.25-.31-.38-.44l-.31-.31v-2.81c0-.25.06-.51.19-.78s.23-.5.31-.69.1-.34.06-.47-.23-.19-.56-.19c.17-.46.28-.88.34-1.25s.1-.73.12-1.06.03-.66.03-.97.04-.66.12-1.03v-2.5c.29-.33.51-.66.66-.97s.26-.61.34-.91.12-.57.12-.84v-.78l2.56-3.62h1.75c.17-.08.3-.16.41-.22s.19-.1.25-.12.12-.03.19-.03h.22c.29-.17.53-.35.72-.56s.35-.39.5-.53.29-.26.44-.34.3-.08.47,0c.21.25.4.42.56.5s.32.14.47.16.29.05.44.09.26.15.34.31c.38-.08.6-.2.69-.34s.12-.31.12-.5,0-.36-.03-.53.05-.31.22-.44h2.19c.17.12.31.21.44.25s.22.08.28.12.12.06.16.06h.19l1.88,1.75c0,.33.05.5.16.5s.22-.06.34-.19.25-.27.38-.44l.19-.25,3.19,2.5c-.21.33-.32.67-.34,1s-.03.62-.03.88c.17,0,.32.03.47.09s.27.15.38.25.2.22.28.34.19.25.31.38c.17.17.28.33.34.5s.12.32.19.47.12.28.19.41.18.23.34.31c-.21.38-.32.67-.34.88s-.03.38-.03.5c.38.42.65.72.81.91s.25.39.25.59v1.06c-.17.29-.3.53-.41.72s-.19.35-.25.5l-.19.44c-.06.15-.13.3-.22.47.21.17.37.31.47.44s.19.22.25.28l.16.16.19.19c.38,0,.56.05.56.16s-.06.23-.19.38-.27.27-.44.38l-.25.16c.38,0,.56.05.56.16s-.07.23-.22.38-.3.27-.47.38l-.25.16c0,.29.04.56.12.81s.18.48.28.69.22.38.34.5.23.19.31.19l-.38,7.88c0,.54-.08,1.06-.25,1.56s-.44.94-.81,1.31c.08.17.17.3.25.41s.13.19.16.25,0,.12-.03.19-.17.14-.38.22c0,.17.04.32.12.47s.19.27.31.38.24.21.34.31.2.22.28.34c-.33.29-.6.52-.81.69s-.4.15-.56-.06c.08,0,.09.05.03.16s-.16.23-.28.38-.24.27-.34.38l-.16.16c.08.21.15.35.19.44s.07.17.09.25.04.15.06.19.03.12.03.25c.17,0,.33.05.5.16s.32.23.47.38.26.3.34.47.12.29.12.38c-.25.17-.42.35-.5.56s-.16.4-.22.56-.13.29-.22.38-.25.06-.5-.06c-.17.21-.33.4-.5.56s-.31.33-.44.5-.2.31-.22.44,0,.23.09.31l-2.56,2.88v1.44c-.25,0-.53.01-.84.03s-.6.04-.88.06-.53.03-.78.03-.46-.04-.62-.12h-1.5c-.17-.08-.32-.12-.47-.12s-.27.01-.38.03-.2.02-.28,0-.17-.11-.25-.28c-.21.08-.4.22-.56.41s-.33.35-.5.5-.31.25-.44.31-.23.01-.31-.16h-1.81c-.17.08-.3.16-.41.22s-.2.1-.28.12-.15.03-.19.03h-.19c.08,0,.09-.05.03-.16ZM258.26,37.74c.06,0,.13-.03.22-.09s.17-.14.25-.22l.38-.38c.12-.38.16-.58.09-.62s-.18-.02-.34.06-.35.2-.56.34-.4.22-.56.22l.06.09c.04.06.07.14.09.22s.05.17.09.25l.06.12h.22ZM266.41,40.61h.56l.25-.22c.17-.15.33-.32.5-.53v-.41c0-.1-.03-.21-.09-.31s-.17-.24-.31-.41-.37-.38-.66-.62c-.08-.29-.04-.53.12-.72s.38-.38.62-.56.48-.38.69-.56.31-.41.31-.66l-.22-.22c-.15-.15-.3-.32-.47-.53-.17.12-.3.25-.41.38s-.19.26-.25.41-.09.3-.09.47v.56c0,.08-.04.21-.12.38s-.19.32-.31.47-.27.28-.44.41-.33.19-.5.19c-.38,0-.58-.06-.62-.19s-.03-.29.03-.5.13-.44.22-.69.08-.52,0-.81c0-.17.09-.34.28-.53s.45-.49.78-.91v-.5c0-.17-.02-.35-.06-.56s-.12-.43-.22-.66-.24-.49-.41-.78l.69-5-.16-.16c-.1-.1-.21-.23-.31-.38s-.19-.27-.25-.38-.05-.16.03-.16c0-.17.06-.31.19-.44s.27-.23.44-.31.35-.15.56-.19.42-.06.62-.06c.08-.21.07-.41-.03-.59s-.26-.39-.47-.59-.44-.43-.69-.66-.46-.47-.62-.72c-.21-.12-.28-.25-.22-.38s.16-.26.28-.41.26-.3.41-.47.22-.33.22-.5v-2.5c-.17-.17-.28-.34-.34-.53s-.12-.4-.19-.62l-.19-.69c-.06-.23-.18-.47-.34-.72.17-.17.26-.38.28-.62s.02-.52,0-.81-.03-.58-.03-.88.04-.58.12-.88c0-.08-.06-.22-.19-.41s-.28-.36-.47-.53-.38-.33-.59-.5-.42-.27-.62-.31h-.5c-.17,0-.35.02-.56.06s-.43.11-.66.22-.49.24-.78.41c-.17.08-.22.19-.16.31s.17.27.31.44l.44.5c.15.17.22.33.22.5-.21.17-.32.34-.34.53s-.02.39,0,.59.04.43.06.66,0,.47-.09.72c-.29.17-.48.35-.56.56s-.15.42-.19.62-.1.42-.19.62-.27.46-.56.75h-.19s-.09.01-.16.03-.15.05-.25.09-.26.12-.47.25c0,.25.06.41.19.47s.27.09.44.09h.59c.23,0,.43.04.59.12.29.08.47.23.53.44s.09.46.09.75,0,.6-.03.94.03.69.16,1.06c-.12.17-.21.35-.25.56s-.05.42-.03.62.08.4.19.56.26.29.47.38v1.44l-.16.12c-.1.08-.22.2-.34.34s-.27.3-.44.47-.33.35-.5.56h-1.06l.22.19c.15.12.28.27.41.44.29.21.51.42.66.62s.27.44.38.69.22.51.34.78.29.53.5.78c-.21.29-.32.57-.34.84s-.02.55,0,.84.04.59.06.91,0,.64-.09.97c0,.21-.02.42-.06.62s-.17.48-.38.81c.12.21.27.38.44.5s.37.23.59.31.47.16.72.22.5.09.75.09l.25.09c.17.06.32.17.47.31s.27.3.38.47.12.33.03.5c.25,0,.42.04.5.12s.12.2.12.34v.47c0,.17.04.33.12.5l.12.12.25.25c.08.08.16.17.22.25l.09.12h.12ZM269.91,22.11v-.81c-.21.08-.32.18-.34.28s0,.21.03.31.1.23.19.38.12.3.12.47v-.62Z"/>
  <path class="st14" d="M279.04,50.96l-.19-.16c.25-.33.46-.57.62-.72s.25-.3.25-.47v-1.19c.25-.25.44-.46.56-.62s.1-.31-.06-.44c-.12-.12-.27-.23-.44-.31s-.32-.17-.47-.25-.29-.16-.44-.22-.26-.18-.34-.34c.12-.12.16-.26.09-.41s-.15-.28-.25-.41-.19-.24-.25-.34,0-.2.16-.28c-.08-.12-.15-.23-.19-.31l-.09-.19s-.03-.09-.03-.16v-.22c.17-.12.3-.24.41-.34l.16-.16c-.08-.25-.17-.45-.25-.59s-.16-.28-.22-.41-.08-.25-.06-.38.12-.25.28-.38c-.08-.12-.12-.26-.12-.41v-.41c0-.12,0-.24-.03-.34s-.07-.2-.16-.28l.56-1.75c.21-.04.42-.11.62-.22s.42-.18.62-.22.4-.05.56-.03.33.09.5.22h2l2.56,2.56c-.08.29-.12.58-.09.88s.03.56.03.81,0,.5-.03.75-.09.48-.22.69c.12.17.21.32.25.47s.06.28.06.41,0,.24.03.34.09.2.22.28c-.04.12-.08.23-.12.31l-.09.19s-.03.08-.03.12v.19c-.08.25-.21.48-.38.69s-.32.38-.47.5-.28.24-.41.34l-.19.16v1.12c-.17.12-.27.26-.31.41s-.08.28-.12.41-.08.24-.12.34-.15.18-.31.22l-.66.44c-.19.12-.34.19-.47.19-.21.04-.42.06-.62.06s-.43-.01-.66-.03-.45-.02-.66,0-.44.09-.69.22c-.08-.12-.19-.24-.31-.34Z"/>
  <path class="st13" d="M309.1,46.96c-.17-.06-.33-.08-.5-.06s-.31.04-.44.06-.23.03-.31.03c-.38-.54-.72-1-1.03-1.38s-.57-.77-.78-1.19c.08-.25.21-.5.38-.75s.29-.47.38-.66.12-.33.09-.44-.16-.16-.41-.16v-1.88c-.12-.17-.22-.3-.28-.41s-.1-.2-.12-.28-.03-.15-.03-.19v-.19c.54-.54.92-1.01,1.12-1.41s.31-.76.31-1.09c.38-.25.75-.49,1.12-.72s.74-.45,1.09-.66.69-.4,1-.56.57-.33.78-.5v-1.5c.25-.33.54-.6.88-.81s.63-.41.91-.59.5-.39.69-.59.28-.48.28-.81l1.81-2.19v-1.38c.25-.25.45-.47.59-.66s.26-.38.34-.56.12-.38.12-.56v-.72c0-.17.05-.34.16-.53s.23-.36.38-.53.27-.31.38-.44.16-.23.16-.31c0-.29.02-.56.06-.81s.12-.49.22-.72.22-.43.34-.59.27-.27.44-.31h1.81c.17-.21.33-.41.5-.59s.3-.35.41-.5.15-.28.12-.41-.13-.25-.34-.38c.12-.17.21-.29.25-.38s.07-.16.09-.22.03-.14.03-.22v-.25c-.17-.17-.31-.32-.44-.47l-.19-.22c-.29.12-.49.26-.59.41s-.18.31-.22.5-.05.35-.03.5.03.26.03.34c-.33.38-.6.64-.81.78s-.42.16-.62.03c-.17-.21-.32-.4-.47-.56l-.22-.25c.08-.25.15-.47.19-.66s.08-.36.12-.53.06-.32.06-.47v-.47c-.21-.33-.32-.67-.34-1s-.03-.58-.03-.75c.17-.17.27-.32.31-.47s.06-.27.06-.38,0-.21.03-.31.12-.2.28-.28l-3.5-3.19c-.17.25-.31.51-.44.78s-.25.53-.38.78-.26.48-.41.69-.34.4-.59.56c0,.17.05.34.16.53s.22.36.34.53.25.31.38.44.19.23.19.31c-.17.38-.26.67-.28.88s-.03.4-.03.56-.02.36-.06.59-.09.44-.16.62-.12.36-.16.53-.06.29-.06.38c-.25.38-.5.66-.75.84s-.49.34-.72.47-.43.25-.59.38-.31.29-.44.5l-4.62-.38c-.25-.17-.43-.34-.53-.53s-.18-.36-.22-.53-.08-.31-.12-.44-.1-.23-.19-.31v-1.06l.22-.66c.06-.19.09-.36.09-.53s-.03-.32-.09-.47-.13-.3-.22-.47v-1.12l1.44-2.19c-.17-.12-.33-.27-.5-.44s-.3-.33-.41-.5-.18-.31-.22-.44,0-.23.12-.31c.17-.17.33-.34.5-.53s.33-.36.5-.53v-1.81c.17,0,.32-.04.47-.12s.27-.18.38-.28.21-.22.31-.34.22-.23.34-.31c-.12-.08-.13-.21-.03-.38s.24-.31.41-.44.32-.23.47-.31.22-.08.22,0c.33.38.6.65.81.81s.42.15.62-.06c-.12,0-.16-.05-.09-.16s.16-.23.28-.38.24-.27.34-.38l.16-.16c-.25-.38-.44-.6-.56-.69s-.2-.14-.22-.16,0-.05.03-.09.06-.21.06-.5l.41-.41c.1-.1.19-.18.25-.22s.12-.06.19-.06h.22c.17-.08.31-.11.44-.09l.38.06c.12.02.23.02.31,0s.17-.14.25-.34h2.12c.21-.17.37-.3.47-.41s.19-.18.25-.22.12-.06.16-.06h.19c.21-.12.38-.17.5-.12s.25.07.38.09.23.01.31-.03.17-.15.25-.31c.33.38.59.66.78.84s.28.39.28.59h-1.44l-.41.41-.25.25-.19.19-.22.22c0,.38.07.71.22,1s.32.54.53.75c.46-.42.87-.82,1.22-1.22s.7-.73,1.03-1,.67-.46,1-.56.67-.11,1-.03c.29.17.56.32.81.47s.48.27.69.38.37.21.47.31.16.22.16.34v1.31c.29.21.53.36.72.47s.35.19.5.25l.44.19c.15.06.32.14.53.22v1.12c.17.17.33.32.5.47s.32.29.47.44l.34.34.12.12v1.69c-.08,0-.21.06-.38.19s-.32.27-.47.44-.25.33-.31.5-.05.29.03.38l1.81,2.12v4.69c-.17.17-.3.29-.41.38s-.18.16-.22.22-.06.14-.06.22v2.31c-.21.29-.4.55-.56.78s-.29.44-.38.62-.12.39-.09.59.12.4.28.56c-.17.38-.35.68-.56.91s-.4.46-.56.69-.28.46-.34.69-.07.53-.03.91l-2,1.5h-2.12c-.21.04-.42.15-.62.31s-.4.33-.56.5-.28.33-.34.5-.05.29.03.38c.17,0,.34.06.53.19s.37.25.53.38.31.24.44.34.21.16.25.16v1.44l-2.12,3.62c.21.08.37.16.47.22s.18.09.22.09.06-.05.06-.16v-.53c.17.17.33.26.5.28s.33.01.5-.03.31-.09.44-.16.23-.09.31-.09c.29.08.53.16.72.22s.37.1.53.12.32.03.47.03h.41c.21-.08.37-.16.47-.22s.19-.1.25-.12.12-.03.16-.03h.25c.17.08.3.16.41.22s.19.1.25.12.12.03.19.03h.22c.17,0,.34.05.53.16s.35.22.5.34.29.24.44.34.26.16.34.16l.31,6.5c-.17.17-.27.31-.31.44s-.06.25-.06.38,0,.23-.03.31-.12.17-.28.25c0,.25-.04.47-.12.66s-.17.34-.25.47-.17.21-.25.25l-.12.06h-2.88c-.12-.17-.24-.32-.34-.47s-.19-.27-.25-.38l-.19-.31c-.06-.1-.16-.2-.28-.28h-1.44c-.04.17-.05.32-.03.47s.04.27.06.38.02.21,0,.31-.12.2-.28.28c-.12-.17-.18-.33-.16-.5s.02-.32,0-.47-.06-.26-.12-.34-.24-.12-.53-.12l-2.12,1.81c-.25-.21-.49-.36-.72-.47s-.45-.18-.66-.22-.4-.06-.56-.06h-.56c-.17.17-.32.27-.47.31s-.27.06-.38.06-.2.01-.28.03-.17.14-.25.34c-.25,0-.53-.09-.84-.28s-.62-.4-.91-.62-.56-.44-.81-.62-.46-.28-.62-.28l-1.88,1.81c-.17-.21-.33-.34-.5-.41ZM308.29,16.3h.69c.12-.21.19-.41.19-.59s-.06-.45-.19-.78v-.75c-.21.17-.37.32-.47.47s-.18.3-.22.47-.07.34-.09.53-.03.41-.03.66h.12ZM309.13,40.55c.06,0,.12-.01.19-.03s.15-.05.25-.09l.47-.19c-.12-.21-.25-.32-.38-.34s-.24.01-.34.09-.19.18-.25.28-.09.2-.09.28h.16ZM312.66,12.14c.17-.15.33-.3.5-.47-.17-.21-.33-.4-.5-.56l-.5-.5-.16.16c-.1.1-.23.21-.38.31s-.27.19-.38.25-.16.03-.16-.09c.08.12.19.22.31.28s.24.12.34.19.2.15.28.25.12.24.12.41c.17,0,.33-.07.5-.22ZM315.57,43.14c.23-.15.51-.39.84-.72-.08-.21-.18-.32-.28-.34s-.21,0-.31.06-.23.16-.38.28-.3.23-.47.31v.62c.17,0,.37-.07.59-.22ZM316.16,5.99h.62v-.97c0-.06,0-.12-.03-.19s-.06-.15-.12-.25-.13-.24-.22-.41h-.22c-.06,0-.12.01-.19.03s-.15.05-.25.09l-.47.19c.12.08.22.16.28.22s.12.14.19.22.15.18.25.28l.41.41-.06.06-.12.12-.12.12-.06.06h.12ZM325.13,16.52c.1-.1.23-.22.38-.34s.27-.22.38-.28.16-.05.16.03l-.22-.03c-.15-.02-.3-.02-.47,0s-.3.09-.41.22-.09.31.03.56l.16-.16Z"/>
  <path class="st12" d="M337.88,46.89c-.06-.1-.16-.23-.28-.38s-.24-.27-.34-.38l-.16-.16c.21-.38.42-.6.62-.69s.41-.14.59-.16.33-.06.44-.12.16-.22.16-.47c.17-.21.33-.39.5-.53l.25-.22c-.38.08-.73.11-1.06.09s-.65-.04-.94-.06-.57-.02-.84,0-.53.11-.78.28c.08,0,.12.09.09.28s-.07.36-.16.53-.19.27-.31.31-.23-.06-.31-.31c.08-.21.17-.36.25-.47s.13-.2.16-.28,0-.15-.06-.19-.18-.1-.34-.19c-.08-.17-.12-.34-.09-.53s.03-.34.03-.47-.04-.23-.12-.31-.25-.12-.5-.12c-.33.54-.69.89-1.06,1.03s-.75.03-1.12-.34c0-.46-.07-.9-.22-1.31s-.3-.79-.47-1.12v-1.81c-.38-.33-.67-.59-.88-.78s-.42-.28-.62-.28c0-.92-.06-1.74-.19-2.47s-.27-1.45-.44-2.16v-7.88l1.44-1.38c-.12-.21-.25-.41-.38-.59s-.25-.36-.38-.53-.25-.31-.38-.44l-.31-.31v-2.81c0-.25.06-.51.19-.78s.23-.5.31-.69.1-.34.06-.47-.23-.19-.56-.19c.17-.46.28-.88.34-1.25s.1-.73.12-1.06.03-.66.03-.97.04-.66.12-1.03v-2.5c.29-.33.51-.66.66-.97s.26-.61.34-.91.12-.57.12-.84v-.78l2.56-3.62h1.75c.17-.08.3-.16.41-.22s.19-.1.25-.12.12-.03.19-.03h.22c.29-.17.53-.35.72-.56s.35-.39.5-.53.29-.26.44-.34.3-.08.47,0c.21.25.4.42.56.5s.32.14.47.16.29.05.44.09.26.15.34.31c.38-.08.6-.2.69-.34s.12-.31.12-.5,0-.36-.03-.53.05-.31.22-.44h2.19c.17.12.31.21.44.25s.22.08.28.12.12.06.16.06h.19l1.88,1.75c0,.33.05.5.16.5s.22-.06.34-.19.25-.27.38-.44l.19-.25,3.19,2.5c-.21.33-.32.67-.34,1s-.03.62-.03.88c.17,0,.32.03.47.09s.27.15.38.25.2.22.28.34.19.25.31.38c.17.17.28.33.34.5s.12.32.19.47.12.28.19.41.18.23.34.31c-.21.38-.32.67-.34.88s-.03.38-.03.5c.38.42.65.72.81.91s.25.39.25.59v1.06c-.17.29-.3.53-.41.72s-.19.35-.25.5l-.19.44c-.06.15-.13.3-.22.47.21.17.37.31.47.44s.19.22.25.28l.16.16.19.19c.38,0,.56.05.56.16s-.06.23-.19.38-.27.27-.44.38l-.25.16c.38,0,.56.05.56.16s-.07.23-.22.38-.3.27-.47.38l-.25.16c0,.29.04.56.12.81s.18.48.28.69.22.38.34.5.23.19.31.19l-.38,7.88c0,.54-.08,1.06-.25,1.56s-.44.94-.81,1.31c.08.17.17.3.25.41s.13.19.16.25,0,.12-.03.19-.17.14-.38.22c0,.17.04.32.12.47s.19.27.31.38.24.21.34.31.2.22.28.34c-.33.29-.6.52-.81.69s-.4.15-.56-.06c.08,0,.09.05.03.16s-.16.23-.28.38-.24.27-.34.38l-.16.16c.08.21.15.35.19.44s.07.17.09.25.04.15.06.19.03.12.03.25c.17,0,.33.05.5.16s.32.23.47.38.26.3.34.47.12.29.12.38c-.25.17-.42.35-.5.56s-.16.4-.22.56-.13.29-.22.38-.25.06-.5-.06c-.17.21-.33.4-.5.56s-.31.33-.44.5-.2.31-.22.44,0,.23.09.31l-2.56,2.88v1.44c-.25,0-.53.01-.84.03s-.6.04-.88.06-.53.03-.78.03-.46-.04-.62-.12h-1.5c-.17-.08-.32-.12-.47-.12s-.27.01-.38.03-.2.02-.28,0-.17-.11-.25-.28c-.21.08-.4.22-.56.41s-.33.35-.5.5-.31.25-.44.31-.23.01-.31-.16h-1.81c-.17.08-.3.16-.41.22s-.2.1-.28.12-.15.03-.19.03h-.19c.08,0,.09-.05.03-.16ZM336.26,37.74c.06,0,.13-.03.22-.09s.17-.14.25-.22l.38-.38c.12-.38.16-.58.09-.62s-.18-.02-.34.06-.35.2-.56.34-.4.22-.56.22l.06.09c.04.06.07.14.09.22s.05.17.09.25l.06.12h.22ZM344.41,40.61h.56l.25-.22c.17-.15.33-.32.5-.53v-.41c0-.1-.03-.21-.09-.31s-.17-.24-.31-.41-.37-.38-.66-.62c-.08-.29-.04-.53.12-.72s.38-.38.62-.56.48-.38.69-.56.31-.41.31-.66l-.22-.22c-.15-.15-.3-.32-.47-.53-.17.12-.3.25-.41.38s-.19.26-.25.41-.09.3-.09.47v.56c0,.08-.04.21-.12.38s-.19.32-.31.47-.27.28-.44.41-.33.19-.5.19c-.38,0-.58-.06-.62-.19s-.03-.29.03-.5.13-.44.22-.69.08-.52,0-.81c0-.17.09-.34.28-.53s.45-.49.78-.91v-.5c0-.17-.02-.35-.06-.56s-.12-.43-.22-.66-.24-.49-.41-.78l.69-5-.16-.16c-.1-.1-.21-.23-.31-.38s-.19-.27-.25-.38-.05-.16.03-.16c0-.17.06-.31.19-.44s.27-.23.44-.31.35-.15.56-.19.42-.06.62-.06c.08-.21.07-.41-.03-.59s-.26-.39-.47-.59-.44-.43-.69-.66-.46-.47-.62-.72c-.21-.12-.28-.25-.22-.38s.16-.26.28-.41.26-.3.41-.47.22-.33.22-.5v-2.5c-.17-.17-.28-.34-.34-.53s-.12-.4-.19-.62l-.19-.69c-.06-.23-.18-.47-.34-.72.17-.17.26-.38.28-.62s.02-.52,0-.81-.03-.58-.03-.88.04-.58.12-.88c0-.08-.06-.22-.19-.41s-.28-.36-.47-.53-.38-.33-.59-.5-.42-.27-.62-.31h-.5c-.17,0-.35.02-.56.06s-.43.11-.66.22-.49.24-.78.41c-.17.08-.22.19-.16.31s.17.27.31.44l.44.5c.15.17.22.33.22.5-.21.17-.32.34-.34.53s-.02.39,0,.59.04.43.06.66,0,.47-.09.72c-.29.17-.48.35-.56.56s-.15.42-.19.62-.1.42-.19.62-.27.46-.56.75h-.19s-.09.01-.16.03-.15.05-.25.09-.26.12-.47.25c0,.25.06.41.19.47s.27.09.44.09h.59c.23,0,.43.04.59.12.29.08.47.23.53.44s.09.46.09.75,0,.6-.03.94.03.69.16,1.06c-.12.17-.21.35-.25.56s-.05.42-.03.62.08.4.19.56.26.29.47.38v1.44l-.16.12c-.1.08-.22.2-.34.34s-.27.3-.44.47-.33.35-.5.56h-1.06l.22.19c.15.12.28.27.41.44.29.21.51.42.66.62s.27.44.38.69.22.51.34.78.29.53.5.78c-.21.29-.32.57-.34.84s-.02.55,0,.84.04.59.06.91,0,.64-.09.97c0,.21-.02.42-.06.62s-.17.48-.38.81c.12.21.27.38.44.5s.37.23.59.31.47.16.72.22.5.09.75.09l.25.09c.17.06.32.17.47.31s.27.3.38.47.12.33.03.5c.25,0,.42.04.5.12s.12.2.12.34v.47c0,.17.04.33.12.5l.12.12.25.25c.08.08.16.17.22.25l.09.12h.12ZM347.91,22.11v-.81c-.21.08-.32.18-.34.28s0,.21.03.31.1.23.19.38.12.3.12.47v-.62Z"/>
  <path class="st11" d="M358.73,46.96c-.17-.06-.33-.08-.5-.06s-.31.04-.44.06-.23.03-.31.03c-.38-.54-.72-1-1.03-1.38s-.57-.77-.78-1.19c.08-.25.21-.5.38-.75s.29-.47.38-.66.12-.33.09-.44-.16-.16-.41-.16v-1.88c-.12-.17-.22-.3-.28-.41s-.1-.2-.12-.28-.03-.15-.03-.19v-.19c.54-.54.92-1.01,1.12-1.41s.31-.76.31-1.09c.38-.25.75-.49,1.12-.72s.74-.45,1.09-.66.69-.4,1-.56.57-.33.78-.5v-1.5c.25-.33.54-.6.88-.81s.63-.41.91-.59.5-.39.69-.59.28-.48.28-.81l1.81-2.19v-1.38c.25-.25.45-.47.59-.66s.26-.38.34-.56.12-.38.12-.56v-.72c0-.17.05-.34.16-.53s.23-.36.38-.53.27-.31.38-.44.16-.23.16-.31c0-.29.02-.56.06-.81s.12-.49.22-.72.22-.43.34-.59.27-.27.44-.31h1.81c.17-.21.33-.41.5-.59s.3-.35.41-.5.15-.28.12-.41-.13-.25-.34-.38c.12-.17.21-.29.25-.38s.07-.16.09-.22.03-.14.03-.22v-.25c-.17-.17-.31-.32-.44-.47l-.19-.22c-.29.12-.49.26-.59.41s-.18.31-.22.5-.05.35-.03.5.03.26.03.34c-.33.38-.6.64-.81.78s-.42.16-.62.03c-.17-.21-.32-.4-.47-.56l-.22-.25c.08-.25.15-.47.19-.66s.08-.36.12-.53.06-.32.06-.47v-.47c-.21-.33-.32-.67-.34-1s-.03-.58-.03-.75c.17-.17.27-.32.31-.47s.06-.27.06-.38,0-.21.03-.31.12-.2.28-.28l-3.5-3.19c-.17.25-.31.51-.44.78s-.25.53-.38.78-.26.48-.41.69-.34.4-.59.56c0,.17.05.34.16.53s.22.36.34.53.25.31.38.44.19.23.19.31c-.17.38-.26.67-.28.88s-.03.4-.03.56-.02.36-.06.59-.09.44-.16.62-.12.36-.16.53-.06.29-.06.38c-.25.38-.5.66-.75.84s-.49.34-.72.47-.43.25-.59.38-.31.29-.44.5l-4.62-.38c-.25-.17-.43-.34-.53-.53s-.18-.36-.22-.53-.08-.31-.12-.44-.1-.23-.19-.31v-1.06l.22-.66c.06-.19.09-.36.09-.53s-.03-.32-.09-.47-.13-.3-.22-.47v-1.12l1.44-2.19c-.17-.12-.33-.27-.5-.44s-.3-.33-.41-.5-.18-.31-.22-.44,0-.23.12-.31c.17-.17.33-.34.5-.53s.33-.36.5-.53v-1.81c.17,0,.32-.04.47-.12s.27-.18.38-.28.21-.22.31-.34.22-.23.34-.31c-.12-.08-.13-.21-.03-.38s.24-.31.41-.44.32-.23.47-.31.22-.08.22,0c.33.38.6.65.81.81s.42.15.62-.06c-.12,0-.16-.05-.09-.16s.16-.23.28-.38.24-.27.34-.38l.16-.16c-.25-.38-.44-.6-.56-.69s-.2-.14-.22-.16,0-.05.03-.09.06-.21.06-.5l.41-.41c.1-.1.19-.18.25-.22s.12-.06.19-.06h.22c.17-.08.31-.11.44-.09l.38.06c.12.02.23.02.31,0s.17-.14.25-.34h2.12c.21-.17.37-.3.47-.41s.19-.18.25-.22.12-.06.16-.06h.19c.21-.12.38-.17.5-.12s.25.07.38.09.23.01.31-.03.17-.15.25-.31c.33.38.59.66.78.84s.28.39.28.59h-1.44l-.41.41-.25.25-.19.19-.22.22c0,.38.07.71.22,1s.32.54.53.75c.46-.42.87-.82,1.22-1.22s.7-.73,1.03-1,.67-.46,1-.56.67-.11,1-.03c.29.17.56.32.81.47s.48.27.69.38.36.21.47.31.16.22.16.34v1.31c.29.21.53.36.72.47s.35.19.5.25l.44.19c.15.06.32.14.53.22v1.12c.17.17.33.32.5.47s.32.29.47.44l.34.34.12.12v1.69c-.08,0-.21.06-.38.19s-.32.27-.47.44-.25.33-.31.5-.05.29.03.38l1.81,2.12v4.69c-.17.17-.3.29-.41.38s-.18.16-.22.22-.06.14-.06.22v2.31c-.21.29-.4.55-.56.78s-.29.44-.38.62-.11.39-.09.59.11.4.28.56c-.17.38-.35.68-.56.91s-.4.46-.56.69-.28.46-.34.69-.07.53-.03.91l-2,1.5h-2.12c-.21.04-.42.15-.62.31s-.4.33-.56.5-.28.33-.34.5-.05.29.03.38c.17,0,.34.06.53.19s.37.25.53.38.31.24.44.34.21.16.25.16v1.44l-2.12,3.62c.21.08.37.16.47.22s.18.09.22.09.06-.05.06-.16v-.53c.17.17.33.26.5.28s.33.01.5-.03.31-.09.44-.16.23-.09.31-.09c.29.08.53.16.72.22s.37.1.53.12.32.03.47.03h.41c.21-.08.36-.16.47-.22s.19-.1.25-.12.11-.03.16-.03h.25c.17.08.3.16.41.22s.19.1.25.12.12.03.19.03h.22c.17,0,.34.05.53.16s.35.22.5.34.29.24.44.34.26.16.34.16l.31,6.5c-.17.17-.27.31-.31.44s-.06.25-.06.38-.01.23-.03.31-.11.17-.28.25c0,.25-.04.47-.12.66s-.17.34-.25.47-.17.21-.25.25l-.12.06h-2.88c-.12-.17-.24-.32-.34-.47-.1-.15-.19-.27-.25-.38l-.19-.31c-.06-.1-.16-.2-.28-.28h-1.44c-.04.17-.05.32-.03.47s.04.27.06.38.02.21,0,.31-.12.2-.28.28c-.12-.17-.18-.33-.16-.5s.02-.32,0-.47-.06-.26-.12-.34-.24-.12-.53-.12l-2.12,1.81c-.25-.21-.49-.36-.72-.47s-.45-.18-.66-.22-.4-.06-.56-.06h-.56c-.17.17-.32.27-.47.31s-.27.06-.38.06-.2.01-.28.03-.17.14-.25.34c-.25,0-.53-.09-.84-.28s-.62-.4-.91-.62-.56-.44-.81-.62-.46-.28-.62-.28l-1.88,1.81c-.17-.21-.33-.34-.5-.41ZM357.91,16.3h.69c.12-.21.19-.41.19-.59s-.06-.45-.19-.78v-.75c-.21.17-.37.32-.47.47s-.18.3-.22.47-.07.34-.09.53-.03.41-.03.66h.12ZM358.76,40.55c.06,0,.12-.01.19-.03s.15-.05.25-.09l.47-.19c-.12-.21-.25-.32-.38-.34s-.24.01-.34.09-.19.18-.25.28-.09.2-.09.28h.16ZM362.29,12.14c.17-.15.33-.3.5-.47-.17-.21-.33-.4-.5-.56l-.5-.5-.16.16c-.1.1-.23.21-.38.31s-.27.19-.38.25-.16.03-.16-.09c.08.12.19.22.31.28s.24.12.34.19.2.15.28.25.12.24.12.41c.17,0,.33-.07.5-.22ZM365.2,43.14c.23-.15.51-.39.84-.72-.08-.21-.18-.32-.28-.34s-.21,0-.31.06-.23.16-.38.28-.3.23-.47.31v.62c.17,0,.37-.07.59-.22ZM365.79,5.99h.62v-.97c0-.06,0-.12-.03-.19s-.06-.15-.12-.25-.13-.24-.22-.41h-.22c-.06,0-.12.01-.19.03s-.15.05-.25.09l-.47.19c.12.08.22.16.28.22s.12.14.19.22.15.18.25.28l.41.41-.06.06-.12.12-.12.12-.06.06h.12ZM374.76,16.52c.1-.1.23-.22.38-.34s.27-.22.38-.28.16-.05.16.03l-.22-.03c-.15-.02-.3-.02-.47,0s-.3.09-.41.22-.09.31.03.56l.16-.16Z"/>
  <path class="st10" d="M395.66,47.33c-.42-.02-.79.05-1.12.22h-1.12l-1.81-2.12v-1.88l.41-.41c.1-.1.18-.19.22-.25s.06-.12.06-.19v-.28l-.41-.41c-.1-.1-.18-.2-.22-.28s-.06-.15-.06-.19v-.25c-.12-.38-.18-.72-.16-1.03l.06-.94c.02-.31.02-.6,0-.88s-.11-.55-.28-.84c-.38-.17-.68-.27-.91-.31s-.45-.06-.66-.06h-5.12c-.29.17-.53.26-.72.28s-.33,0-.44-.06-.19-.15-.25-.25-.09-.2-.09-.28c-.33-.08-.7-.09-1.09-.03s-.77.12-1.12.19-.67.07-.94.03-.45-.25-.53-.62v-5.19l.41-.41.28-.28c.08-.08.16-.15.22-.19s.16-.12.28-.25c.33.21.67.32,1,.34s.58.03.75.03c.21-.33.39-.61.53-.84s.22-.43.22-.59c-.17-.21-.3-.36-.41-.47s-.18-.19-.22-.25-.07-.12-.09-.19-.03-.14-.03-.22c-.17,0-.35-.02-.56-.06s-.39-.1-.53-.19-.26-.2-.34-.34-.08-.32,0-.53c.17,0,.32-.04.47-.12s.28-.18.41-.28.23-.23.31-.38.17-.26.25-.34c-.17-.33-.27-.67-.31-1s-.06-.58-.06-.75c.21-.21.36-.38.47-.5s.19-.22.25-.28.09-.11.09-.16v-.19c0-.58.07-1.08.22-1.5s.3-.79.47-1.12c.29-.17.57-.39.84-.66s.54-.53.81-.78.55-.49.84-.72.58-.39.88-.47c0-.17-.01-.34-.03-.53s-.05-.35-.09-.5-.12-.29-.25-.44-.27-.26-.44-.34c0-.17.07-.36.22-.59s.29-.45.44-.66.25-.4.31-.56.01-.31-.16-.44c0-.17.05-.34.16-.53s.23-.36.38-.53.27-.32.38-.47.16-.26.16-.34c0-.58.08-1.12.25-1.62s.35-.94.56-1.31c.17-.17.35-.3.56-.41s.41-.21.59-.31.34-.2.47-.28.19-.21.19-.38c-.08-.21-.16-.38-.22-.5s-.1-.22-.12-.28-.03-.11-.03-.16v-.19c.33-.21.61-.4.84-.56s.45-.25.66-.25v-1.94c.17-.04.3-.09.41-.16s.19-.09.25-.09.12-.01.19-.03.14-.03.22-.03c.21,0,.39-.03.53-.09s.27-.16.38-.28.2-.25.28-.38.17-.23.25-.31c.12-.29.27-.52.44-.69s.34-.29.53-.38.36-.16.53-.22.31-.14.44-.22c-.12,0-.16.05-.09.16s.15.23.25.38.22.28.34.41l.19.19c.17-.21.34-.34.53-.41s.36-.11.53-.16.32-.09.47-.16.26-.2.34-.41c.08.17.19.3.31.41s.25.18.38.22.26.07.41.09.28.03.41.03h.41c.15,0,.27.02.38.06s.22.11.34.22.23.26.31.47c.17,0,.3.01.41.03s.17.06.19.12.01.12-.03.19-.1.12-.19.19l-.25.19-.25.19c-.08.06-.15.1-.19.12l-.06.03c.21.21.34.41.41.59s.11.35.16.5.09.29.16.44.2.26.41.34c-.08.17-.2.34-.34.53s-.28.36-.41.53-.25.31-.38.44-.23.25-.31.38c0,.25-.04.48-.12.69s-.18.38-.28.5-.2.21-.28.25l-.12.06c-.08.21-.11.4-.09.56s.05.32.09.47.04.29,0,.44-.15.26-.31.34l.12.28c.08.19.18.36.28.53s.23.27.38.31.26-.08.34-.38c.25.29.47.55.66.78s.33.45.44.66.19.41.25.59.09.36.09.53c-.21.21-.36.41-.47.59s-.2.35-.28.5-.18.28-.28.41-.24.23-.41.31c.25.21.44.43.56.66s.22.44.28.62.12.34.19.47.2.19.41.19c-.08.17-.14.34-.16.53s-.03.35-.03.5-.01.29-.03.44-.07.26-.16.34c.08.38.11.73.09,1.06s-.04.66-.06.97-.02.6,0,.88.14.55.34.84c0,.17-.04.32-.12.47s-.19.27-.31.38l-.38.31c-.12.1-.23.2-.31.28-.38,0-.56.06-.56.19s.06.26.19.41.28.27.47.38l.28.16c0,.29.05.58.16.88s.24.57.41.84.34.52.53.75.32.39.41.47c.29.08.53.14.72.16s.36.03.53.03.32.01.47.03.32.09.53.22c.08.25.11.53.09.84s-.04.61-.06.91-.02.57,0,.84.14.49.34.66c-.21.29-.36.53-.47.72s-.2.36-.28.53-.16.32-.22.47-.14.32-.22.53c.21.38.32.67.34.88s.03.42.03.62c-.29.29-.55.5-.78.62s-.45.23-.66.31-.41.18-.59.28-.36.3-.53.59c0,.17-.07.34-.22.53s-.27.36-.38.53-.16.31-.16.44.12.25.38.38l-1.44,1.81c.17.29.35.48.56.56s.4.16.56.22.28.14.34.22.05.27-.03.56c-.17.17-.31.3-.44.41s-.22.18-.28.22-.11.06-.16.06h-.19c0,.29.03.55.09.78s.12.45.19.66.1.4.12.56-.01.33-.09.5c-.17.21-.34.41-.53.59s-.35.34-.5.47-.29.2-.44.22-.26-.03-.34-.16-.17-.21-.25-.25-.17-.05-.25-.03-.16.05-.22.09-.12.1-.19.19-.11.15-.16.19-.09.07-.16.09-.11.01-.16-.03-.1-.12-.19-.25c-.12.17-.27.33-.44.5l-.25.25c-.54-.38-1.02-.57-1.44-.59ZM386.85,31.64s.1-.06.19-.12l.25-.19c.08-.06.16-.12.22-.19s.11-.14.16-.22.05-.15.03-.19-.08-.08-.19-.12-.26-.06-.47-.06c-.17-.08-.31-.1-.44-.06s-.21.12-.25.25-.03.27.03.44.2.33.41.5l.06-.03ZM389.13,28.08l.44-.31c.15-.1.31-.23.5-.38s.43-.32.72-.53c.21.08.39.14.53.16s.29.03.44.03.32.01.53.03.44.07.69.16c0-.33-.14-.71-.41-1.12s-.59-.92-.97-1.5v-4.38l.19-.25c.12-.17.29-.33.5-.5.12-.17.15-.33.06-.5s-.21-.32-.38-.47-.35-.32-.56-.53-.42-.44-.62-.69l-.19.19s-.1.09-.19.16-.18.16-.28.28-.26.29-.47.5c-.08.17-.09.32-.03.47s.15.3.25.47.19.35.25.56.05.44-.03.69l-.09.12c-.06.08-.15.17-.25.25s-.25.16-.44.22-.41.09-.66.09c0,.21.01.48.03.81s.11.69.28,1.06c-.08.08-.15.16-.19.22s-.1.12-.19.19-.18.16-.28.28-.26.27-.47.44v3.69l.12.06c.08.04.18.08.28.12s.2.08.28.12l.12.06c.17-.08.32-.18.47-.28ZM394.63,23.49c.06-.04.14-.08.22-.12l.25-.12.12-.06-.19-.22c-.12-.15-.29-.32-.5-.53-.29.08-.44.17-.44.25s.05.16.16.22.2.15.28.25.08.24,0,.41l.09-.06ZM396.85,40.55h.62c.21-.08.32-.2.34-.34s-.01-.29-.09-.44-.18-.31-.28-.5-.22-.36-.34-.53l-.16.16c-.1.1-.23.22-.38.34s-.27.22-.38.28-.16.05-.16-.03v.22c0,.06.02.12.06.19s.11.15.22.25l.41.41h.12ZM397.35,18.39s.1-.04.19-.06.18-.05.28-.09.24-.1.41-.19c-.08-.12-.18-.25-.28-.38s-.22-.23-.34-.31-.26-.14-.41-.16-.3.01-.47.09v.19s.01.09.03.16.06.16.12.28.14.29.22.5c.12,0,.21-.01.25-.03ZM400.32,34.27c.06-.02.12-.05.19-.09s.15-.1.25-.19.24-.21.41-.38c-.08-.12-.16-.22-.22-.28l-.19-.19c-.06-.06-.15-.16-.25-.28s-.26-.27-.47-.44h-1.12c0,.17.01.31.03.44s.06.24.12.34.17.24.31.41.36.4.66.69c.12,0,.22-.01.28-.03Z"/>
</svg>