<?xml version="1.0" encoding="UTF-8"?>
<svg id="DECEMBER_10_x2C__2024_xA0_Image" xmlns="http://www.w3.org/2000/svg" xmlns:xlink="http://www.w3.org/1999/xlink" version="1.1" viewBox="0 0 428.88 47.77">
  <!-- Generator: Adobe Illustrator 29.0.1, SVG Export Plug-In . SVG Version: 2.1.0 Build 192)  -->
  <defs>
    <style>
      .st0 {
        fill: url(#New_Gradient_Swatch_14);
      }

      .st0, .st1, .st2, .st3, .st4, .st5, .st6, .st7, .st8, .st9, .st10, .st11, .st12, .st13 {
        stroke: #000;
        stroke-miterlimit: 10;
        stroke-width: .5px;
      }

      .st1 {
        fill: url(#New_Gradient_Swatch_12);
      }

      .st2 {
        fill: url(#New_Gradient_Swatch_13);
      }

      .st3 {
        fill: url(#New_Gradient_Swatch_11);
      }

      .st4 {
        fill: url(#New_Gradient_Swatch_15);
      }

      .st5 {
        fill: url(#New_Gradient_Swatch_17);
      }

      .st6 {
        fill: url(#New_Gradient_Swatch_19);
      }

      .st7 {
        fill: url(#New_Gradient_Swatch_18);
      }

      .st8 {
        fill: url(#New_Gradient_Swatch_16);
      }

      .st9 {
        fill: url(#New_Gradient_Swatch_1);
      }

      .st10 {
        fill: url(#New_Gradient_Swatch_112);
      }

      .st11 {
        fill: url(#New_Gradient_Swatch_111);
      }

      .st12 {
        fill: url(#New_Gradient_Swatch_110);
      }

      .st13 {
        fill: url(#New_Gradient_Swatch_113);
      }
    </style>
    <linearGradient id="New_Gradient_Swatch_1" data-name="New Gradient Swatch 1" x1="16.54" y1="-.45" x2="10.6" y2="47.87" gradientUnits="userSpaceOnUse">
      <stop offset="0" stop-color="#ffdb73"/>
      <stop offset=".37" stop-color="#f6f6d7"/>
      <stop offset=".52" stop-color="#fdde7d"/>
      <stop offset=".74" stop-color="#f5e69e"/>
      <stop offset=".89" stop-color="#ffdb73"/>
    </linearGradient>
    <linearGradient id="New_Gradient_Swatch_11" data-name="New Gradient Swatch 1" x1="44.16" y1="-.41" x2="38.31" y2="47.2" xlink:href="#New_Gradient_Swatch_1"/>
    <linearGradient id="New_Gradient_Swatch_12" data-name="New Gradient Swatch 1" x1="77.78" y1="-.61" x2="71.74" y2="48.53" xlink:href="#New_Gradient_Swatch_1"/>
    <linearGradient id="New_Gradient_Swatch_13" data-name="New Gradient Swatch 1" x1="113.07" y1="1" x2="107.24" y2="48.47" xlink:href="#New_Gradient_Swatch_1"/>
    <linearGradient id="New_Gradient_Swatch_14" data-name="New Gradient Swatch 1" x1="140.9" y1=".24" x2="135.09" y2="47.57" xlink:href="#New_Gradient_Swatch_1"/>
    <linearGradient id="New_Gradient_Swatch_15" data-name="New Gradient Swatch 1" x1="190.95" y1=".88" x2="185.18" y2="47.85" xlink:href="#New_Gradient_Swatch_1"/>
    <linearGradient id="New_Gradient_Swatch_16" data-name="New Gradient Swatch 1" x1="212.59" y1=".54" x2="206.88" y2="47.1" xlink:href="#New_Gradient_Swatch_1"/>
    <linearGradient id="New_Gradient_Swatch_17" data-name="New Gradient Swatch 1" x1="232.81" y1=".3" x2="227.1" y2="46.85" xlink:href="#New_Gradient_Swatch_1"/>
    <linearGradient id="New_Gradient_Swatch_18" data-name="New Gradient Swatch 1" x1="259.91" x2="253.98" xlink:href="#New_Gradient_Swatch_1"/>
    <linearGradient id="New_Gradient_Swatch_19" data-name="New Gradient Swatch 1" x1="283.69" y1="-.37" x2="277.91" y2="46.68" xlink:href="#New_Gradient_Swatch_1"/>
    <linearGradient id="New_Gradient_Swatch_110" data-name="New Gradient Swatch 1" x1="311.12" y1="0" x2="305.31" y2="47.36" xlink:href="#New_Gradient_Swatch_1"/>
    <linearGradient id="New_Gradient_Swatch_111" data-name="New Gradient Swatch 1" x1="356.97" y1=".7" x2="351.13" y2="48.26" xlink:href="#New_Gradient_Swatch_1"/>
    <linearGradient id="New_Gradient_Swatch_112" data-name="New Gradient Swatch 1" x1="390.01" y1="1" x2="384.18" y2="48.47" xlink:href="#New_Gradient_Swatch_1"/>
    <linearGradient id="New_Gradient_Swatch_113" data-name="New Gradient Swatch 1" x1="415.17" y1="-.55" x2="409.39" y2="46.53" xlink:href="#New_Gradient_Swatch_1"/>
  </defs>
  <path class="st9" d="M20.69,46.7c-.21-.17-.42-.25-.62-.25-.42.25-1.02.38-1.81.38-.75-.67-1-1.15-.75-1.44-.79-.67-1.04-1.17-.75-1.5-.17-.5-.41-.96-.72-1.38s-.55-.81-.72-1.19v-3.31c.25-.46.38-.83.38-1.12.21-.46.31-.81.31-1.06.29-.5.44-.85.44-1.06.12-.21.28-.39.47-.53l.28-.22c-.38-.38-.59-.79-.66-1.25s-.09-.79-.09-1c.5-.46.75-.81.75-1.06l-1.5-1.88h-1.44c-.58.38-1.02.6-1.31.69s-.6.23-.94.44c0,.38-.18.74-.53,1.09s-.53.59-.53.72l-.38,8.12c.5.46.75.81.75,1.06v1.88l-.75,2.56-1.88,1.44h-1.38c-.42,0-.8-.21-1.16-.62s-.61-.44-.78-.06c-.5.46-.85.69-1.06.69h-2.25c-.5-.46-.85-.81-1.06-1.06-.21-.5-.28-.9-.22-1.19s.01-.62-.16-1v-1.88c0-.38.21-.73.62-1.06s.44-.58.06-.75v-.75c-.17-.54-.14-1.09.09-1.66s.09-1.11-.41-1.66c-.21-.38-.24-.66-.09-.84s.05-.41-.28-.66c.25-.71.38-1.44.38-2.19-.25-.71-.38-1.44-.38-2.19.75-.79,1.12-1.29,1.12-1.5-.5-.46-.75-.81-.75-1.06.12-.33.11-.68-.03-1.03s-.03-.64.34-.84c-.46-.5-.69-.85-.69-1.06l-.38-4.44c.38-.54.59-1.07.66-1.59s.09-.97.09-1.34c-.38-.38-.46-.77-.25-1.19s.4-.62.56-.62v-1.12c-.38-.38-.6-.66-.69-.84s-.21-.39-.38-.59c0-.67.25-1.29.75-1.88v-4.75c-.25-.5-.38-1.12-.38-1.88.54-.5.72-1.07.53-1.72s.01-1.16.59-1.53c.71,0,1.35.05,1.94.16s1.15.16,1.69.16c.38-.12.67-.27.88-.44s.42-.25.62-.25c.5,0,.9.23,1.19.69s.62.58,1,.38c.38.21.78.53,1.22.97s.66.74.66.91v2.25c.25.46.38.81.38,1.06-.25.46-.38.81-.38,1.06-.42.58-.84,1.11-1.28,1.59s-.28.82.47,1.03c0,.54.07,1.07.22,1.59s.22.95.22,1.28c-.38.62-.59,1.19-.66,1.69s-.09.92-.09,1.25c.75.54,1.21,1.07,1.38,1.59s.44.84.81.97c.46.29.94.44,1.44.44h1.88c.46-.5.83-.75,1.12-.75.12-.58.06-1.01-.19-1.28s-.19-.59.19-.97c-.29-.46-.44-1.04-.44-1.75.79-.83,1.19-1.33,1.19-1.5-.25-.17-.46-.34-.62-.53s-.35-.39-.56-.59c-.17-.92-.17-1.7,0-2.34s.06-1.34-.31-2.09V2.76c.12-.38.47-.83,1.03-1.38s.97-.81,1.22-.81c.46.25.96.38,1.5.38.29.17.6.23.94.19s.6,0,.81.12c.38,0,.73-.21,1.06-.62s.6-.44.81-.06c.33.38.56.73.69,1.06s.38.6.75.81c.38,0,.72.2,1.03.59s.47.66.47.78l-.44,4.81.44,3.69c-.29.5-.44.85-.44,1.06-.21.5-.31.9-.31,1.19.5.46.75.81.75,1.06-.25.54-.33,1.01-.25,1.41s.02.78-.19,1.16c.21.58.24,1.01.09,1.28s-.03.59.34.97c-.38.38-.59.78-.66,1.22s-.09.74-.09.91c.21.54.31.92.31,1.12-.71.75-.94,1.25-.69,1.5.71.75.94,1.25.69,1.5l-1.44,1.75c0,.54.24.96.72,1.25s.72.62.72,1v1.88c.29.71.44,1.44.44,2.19-.38.54-.74.88-1.09,1s-.61.27-.78.44l1.44,1.81c-.38,0-.71.21-1,.62s-.44.71-.44.88c.54.21.92.44,1.12.69l.31.38c.21.75.25,1.43.12,2.03s.1,1.16.69,1.66c-.88.75-1.62.9-2.25.44l-.69.69-.38.38c.17.38-.1.85-.81,1.44h-.69c-.38-.17-.67-.33-.88-.5ZM4.44,13.26c.17-.17.38-.35.62-.56,0-.17-.22-.43-.66-.78s-.47-.72-.09-1.09c-.38-.12-.65,0-.81.38s-.5.75-1,1.12c0,.38.14.58.41.62s.59.31.97.81c.21-.17.4-.33.56-.5ZM10.6,21.14h.72c0-.25-.25-.62-.75-1.12l-.78.56c-.52.38-.41.56.34.56h.47ZM17.94,38.39h.69c.17-.38.22-.76.16-1.16s.01-.86.22-1.41c-.25,0-.75.35-1.5,1.06-.54.25-.54.47,0,.66s.54.47,0,.84h.44Z"/>
  <path class="st3" d="M37.48,46.45c-.4-.08-.78-.12-1.16-.12-.38.71-.77.74-1.19.09s-.62-.89-.62-.72c-.54-.17-.94-.18-1.19-.03s-.56.03-.94-.34c-.25-.54-.38-1.02-.38-1.44-1.67-.83-2.5-1.81-2.5-2.94l1.44-1.44c-.58-.71-1.09-1.09-1.53-1.16s-.66-.28-.66-.66c0-.5.06-1.02.19-1.56s.19-1.1.19-1.69c-.21-.17-.4-.33-.56-.5s-.33-.35-.5-.56c.17-.38.17-.67,0-.88s-.04-.4.38-.56c0-.75-.27-1.38-.81-1.88.38-.5.6-1.01.69-1.53s.12-.97.12-1.34c.12-.5.4-.99.81-1.47s.25-.72-.5-.72c-.38-.33-.32-.66.16-.97s.55-.59.22-.84c-.46-.46-.81-.69-1.06-.69.17-.33.22-.67.16-1s.01-.6.22-.81c-.21-.5-.24-.9-.09-1.19s.05-.62-.28-1c-.25,0-.2-.18.16-.53l.53-.53c-.38-.33-.5-.61-.38-.84s.02-.45-.31-.66c-.29-.46-.44-.92-.44-1.38.21-.38.52-.78.94-1.22s.73-.76.94-.97l-1-1-.44-.44c.17-.5.18-1.06.03-1.69s.07-1.02.66-1.19v-1.12c-.38-.33-.5-.6-.38-.81s.02-.42-.31-.62c-.25,0-.2-.18.16-.53l.53-.53c-.38-.38-.5-.66-.38-.84s.02-.39-.31-.59c0-.38.19-.71.56-1s.67-.44.88-.44h2.88c.5-.54.96-.86,1.38-.97s.81-.16,1.19-.16c.33,0,.6.15.81.44s.4.52.56.69c.38-.38.78-.29,1.22.25l.66.81v1.06c-.5.5-.75.88-.75,1.12.5.92.75,1.4.75,1.44.12.38.17.73.12,1.06s.02.58.19.75c-.96.96-1.31,1.56-1.06,1.81.5.46.85.81,1.06,1.06-.75.75-1.23,1.12-1.44,1.12-.38-.54-.76-.83-1.16-.88s-.59-.25-.59-.62c-.42.21-.77.25-1.06.12s-.44.06-.44.56c.54.21.82.47.84.78s.24.55.66.72c.46.58.69.94.69,1.06,1-.54,1.6-.67,1.81-.38.17.58.06,1.01-.31,1.28s-.27.57.31.91c.17.58.18,1.01.03,1.28s-.03.57.34.91v2.5c-1,1-1.38,1.6-1.12,1.81.38.38.6.67.69.88s.23.42.44.62c-.25.71-.38,1.42-.38,2.12.17.38.4.67.69.88s.19.4-.31.56c-.21.38-.26.72-.16,1.03s-.09.47-.59.47v1.38c-.88.96-1,1.69-.38,2.19.17.38.22.74.16,1.09s.01.59.22.72c.17.38.22.74.16,1.09s.01.59.22.72l2.5.75c.17.38.46.76.88,1.16s.75.49,1,.28c.46-.25.81-.38,1.06-.38.33,0,.6-.14.81-.41s.42-.49.62-.66c.46-.92.69-1.42.69-1.5-.21-.71-.31-1.42-.31-2.12.21-.5.31-.98.31-1.44.25-.46.38-1.08.38-1.88-.25-.67-.38-1.38-.38-2.12.38-.38.66-.6.84-.69s.41-.21.66-.38c-.38,0-.72-.2-1.03-.59s-.47-.7-.47-.91c-.17-.5-.18-1.02-.03-1.56s.05-1.08-.28-1.62c.33-.54.53-1.06.59-1.56s.09-.94.09-1.31c-.25-.75-.38-1.48-.38-2.19.38-.38.59-.78.66-1.22s.09-.76.09-.97c-.38-.38-.5-.72-.38-1.03s0-.57-.38-.78c.71-.62,1.06-1.12,1.06-1.5-.71-.71-1.06-1.17-1.06-1.38v-2.19c.5-.5.75-.88.75-1.12v-2.12c-.25-.5-.38-.85-.38-1.06.17-.54.42-1.01.75-1.41s.69-.78,1.06-1.16c.71.25,1.44.38,2.19.38.33-.38.6-.5.81-.38s.4,0,.56-.38c.54.38.95.68,1.22.91s.59.41.97.53h1.5c-.21.38-.23.74-.06,1.09s.06.59-.31.72c.38.58.71,1.06,1,1.44s.44.75.44,1.12l-.69.69-.38.38c-.38-.38-.61-.6-.72-.69s-.22-.21-.34-.38c-.29.46-.44.81-.44,1.06.38.21.79.52,1.25.94s.77.71.94.88c-.21.5-.31,1.1-.31,1.81.21.46.31.83.31,1.12-.54.54-.85.91-.94,1.09s-.12.53-.12,1.03c.71.71,1.06,1.19,1.06,1.44.17.38.18.68.03.91s-.03.43.34.59c0,.38-.14.67-.41.88s-.49.38-.66.5c-.75,0-.88.19-.38.56l.75.56v2.19c.33.38.44.72.31,1.03s0,.57.38.78c-1.42.92-2.12,1.62-2.12,2.12.29.42.65.77,1.06,1.06-.71.71-.96,1.21-.75,1.5.25.5.38.85.38,1.06,0,.54.25.96.75,1.25s.5.6,0,.94c.12.54.11,1.12-.03,1.75s-.03,1.12.34,1.5c-.38.38-.55.73-.53,1.06s-.16.58-.53.75v2.5c-.38.38-.68.6-.91.69s-.41.23-.53.44l-.75,1.38v1.88c-.38,0-.73.21-1.06.62s-.58.44-.75.06c-.46.5-.81.88-1.06,1.12.17-.38.22-.72.16-1.03s.01-.57.22-.78c-.46-.25-.83-.38-1.12-.38-.75.54-1.24,1.17-1.47,1.88s-.7.81-1.41.31c-.21-.54-.14-1.04.22-1.5s.16-.69-.59-.69c0,.38-.2.7-.59.97s-.68.41-.84.41c-.38.25-.67.29-.88.12s-.4-.06-.56.31c.25.25.38.6.38,1.06-.58,0-1.18.09-1.78.28s-.97.47-1.09.84h-1.12c-.54-.38-1.01-.6-1.41-.69ZM32.88,38.42c.42-.15.73-.51.94-1.09l-.25-.22c-.17-.15-.31-.3-.44-.47-.21.17-.38.42-.5.75s-.46.69-1,1.06l.19.34.19.34c.17-.33.46-.57.88-.72ZM33.13,41.64l-.25-.19c-.17-.12-.33-.29-.5-.5,0,.21-.16.35-.47.44s-.28.29.09.62c.25,0,.62-.12,1.12-.38ZM32.94,30.08h.88c0-.21-.35-.67-1.06-1.38-.38.21-.49.41-.34.59s.14.45-.03.78h.56ZM44.88,40.67c.21.15.5.11.88-.09.54,0,.59-.22.16-.66s-.72-.57-.84-.41c0,.04-.25.52-.75,1.44.17-.33.35-.43.56-.28ZM53.76,35.14l-.53-.53c-.35-.35-.43-.53-.22-.53-.75,0-.96.16-.62.47s.42.66.25,1.03c.25,0,.62-.15,1.12-.44Z"/>
  <path class="st1" d="M58.38,44.58c.38-1.25.39-2.44.03-3.56s-.22-2.23.41-3.31c-.25-.54-.33-.95-.25-1.22s.02-.59-.19-.97c.58-.17.85-.47.81-.91s-.06-.74-.06-.91c-.75-.71-1-1.21-.75-1.5.29-.46.44-.81.44-1.06,0-.38-.22-.72-.66-1.03s-.47-.59-.09-.84c.5-.5.75-.85.75-1.06-.25-.5-.29-1.02-.12-1.56s.06-1-.31-1.38v-2.5c.29-.25.44-.62.44-1.12-.25-.71-.31-1.42-.19-2.12s-.06-1.33-.56-1.88c.38-.38.6-.68.69-.91s.21-.41.38-.53c0,.75.18.86.53.34l.53-.78c-.54-.33-.93-.51-1.16-.53s-.45-.3-.66-.84c0-.58.2-1.19.59-1.81s.59-1.12.59-1.5c0-.33-.15-.61-.44-.84s-.54-.43-.75-.59c.38-.54.72-.83,1.03-.88s.47-.25.47-.62c-.38-.33-.72-.66-1.03-.97l-.47-.47v-1.81c1-1,1.4-1.6,1.19-1.81-.79-.75-1.04-1.23-.75-1.44.5-.54.85-.81,1.06-.81.33-.17.67-.22,1-.16s.58-.01.75-.22c.58,0,1.01.25,1.28.75s.59.75.97.75c0,.21.18.14.53-.22l.53-.53h3.31c.17.38.29.61.38.72s-.04.24-.38.41c.54.21.91.52,1.09.94s.55.81,1.09,1.19c-.75.75-1,1.25-.75,1.5.38.21.73.28,1.06.22s.6-.01.81.16c.12,1.12.21,2.25.25,3.38s.42,1.94,1.12,2.44c-.17.42-.11.85.16,1.31s.22.77-.16.94c.46,1.25.6,2.08.44,2.5.12.38.41.77.84,1.19s.76.62.97.62c.17-.12.33-.29.5-.5s.35-.4.56-.56c0-.58-.1-1.06-.31-1.44s-.23-.75-.06-1.12c.25-.46.38-1.08.38-1.88.96-.96,1.58-1.31,1.88-1.06.46.25.81.38,1.06.38.54.33.92.33,1.12,0-.21-.38-.29-.77-.25-1.19s-.1-.62-.44-.62c-.42-.12-.79-.17-1.12-.12s-.58-.02-.75-.19v-2.25c.17-.5.32-.9.47-1.19s.22-.62.22-1c.79-.79,1.19-1.29,1.19-1.5-.25-.5-.35-1.05-.31-1.66s.25-.99.62-1.16l7.69-.44c.42-.25,1.02-.38,1.81-.38.46.54.81.81,1.06.81.25.46.38,1.04.38,1.75,0,.38-.22.74-.66,1.09s-.47.59-.09.72c-.38.25-.73.52-1.06.81s-.6.52-.81.69c.21.54.54.8,1,.78s.88-.03,1.25-.03c-.21.38-.28.73-.22,1.06s.01.56-.16.69c.5.5.75.9.75,1.19l.31,6.06c.21.62.09,1.19-.34,1.69s-.55.94-.34,1.31c.25.5.38.98.38,1.44-.38.38-.61.67-.72.88s-.24.42-.41.62c.5.5.88.85,1.12,1.06,0,1-.25,1.75-.75,2.25.38.75.69,1.46.94,2.12s.19,1.29-.19,1.88c.12.75.11,1.47-.03,2.16s-.03,1.3.34,1.84c-.21.5-.31,1.1-.31,1.81v5.81c.12.38.25.61.38.72s0,.24-.38.41v2.5l-2.19,1.88h-1.06c-.58-.38-1.1-.82-1.56-1.34s-.69-.34-.69.53c-.38-.12-.73-.17-1.06-.12s-.56-.02-.69-.19c-.79.79-1.29,1.04-1.5.75l-.53-.53-.22-.22c-.25-.5-.38-.98-.38-1.44.25-.5.38-1.1.38-1.81-.54-.71-.6-1.42-.19-2.12s.35-1.33-.19-1.88c0-.58.24-1,.72-1.25s.72-.58.72-1c-.17-.5-.39-.86-.66-1.09l-.41-.34c-.21-.5-.23-1.02-.06-1.56s.06-1-.31-1.38l1.44-2.12c-.54-.38-.81-.73-.81-1.06s-.08-.6-.25-.81c.25-.71.38-1.42.38-2.12-.25-.5-.38-.9-.38-1.19.38-.5.67-.98.88-1.44s.04-.69-.5-.69c-.54-.21-.95-.27-1.22-.19s-.57,0-.91-.25c-.42.42-.75.85-1,1.31s-.19.77.19.94c-.21.75-.25,1.45-.12,2.09s-.06,1.03-.56,1.16v2.56c-.25.5-.38.88-.38,1.12-.25.46-.38.81-.38,1.06-.58.38-1.06.72-1.44,1.03s-.75.47-1.12.47c-.46-.5-.83-.88-1.12-1.12.21-.38.19-.66-.06-.84s-.48-.39-.69-.59c.21-.17.39-.33.53-.5l.22-.25c-1.21-.75-1.69-1.38-1.44-1.88-.38-.5-.7-.95-.97-1.34s-.3-.78-.09-1.16c-.75-.75-1.12-1.25-1.12-1.5-.21-.5-.23-.89-.06-1.16s.06-.59-.31-.97c-.54,0-.92.12-1.12.38l-.31.38c0,.92-.08,1.69-.25,2.31s-.31,1.29-.44,2c.12.54.12,1.05,0,1.53s.1.72.69.72c.17.54.18,1.06.03,1.56s-.03.94.34,1.31c-.21.75-.24,1.48-.09,2.19s.05,1.31-.28,1.81l.38,6.62c-.25.46-.38,1.04-.38,1.75-.62.92-1.23,1.54-1.81,1.88-.54-.17-.96-.18-1.25-.03s-.62.03-1-.34h-1.75c-.42.21-.73.39-.94.53s-.4.22-.56.22l-2.56-2.62ZM60.79,42.45h1.28c.17-.17.06-.45-.31-.84s-.65-.59-.81-.59c-.38-.21-.57-.18-.59.09s-.28.59-.78.97l.16.19.16.19h.91ZM64.23,21.26h.72c.21-.17.3-.42.28-.75s.26-.69.84-1.06l-.25-.19c-.17-.12-.31-.31-.44-.56-.38.25-.59.55-.66.91s-.34.43-.84.22v1.44h.34ZM66.63,35.67l.19-.16c.12-.17-.06-.52-.56-1.06s-.94-.94-1.31-1.19c0,.71.5,1.56,1.5,2.56l.19-.16ZM67.91,20.89h.34v-1.06c-.21-.17-.47-.11-.78.16s-.28.57.09.91h.34ZM75.88,27.45c-.17-.33-.39-.4-.66-.19s-.41.4-.41.56c.25,0,.6-.12,1.06-.38ZM88.26,41.01l-.5-.59c-.33-.4-.38-.59-.12-.59-.38-.33-.71-.57-1-.72s-.71-.49-1.25-1.03c-.75,0-.94.09-.56.28s.56.45.56.78c0,.58.01.83.03.75s.14-.21.34-.38c.25,0,.62.1,1.12.31-.38.25-.5.47-.38.66s0,.47-.38.84c-.38-.38-.36-.32.03.16s.51.8.34.97l1.75-1.44Z"/>
  <path class="st2" d="M96.19,45.76c0,.08-.06.21-.19.38s-.27.31-.44.44-.33.23-.5.31-.29.08-.38,0c-.21,0-.4-.06-.56-.19s-.32-.27-.47-.44-.26-.33-.34-.5-.12-.29-.12-.38v-1.5c.21-.17.36-.3.47-.41l.25-.25c.06-.06.11-.12.16-.19s.12-.14.25-.22c0-.29-.04-.54-.12-.75s-.17-.39-.25-.53l-.25-.44c-.08-.15-.12-.32-.12-.53.21-.33.32-.67.34-1s.03-.58.03-.75c0-.21.08-.43.25-.66s.34-.44.53-.62.35-.34.5-.47l.22-.19.38-8.12c.08-.25.19-.47.31-.66s.25-.33.38-.44.22-.18.28-.22l.09-.06c-.08-.29-.11-.54-.09-.75s.04-.4.06-.56.02-.32,0-.47-.14-.3-.34-.47c.21-.29.35-.55.44-.78s.16-.45.22-.66.09-.41.09-.59v-.53c.21-.21.42-.36.62-.47s.41-.2.59-.28.33-.18.44-.28.16-.24.16-.41c-.38-.38-.65-.69-.81-.94s-.25-.46-.25-.62v-2.19c.21-.21.35-.36.44-.47s.15-.19.19-.25.07-.11.09-.16.03-.1.03-.19c-.12-.29-.2-.55-.22-.78s-.03-.45-.03-.66v-.59c0-.19-.06-.39-.19-.59l1.88-1.81c.12-.17.2-.33.22-.5s.02-.33,0-.5-.05-.34-.09-.53l-.12-.56c-.04-.19-.07-.35-.09-.5s0-.27.06-.38.16-.19.28-.25.31-.09.56-.09l.38-.47c.08-.1.17-.19.25-.25s.15-.12.19-.19.12-.14.25-.22c-.21-.17-.35-.3-.44-.41s-.17-.18-.25-.22l-.19-.09s-.1-.03-.19-.03c0-.17.02-.36.06-.59s.09-.45.16-.66.14-.4.22-.56.17-.31.25-.44v-1.38h1.06c.21-.17.34-.34.41-.53s.11-.36.16-.53.09-.32.16-.47.2-.26.41-.34c.38-.17.68-.33.91-.5s.43-.25.59-.25h1.44c.29.17.55.3.78.41s.45.18.66.22.41.07.59.09.36.03.53.03c.29-.08.53-.16.72-.22s.36-.1.53-.12.33-.03.5-.03h.5l2.56,2.56c0,.21-.07.4-.22.56l-.44.5c-.15.17-.24.31-.28.44s.04.23.25.31c0,.29.07.54.22.75s.31.4.5.56.35.32.5.47.22.3.22.47c-.12.29-.19.53-.19.72v.53c0,.17-.01.32-.03.47s-.07.32-.16.53c.33.33.6.61.81.84s.31.45.31.66c-.12.17-.18.31-.16.44l.06.38c.02.12.02.23,0,.31s-.14.17-.34.25c0,.21.07.4.22.56l.44.5c.15.17.25.32.31.47s-.01.28-.22.41c0,.17-.04.32-.12.47s-.18.27-.28.38-.22.2-.34.28-.23.17-.31.25c.17.12.3.21.41.25s.19.07.25.09l.19.06c.06.02.14.03.22.03.21.17.36.32.47.47s.19.27.25.38l.19.31c.06.1.16.22.28.34-.21.17-.35.35-.44.56s-.16.42-.22.62-.09.4-.09.56v.38c.17.17.3.31.41.44s.19.21.25.25.12.06.19.06h.22c.29.54.47,1.09.53,1.66s.12,1.1.19,1.62.14,1.03.22,1.53.25,1,.5,1.5c-.17.33-.27.67-.31,1s-.06.58-.06.75c.21.38.39.68.53.91s.22.43.22.59v1.81c-.21.21-.38.36-.5.47s-.24.19-.34.25l-.31.19c-.1.06-.2.16-.28.28.25.25.51.46.78.62s.51.32.72.47.38.3.5.47.19.4.19.69c-.08.33-.11.66-.09.97l.06.94c.02.31.02.6,0,.88s-.11.55-.28.84c.17.25.32.53.47.84s.26.61.34.91.15.57.19.84.06.51.06.72l.41.41c.1.1.19.2.25.28s.12.15.19.19.14.12.22.25c.21.33.33.61.38.84s.06.41.06.53c-.21.42-.46.79-.75,1.12s-.54.6-.75.81c0-.38-.05-.57-.16-.59s-.23.04-.38.19-.27.3-.38.47l-.16.25-4.5-.31c-.17-.21-.32-.32-.47-.34s-.27-.03-.38-.03-.21-.02-.31-.06-.2-.15-.28-.31c-.33.17-.68.26-1.03.28s-.64.03-.84.03c.12,0,.16-.05.09-.16s-.16-.22-.28-.34-.24-.25-.34-.38l-.16-.19c.17-.17.3-.36.41-.59s.18-.45.22-.66.06-.4.06-.56v-.44l-.53-.53-.53-.53c0-.17-.02-.36-.06-.59s-.08-.45-.12-.66-.09-.4-.16-.56-.09-.29-.09-.38c-.17-.29-.33-.49-.5-.59s-.33-.18-.5-.22-.31-.07-.44-.09-.23-.07-.31-.16c-.21.08-.42.12-.62.12s-.41.02-.59.06-.34.09-.47.16-.19.18-.19.34h-1.12c-.17,0-.33.06-.5.19l-.5.38c-.17.12-.32.24-.47.34s-.26.16-.34.16c-.38-.17-.67-.32-.88-.47s-.42-.22-.62-.22c-.25.08-.43.21-.53.38s-.18.33-.22.5-.04.33,0,.5.06.29.06.38c.17.25.32.45.47.59l.22.22c.21-.08.4-.07.56.03s.32.24.47.41.26.32.34.47l.12.22v.69c-.21.17-.36.3-.47.41s-.18.19-.22.25-.06.14-.06.22v.25c-.08.21-.14.42-.16.62s-.04.4-.06.56-.06.31-.12.44-.2.19-.41.19c-.33,0-.68-.02-1.03-.06l-1.06-.12c-.35-.04-.7-.07-1.03-.09s-.65-.03-.94-.03l-.06.03s-.07.05-.09.09-.05.08-.09.12l-.06.06-1.81-1.44ZM99.98,31.26c.06-.08.09-.19.09-.31v-.47c0-.19.04-.36.12-.53-.17,0-.35.08-.56.25s-.5.44-.88.81l.22.06c.15.04.32.15.53.31.25,0,.41-.04.47-.12ZM109.6,30.26h.84v-.19s-.02-.1-.06-.19-.11-.18-.22-.28l-.41-.41v-3c-.17-.08-.28-.15-.34-.19s-.08-.1-.06-.19.07-.18.16-.28.17-.24.25-.41c0-.17-.01-.34-.03-.53s-.05-.39-.09-.59-.1-.43-.19-.66-.21-.49-.38-.78v-1.88c0-.17.01-.36.03-.59s.11-.51.28-.84c0-.21-.08-.42-.25-.62s-.44-.48-.81-.81c-.17-.12-.23-.26-.19-.41s.14-.3.28-.47l.44-.5c.15-.17.22-.35.22-.56l-1.5-1.38c-.29.08-.46.19-.5.31s-.06.27-.06.44-.02.33-.06.5-.21.35-.5.56c.17.17.22.36.16.59s-.17.47-.31.72-.31.51-.5.78-.32.55-.41.84c-.21.08-.28.19-.22.31s.16.27.28.44.26.34.41.53.22.39.22.59c0,.25-.02.46-.06.62s-.12.32-.25.47-.28.33-.47.56-.41.53-.66.91c.17.08.27.17.31.25s.05.19.03.31-.04.26-.06.41.01.3.09.47c-.08.17-.14.35-.16.56s-.03.42-.03.62-.01.43-.03.66-.07.47-.16.72c.08.29.22.47.41.53s.39.09.59.09h.72c.27,0,.53.04.78.12l.22.25c.15.17.32.35.53.56s.45.41.72.59.53.32.78.41h.22ZM105.41,37.2s.05-.08.09-.12l.12-.12.06-.06c-.08-.08-.14-.19-.16-.31s-.03-.27-.03-.44v-.53c0-.19-.04-.36-.12-.53-.29-.08-.47-.07-.53.03s-.09.26-.09.47v.69c0,.25-.04.46-.12.62l.12.06.25.12.25.12.12.06.03-.06ZM107.01,33.83l.38-.38c.12-.12.25-.22.38-.28s.19-.03.19.09h.72s0-.01-.06-.03-.14-.03-.22-.03-.19-.01-.31-.03-.24-.05-.34-.09l-.31-.12c-.1-.04-.2-.08-.28-.12l-.06.06s-.09.08-.16.12-.14.09-.22.16-.17.14-.25.22-.14.16-.16.22-.03.12-.03.19.05.11.16.16.24.06.41.06l.19-.19ZM107.16,13.48l.06-.19c.02-.06.06-.15.12-.25s.14-.26.22-.47l-.25-.22c-.17-.15-.33-.3-.5-.47-.29.08-.44.2-.44.34s.06.29.19.44.25.31.38.5.19.36.19.53c0-.08.01-.16.03-.22ZM112.51,26.64h.62c.08-.12.12-.24.12-.34s-.02-.19-.06-.25-.1-.1-.19-.12-.18-.02-.28,0-.2.05-.28.09-.15.09-.19.16-.05.14-.03.22.07.17.16.25h.12ZM113.66,38.64c.1-.12.21-.26.31-.41s.19-.28.25-.41.05-.19-.03-.19c-.25-.08-.42-.1-.5-.06s-.12.11-.12.22.01.25.03.44-.01.39-.09.59l.16-.19ZM116.6,34.54c.19-.19.39-.36.59-.53h-.53c-.15,0-.26.03-.34.09s-.16.17-.22.31-.09.36-.09.66c.21-.17.41-.34.59-.53ZM116.66,43.89h.84l-.12-.25c-.08-.17-.2-.33-.34-.5s-.3-.27-.47-.31-.35.06-.56.31l.06.12c.04.08.09.17.16.25s.11.17.16.25l.06.12h.22Z"/>
  <path class="st0" d="M141.26,45.58c-.62-.33-.75-.77-.38-1.31,0-.33-.19-.68-.56-1.03s-.56-.61-.56-.78c-.21-.5-.31-.98-.31-1.44v-1.88c-.21-.33-.35-.54-.44-.62s.06-.23.44-.44c-.21-.88-.56-1.51-1.06-1.91s-.65-.84-.44-1.34c.29-.54.44-.92.44-1.12-.42-.38-.77-.71-1.06-1l-.44-.44c.12-.75.14-1.41.03-1.97s.11-1.14.66-1.72c-.54-.71-1.03-1.09-1.47-1.16s-.66-.28-.66-.66c.12-.5,0-.92-.38-1.25s-.75-.5-1.12-.5c-.46.46-.69.81-.69,1.06.25.46.38.81.38,1.06-.21.38-.47.73-.78,1.06s-.53.6-.66.81v1.75c.5.38.77.77.81,1.19s.25.62.62.62v2.62c-.38.71-.77,1.24-1.19,1.59s-.5.78-.25,1.28c.17.46.25.81.25,1.06-.17.46-.25.83-.25,1.12.33,0,.66.2.97.59s.47.68.47.84v1.06c-.21.42-.39.73-.53.94s-.22.4-.22.56c-.25.54-.3,1.06-.16,1.56s-.03.83-.53,1c-.75-.17-1.49-.18-2.22-.03s-1.34.03-1.84-.34c.12,0,.03-.19-.28-.56l-.47-.56c-.5.21-.9.24-1.19.09s-.62-.05-1,.28c-.17-.17-.34-.33-.53-.5s-.36-.38-.53-.62c.17-.5.18-1.01.03-1.53s-.03-.97.34-1.34c0,.75.18.88.53.38l.53-.75c-.42-.75-.9-1.35-1.44-1.81,0-.5.12-.9.38-1.19s.38-.62.38-1c-.5-.5-.75-.85-.75-1.06,0-.5.03-1.04.09-1.62s.28-1.15.66-1.69c-.38-.5-.47-1.03-.28-1.59s.03-1.11-.47-1.66l-.38-5.12c.54-.17.8-.46.78-.88s-.03-.73-.03-.94c-.38-.12-.58-.43-.62-.91s.04-.91.25-1.28c-.21-.5-.23-.89-.06-1.16s.06-.61-.31-1.03c0-.5.17-1.07.5-1.72s.42-1.16.25-1.53c-.38-.54-.59-1.06-.66-1.56s-.09-.96-.09-1.38l1.81-3.62-1.81-2.19c.38-.5.81-.96,1.31-1.38s.67-.81.5-1.19c-.71-.71-1.06-1.19-1.06-1.44.5-.33.9-.71,1.19-1.12s.62-.52,1-.31c.25.5.38.85.38,1.06.46.25.81.38,1.06.38,0-.33.14-.61.41-.84s.49-.43.66-.59c.75.21,1.48.31,2.19.31.38,0,.73-.21,1.06-.62s.6-.46.81-.12c.5.62.9,1.19,1.19,1.69s.62.92,1,1.25c-.38.42-.35.79.06,1.12s.62.58.62.75c.17.38.22.73.16,1.06s.01.58.22.75c-.21.54-.28,1.01-.22,1.41s.01.78-.16,1.16l1.44,1.81c.17.54.19,1.04.06,1.5s.12.69.75.69v2.12c.71.71,1.06,1.21,1.06,1.5,0,.92.23,1.75.69,2.5v1.88c.5.38.91.76,1.22,1.16s.66.49,1.03.28c.12-.17.27-.32.44-.47l.25-.22c-.25-.5-.38-1.12-.38-1.88-.17,0-.08-.18.25-.53l.5-.53c-.5-.5-.75-.88-.75-1.12-.17-.5-.18-1.01-.03-1.53s.05-.99-.28-1.41c.21-.46.31-1.04.31-1.75-.21-.46-.31-1.08-.31-1.88,0-.33.18-.66.53-.97s.53-.59.53-.84v-1.81c-.5-.46-.75-.81-.75-1.06v-2.19c.38-.33.66-.54.84-.62s.41-.25.66-.5c-.38-.33-.57-.67-.59-1s-.2-.6-.53-.81c.17-.12.33-.29.5-.5s.38-.4.62-.56l5.06.31c.54.58,1.01.78,1.41.59s.76-.01,1.09.53l-.31,8.06c.21.71.31,1.42.31,2.12-.42.29-.77.44-1.06.44-.38,0-.67.14-.88.41s-.4.47-.56.59c.54.58.95.89,1.22.91s.59.2.97.53c-.75,0-.89.18-.41.53l.72.53c0,.62-.18,1.26-.53,1.91s-.53,1.11-.53,1.41c.5.75.8,1.43.91,2.03s.16,1.16.16,1.66c-.17.38-.26.73-.28,1.06s-.03.56-.03.69c-.38.42-.61.74-.72.97s-.22.41-.34.53c.71.71,1.06,1.21,1.06,1.5v1.06c-.21.46-.31,1.08-.31,1.88.42.46.62.81.62,1.06v8.75c-.33.38-.5.73-.5,1.06s-.19.56-.56.69l1.06,2.56c-.17.21-.31.38-.44.5l-.19.19h-1.88c-.54.62-.95.94-1.22.94s-.57.08-.91.25c-.25-.17-.45-.33-.59-.5l-.22-.25v-2.56c-.38.21-.78.29-1.22.25s-.66.1-.66.44c.21.38.24.68.09.91s-.03.41.34.53c-.46.54-.83.94-1.12,1.19h-.69c-.58-.75-1.19-1.29-1.81-1.62ZM128.13,14.64c.33.04.69-.02,1.06-.19v-1.44h-1.06c0,.12-.12.35-.38.69s-.38.69-.38,1.06c.17-.12.42-.17.75-.12ZM131.07,4.95c0-.21-.27-.11-.81.28s-.52.66.06.78c0-.21.25-.56.75-1.06ZM131.38,20.26c-.29-.38-.77-.38-1.44,0l.19.16.19.16c.25,0,.6-.1,1.06-.31ZM146.69,12.04c.5-.35.38-.53-.38-.53-.38-.17-.62-.12-.75.12s0,.56.38.94l.75-.53ZM147.29,9.48l.16-.22.53.56c.35.38.53.19.53-.56l-.22-.19c-.15-.12-.3-.29-.47-.5,0,.21-.11.35-.34.44s-.34.31-.34.69l.16-.22Z"/>
  <path class="st4" d="M195.19,46.89c-.5-.04-.92-.06-1.25-.06h-1.81c0-.38-.22-.73-.66-1.06s-.47-.6-.09-.81c-.54-.33-.83-.71-.88-1.12s-.23-.62-.56-.62v-2.62c-.71-.71-1.21-1.06-1.5-1.06-.54-.5-.68-1.05-.41-1.66s.05-1.03-.66-1.28c-.21-.5-.26-.98-.16-1.44s-.09-.69-.59-.69v-1.19l-2.5-3.25c-.38,0-.77.09-1.19.28s-.52.47-.31.84c.5.38.81.73.94,1.06s.31.58.56.75c-.38.75-.88,1.18-1.5,1.28s-1.1.53-1.44,1.28c.5.54,1.05.73,1.66.56s1.03,0,1.28.5c-.25.75-.23,1.42.06,2s.27,1.15-.06,1.69c.12.75.11,1.41-.03,1.97s-.03,1.11.34,1.66c-.21.46-.31.81-.31,1.06l-2.56,1.88c-.62-.54-1.16-.77-1.59-.69s-.66.31-.66.69h-2.5c-.5-.54-.88-.81-1.12-.81-.38-.12-.72-.17-1.03-.12s-.57-.02-.78-.19v-2.19c.38-.38.5-.72.38-1.03s0-.57.38-.78c-.67-.96-.77-1.81-.31-2.56-.25-.33-.33-.67-.25-1s.02-.62-.19-.88c-.21-.33-.28-.67-.22-1s.01-.58-.16-.75c0,.17.19.08.56-.25l.56-.5.47-.47.28-.28c.46-.5.79-.85,1-1.06-.46-.54-.69-.92-.69-1.12-.38.38-.72.74-1.03,1.09s-.57.24-.78-.34c0-.5-.11-.96-.34-1.38s-.24-.81-.03-1.19c.25-.71.38-1.44.38-2.19-.21-.71-.34-1.45-.41-2.22s.22-1.24.84-1.41h1.06l1.44-1.44c.71,0,.81-.19.31-.56l-.75-.56c-.5-.17-1.04.02-1.62.56s-.88.35-.88-.56c.5-.38.76-.72.78-1.03s.11-.57.28-.78l-.31-2.94c-.5-.46-.75-.83-.75-1.12-.21-.33-.28-.66-.22-.97s.01-.57-.16-.78c.17-.75.24-1.53.22-2.34s.18-1.49.59-2.03v-2.19c.21-.5.31-.88.31-1.12-.17-.17-.35-.33-.56-.5s-.4-.38-.56-.62c0-.5.11-.95.34-1.34s.24-.78.03-1.16c0-.38.25-.78.75-1.22l.75-.66c.33-.17.59-.18.78-.03s.41.03.66-.34c.38.38.66.5.84.38s.39,0,.59.38c0,.75.18.88.53.38l.53-.75c.5.21,1.05.41,1.66.59s.91-.01.91-.59c.38-.17.73-.22,1.06-.16s.58-.01.75-.22h1.88c.5.38.83.78,1,1.22s.44.66.81.66c0-.33.14-.61.41-.84s.49-.45.66-.66l5.12.38c.5.38.96.82,1.38,1.34s.81.7,1.19.53c.75.67,1.23.88,1.44.62l1.44,1.5c-.75,0-.86.19-.34.56l.78.56c-.62.96-.77,1.81-.44,2.56h1.12c0,.54-.1,1.01-.31,1.41s-.23.78-.06,1.16c.75.71,1.12,1.21,1.12,1.5v2.5c.21.5.31.83.31,1,0,.62-.23,1.06-.69,1.31s-.58.56-.38.94c.5.5.75.88.75,1.12-.21.38-.24.73-.09,1.06s.05.58-.28.75l-.75,5.5c-.83,1.42-2.04,2.75-3.62,4,.12,1.25.56,2.23,1.31,2.94s1.27,2.04,1.56,4v1.44c.38.54.78.89,1.22,1.03s.66.41.66.78c.38.96.56,1.75.56,2.38s.31,1.29.94,2c-.5.5-.9.75-1.19.75-.79-.5-1.27-.75-1.44-.75-.38.38-.7.72-.97,1.03l-.41.47h-1.5c-.62-.17-1.19-.27-1.69-.31ZM177.57,43.89v.38l.03.22c.02.15.11.3.28.47,0-.25-.1-.6-.31-1.06ZM178.63,9.2h.69c.21-.17-.02-.65-.69-1.44-.21.21-.47.42-.78.62s-.18.48.41.81h.38ZM186.85,23.83c.27-.08.7-.31,1.28-.69.12.71.36.79.72.25s.72-.62,1.09-.25l.22-.22c.15-.15.3-.32.47-.53,0-.29-.1-.67-.31-1.12v-4c.12-.17.17-.42.12-.75s.02-.69.19-1.06c-.38-.38-.55-.75-.53-1.12s-.16-.83-.53-1.38c.38-.21.48-.48.31-.81s-.15-.69.06-1.06c-.38-.33-.82-.43-1.34-.28s-1.05.11-1.59-.09c0-.75-.22-.98-.66-.69s-.82.17-1.16-.38l-.53.5c-.35.33-.53.42-.53.25-.5,2.08-.62,4.01-.38,5.78s.38,3.59.38,5.47c0,.21.23.58.69,1.12-.58.21-.55.46.09.75s.97.52.97.69c.38-.17.7-.29.97-.38ZM185.54,7.45h.34c0-.54-.15-.75-.44-.62s-.62.08-1-.12l.22.25c.15.17.32.33.53.5h.34ZM186.26,29.26h.38v-1.06c-.54-.17-.75-.12-.62.12s.08.56-.12.94h.38ZM191.91,10.54l.22-.16c.12,0,.01-.26-.34-.78s-.61-.51-.78.03c0,.17.11.29.34.38s.34.31.34.69l.22-.16ZM193.57,42.98l.38-.22c0-.21-.12-.56-.38-1.06-.21.21-.46.42-.75.62s-.17.5.38.88l.38-.22ZM194.51,17.83c.38-.38.19-.56-.56-.56l-.56.56c-.38.38-.19.56.56.56l.56-.56ZM194.29,8.67c.15-.23.16-.53.03-.91-.38.21-.51.47-.41.78s.34.53.72.66c-.38-.12-.49-.3-.34-.53Z"/>
  <path class="st8" d="M209.44,47.04l-.19-.16h-4.06c.21,0,.16-.19-.16-.56l-.47-.56c.21-.54.31-1.17.31-1.88-.71-.67-.96-1.15-.75-1.44l1.03-1.03.47-.47c-.25-.5-.31-.98-.19-1.44s-.06-.69-.56-.69c.12-.71.07-1.42-.16-2.12s-.07-1.33.47-1.88c-.17-.75-.27-1.56-.31-2.44s.21-1.4.75-1.56v-1.19c-.54-.38-.85-.73-.94-1.06s-.12-.69-.12-1.06c.71-.83,1.06-1.33,1.06-1.5.12-.38.17-.72.12-1.03s.02-.57.19-.78l-1.38-1.88c-.25,0-.21-.18.12-.53l.5-.53c-.42-.46-.62-.83-.62-1.12-.25-.67-.29-1.3-.12-1.91s.06-1.18-.31-1.72c.21-.5.64-1.02,1.28-1.56s.97-1,.97-1.38c-.62-.5-.83-.89-.62-1.16s.02-.59-.56-.97v-2.62c0-.38-.2-.72-.59-1.03s-.41-.57-.03-.78c.12-.33.23-.54.31-.62s-.02-.23-.31-.44v-1.88c.29-.5.48-.89.56-1.16s.25-.61.5-1.03c.38,0,.73-.19,1.06-.56s.58-.56.75-.56c.88,0,1.65-.05,2.31-.16s1.38-.16,2.12-.16c.46.21.81.31,1.06.31l1.75,2.62c-.96.96-1.31,1.56-1.06,1.81l1.5,1.81c-.25.54-.3,1.12-.16,1.75s-.05,1.02-.59,1.19c.12.38.11.74-.03,1.09s-.03.61.34.78c-.38.88-.42,1.65-.12,2.31s.33,1.33.12,2c-.46.25-.81.38-1.06.38-.21.17-.38.33-.5.5l-.19.25c.12.54.52.98,1.19,1.31s1,.75,1,1.25v3.69c-.38.54-.59,1.06-.66,1.56s-.09.92-.09,1.25c.12.62.29,1.18.5,1.66s.04.78-.5.91c.12.38.17.74.12,1.09s.02.64.19.84l-.31,3.56c-.38.62-.71.94-1,.94s-.44.19-.44.56c.33.54.66,1.01.97,1.41s.47.78.47,1.16c-.75.75-1,1.23-.75,1.44,0-.12.18-.03.53.28l.53.47c-.75,0-.86.18-.34.53l.78.53c-.58.38-.73.78-.44,1.22s.06.66-.69.66c.17.58.22,1,.16,1.25s.01.56.22.94c-.83.75-1.31,1.12-1.44,1.12h-2.25c-.46.21-.81.31-1.06.31l-.19-.16ZM210.35,11.64l.34-.19c-.38-.38-.7-.48-.97-.31s-.66.12-1.16-.12c.17,0,.35.09.56.28s.5.36.88.53l.34-.19Z"/>
  <path class="st5" d="M228.91,46.54c-.35-.44-.61-.47-.78-.09-.75-.38-1.29-.75-1.62-1.12s-.88-.48-1.62-.31l-3.62-2.56c-.21-.5-.45-.86-.72-1.09l-.41-.34v-1.06c-.67-.71-1.15-1.06-1.44-1.06v-2.56l-1.56-1.56c-.33-.33-.42-.77-.25-1.31.5-.5.75-.9.75-1.19-.38-.33-.71-.65-1-.94l-.44-.44v-2.94c-.21-.5-.4-1.01-.56-1.53s-.1-.97.19-1.34v-3.25c.71-.71,1.06-1.19,1.06-1.44.21,0,.15-.19-.19-.56l-.5-.56c.33-.33.54-.59.62-.78s.25-.41.5-.66c-.25-.88-.31-1.62-.19-2.25s.19-1.31.19-2.06c.67-.75,1.12-1.12,1.38-1.12v-2.12l2.19-2.19c.25-.5.38-.98.38-1.44,1-.5,1.48-.75,1.44-.75.33-.38.51-.72.53-1.03s.22-.57.59-.78c.71-.5,1.29-.9,1.75-1.19s.96-.62,1.5-1c.38.38.72.34,1.03-.09s.55-.41.72.09c.38,0,.73-.18,1.06-.53s.58-.53.75-.53c.54-.17,1.09-.18,1.66-.03s1.11.03,1.66-.34c.33,0,.61.15.84.44s.41.52.53.69c0,.54.21.8.62.78s.71-.03.88-.03c0-.21.2-.49.59-.84s.7-.45.91-.28c.21.46.31.83.31,1.12l2.12,1.38c0,.38-.05.8-.16,1.28s-.16.78-.16.91c.12.21.29.41.5.59s.42.36.62.53c.17.54.05,1.06-.34,1.56s-.41.94-.03,1.31c-.58,0-1,.24-1.25.72s-.56.72-.94.72c-.46-.21-.96-.31-1.5-.31l-3.94-.44c-.46.29-.81.44-1.06.44-.38.54-.74.81-1.09.81s-.61.08-.78.25h-1.06c-.38.38-.59.78-.66,1.22s-.09.76-.09.97l-1.75,1.75c-.25.5-.38,1-.38,1.5.17.38.18.67.03.88s-.03.4.34.56c-.46.88-.69,1.35-.69,1.44l.31,4.31c-1.46,1-2.19,1.75-2.19,2.25l1.88,1.38v2.56c.21.46.31.83.31,1.12.46.46.83.81,1.12,1.06-.38.38-.29.73.25,1.06s.46.58-.25.75c0,.38.18.71.53,1s.66.44.91.44c.38-.17.71-.18,1-.03s.54.03.75-.34l2.25.75c.12,0,.36-.2.72-.59s.45-.68.28-.84c-.46-.5-.69-.88-.69-1.12v-2.56c.46-.46.69-.81.69-1.06,0-.33-.19-.68-.56-1.03s-.29-.61.25-.78c0-.17-.2-.43-.59-.78s-.68-.47-.84-.34l-1.5-2.12c.17-.71.01-1.42-.47-2.12s-.45-1.31.09-1.81c.17-.38.18-.67.03-.88s-.03-.4.34-.56c-.21-.38-.35-.61-.44-.72s.06-.24.44-.41c.5-.17.91-.18,1.22-.03s.66.03,1.03-.34c0-.5.11-.88.34-1.12l.34-.38h1.81c.38.38.77.69,1.19.94s.75.19,1-.19c.71.79,1.06,1.27,1.06,1.44.5.21,1.02.34,1.56.41s1,.2,1.38.41v3.25c-.38.38-.74.33-1.09-.12s-.61-.69-.78-.69c-.46.54-.69.92-.69,1.12.79.83,1.4,1.06,1.81.69.5.5.75.88.75,1.12-.5.5-.75.88-.75,1.12.17.21.33.38.5.5l.25.19c-.38.88-.44,1.65-.19,2.31s.31,1.33.19,2c-.21.25-.41.45-.59.59s-.39.32-.59.53c.38.38.72.71,1.03,1l.47.44c0,.58-.1,1.06-.31,1.44s-.21.75,0,1.12c.25.88.25,1.6,0,2.19v3.94c-.62.71-1.12,1.39-1.5,2.03s-.73,1.05-1.06,1.22h-2.88c-.5.54-.9.81-1.19.81-.54-.21-1.05-.25-1.53-.12s-.91-.1-1.28-.69c-.58.58-1.07.89-1.47.91s-.74.09-1.03.22c-.38,0-.74-.22-1.09-.66ZM220.19,34.33l.38-.19-.53-.53c-.35-.35-.43-.53-.22-.53-.75.21-.91.41-.47.59s.59.47.47.84l.38-.19ZM224.51,20.39h.38v-1.44c-.71.58-.96,1.06-.75,1.44h.38ZM227.04,7.01h.34c.38-.17.48-.35.31-.56s-.12-.5.12-.88c-.58-.54-.92-.53-1,.03s-.12,1.03-.12,1.41h.34ZM230.66,9.89h.34c0-.96-.33-1.69-1-2.19l-.28.25c-.19.17-.34.33-.47.5.12.21.33.41.62.59s.44.47.44.84h.34ZM237.91,6.08l.41-.19c0-.12.08-.36.25-.72s.08-.72-.25-1.09l-.81.75v1.44l.41-.19Z"/>
  <path class="st7" d="M264.07,46.7c-.21-.17-.42-.25-.62-.25-.42.25-1.02.38-1.81.38-.75-.67-1-1.15-.75-1.44-.79-.67-1.04-1.17-.75-1.5-.17-.5-.41-.96-.72-1.38s-.55-.81-.72-1.19v-3.31c.25-.46.38-.83.38-1.12.21-.46.31-.81.31-1.06.29-.5.44-.85.44-1.06.12-.21.28-.39.47-.53l.28-.22c-.38-.38-.59-.79-.66-1.25s-.09-.79-.09-1c.5-.46.75-.81.75-1.06l-1.5-1.88h-1.44c-.58.38-1.02.6-1.31.69s-.6.23-.94.44c0,.38-.18.74-.53,1.09s-.53.59-.53.72l-.38,8.12c.5.46.75.81.75,1.06v1.88l-.75,2.56-1.88,1.44h-1.38c-.42,0-.8-.21-1.16-.62s-.61-.44-.78-.06c-.5.46-.85.69-1.06.69h-2.25c-.5-.46-.85-.81-1.06-1.06-.21-.5-.28-.9-.22-1.19s.01-.62-.16-1v-1.88c0-.38.21-.73.62-1.06s.44-.58.06-.75v-.75c-.17-.54-.14-1.09.09-1.66s.09-1.11-.41-1.66c-.21-.38-.24-.66-.09-.84s.05-.41-.28-.66c.25-.71.38-1.44.38-2.19-.25-.71-.38-1.44-.38-2.19.75-.79,1.12-1.29,1.12-1.5-.5-.46-.75-.81-.75-1.06.12-.33.11-.68-.03-1.03s-.03-.64.34-.84c-.46-.5-.69-.85-.69-1.06l-.38-4.44c.38-.54.59-1.07.66-1.59s.09-.97.09-1.34c-.38-.38-.46-.77-.25-1.19s.4-.62.56-.62v-1.12c-.38-.38-.6-.66-.69-.84s-.21-.39-.38-.59c0-.67.25-1.29.75-1.88v-4.75c-.25-.5-.38-1.12-.38-1.88.54-.5.72-1.07.53-1.72s.01-1.16.59-1.53c.71,0,1.35.05,1.94.16s1.15.16,1.69.16c.38-.12.67-.27.88-.44s.42-.25.62-.25c.5,0,.9.23,1.19.69s.62.58,1,.38c.38.21.78.53,1.22.97s.66.74.66.91v2.25c.25.46.38.81.38,1.06-.25.46-.38.81-.38,1.06-.42.58-.84,1.11-1.28,1.59s-.28.82.47,1.03c0,.54.07,1.07.22,1.59s.22.95.22,1.28c-.38.62-.59,1.19-.66,1.69s-.09.92-.09,1.25c.75.54,1.21,1.07,1.38,1.59s.44.84.81.97c.46.29.94.44,1.44.44h1.88c.46-.5.83-.75,1.12-.75.12-.58.06-1.01-.19-1.28s-.19-.59.19-.97c-.29-.46-.44-1.04-.44-1.75.79-.83,1.19-1.33,1.19-1.5-.25-.17-.46-.34-.62-.53s-.35-.39-.56-.59c-.17-.92-.17-1.7,0-2.34s.06-1.34-.31-2.09V2.76c.12-.38.47-.83,1.03-1.38s.97-.81,1.22-.81c.46.25.96.38,1.5.38.29.17.6.23.94.19s.6,0,.81.12c.38,0,.73-.21,1.06-.62s.6-.44.81-.06c.33.38.56.73.69,1.06s.38.6.75.81c.38,0,.72.2,1.03.59s.47.66.47.78l-.44,4.81.44,3.69c-.29.5-.44.85-.44,1.06-.21.5-.31.9-.31,1.19.5.46.75.81.75,1.06-.25.54-.33,1.01-.25,1.41s.02.78-.19,1.16c.21.58.24,1.01.09,1.28s-.03.59.34.97c-.38.38-.59.78-.66,1.22s-.09.74-.09.91c.21.54.31.92.31,1.12-.71.75-.94,1.25-.69,1.5.71.75.94,1.25.69,1.5l-1.44,1.75c0,.54.24.96.72,1.25s.72.62.72,1v1.88c.29.71.44,1.44.44,2.19-.38.54-.74.88-1.09,1s-.61.27-.78.44l1.44,1.81c-.38,0-.71.21-1,.62s-.44.71-.44.88c.54.21.92.44,1.12.69l.31.38c.21.75.25,1.43.12,2.03s.1,1.16.69,1.66c-.88.75-1.62.9-2.25.44l-.69.69-.38.38c.17.38-.1.85-.81,1.44h-.69c-.38-.17-.67-.33-.88-.5ZM247.82,13.26c.17-.17.38-.35.62-.56,0-.17-.22-.43-.66-.78s-.47-.72-.09-1.09c-.38-.12-.65,0-.81.38s-.5.75-1,1.12c0,.38.14.58.41.62s.59.31.97.81c.21-.17.4-.33.56-.5ZM253.98,21.14h.72c0-.25-.25-.62-.75-1.12l-.78.56c-.52.38-.41.56.34.56h.47ZM261.32,38.39h.69c.17-.38.22-.76.16-1.16s.01-.86.22-1.41c-.25,0-.75.35-1.5,1.06-.54.25-.54.47,0,.66s.54.47,0,.84h.44Z"/>
  <path class="st6" d="M278.01,45.76c.33-.17.61-.41.84-.72s.45-.2.66.34c.38-.21.71-.24,1-.09s.44-.07.44-.66c-.46-.5-.83-.88-1.12-1.12-.46-.25-.96-.38-1.5-.38-.17-.54-.07-1.05.28-1.53s.16-.8-.59-.97c.12-.58.18-1.07.16-1.47s.16-.78.53-1.16c-.54-.54-.81-1.07-.81-1.59s-.08-.97-.25-1.34v-2.94l1.06-2.62c.54-.33.82-.68.84-1.03s.11-.61.28-.78c-.71-.75-1.21-1.12-1.5-1.12-.38-.54-.5-1.14-.38-1.78s.02-1.16-.31-1.53c.5-.54.73-1.07.69-1.59s.23-.97.81-1.34c-.29-.5-.44-1.12-.44-1.88.54-.5.81-.85.81-1.06-.62-.38-1.05-.79-1.28-1.25s-.43-.79-.59-1c.33-.5.44-1.07.31-1.72s0-1.16.38-1.53c-.21-.29-.54-.67-1-1.12-.62.17-1.14.18-1.53.03s-.76-.05-1.09.28c-.38-.12-.61-.24-.72-.34s-.24.01-.41.34c-.46-.21-.83-.31-1.12-.31.38-.38.32-.73-.16-1.06s-.53-.6-.16-.81c-.58-.38-.82-.72-.72-1.03s-.03-.57-.41-.78c.38-.38.68-.78.91-1.22s.18-.76-.16-.97v-2.56l4.06-1.88c1.46,1,2.19,1.12,2.19.38h1.81c.75.71,1.25.94,1.5.69.5-.46.75-.81.75-1.06.33.21.67.28,1,.22s.62-.01.88.16c.71,0,1.51.03,2.41.09s1.53.26,1.91.59c.54.21,1.08.24,1.62.09s1-.05,1.38.28c1-.92,1.6-1.27,1.81-1.06.38.54.82,1.01,1.34,1.41s.7.78.53,1.16l-1.44,2.19c.5.5.85.75,1.06.75,0,.58-.05,1.12-.16,1.62s-.16.94-.16,1.31c-.62.38-.95.77-.97,1.19s-.22.62-.59.62c-1.08-.33-2.08-.42-3-.25s-1.85.25-2.81.25c.33.42.65.78.94,1.09l.44.47c0,.54-.05,1.12-.16,1.75s-.16,1.12-.16,1.5c.21.5.31,1.1.31,1.81.21,0,.15.2-.19.59l-.5.59c0,.54.11.95.34,1.22s.34.57.34.91v4.06c-.71.79-1.06,1.29-1.06,1.5.5.38.81.73.94,1.06s.31.6.56.81c-.58.54-.85,1.04-.81,1.5s-.19.69-.69.69c.17.38.18.74.03,1.09s-.03.59.34.72c-.25.75-.38,1.48-.38,2.19.17.25.34.46.53.62s.36.35.53.56v3.62c-.46.5-.69.9-.69,1.19,0,.33.19.67.56,1s.56.58.56.75v2.56l-1.81,1.5h-1.88c-.54,0-.96-.25-1.25-.75s-.62-.75-1-.75c-.54.42-.81.79-.81,1.12s-.08.58-.25.75c-.38-.17-.73-.18-1.06-.03s-.6.03-.81-.34l-.34.19-.34.19c-.54-.46-.92-.81-1.12-1.06ZM280.94,25.08c-.21-.12-.41-.33-.59-.62s-.47-.19-.84.31l.03.22c.02.15.11.3.28.47.29,0,.67-.12,1.12-.38ZM281.88,29.36l.19-.16c0-.25-.25-.65-.75-1.19-.38.25-.46.48-.25.69s.42.48.62.81l.19-.16ZM284.29,26.95h.34c0-.25-.12-.62-.38-1.12,0,.21-.16.35-.47.44s-.26.31.16.69h.34Z"/>
  <path class="st12" d="M303.69,46.45c-.17-.71-.36-1.3-.59-1.78s-.53-1.07-.91-1.78c-.38.17-.6.35-.69.56s-.21.12-.38-.25c-.38.38-.61.76-.72,1.16s.14.49.72.28c.38.38.68.79.91,1.25s.18.79-.16,1c-.62,0-1.19-.07-1.69-.22s-.92-.22-1.25-.22c-.38-.38-.61-.6-.72-.69s-.22-.21-.34-.38c0-.54-.12-.95-.38-1.22s-.38-.59-.38-.97c-.25-.54-.31-1.12-.19-1.75s-.06-1.12-.56-1.5l.31-3c.38-.12.76-.41,1.16-.84s.51-.76.34-.97c.54.21,1.17.44,1.88.69s1.06.62,1.06,1.12c0,.38.14.68.41.91s.49.43.66.59c.58-.38.89-.77.91-1.19s.22-.62.59-.62h2.19c.71-.71,1.21-.96,1.5-.75.29,0,.59-.19.91-.56s.47-.67.47-.88v-2.56l-2.56-3.25c-.54-.58-1.21-1.2-2-1.84s-1.06-1.26-.81-1.84c-1.08-.38-1.71-.48-1.88-.31-.25-.5-.38-.88-.38-1.12-.38-.33-.72-.66-1.03-.97l-.47-.47c-.21-.5-.31-1-.31-1.5.12-.33.11-.6-.03-.81s-.03-.42.34-.62c-.54-.75-1.09-1.23-1.66-1.44s-.84-.58-.84-1.12c.38-.71.83-1.01,1.38-.91s.56-.2.06-.91c-.38,0-.82-.04-1.34-.12s-.7-.4-.53-.94c-.17-.38-.01-.73.47-1.06s.47-.6-.03-.81v-1.75l2.19-3.31c.75-.79,1.12-1.27,1.12-1.44v-1.19c.92-.92,1.5-1.27,1.75-1.06l1.5-1.44c.38.38.72.32,1.03-.16s.57-.53.78-.16c.33-.21.61-.46.84-.75s.43-.19.59.31c.38-.17.73-.22,1.06-.16s.58-.01.75-.22c.33.21.68.28,1.03.22s.64-.01.84.16c.5-.17.89-.17,1.16,0s.59.04.97-.38l2.94.38c.62-.5,1.05-.25,1.28.75s.53,1.75.91,2.25c-.25.46-.38.79-.38,1-1,1-1.35,1.62-1.06,1.88.12.21.29.4.5.56s.4.33.56.5v2.56c0,.38-.2.71-.59,1s-.68.44-.84.44c-.75-.17-1.44-.19-2.06-.06s-1.04-.08-1.25-.62c-.54-.17-1.06-.11-1.56.16s-.94.22-1.31-.16c-.88-.62-1.51-.45-1.91.53s-.59,1.66-.59,2.03c.42.92.62,1.4.62,1.44.21.5.27.96.19,1.38s0,.79.25,1.12c.33.38.67.57,1,.59s.6.22.81.59c.33.54.66,1,.97,1.38s.47.75.47,1.12c.5.17.96.18,1.38.03s.81-.05,1.19.28c0,.71.23,1.33.69,1.88.38.21.88.5,1.5.88s.88.81.75,1.31c.79.62,1.26,1.38,1.41,2.25s.41,1.69.78,2.44c-.25.54-.38.92-.38,1.12.46.5.69.88.69,1.12v2.19c-.46.46-.69.81-.69,1.06,0,1.12-.08,2.22-.25,3.28s-.35,2.03-.56,2.91c-.38.42-.73.69-1.06.81s-.56.33-.69.62c-.38,1.88-.94,2.72-1.69,2.53s-1.42-.05-2,.41c-1.08.25-2.1.31-3.06.19s-1.88.06-2.75.56h-2.19c-.5-.5-.85-.75-1.06-.75ZM306.26,43.51h.38l-.53-.53c-.35-.35-.43-.53-.22-.53-.58.25-.7.42-.34.5s.47.27.34.56h.38ZM310.19,3.33c.5-.38.4-.56-.31-.56,0,.46-.15.83-.44,1.12l.75-.56ZM310.26,44.64h.38c.33-.17.43-.35.28-.56s-.14-.5.03-.88c-.71,0-1.06.48-1.06,1.44h.38ZM313.19,39.51c-.25-.33-.55-.44-.91-.31s-.45.38-.28.75c.29,0,.69-.15,1.19-.44ZM314.1,5.08c.15-.17.32-.33.53-.5-.25-.29-.62-.67-1.12-1.12,0,.25-.03.53-.09.84s.09.66.47,1.03l.22-.25ZM313.91,36.2h.72c0-.46-.12-.81-.38-1.06,0,.21-.12.35-.38.44s-.38.29-.38.62h.41Z"/>
  <path class="st11" d="M344.01,47.26c-.21-.12-.39-.26-.53-.41s-.29-.24-.44-.28-.26.02-.34.19c-.29-.17-.49-.34-.59-.53s-.19-.36-.25-.53-.1-.32-.12-.47-.09-.28-.22-.41l-.31-6.31c.21-.25.36-.48.47-.69s.19-.4.25-.56.12-.32.19-.47.14-.3.22-.47l-.19-.47c-.04-.1-.07-.19-.09-.25l-.06-.19c-.02-.06-.03-.14-.03-.22.08-.21.16-.36.22-.47s.1-.19.12-.25.03-.12.03-.19v-.22c0-.21-.04-.39-.12-.53s-.19-.27-.31-.38l-.38-.31c-.12-.1-.23-.22-.31-.34.21-.17.36-.3.47-.41s.18-.19.22-.25.06-.12.06-.19v-.22c-.08-.21-.12-.38-.12-.5s.02-.25.06-.38.04-.24,0-.34-.17-.2-.38-.28v-5.94c0-.21.04-.39.12-.53s.19-.28.31-.41.26-.23.41-.31.26-.19.34-.31c-.17-.17-.27-.32-.31-.47s-.06-.27-.06-.38-.01-.21-.03-.31-.14-.2-.34-.28c.08-.29.07-.57-.03-.84s-.23-.53-.38-.78-.27-.49-.38-.72-.09-.45.03-.66v-5.25c.21-.17.32-.34.34-.53s.03-.35.03-.5.02-.29.06-.44.15-.28.31-.41l-.44-3.69c0-.21.08-.4.25-.56s.32-.33.47-.5.24-.32.28-.47-.02-.28-.19-.41c-.21-.25-.36-.49-.47-.72s-.18-.45-.22-.66-.07-.41-.09-.59-.03-.39-.03-.59c.29-.17.53-.36.72-.59s.33-.44.44-.62.22-.34.34-.47.27-.19.44-.19h3.38c.38.17.67.25.88.25s.4-.08.56-.25c.29.08.56.14.81.16s.48.03.69.03.41.01.59.03.39.07.59.16c.25-.21.5-.35.75-.44l.66-.22c.19-.06.38-.09.56-.09h.59c.29.08.55.17.78.25s.45.16.66.22.41.08.59.06.39-.07.59-.16h1.88c.17.08.3.16.41.22s.19.1.25.12.12.03.19.03h.28l.69.69c.17.17.31.28.44.34s.27.1.44.12.38.03.62.03l1.5,2.12c.12.21.18.41.16.59s-.03.35-.03.5.04.26.12.34.27.12.56.12c.17-.08.3-.15.41-.19s.19-.07.25-.09l.19-.06c.06-.02.14-.03.22-.03.38.54.73,1.02,1.06,1.44s.62.81.88,1.19c0,.54.07,1.09.22,1.66s.3,1.14.47,1.72c.08.17.11.34.09.53s-.04.36-.06.53-.01.31.03.44.15.23.31.31v4.06c.17.29.3.54.41.75l.28.56c.08.17.15.32.19.47s.1.32.19.53c-.17.17-.28.34-.34.53s-.11.36-.16.53-.1.32-.19.47-.21.26-.38.34c0,.17.07.34.22.53s.29.36.44.53.25.32.31.47-.01.26-.22.34l-1.5,1.88c.21.08.35.18.44.28s.16.22.22.34.09.26.09.41v.84c0,.12.03.25.09.38s.14.25.22.38.23.23.44.31c-.38,0-.58.05-.62.16s-.02.23.06.38.2.28.34.41l.22.19c-.08.46-.12.89-.12,1.28v1.09c0,.33-.04.68-.12,1.03s-.25.72-.5,1.09c-.08.25-.11.5-.09.75s.04.48.06.69.02.41,0,.59-.14.36-.34.53v1.88c-.29.42-.51.79-.66,1.12s-.26.65-.34.94-.12.57-.12.84v.84l-4.12,4.12c-.25,0-.47.03-.66.09s-.34.15-.47.25-.22.2-.28.28l-.09.12c-.25,0-.52.01-.81.03s-.57.05-.84.09-.55.08-.84.12-.58.06-.88.06c0,.08-.05.09-.16.03s-.23-.15-.38-.25-.27-.21-.38-.31l-.16-.16c0-.08-.06-.09-.19-.03s-.25.15-.38.25l-.38.31-.19.16c-.38-.17-.68-.32-.91-.47s-.43-.22-.59-.22c-.21.21-.36.34-.47.41s-.19.12-.25.19-.12.09-.19.09h-2.09c-.21-.17-.38-.3-.5-.41s-.25-.19-.38-.25-.23-.12-.31-.19-.19-.14-.31-.22l-2.94.38-.47.19c-.1.04-.19.07-.25.09l-.19.06c-.06.02-.16.03-.28.03l-.06.03s-.07.05-.09.09-.05.08-.09.12l-.06.06c-.17,0-.35-.06-.56-.19ZM348.13,4.51s.1-.01.19-.03.18-.05.28-.09.24-.1.41-.19l-.16-.16c-.1-.1-.23-.22-.38-.34s-.27-.22-.38-.28-.16-.05-.16.03l-.22.19c-.15.12-.27.25-.38.38s-.12.24-.06.34.28.16.66.16h.19ZM348.01,43.7s.1-.08.19-.12.17-.09.25-.16.16-.12.22-.19.11-.12.16-.19.05-.12.03-.19-.07-.1-.16-.12-.23-.03-.44-.03c-.17-.12-.31-.18-.44-.16s-.22.09-.28.22-.06.28,0,.47.2.36.41.53l.06-.06ZM351.88,37.92c.21-.15.5-.32.88-.53.17.21.35.34.56.41s.42.1.62.12.43.04.66.06.49.07.78.16l.12-.12.34-.34c.15-.15.31-.3.5-.47s.36-.35.53-.56c-.21-.17-.31-.35-.31-.56s.1-.5.31-.88l.31-5.25,1.5-1.88c0-.17-.09-.39-.28-.66s-.4-.56-.62-.88-.44-.62-.62-.94-.28-.59-.28-.84v-.28c0-.06.01-.12.03-.19s.05-.15.09-.25.1-.24.19-.41v-2.62c-.08-.21-.12-.41-.12-.59v-.59c0-.21-.01-.43-.03-.66s-.07-.49-.16-.78c-.08-.08-.14-.2-.16-.34s-.03-.3-.03-.47-.01-.34-.03-.53-.09-.36-.22-.53c0-.08.03-.18.09-.28s.12-.22.19-.34.14-.25.22-.38.17-.29.25-.5c-.08-.17-.17-.35-.25-.56s-.16-.42-.22-.62-.12-.43-.19-.66-.09-.47-.09-.72c-.25-.12-.51-.29-.78-.5s-.55-.44-.84-.69-.57-.51-.84-.78-.55-.49-.84-.66c-.21.08-.36.19-.47.31s-.18.27-.22.44-.06.34-.06.53v.59l-.09.12c-.06.08-.15.18-.25.28s-.25.22-.44.34-.41.23-.66.31v.22c0,.06.01.14.03.22s.05.18.09.28.1.24.19.41c0,.08.02.22.06.41s.05.38.03.56-.09.36-.22.53-.33.29-.62.38c.08.08.17.16.25.22s.16.12.22.19l.25.25.47.47v.22c0,.06.01.12.03.19l.09.28c.04.12.1.27.19.44l-.31,4.44.69,2.62-.09.06-.19.12c-.06.04-.15.1-.25.19s-.19.16-.25.22-.11.12-.16.19-.05.12-.03.19.08.1.19.12.24.03.41.03c-.17.17-.25.38-.25.62s.08.56.25.94v1.81c-.08.21-.14.39-.16.53s-.03.3-.03.47v.53c0,.19-.04.43-.12.72.25.17.4.33.44.5s.01.33-.09.5-.23.34-.38.53-.28.43-.41.72v4.06c.21,0,.42-.07.62-.22ZM357.1,9.23c.15-.19.32-.36.53-.53-.12-.08-.26-.11-.41-.09s-.28.09-.41.22-.19.27-.19.44.08.35.25.56c0-.21.07-.41.22-.59ZM363.66,41.83s.06-.08.12-.12.11-.08.16-.12l.06-.06v-2.19h-2.25v1.44c.08.08.19.14.31.16s.27.06.44.12.34.15.53.25.39.3.59.59l.03-.06ZM366.04,29.17l.19-.06c.06-.02.15-.05.25-.09l.47-.19c-.29-.25-.46-.4-.5-.44s-.06-.02-.06.06-.02.21-.06.38-.21.29-.5.38c.08,0,.16-.01.22-.03Z"/>
  <path class="st10" d="M373.13,45.76c0,.08-.06.21-.19.38s-.27.31-.44.44-.33.23-.5.31-.29.08-.38,0c-.21,0-.4-.06-.56-.19s-.32-.27-.47-.44-.26-.33-.34-.5-.12-.29-.12-.38v-1.5c.21-.17.36-.3.47-.41l.25-.25c.06-.06.11-.12.16-.19s.12-.14.25-.22c0-.29-.04-.54-.12-.75s-.17-.39-.25-.53l-.25-.44c-.08-.15-.12-.32-.12-.53.21-.33.32-.67.34-1s.03-.58.03-.75c0-.21.08-.43.25-.66s.34-.44.53-.62.35-.34.5-.47l.22-.19.38-8.12c.08-.25.19-.47.31-.66s.25-.33.38-.44.22-.18.28-.22l.09-.06c-.08-.29-.11-.54-.09-.75s.04-.4.06-.56.02-.32,0-.47-.14-.3-.34-.47c.21-.29.35-.55.44-.78s.16-.45.22-.66.09-.41.09-.59v-.53c.21-.21.42-.36.62-.47s.41-.2.59-.28.33-.18.44-.28.16-.24.16-.41c-.38-.38-.65-.69-.81-.94s-.25-.46-.25-.62v-2.19c.21-.21.35-.36.44-.47s.15-.19.19-.25.07-.11.09-.16.03-.1.03-.19c-.12-.29-.2-.55-.22-.78s-.03-.45-.03-.66v-.59c0-.19-.06-.39-.19-.59l1.88-1.81c.12-.17.2-.33.22-.5s.02-.33,0-.5-.05-.34-.09-.53l-.12-.56c-.04-.19-.07-.35-.09-.5s0-.27.06-.38.16-.19.28-.25.31-.09.56-.09l.38-.47c.08-.1.17-.19.25-.25s.15-.12.19-.19.12-.14.25-.22c-.21-.17-.35-.3-.44-.41s-.17-.18-.25-.22l-.19-.09s-.1-.03-.19-.03c0-.17.02-.36.06-.59s.09-.45.16-.66.14-.4.22-.56.17-.31.25-.44v-1.38h1.06c.21-.17.34-.34.41-.53s.11-.36.16-.53.09-.32.16-.47.2-.26.41-.34c.38-.17.68-.33.91-.5s.43-.25.59-.25h1.44c.29.17.55.3.78.41s.45.18.66.22.41.07.59.09.36.03.53.03c.29-.08.53-.16.72-.22s.36-.1.53-.12.33-.03.5-.03h.5l2.56,2.56c0,.21-.07.4-.22.56l-.44.5c-.15.17-.24.31-.28.44s.04.23.25.31c0,.29.07.54.22.75s.31.4.5.56.35.32.5.47.22.3.22.47c-.12.29-.19.53-.19.72v.53c0,.17-.01.32-.03.47s-.07.32-.16.53c.33.33.6.61.81.84s.31.45.31.66c-.12.17-.18.31-.16.44l.06.38c.02.12.02.23,0,.31s-.14.17-.34.25c0,.21.07.4.22.56l.44.5c.15.17.25.32.31.47s-.01.28-.22.41c0,.17-.04.32-.12.47s-.18.27-.28.38-.22.2-.34.28-.23.17-.31.25c.17.12.3.21.41.25s.19.07.25.09l.19.06c.06.02.14.03.22.03.21.17.36.32.47.47s.19.27.25.38l.19.31c.06.1.16.22.28.34-.21.17-.35.35-.44.56s-.16.42-.22.62-.09.4-.09.56v.38c.17.17.3.31.41.44s.19.21.25.25.12.06.19.06h.22c.29.54.47,1.09.53,1.66s.12,1.1.19,1.62.14,1.03.22,1.53.25,1,.5,1.5c-.17.33-.27.67-.31,1s-.06.58-.06.75c.21.38.39.68.53.91s.22.43.22.59v1.81c-.21.21-.38.36-.5.47s-.24.19-.34.25l-.31.19c-.1.06-.2.16-.28.28.25.25.51.46.78.62s.51.32.72.47.38.3.5.47.19.4.19.69c-.08.33-.11.66-.09.97l.06.94c.02.31.02.6,0,.88s-.11.55-.28.84c.17.25.32.53.47.84s.26.61.34.91.15.57.19.84.06.51.06.72l.41.41c.1.1.19.2.25.28s.12.15.19.19.14.12.22.25c.21.33.33.61.38.84s.06.41.06.53c-.21.42-.46.79-.75,1.12s-.54.6-.75.81c0-.38-.05-.57-.16-.59s-.23.04-.38.19-.27.3-.38.47l-.16.25-4.5-.31c-.17-.21-.32-.32-.47-.34s-.27-.03-.38-.03-.21-.02-.31-.06-.2-.15-.28-.31c-.33.17-.68.26-1.03.28s-.64.03-.84.03c.12,0,.16-.05.09-.16s-.16-.22-.28-.34-.24-.25-.34-.38l-.16-.19c.17-.17.3-.36.41-.59s.18-.45.22-.66.06-.4.06-.56v-.44l-.53-.53-.53-.53c0-.17-.02-.36-.06-.59s-.08-.45-.12-.66-.09-.4-.16-.56-.09-.29-.09-.38c-.17-.29-.33-.49-.5-.59s-.33-.18-.5-.22-.31-.07-.44-.09-.23-.07-.31-.16c-.21.08-.42.12-.62.12s-.41.02-.59.06-.34.09-.47.16-.19.18-.19.34h-1.12c-.17,0-.33.06-.5.19l-.5.38c-.17.12-.32.24-.47.34s-.26.16-.34.16c-.38-.17-.67-.32-.88-.47s-.42-.22-.62-.22c-.25.08-.43.21-.53.38s-.18.33-.22.5-.04.33,0,.5.06.29.06.38c.17.25.32.45.47.59l.22.22c.21-.08.4-.07.56.03s.32.24.47.41.26.32.34.47l.12.22v.69c-.21.17-.36.3-.47.41s-.18.19-.22.25-.06.14-.06.22v.25c-.08.21-.14.42-.16.62s-.04.4-.06.56-.06.31-.12.44-.2.19-.41.19c-.33,0-.68-.02-1.03-.06l-1.06-.12c-.35-.04-.7-.07-1.03-.09s-.65-.03-.94-.03l-.06.03s-.07.05-.09.09-.05.08-.09.12l-.06.06-1.81-1.44ZM376.91,31.26c.06-.08.09-.19.09-.31v-.47c0-.19.04-.36.12-.53-.17,0-.35.08-.56.25s-.5.44-.88.81l.22.06c.15.04.32.15.53.31.25,0,.41-.04.47-.12ZM386.54,30.26h.84v-.19s-.02-.1-.06-.19-.11-.18-.22-.28l-.41-.41v-3c-.17-.08-.28-.15-.34-.19s-.08-.1-.06-.19.07-.18.16-.28.17-.24.25-.41c0-.17-.01-.34-.03-.53s-.05-.39-.09-.59-.1-.43-.19-.66-.21-.49-.38-.78v-1.88c0-.17.01-.36.03-.59s.11-.51.28-.84c0-.21-.08-.42-.25-.62s-.44-.48-.81-.81c-.17-.12-.23-.26-.19-.41s.14-.3.28-.47l.44-.5c.15-.17.22-.35.22-.56l-1.5-1.38c-.29.08-.46.19-.5.31s-.06.27-.06.44-.02.33-.06.5-.21.35-.5.56c.17.17.22.36.16.59s-.17.47-.31.72-.31.51-.5.78-.32.55-.41.84c-.21.08-.28.19-.22.31s.16.27.28.44.26.34.41.53.22.39.22.59c0,.25-.02.46-.06.62s-.12.32-.25.47-.28.33-.47.56-.41.53-.66.91c.17.08.27.17.31.25s.05.19.03.31-.04.26-.06.41.01.3.09.47c-.08.17-.14.35-.16.56s-.03.42-.03.62-.01.43-.03.66-.07.47-.16.72c.08.29.22.47.41.53s.39.09.59.09h.72c.27,0,.53.04.78.12l.22.25c.15.17.32.35.53.56s.45.41.72.59.53.32.78.41h.22ZM382.35,37.2s.05-.08.09-.12l.12-.12.06-.06c-.08-.08-.14-.19-.16-.31s-.03-.27-.03-.44v-.53c0-.19-.04-.36-.12-.53-.29-.08-.47-.07-.53.03s-.09.26-.09.47v.69c0,.25-.04.46-.12.62l.12.06.25.12.25.12.12.06.03-.06ZM383.94,33.83l.38-.38c.12-.12.25-.22.38-.28s.19-.03.19.09h.72s0-.01-.06-.03-.14-.03-.22-.03-.19-.01-.31-.03-.24-.05-.34-.09l-.31-.12c-.1-.04-.2-.08-.28-.12l-.06.06s-.09.08-.16.12-.14.09-.22.16-.17.14-.25.22-.14.16-.16.22-.03.12-.03.19.05.11.16.16.24.06.41.06l.19-.19ZM384.1,13.48l.06-.19c.02-.06.06-.15.12-.25s.14-.26.22-.47l-.25-.22c-.17-.15-.33-.3-.5-.47-.29.08-.44.2-.44.34s.06.29.19.44.25.31.38.5.19.36.19.53c0-.08.01-.16.03-.22ZM389.44,26.64h.62c.08-.12.12-.24.12-.34s-.02-.19-.06-.25-.1-.1-.19-.12-.18-.02-.28,0-.2.05-.28.09-.15.09-.19.16-.05.14-.03.22.07.17.16.25h.12ZM390.6,38.64c.1-.12.21-.26.31-.41s.19-.28.25-.41.05-.19-.03-.19c-.25-.08-.42-.1-.5-.06s-.12.11-.12.22.01.25.03.44-.01.39-.09.59l.16-.19ZM393.54,34.54c.19-.19.39-.36.59-.53h-.53c-.15,0-.26.03-.34.09s-.16.17-.22.31-.09.36-.09.66c.21-.17.41-.34.59-.53ZM393.6,43.89h.84l-.12-.25c-.08-.17-.2-.33-.34-.5s-.3-.27-.47-.31-.35.06-.56.31l.06.12c.04.08.09.17.16.25s.11.17.16.25l.06.12h.22Z"/>
  <path class="st13" d="M411.32,46.39c-.38.38-.67.27-.88-.31s-.4-.6-.56-.06c-.21-.17-.39-.34-.53-.53l-.22-.28c.17-.5.3-1.07.41-1.72s-.03-1.16-.41-1.53c.38-.38.5-.73.38-1.06s0-.6.38-.81l-.75-10.94v-2.62c-.21-.54-.56-1.04-1.06-1.5l-.75-.69c.12-.38.17-.73.12-1.06s.02-.58.19-.75c-.58-.54-.92-.97-1-1.28s-.12-.76-.12-1.34c.54-.33.88-.67,1-1s.31-.6.56-.81c-1-.5-1.62-.62-1.88-.38-.38-.54-.83-1.01-1.38-1.41s-.71-.78-.5-1.16c0-.33.22-.68.66-1.03s.49-.61.16-.78c-1.21-1.12-1.96-2-2.25-2.62.5-.33.48-.6-.06-.81s-.52-.42.06-.62c0-.38-.22-.72-.66-1.03s-.45-.57-.03-.78c-1-1.33-1.5-2.67-1.5-4,.5-.58.67-1.01.5-1.28s.02-.59.56-.97c.54.25,1.17.38,1.88.38.46-.5.83-.75,1.12-.75.17.58.46.85.88.81s.71-.06.88-.06c.38-.38.67-.5.88-.38s.44,0,.69-.38c.71.25,1.44.38,2.19.38.75.54,1.15,1.05,1.19,1.53s.25.72.62.72c-.17.38-.18.73-.03,1.06s.05.58-.28.75c0-.75-.2-.88-.59-.38l-.59.75c0-.17.2-.09.59.22l.59.47c-.25,0-.2.19.16.56l.53.56c-.75,0-.88.18-.38.53l.75.53-1.88,2.62,2.94,3.69c.17.38.22.72.16,1.03s.01.55.22.72c-.38.42-.74.89-1.09,1.41s-.72.68-1.09.47c-.38,0-.68.15-.91.44s-.43.52-.59.69c.71.71,1.21,1.06,1.5,1.06.71,0,1.05-.24,1.03-.72s.24-.72.78-.72c.38.21.67.23.88.06s.4-.06.56.31c.38-.38.6-.67.69-.88s.25-.42.5-.62c-.75,0-.89-.18-.41-.53l.72-.53c-.54-.38-.82-.73-.84-1.06s-.09-.6-.22-.81c.38-.54.88-.91,1.5-1.09s.85-.55.69-1.09c-.38-.54-.58-1.01-.62-1.41s-.06-.78-.06-1.16l1.38-1.88c-.38-.5-.7-.61-.97-.34s-.41.03-.41-.72c-.25-.54-.29-.95-.12-1.22s.06-.59-.31-.97c.29-.5.44-1.1.44-1.81l2.19-2.25c.33.21.66.46.97.75s.59.54.84.75c0,.17.19.08.56-.25l.56-.5c0-.54.11-.93.34-1.16l.34-.34c.79,0,1.65.25,2.56.75,1.54,0,2.54.35,3,1.06v1.5c-.29.5-.44.88-.44,1.12,0-.17-.18-.08-.53.25l-.53.5c.75,0,.88.18.38.53l-.75.53c0,.58-.11.98-.34,1.19l-.34.31v2.19c-.75.17-1.18.54-1.28,1.12s-.41,1.06-.91,1.44c.5.38.71.74.62,1.09s.06.61.44.78c.33.38.21.67-.38.88s-.58.38,0,.5c-.25.54-.38.94-.38,1.19,0,.54-.25.95-.75,1.22s-.75.59-.75.97-.08.76-.25,1.16-.44.49-.81.28c-.42-.33-.68-.35-.78-.06s-.22.44-.34.44c.12.58.5,1.19,1.12,1.81s.5,1-.38,1.12c-.25.92-.42,1.76-.5,2.53s-.29,1.53-.62,2.28c0,.54-.11.91-.34,1.09l-.34.28c.12.62.17,1.12.12,1.5s.02.73.19,1.06c-.17.42-.23.79-.19,1.12s0,.58-.12.75c.33.75.53,1.48.59,2.19s.09,1.33.09,1.88c-.38.54-.62,1.09-.75,1.66s-.38,1.11-.75,1.66l1.5,1.81c-.46.5-.69.85-.69,1.06-.21.42-.28.79-.22,1.12s.01.58-.16.75c-.58-.17-1.23-.16-1.94.03s-1.06-.05-1.06-.72h-1.06c-.5.46-.88.69-1.12.69l-2.56-.69ZM412.26,43.98l.19-.16c-.25-.29-.62-.69-1.12-1.19,0,.25.08.47.25.66s.33.47.5.84l.19-.16ZM416.51,43.83c0-.38-.23-.67-.69-.88s-.85-.31-1.19-.31c-.58.25-.66.56-.22.94s.74.56.91.56c.29,0,.69-.1,1.19-.31ZM416.13,38.83l.38-.19-.59-.5c-.4-.33-.59-.42-.59-.25,0,.29.15.67.44,1.12l.38-.19ZM418.69,24.7h.38c.17-.17.35-.4.56-.69s.5-.44.88-.44c-.21-.71-.49-.83-.84-.38s-.8.96-1.34,1.5h.38ZM419.98,5.48c.35-.31.53-.39.53-.22l.03-.22c.02-.15.11-.32.28-.53-.17-.38-.42-.31-.75.19s-.67.56-1,.19c0,.25.12.6.38,1.06l.53-.47ZM421.63,17.01l-.56-.56c-.38-.38-.56-.19-.56.56.38.21.35.41-.06.59s-.52.47-.31.84l1.5-1.44ZM424.66,3.76c.31-.38.41-.88.28-1.5-.54.38-.73.72-.56,1.03s0,.72-.5,1.22l.16.19.16.19c0-.38.16-.75.47-1.12Z"/>
</svg>