<?xml version="1.0" encoding="UTF-8"?>
<svg id="DECEMBER_10_x2C__2024_xA0_Image" xmlns="http://www.w3.org/2000/svg" xmlns:xlink="http://www.w3.org/1999/xlink" version="1.1" viewBox="0 0 326.38 47.54">
  <!-- Generator: Adobe Illustrator 29.0.1, SVG Export Plug-In . SVG Version: 2.1.0 Build 192)  -->
  <defs>
    <style>
      .st0 {
        fill: url(#New_Gradient_Swatch_14);
      }

      .st0, .st1, .st2, .st3, .st4, .st5, .st6, .st7, .st8, .st9, .st10, .st11, .st12 {
        stroke: #000;
        stroke-miterlimit: 10;
        stroke-width: .5px;
      }

      .st1 {
        fill: url(#New_Gradient_Swatch_12);
      }

      .st2 {
        fill: url(#New_Gradient_Swatch_13);
      }

      .st3 {
        fill: url(#New_Gradient_Swatch_11);
      }

      .st4 {
        fill: url(#New_Gradient_Swatch_15);
      }

      .st5 {
        fill: url(#New_Gradient_Swatch_17);
      }

      .st6 {
        fill: url(#New_Gradient_Swatch_19);
      }

      .st7 {
        fill: url(#New_Gradient_Swatch_18);
      }

      .st8 {
        fill: url(#New_Gradient_Swatch_16);
      }

      .st9 {
        fill: url(#New_Gradient_Swatch_1);
      }

      .st10 {
        fill: url(#New_Gradient_Swatch_112);
      }

      .st11 {
        fill: url(#New_Gradient_Swatch_111);
      }

      .st12 {
        fill: url(#New_Gradient_Swatch_110);
      }
    </style>
    <linearGradient id="New_Gradient_Swatch_1" data-name="New Gradient Swatch 1" x1="8.78" y1=".54" x2="3.07" y2="47.1" gradientUnits="userSpaceOnUse">
      <stop offset="0" stop-color="#ffdb73"/>
      <stop offset=".37" stop-color="#f6f6d7"/>
      <stop offset=".52" stop-color="#fdde7d"/>
      <stop offset=".74" stop-color="#f5e69e"/>
      <stop offset=".89" stop-color="#ffdb73"/>
    </linearGradient>
    <linearGradient id="New_Gradient_Swatch_11" data-name="New Gradient Swatch 1" x1="29.09" y1=".24" x2="23.28" y2="47.57" xlink:href="#New_Gradient_Swatch_1"/>
    <linearGradient id="New_Gradient_Swatch_12" data-name="New Gradient Swatch 1" x1="54" y1="-.37" x2="48.23" y2="46.68" xlink:href="#New_Gradient_Swatch_1"/>
    <linearGradient id="New_Gradient_Swatch_13" data-name="New Gradient Swatch 1" x1="80.55" y1="-.16" x2="74.73" y2="47.29" xlink:href="#New_Gradient_Swatch_1"/>
    <linearGradient id="New_Gradient_Swatch_14" data-name="New Gradient Swatch 1" x1="107.26" y1=".88" x2="101.5" y2="47.85" xlink:href="#New_Gradient_Swatch_1"/>
    <linearGradient id="New_Gradient_Swatch_15" data-name="New Gradient Swatch 1" x1="137.28" y1=".24" x2="131.47" y2="47.57" xlink:href="#New_Gradient_Swatch_1"/>
    <linearGradient id="New_Gradient_Swatch_16" data-name="New Gradient Swatch 1" x1="169.39" y1="1" x2="163.56" y2="48.47" xlink:href="#New_Gradient_Swatch_1"/>
    <linearGradient id="New_Gradient_Swatch_17" data-name="New Gradient Swatch 1" x1="192.75" y1="-.37" x2="186.98" y2="46.68" xlink:href="#New_Gradient_Swatch_1"/>
    <linearGradient id="New_Gradient_Swatch_18" data-name="New Gradient Swatch 1" x1="214.22" y1=".54" x2="208.5" y2="47.1" xlink:href="#New_Gradient_Swatch_1"/>
    <linearGradient id="New_Gradient_Swatch_19" data-name="New Gradient Swatch 1" x1="234.27" y1="1.12" x2="228.62" y2="47.15" xlink:href="#New_Gradient_Swatch_1"/>
    <linearGradient id="New_Gradient_Swatch_110" data-name="New Gradient Swatch 1" x1="264.34" y1=".24" x2="258.53" y2="47.57" xlink:href="#New_Gradient_Swatch_1"/>
    <linearGradient id="New_Gradient_Swatch_111" data-name="New Gradient Swatch 1" x1="296.45" y1="1" x2="290.62" y2="48.47" xlink:href="#New_Gradient_Swatch_1"/>
    <linearGradient id="New_Gradient_Swatch_112" data-name="New Gradient Swatch 1" x1="319.33" y1="1.04" x2="313.66" y2="47.27" xlink:href="#New_Gradient_Swatch_1"/>
  </defs>
  <path class="st9" d="M5.63,47.04l-.19-.16H1.38c.21,0,.16-.19-.16-.56l-.47-.56c.21-.54.31-1.17.31-1.88-.71-.67-.96-1.15-.75-1.44l1.03-1.03.47-.47c-.25-.5-.31-.98-.19-1.44s-.06-.69-.56-.69c.12-.71.07-1.42-.16-2.12s-.07-1.33.47-1.88c-.17-.75-.27-1.56-.31-2.44s.21-1.4.75-1.56v-1.19c-.54-.38-.85-.73-.94-1.06s-.12-.69-.12-1.06c.71-.83,1.06-1.33,1.06-1.5.12-.38.17-.72.12-1.03s.02-.57.19-.78l-1.38-1.88c-.25,0-.21-.18.12-.53l.5-.53c-.42-.46-.62-.83-.62-1.12-.25-.67-.29-1.3-.12-1.91s.06-1.18-.31-1.72c.21-.5.64-1.02,1.28-1.56s.97-1,.97-1.38c-.62-.5-.83-.89-.62-1.16s.02-.59-.56-.97v-2.62c0-.38-.2-.72-.59-1.03s-.41-.57-.03-.78c.12-.33.23-.54.31-.62s-.02-.23-.31-.44v-1.88c.29-.5.48-.89.56-1.16s.25-.61.5-1.03c.38,0,.73-.19,1.06-.56s.58-.56.75-.56c.88,0,1.65-.05,2.31-.16s1.38-.16,2.12-.16c.46.21.81.31,1.06.31l1.75,2.62c-.96.96-1.31,1.56-1.06,1.81l1.5,1.81c-.25.54-.3,1.12-.16,1.75s-.05,1.02-.59,1.19c.12.38.11.74-.03,1.09s-.03.61.34.78c-.38.88-.42,1.65-.12,2.31s.33,1.33.12,2c-.46.25-.81.38-1.06.38-.21.17-.38.33-.5.5l-.19.25c.12.54.52.98,1.19,1.31s1,.75,1,1.25v3.69c-.38.54-.59,1.06-.66,1.56s-.09.92-.09,1.25c.12.62.29,1.18.5,1.66s.04.78-.5.91c.12.38.17.74.12,1.09s.02.64.19.84l-.31,3.56c-.38.62-.71.94-1,.94s-.44.19-.44.56c.33.54.66,1.01.97,1.41s.47.78.47,1.16c-.75.75-1,1.23-.75,1.44,0-.12.18-.03.53.28l.53.47c-.75,0-.86.18-.34.53l.78.53c-.58.38-.73.78-.44,1.22s.06.66-.69.66c.17.58.22,1,.16,1.25s.01.56.22.94c-.83.75-1.31,1.12-1.44,1.12h-2.25c-.46.21-.81.31-1.06.31l-.19-.16ZM6.54,11.64l.34-.19c-.38-.38-.7-.48-.97-.31s-.66.12-1.16-.12c.17,0,.35.09.56.28s.5.36.88.53l.34-.19Z"/>
  <path class="st3" d="M29.45,45.58c-.62-.33-.75-.77-.38-1.31,0-.33-.19-.68-.56-1.03s-.56-.61-.56-.78c-.21-.5-.31-.98-.31-1.44v-1.88c-.21-.33-.35-.54-.44-.62s.06-.23.44-.44c-.21-.88-.56-1.51-1.06-1.91s-.65-.84-.44-1.34c.29-.54.44-.92.44-1.12-.42-.38-.77-.71-1.06-1l-.44-.44c.12-.75.14-1.41.03-1.97s.11-1.14.66-1.72c-.54-.71-1.03-1.09-1.47-1.16s-.66-.28-.66-.66c.12-.5,0-.92-.38-1.25s-.75-.5-1.12-.5c-.46.46-.69.81-.69,1.06.25.46.38.81.38,1.06-.21.38-.47.73-.78,1.06s-.53.6-.66.81v1.75c.5.38.77.77.81,1.19s.25.62.62.62v2.62c-.38.71-.77,1.24-1.19,1.59s-.5.78-.25,1.28c.17.46.25.81.25,1.06-.17.46-.25.83-.25,1.12.33,0,.66.2.97.59s.47.68.47.84v1.06c-.21.42-.39.73-.53.94s-.22.4-.22.56c-.25.54-.3,1.06-.16,1.56s-.03.83-.53,1c-.75-.17-1.49-.18-2.22-.03s-1.34.03-1.84-.34c.12,0,.03-.19-.28-.56l-.47-.56c-.5.21-.9.24-1.19.09s-.62-.05-1,.28c-.17-.17-.34-.33-.53-.5s-.36-.38-.53-.62c.17-.5.18-1.01.03-1.53s-.03-.97.34-1.34c0,.75.18.88.53.38l.53-.75c-.42-.75-.9-1.35-1.44-1.81,0-.5.12-.9.38-1.19s.38-.62.38-1c-.5-.5-.75-.85-.75-1.06,0-.5.03-1.04.09-1.62s.28-1.15.66-1.69c-.38-.5-.47-1.03-.28-1.59s.03-1.11-.47-1.66l-.38-5.12c.54-.17.8-.46.78-.88s-.03-.73-.03-.94c-.38-.12-.58-.43-.62-.91s.04-.91.25-1.28c-.21-.5-.23-.89-.06-1.16s.06-.61-.31-1.03c0-.5.17-1.07.5-1.72s.42-1.16.25-1.53c-.38-.54-.59-1.06-.66-1.56s-.09-.96-.09-1.38l1.81-3.62-1.81-2.19c.38-.5.81-.96,1.31-1.38s.67-.81.5-1.19c-.71-.71-1.06-1.19-1.06-1.44.5-.33.9-.71,1.19-1.12s.62-.52,1-.31c.25.5.38.85.38,1.06.46.25.81.38,1.06.38,0-.33.14-.61.41-.84s.49-.43.66-.59c.75.21,1.48.31,2.19.31.38,0,.73-.21,1.06-.62s.6-.46.81-.12c.5.62.9,1.19,1.19,1.69s.62.92,1,1.25c-.38.42-.35.79.06,1.12s.62.58.62.75c.17.38.22.73.16,1.06s.01.58.22.75c-.21.54-.28,1.01-.22,1.41s.01.78-.16,1.16l1.44,1.81c.17.54.19,1.04.06,1.5s.12.69.75.69v2.12c.71.71,1.06,1.21,1.06,1.5,0,.92.23,1.75.69,2.5v1.88c.5.38.91.76,1.22,1.16s.66.49,1.03.28c.12-.17.27-.32.44-.47l.25-.22c-.25-.5-.38-1.12-.38-1.88-.17,0-.08-.18.25-.53l.5-.53c-.5-.5-.75-.88-.75-1.12-.17-.5-.18-1.01-.03-1.53s.05-.99-.28-1.41c.21-.46.31-1.04.31-1.75-.21-.46-.31-1.08-.31-1.88,0-.33.18-.66.53-.97s.53-.59.53-.84v-1.81c-.5-.46-.75-.81-.75-1.06v-2.19c.38-.33.66-.54.84-.62s.41-.25.66-.5c-.38-.33-.57-.67-.59-1s-.2-.6-.53-.81c.17-.12.33-.29.5-.5s.38-.4.62-.56l5.06.31c.54.58,1.01.78,1.41.59s.76-.01,1.09.53l-.31,8.06c.21.71.31,1.42.31,2.12-.42.29-.77.44-1.06.44-.38,0-.67.14-.88.41s-.4.47-.56.59c.54.58.95.89,1.22.91s.59.2.97.53c-.75,0-.89.18-.41.53l.72.53c0,.62-.18,1.26-.53,1.91s-.53,1.11-.53,1.41c.5.75.8,1.43.91,2.03s.16,1.16.16,1.66c-.17.38-.26.73-.28,1.06s-.03.56-.03.69c-.38.42-.61.74-.72.97s-.22.41-.34.53c.71.71,1.06,1.21,1.06,1.5v1.06c-.21.46-.31,1.08-.31,1.88.42.46.62.81.62,1.06v8.75c-.33.38-.5.73-.5,1.06s-.19.56-.56.69l1.06,2.56c-.17.21-.31.38-.44.5l-.19.19h-1.88c-.54.62-.95.94-1.22.94s-.57.08-.91.25c-.25-.17-.45-.33-.59-.5l-.22-.25v-2.56c-.38.21-.78.29-1.22.25s-.66.1-.66.44c.21.38.24.68.09.91s-.03.41.34.53c-.46.54-.83.94-1.12,1.19h-.69c-.58-.75-1.19-1.29-1.81-1.62ZM16.32,14.64c.33.04.69-.02,1.06-.19v-1.44h-1.06c0,.12-.12.35-.38.69s-.38.69-.38,1.06c.17-.12.42-.17.75-.12ZM19.26,4.95c0-.21-.27-.11-.81.28s-.52.66.06.78c0-.21.25-.56.75-1.06ZM19.57,20.26c-.29-.38-.77-.38-1.44,0l.19.16.19.16c.25,0,.6-.1,1.06-.31ZM34.88,12.04c.5-.35.38-.53-.38-.53-.38-.17-.62-.12-.75.12s0,.56.38.94l.75-.53ZM35.48,9.48l.16-.22.53.56c.35.38.53.19.53-.56l-.22-.19c-.15-.12-.3-.29-.47-.5,0,.21-.11.35-.34.44s-.34.31-.34.69l.16-.22Z"/>
  <path class="st1" d="M48.32,45.76c.33-.17.61-.41.84-.72s.45-.2.66.34c.38-.21.71-.24,1-.09s.44-.07.44-.66c-.46-.5-.83-.88-1.12-1.12-.46-.25-.96-.38-1.5-.38-.17-.54-.07-1.05.28-1.53s.16-.8-.59-.97c.12-.58.18-1.07.16-1.47s.16-.78.53-1.16c-.54-.54-.81-1.07-.81-1.59s-.08-.97-.25-1.34v-2.94l1.06-2.62c.54-.33.82-.68.84-1.03s.11-.61.28-.78c-.71-.75-1.21-1.12-1.5-1.12-.38-.54-.5-1.14-.38-1.78s.02-1.16-.31-1.53c.5-.54.73-1.07.69-1.59s.23-.97.81-1.34c-.29-.5-.44-1.12-.44-1.88.54-.5.81-.85.81-1.06-.62-.38-1.05-.79-1.28-1.25s-.43-.79-.59-1c.33-.5.44-1.07.31-1.72s0-1.16.38-1.53c-.21-.29-.54-.67-1-1.12-.62.17-1.14.18-1.53.03s-.76-.05-1.09.28c-.38-.12-.61-.24-.72-.34s-.24.01-.41.34c-.46-.21-.83-.31-1.12-.31.38-.38.32-.73-.16-1.06s-.53-.6-.16-.81c-.58-.38-.82-.72-.72-1.03s-.03-.57-.41-.78c.38-.38.68-.78.91-1.22s.18-.76-.16-.97v-2.56l4.06-1.88c1.46,1,2.19,1.12,2.19.38h1.81c.75.71,1.25.94,1.5.69.5-.46.75-.81.75-1.06.33.21.67.28,1,.22s.62-.01.88.16c.71,0,1.51.03,2.41.09s1.53.26,1.91.59c.54.21,1.08.24,1.62.09s1-.05,1.38.28c1-.92,1.6-1.27,1.81-1.06.38.54.82,1.01,1.34,1.41s.7.78.53,1.16l-1.44,2.19c.5.5.85.75,1.06.75,0,.58-.05,1.12-.16,1.62s-.16.94-.16,1.31c-.62.38-.95.77-.97,1.19s-.22.62-.59.62c-1.08-.33-2.08-.42-3-.25s-1.85.25-2.81.25c.33.42.65.78.94,1.09l.44.47c0,.54-.05,1.12-.16,1.75s-.16,1.12-.16,1.5c.21.5.31,1.1.31,1.81.21,0,.15.2-.19.59l-.5.59c0,.54.11.95.34,1.22s.34.57.34.91v4.06c-.71.79-1.06,1.29-1.06,1.5.5.38.81.73.94,1.06s.31.6.56.81c-.58.54-.85,1.04-.81,1.5s-.19.69-.69.69c.17.38.18.74.03,1.09s-.03.59.34.72c-.25.75-.38,1.48-.38,2.19.17.25.34.46.53.62s.36.35.53.56v3.62c-.46.5-.69.9-.69,1.19,0,.33.19.67.56,1s.56.58.56.75v2.56l-1.81,1.5h-1.88c-.54,0-.96-.25-1.25-.75s-.62-.75-1-.75c-.54.42-.81.79-.81,1.12s-.08.58-.25.75c-.38-.17-.73-.18-1.06-.03s-.6.03-.81-.34l-.34.19-.34.19c-.54-.46-.92-.81-1.12-1.06ZM51.26,25.08c-.21-.12-.41-.33-.59-.62s-.47-.19-.84.31l.03.22c.02.15.11.3.28.47.29,0,.67-.12,1.12-.38ZM52.2,29.36l.19-.16c0-.25-.25-.65-.75-1.19-.38.25-.46.48-.25.69s.42.48.62.81l.19-.16ZM54.6,26.95h.34c0-.25-.12-.62-.38-1.12,0,.21-.16.35-.47.44s-.26.31.16.69h.34Z"/>
  <path class="st2" d="M75.76,47.14l-.12-.12-.09-.09-.03-.03h-4.06c-.21-.21-.4-.41-.56-.59s-.35-.36-.56-.53c-.25-.08-.52-.08-.81,0s-.57.19-.84.31-.54.21-.81.25-.55-.02-.84-.19v-2.25c-.08-.17-.15-.3-.19-.41s-.07-.19-.09-.25-.03-.12-.03-.19v-.22l.41-.41c.1-.1.18-.2.22-.28s.07-.16.09-.22.03-.16.03-.28v-3.62c.25-.29.44-.55.56-.78s.21-.45.25-.66.07-.4.09-.56.07-.33.16-.5c-.29-.21-.49-.43-.59-.66s-.2-.44-.28-.62-.17-.34-.25-.47-.21-.19-.38-.19v-1.81l1.12-2.56c-.17-.21-.3-.36-.41-.47s-.18-.19-.22-.25-.06-.12-.06-.19v-4.97c.08-.29.22-.55.41-.78s.34-.45.47-.66.2-.41.22-.59-.11-.39-.41-.59c-.08-.25-.11-.51-.09-.78s.03-.53.03-.78-.04-.49-.12-.72-.25-.43-.5-.59c.08-.29.1-.58.06-.88s-.07-.56-.09-.81-.02-.48,0-.69.14-.42.34-.62c-.08-.21-.14-.4-.16-.56s-.03-.33-.03-.5v-.44c0-.12-.04-.23-.12-.31v-2.62c.17-.17.31-.35.44-.56s.2-.41.22-.59-.02-.34-.12-.47-.28-.19-.53-.19c.17-.21.3-.36.41-.47s.18-.19.22-.25.06-.12.06-.19v-.22c-.17-.38-.32-.67-.47-.88s-.22-.4-.22-.56v-1.88c-.12-.17-.22-.3-.28-.41s-.1-.19-.12-.25-.03-.12-.03-.19v-.22c.08-.17.24-.39.47-.66s.46-.51.69-.72.44-.36.62-.47.32-.11.41-.03c.21.08.36.16.47.22s.2.1.28.12.15.03.19.03h.19c.38-.38.68-.66.91-.84s.43-.28.59-.28.32.04.47.12.28.18.41.28.24.23.34.38.2.26.28.34c.17-.21.35-.38.56-.5s.42-.24.62-.34.4-.18.56-.22.31-.06.44-.06c.08.17.15.3.19.41s.07.2.09.28.03.16.03.22v.22l.47.19c.1.04.2.07.28.09s.15.03.19.03h.25c.54-.5,1.01-.86,1.41-1.09s.78-.34,1.16-.34c.17.08.35.21.56.38s.4.34.56.53.28.38.34.56.05.32-.03.41c.21.08.39.19.53.31s.27.22.38.28.21.08.31.06.2-.11.28-.28V.83l2.94-.38c.17,0,.32.04.47.12s.27.18.38.28.21.23.31.38.2.26.28.34c.21.17.34.34.41.53s.11.36.16.53.09.31.16.44.18.23.34.31c-.17.21-.3.36-.41.47s-.18.19-.22.25-.06.11-.06.16v.19c.08.21.11.39.09.53s-.04.28-.06.41-.01.24.03.34.15.2.31.28c-.08.42-.12.88-.12,1.38s-.02.97-.06,1.41-.16.82-.34,1.16-.49.6-.91.81c-.29,0-.55.02-.78.06s-.45.09-.66.16-.41.11-.59.16-.36.06-.53.06l-1.5-1.5c-.29.08-.53.19-.72.31s-.33.24-.44.34-.19.2-.25.28l-.09.12c-.17-.08-.34-.14-.53-.16s-.36-.03-.53-.03-.31-.01-.44-.03-.23-.07-.31-.16c-.25.08-.55.12-.91.12s-.69.01-1,.03-.57.09-.78.22-.31.38-.31.75c.21.29.41.46.59.5s.36.06.53.06.31.02.44.06.23.19.31.44l-.69,5.25.47.47.22.22c.21-.17.38-.27.5-.31s.25-.06.38-.06.23-.01.31-.03.17-.11.25-.28c.38.17.74.26,1.09.28s.61.03.78.03c.21-.21.39-.32.53-.34s.27-.03.38-.03.21-.02.31-.06.2-.15.28-.31c0-.21.01-.35.03-.44s.06-.14.12-.16.12,0,.19.06l.19.19c.06.06.12.14.19.22l.19.25c.06.08.11.16.16.22l.06.09c0-.21.01-.35.03-.44s.05-.14.09-.16.1-.01.19.03.16.09.22.16.12.14.19.22.11.17.16.25.08.15.12.19l.06.06c0,.17.01.3.03.41s.06.16.12.16.12-.01.19-.03.14-.07.22-.16.16-.17.22-.25.12-.16.19-.22.1-.11.12-.16l.03-.06c.17.17.32.26.47.28s.27.03.38.03.21.02.31.06.2.15.28.31c.17,0,.3.02.41.06s.17.08.19.12.01.09-.03.16-.09.12-.16.19-.15.12-.25.19-.19.12-.25.19-.12.1-.19.12l-.09.03c-.17,0-.29.02-.38.06s-.14.08-.16.12-.01.1.03.19.09.16.16.22.14.12.22.19.16.12.22.19.12.1.19.12l.09.03c.21.38.32.67.34.88s.03.42.03.62c-.17.29-.3.53-.41.72s-.2.36-.28.53-.16.32-.22.47-.14.3-.22.47c.21.38.39.67.53.88s.22.42.22.62c-.38.25-.68.49-.91.72l-.62.62c-.19.19-.36.35-.53.5s-.33.26-.5.34c-.21-.29-.4-.49-.56-.59s-.33-.18-.5-.22-.31-.07-.44-.09-.23-.07-.31-.16c-.21.17-.35.3-.44.41s-.17.18-.25.22-.15.06-.19.06h-.19c-.29-.08-.54-.11-.75-.09s-.4.04-.56.06-.32.02-.47,0-.3-.11-.47-.28c-.17.08-.39.22-.66.41s-.52.4-.75.62-.43.45-.59.66-.25.35-.25.44v1.5c.21.29.32.53.34.72s-.01.34-.09.47-.18.21-.28.25-.2.06-.28.06v2.56c.71.54,1.35.93,1.94,1.16s1.15.34,1.69.34c.17.17.34.38.53.62s.38.48.56.69.38.36.56.47.39.09.59-.03c.17-.33.33-.6.5-.81s.25-.42.25-.62c.5,0,1.02-.07,1.56-.22s.98-.3,1.31-.47c.21,0,.4.05.56.16s.31.24.44.41.23.33.31.5.12.29.12.38c-.08.29-.07.59.03.91s.2.6.28.88.09.51.03.72-.28.35-.66.44c0,.54.07,1.02.22,1.44s.32.79.53,1.12c-.17.29-.27.57-.31.84s-.06.53-.06.78-.01.5-.03.75-.14.46-.34.62c-.54,0-1.01.07-1.41.22s-.76.32-1.09.53l-6,.31c-.25-.08-.47-.15-.66-.19s-.36-.07-.53-.09-.32-.03-.47-.03h-.47l-.47.19c-.1.04-.19.07-.25.09s-.12.03-.19.03h-.28l-.06-.06ZM71.1,44.17c.02-.06.06-.12.12-.19s.12-.14.19-.22.14-.17.22-.25.16-.14.22-.16.11-.02.16,0,.08.07.12.16.06.21.06.38c.08-.08.18-.15.28-.19s.21-.1.31-.19.24-.18.41-.28.33-.24.5-.41c-.08-.17-.18-.27-.28-.31s-.22-.05-.34-.03-.26.04-.41.06-.3-.01-.47-.09c-.08-.08-.2-.06-.34.06s-.3.26-.47.41-.33.24-.5.28-.35-.08-.56-.38c.21.08.32.18.34.28s.03.21.03.31.02.22.06.34.15.29.31.5l.03-.09ZM71.07,40.39c.12-.04.26-.12.41-.25s.31-.26.5-.41.36-.22.53-.22c-.08-.29-.19-.46-.31-.5s-.27-.03-.44.03-.33.11-.5.16-.33.02-.5-.06v1.06c.08.17.19.23.31.19ZM71.88,36.42l1-.06c.33-.02.65-.07.94-.16s.48-.21.56-.38c-.08.08-.28.14-.59.16s-.66.05-1.03.09-.72.09-1.03.16-.51.2-.59.41c.17-.12.42-.2.75-.22ZM76.48,21.14h.84c.12-.33.1-.55-.06-.66s-.38-.18-.62-.22-.52-.08-.81-.12-.52-.1-.69-.19c.17.21.34.41.53.59l.59.59h.22ZM76.48,39.29c.06-.06.12-.14.19-.22s.15-.18.25-.28.24-.26.41-.47c-.08-.17-.17-.26-.25-.28s-.19-.02-.31,0-.26.04-.41.06-.32-.01-.53-.09c-.17.08-.28.19-.34.31s-.06.26,0,.41.16.29.28.44.29.26.5.34l.22-.22ZM84.82,44.61c.08-.06.17-.11.25-.16l.25-.12.12-.06c0-.21-.04-.38-.12-.5s-.17-.27-.25-.44-.17-.34-.25-.53-.12-.43-.12-.72c-.08,0-.16.01-.22.03l-.19.06c-.06.02-.15.05-.25.09s-.24.1-.41.19c-.12.08-.17.2-.12.34s.11.29.22.44.24.3.41.47l.56.56v.44l.12-.09Z"/>
  <path class="st0" d="M111.51,46.89c-.5-.04-.92-.06-1.25-.06h-1.81c0-.38-.22-.73-.66-1.06s-.47-.6-.09-.81c-.54-.33-.83-.71-.88-1.12s-.23-.62-.56-.62v-2.62c-.71-.71-1.21-1.06-1.5-1.06-.54-.5-.68-1.05-.41-1.66s.05-1.03-.66-1.28c-.21-.5-.26-.98-.16-1.44s-.09-.69-.59-.69v-1.19l-2.5-3.25c-.38,0-.77.09-1.19.28s-.52.47-.31.84c.5.38.81.73.94,1.06s.31.58.56.75c-.38.75-.88,1.18-1.5,1.28s-1.1.53-1.44,1.28c.5.54,1.05.73,1.66.56s1.03,0,1.28.5c-.25.75-.23,1.42.06,2s.27,1.15-.06,1.69c.12.75.11,1.41-.03,1.97s-.03,1.11.34,1.66c-.21.46-.31.81-.31,1.06l-2.56,1.88c-.62-.54-1.16-.77-1.59-.69s-.66.31-.66.69h-2.5c-.5-.54-.88-.81-1.12-.81-.38-.12-.72-.17-1.03-.12s-.57-.02-.78-.19v-2.19c.38-.38.5-.72.38-1.03s0-.57.38-.78c-.67-.96-.77-1.81-.31-2.56-.25-.33-.33-.67-.25-1s.02-.62-.19-.88c-.21-.33-.28-.67-.22-1s.01-.58-.16-.75c0,.17.19.08.56-.25l.56-.5.47-.47.28-.28c.46-.5.79-.85,1-1.06-.46-.54-.69-.92-.69-1.12-.38.38-.72.74-1.03,1.09s-.57.24-.78-.34c0-.5-.11-.96-.34-1.38s-.24-.81-.03-1.19c.25-.71.38-1.44.38-2.19-.21-.71-.34-1.45-.41-2.22s.22-1.24.84-1.41h1.06l1.44-1.44c.71,0,.81-.19.31-.56l-.75-.56c-.5-.17-1.04.02-1.62.56s-.88.35-.88-.56c.5-.38.76-.72.78-1.03s.11-.57.28-.78l-.31-2.94c-.5-.46-.75-.83-.75-1.12-.21-.33-.28-.66-.22-.97s.01-.57-.16-.78c.17-.75.24-1.53.22-2.34s.18-1.49.59-2.03v-2.19c.21-.5.31-.88.31-1.12-.17-.17-.35-.33-.56-.5s-.4-.38-.56-.62c0-.5.11-.95.34-1.34s.24-.78.03-1.16c0-.38.25-.78.75-1.22l.75-.66c.33-.17.59-.18.78-.03s.41.03.66-.34c.38.38.66.5.84.38s.39,0,.59.38c0,.75.18.88.53.38l.53-.75c.5.21,1.05.41,1.66.59s.91-.01.91-.59c.38-.17.73-.22,1.06-.16s.58-.01.75-.22h1.88c.5.38.83.78,1,1.22s.44.66.81.66c0-.33.14-.61.41-.84s.49-.45.66-.66l5.12.38c.5.38.96.82,1.38,1.34s.81.7,1.19.53c.75.67,1.23.88,1.44.62l1.44,1.5c-.75,0-.86.19-.34.56l.78.56c-.62.96-.77,1.81-.44,2.56h1.12c0,.54-.1,1.01-.31,1.41s-.23.78-.06,1.16c.75.71,1.12,1.21,1.12,1.5v2.5c.21.5.31.83.31,1,0,.62-.23,1.06-.69,1.31s-.58.56-.38.94c.5.5.75.88.75,1.12-.21.38-.24.73-.09,1.06s.05.58-.28.75l-.75,5.5c-.83,1.42-2.04,2.75-3.62,4,.12,1.25.56,2.23,1.31,2.94s1.27,2.04,1.56,4v1.44c.38.54.78.89,1.22,1.03s.66.41.66.78c.38.96.56,1.75.56,2.38s.31,1.29.94,2c-.5.5-.9.75-1.19.75-.79-.5-1.27-.75-1.44-.75-.38.38-.7.72-.97,1.03l-.41.47h-1.5c-.62-.17-1.19-.27-1.69-.31ZM93.88,43.89v.38l.03.22c.02.15.11.3.28.47,0-.25-.1-.6-.31-1.06ZM94.95,9.2h.69c.21-.17-.02-.65-.69-1.44-.21.21-.47.42-.78.62s-.18.48.41.81h.38ZM103.16,23.83c.27-.08.7-.31,1.28-.69.12.71.36.79.72.25s.72-.62,1.09-.25l.22-.22c.15-.15.3-.32.47-.53,0-.29-.1-.67-.31-1.12v-4c.12-.17.17-.42.12-.75s.02-.69.19-1.06c-.38-.38-.55-.75-.53-1.12s-.16-.83-.53-1.38c.38-.21.48-.48.31-.81s-.15-.69.06-1.06c-.38-.33-.82-.43-1.34-.28s-1.05.11-1.59-.09c0-.75-.22-.98-.66-.69s-.82.17-1.16-.38l-.53.5c-.35.33-.53.42-.53.25-.5,2.08-.62,4.01-.38,5.78s.38,3.59.38,5.47c0,.21.23.58.69,1.12-.58.21-.55.46.09.75s.97.52.97.69c.38-.17.7-.29.97-.38ZM101.85,7.45h.34c0-.54-.15-.75-.44-.62s-.62.08-1-.12l.22.25c.15.17.32.33.53.5h.34ZM102.57,29.26h.38v-1.06c-.54-.17-.75-.12-.62.12s.08.56-.12.94h.38ZM108.23,10.54l.22-.16c.12,0,.01-.26-.34-.78s-.61-.51-.78.03c0,.17.11.29.34.38s.34.31.34.69l.22-.16ZM109.88,42.98l.38-.22c0-.21-.12-.56-.38-1.06-.21.21-.46.42-.75.62s-.17.5.38.88l.38-.22ZM110.82,17.83c.38-.38.19-.56-.56-.56l-.56.56c-.38.38-.19.56.56.56l.56-.56ZM110.6,8.67c.15-.23.16-.53.03-.91-.38.21-.51.47-.41.78s.34.53.72.66c-.38-.12-.49-.3-.34-.53Z"/>
  <path class="st4" d="M137.63,45.58c-.62-.33-.75-.77-.38-1.31,0-.33-.19-.68-.56-1.03s-.56-.61-.56-.78c-.21-.5-.31-.98-.31-1.44v-1.88c-.21-.33-.35-.54-.44-.62s.06-.23.44-.44c-.21-.88-.56-1.51-1.06-1.91s-.65-.84-.44-1.34c.29-.54.44-.92.44-1.12-.42-.38-.77-.71-1.06-1l-.44-.44c.12-.75.14-1.41.03-1.97s.11-1.14.66-1.72c-.54-.71-1.03-1.09-1.47-1.16s-.66-.28-.66-.66c.12-.5,0-.92-.38-1.25s-.75-.5-1.12-.5c-.46.46-.69.81-.69,1.06.25.46.38.81.38,1.06-.21.38-.47.73-.78,1.06s-.53.6-.66.81v1.75c.5.38.77.77.81,1.19s.25.62.62.62v2.62c-.38.71-.77,1.24-1.19,1.59s-.5.78-.25,1.28c.17.46.25.81.25,1.06-.17.46-.25.83-.25,1.12.33,0,.66.2.97.59s.47.68.47.84v1.06c-.21.42-.39.73-.53.94s-.22.4-.22.56c-.25.54-.3,1.06-.16,1.56s-.03.83-.53,1c-.75-.17-1.49-.18-2.22-.03s-1.34.03-1.84-.34c.12,0,.03-.19-.28-.56l-.47-.56c-.5.21-.9.24-1.19.09s-.62-.05-1,.28c-.17-.17-.34-.33-.53-.5s-.36-.38-.53-.62c.17-.5.18-1.01.03-1.53s-.03-.97.34-1.34c0,.75.18.88.53.38l.53-.75c-.42-.75-.9-1.35-1.44-1.81,0-.5.12-.9.38-1.19s.38-.62.38-1c-.5-.5-.75-.85-.75-1.06,0-.5.03-1.04.09-1.62s.28-1.15.66-1.69c-.38-.5-.47-1.03-.28-1.59s.03-1.11-.47-1.66l-.38-5.12c.54-.17.8-.46.78-.88s-.03-.73-.03-.94c-.38-.12-.58-.43-.62-.91s.04-.91.25-1.28c-.21-.5-.23-.89-.06-1.16s.06-.61-.31-1.03c0-.5.17-1.07.5-1.72s.42-1.16.25-1.53c-.38-.54-.59-1.06-.66-1.56s-.09-.96-.09-1.38l1.81-3.62-1.81-2.19c.38-.5.81-.96,1.31-1.38s.67-.81.5-1.19c-.71-.71-1.06-1.19-1.06-1.44.5-.33.9-.71,1.19-1.12s.62-.52,1-.31c.25.5.38.85.38,1.06.46.25.81.38,1.06.38,0-.33.14-.61.41-.84s.49-.43.66-.59c.75.21,1.48.31,2.19.31.38,0,.73-.21,1.06-.62s.6-.46.81-.12c.5.62.9,1.19,1.19,1.69s.62.92,1,1.25c-.38.42-.35.79.06,1.12s.62.58.62.75c.17.38.22.73.16,1.06s.01.58.22.75c-.21.54-.28,1.01-.22,1.41s.01.78-.16,1.16l1.44,1.81c.17.54.19,1.04.06,1.5s.12.69.75.69v2.12c.71.71,1.06,1.21,1.06,1.5,0,.92.23,1.75.69,2.5v1.88c.5.38.91.76,1.22,1.16s.66.49,1.03.28c.12-.17.27-.32.44-.47l.25-.22c-.25-.5-.38-1.12-.38-1.88-.17,0-.08-.18.25-.53l.5-.53c-.5-.5-.75-.88-.75-1.12-.17-.5-.18-1.01-.03-1.53s.05-.99-.28-1.41c.21-.46.31-1.04.31-1.75-.21-.46-.31-1.08-.31-1.88,0-.33.18-.66.53-.97s.53-.59.53-.84v-1.81c-.5-.46-.75-.81-.75-1.06v-2.19c.38-.33.66-.54.84-.62s.41-.25.66-.5c-.38-.33-.57-.67-.59-1s-.2-.6-.53-.81c.17-.12.33-.29.5-.5s.38-.4.62-.56l5.06.31c.54.58,1.01.78,1.41.59s.76-.01,1.09.53l-.31,8.06c.21.71.31,1.42.31,2.12-.42.29-.77.44-1.06.44-.38,0-.67.14-.88.41s-.4.47-.56.59c.54.58.95.89,1.22.91s.59.2.97.53c-.75,0-.89.18-.41.53l.72.53c0,.62-.18,1.26-.53,1.91s-.53,1.11-.53,1.41c.5.75.8,1.43.91,2.03s.16,1.16.16,1.66c-.17.38-.26.73-.28,1.06s-.03.56-.03.69c-.38.42-.61.74-.72.97s-.22.41-.34.53c.71.71,1.06,1.21,1.06,1.5v1.06c-.21.46-.31,1.08-.31,1.88.42.46.62.81.62,1.06v8.75c-.33.38-.5.73-.5,1.06s-.19.56-.56.69l1.06,2.56c-.17.21-.31.38-.44.5l-.19.19h-1.88c-.54.62-.95.94-1.22.94s-.57.08-.91.25c-.25-.17-.45-.33-.59-.5l-.22-.25v-2.56c-.38.21-.78.29-1.22.25s-.66.1-.66.44c.21.38.24.68.09.91s-.03.41.34.53c-.46.54-.83.94-1.12,1.19h-.69c-.58-.75-1.19-1.29-1.81-1.62ZM124.51,14.64c.33.04.69-.02,1.06-.19v-1.44h-1.06c0,.12-.12.35-.38.69s-.38.69-.38,1.06c.17-.12.42-.17.75-.12ZM127.45,4.95c0-.21-.27-.11-.81.28s-.52.66.06.78c0-.21.25-.56.75-1.06ZM127.76,20.26c-.29-.38-.77-.38-1.44,0l.19.16.19.16c.25,0,.6-.1,1.06-.31ZM143.07,12.04c.5-.35.38-.53-.38-.53-.38-.17-.62-.12-.75.12s0,.56.38.94l.75-.53ZM143.66,9.48l.16-.22.53.56c.35.38.53.19.53-.56l-.22-.19c-.15-.12-.3-.29-.47-.5,0,.21-.11.35-.34.44s-.34.31-.34.69l.16-.22Z"/>
  <path class="st8" d="M152.51,45.76c0,.08-.06.21-.19.38s-.27.31-.44.44-.33.23-.5.31-.29.08-.38,0c-.21,0-.4-.06-.56-.19s-.32-.27-.47-.44-.26-.33-.34-.5-.12-.29-.12-.38v-1.5c.21-.17.36-.3.47-.41l.25-.25c.06-.06.11-.12.16-.19s.12-.14.25-.22c0-.29-.04-.54-.12-.75s-.17-.39-.25-.53l-.25-.44c-.08-.15-.12-.32-.12-.53.21-.33.32-.67.34-1s.03-.58.03-.75c0-.21.08-.43.25-.66s.34-.44.53-.62.35-.34.5-.47l.22-.19.38-8.12c.08-.25.19-.47.31-.66s.25-.33.38-.44.22-.18.28-.22l.09-.06c-.08-.29-.11-.54-.09-.75s.04-.4.06-.56.02-.32,0-.47-.14-.3-.34-.47c.21-.29.35-.55.44-.78s.16-.45.22-.66.09-.41.09-.59v-.53c.21-.21.42-.36.62-.47s.41-.2.59-.28.33-.18.44-.28.16-.24.16-.41c-.38-.38-.65-.69-.81-.94s-.25-.46-.25-.62v-2.19c.21-.21.35-.36.44-.47s.15-.19.19-.25.07-.11.09-.16.03-.1.03-.19c-.12-.29-.2-.55-.22-.78s-.03-.45-.03-.66v-.59c0-.19-.06-.39-.19-.59l1.88-1.81c.12-.17.2-.33.22-.5s.02-.33,0-.5-.05-.34-.09-.53l-.12-.56c-.04-.19-.07-.35-.09-.5s0-.27.06-.38.16-.19.28-.25.31-.09.56-.09l.38-.47c.08-.1.17-.19.25-.25s.15-.12.19-.19.12-.14.25-.22c-.21-.17-.35-.3-.44-.41s-.17-.18-.25-.22l-.19-.09s-.1-.03-.19-.03c0-.17.02-.36.06-.59s.09-.45.16-.66.14-.4.22-.56.17-.31.25-.44v-1.38h1.06c.21-.17.34-.34.41-.53s.11-.36.16-.53.09-.32.16-.47.2-.26.41-.34c.38-.17.68-.33.91-.5s.43-.25.59-.25h1.44c.29.17.55.3.78.41s.45.18.66.22.41.07.59.09.36.03.53.03c.29-.08.53-.16.72-.22s.36-.1.53-.12.33-.03.5-.03h.5l2.56,2.56c0,.21-.07.4-.22.56l-.44.5c-.15.17-.24.31-.28.44s.04.23.25.31c0,.29.07.54.22.75s.31.4.5.56.35.32.5.47.22.3.22.47c-.12.29-.19.53-.19.72v.53c0,.17-.01.32-.03.47s-.07.32-.16.53c.33.33.6.61.81.84s.31.45.31.66c-.12.17-.18.31-.16.44l.06.38c.02.12.02.23,0,.31s-.14.17-.34.25c0,.21.07.4.22.56l.44.5c.15.17.25.32.31.47s-.01.28-.22.41c0,.17-.04.32-.12.47s-.18.27-.28.38-.22.2-.34.28-.23.17-.31.25c.17.12.3.21.41.25s.19.07.25.09l.19.06c.06.02.14.03.22.03.21.17.36.32.47.47s.19.27.25.38l.19.31c.06.1.16.22.28.34-.21.17-.35.35-.44.56s-.16.42-.22.62-.09.4-.09.56v.38c.17.17.3.31.41.44s.19.21.25.25.12.06.19.06h.22c.29.54.47,1.09.53,1.66s.12,1.1.19,1.62.14,1.03.22,1.53.25,1,.5,1.5c-.17.33-.27.67-.31,1s-.06.58-.06.75c.21.38.39.68.53.91s.22.43.22.59v1.81c-.21.21-.38.36-.5.47s-.24.19-.34.25l-.31.19c-.1.06-.2.16-.28.28.25.25.51.46.78.62s.51.32.72.47.38.3.5.47.19.4.19.69c-.08.33-.11.66-.09.97l.06.94c.02.31.02.6,0,.88s-.11.55-.28.84c.17.25.32.53.47.84s.26.61.34.91.15.57.19.84.06.51.06.72l.41.41c.1.1.19.2.25.28s.12.15.19.19.14.12.22.25c.21.33.33.61.38.84s.06.41.06.53c-.21.42-.46.79-.75,1.12s-.54.6-.75.81c0-.38-.05-.57-.16-.59s-.23.04-.38.19-.27.3-.38.47l-.16.25-4.5-.31c-.17-.21-.32-.32-.47-.34s-.27-.03-.38-.03-.21-.02-.31-.06-.2-.15-.28-.31c-.33.17-.68.26-1.03.28s-.64.03-.84.03c.12,0,.16-.05.09-.16s-.16-.22-.28-.34-.24-.25-.34-.38l-.16-.19c.17-.17.3-.36.41-.59s.18-.45.22-.66.06-.4.06-.56v-.44l-.53-.53-.53-.53c0-.17-.02-.36-.06-.59s-.08-.45-.12-.66-.09-.4-.16-.56-.09-.29-.09-.38c-.17-.29-.33-.49-.5-.59s-.33-.18-.5-.22-.31-.07-.44-.09-.23-.07-.31-.16c-.21.08-.42.12-.62.12s-.41.02-.59.06-.34.09-.47.16-.19.18-.19.34h-1.12c-.17,0-.33.06-.5.19l-.5.38c-.17.12-.32.24-.47.34s-.26.16-.34.16c-.38-.17-.67-.32-.88-.47s-.42-.22-.62-.22c-.25.08-.43.21-.53.38s-.18.33-.22.5-.04.33,0,.5.06.29.06.38c.17.25.32.45.47.59l.22.22c.21-.08.4-.07.56.03s.32.24.47.41.26.32.34.47l.12.22v.69c-.21.17-.36.3-.47.41s-.18.19-.22.25-.06.14-.06.22v.25c-.08.21-.14.42-.16.62s-.04.4-.06.56-.06.31-.12.44-.2.19-.41.19c-.33,0-.68-.02-1.03-.06l-1.06-.12c-.35-.04-.7-.07-1.03-.09s-.65-.03-.94-.03l-.06.03s-.07.05-.09.09-.05.08-.09.12l-.06.06-1.81-1.44ZM156.29,31.26c.06-.08.09-.19.09-.31v-.47c0-.19.04-.36.12-.53-.17,0-.35.08-.56.25s-.5.44-.88.81l.22.06c.15.04.32.15.53.31.25,0,.41-.04.47-.12ZM165.91,30.26h.84v-.19s-.02-.1-.06-.19-.11-.18-.22-.28l-.41-.41v-3c-.17-.08-.28-.15-.34-.19s-.08-.1-.06-.19.07-.18.16-.28.17-.24.25-.41c0-.17-.01-.34-.03-.53s-.05-.39-.09-.59-.1-.43-.19-.66-.21-.49-.38-.78v-1.88c0-.17.01-.36.03-.59s.11-.51.28-.84c0-.21-.08-.42-.25-.62s-.44-.48-.81-.81c-.17-.12-.23-.26-.19-.41s.14-.3.28-.47l.44-.5c.15-.17.22-.35.22-.56l-1.5-1.38c-.29.08-.46.19-.5.31s-.06.27-.06.44-.02.33-.06.5-.21.35-.5.56c.17.17.22.36.16.59s-.17.47-.31.72-.31.51-.5.78-.32.55-.41.84c-.21.08-.28.19-.22.31s.16.27.28.44.26.34.41.53.22.39.22.59c0,.25-.02.46-.06.62s-.12.32-.25.47-.28.33-.47.56-.41.53-.66.91c.17.08.27.17.31.25s.05.19.03.31-.04.26-.06.41.01.3.09.47c-.08.17-.14.35-.16.56s-.03.42-.03.62-.01.43-.03.66-.07.47-.16.72c.08.29.22.47.41.53s.39.09.59.09h.72c.27,0,.53.04.78.12l.22.25c.15.17.32.35.53.56s.45.41.72.59.53.32.78.41h.22ZM161.73,37.2s.05-.08.09-.12l.12-.12.06-.06c-.08-.08-.14-.19-.16-.31s-.03-.27-.03-.44v-.53c0-.19-.04-.36-.12-.53-.29-.08-.47-.07-.53.03s-.09.26-.09.47v.69c0,.25-.04.46-.12.62l.12.06.25.12.25.12.12.06.03-.06ZM163.32,33.83l.38-.38c.12-.12.25-.22.38-.28s.19-.03.19.09h.72s0-.01-.06-.03-.14-.03-.22-.03-.19-.01-.31-.03-.24-.05-.34-.09l-.31-.12c-.1-.04-.2-.08-.28-.12l-.06.06s-.09.08-.16.12-.14.09-.22.16-.17.14-.25.22-.14.16-.16.22-.03.12-.03.19.05.11.16.16.24.06.41.06l.19-.19ZM163.48,13.48l.06-.19c.02-.06.06-.15.12-.25s.14-.26.22-.47l-.25-.22c-.17-.15-.33-.3-.5-.47-.29.08-.44.2-.44.34s.06.29.19.44.25.31.38.5.19.36.19.53c0-.08.01-.16.03-.22ZM168.82,26.64h.62c.08-.12.12-.24.12-.34s-.02-.19-.06-.25-.1-.1-.19-.12-.18-.02-.28,0-.2.05-.28.09-.15.09-.19.16-.05.14-.03.22.07.17.16.25h.12ZM169.98,38.64c.1-.12.21-.26.31-.41s.19-.28.25-.41.05-.19-.03-.19c-.25-.08-.42-.1-.5-.06s-.12.11-.12.22.01.25.03.44-.01.39-.09.59l.16-.19ZM172.91,34.54c.19-.19.39-.36.59-.53h-.53c-.15,0-.26.03-.34.09s-.16.17-.22.31-.09.36-.09.66c.21-.17.41-.34.59-.53ZM172.98,43.89h.84l-.12-.25c-.08-.17-.2-.33-.34-.5s-.3-.27-.47-.31-.35.06-.56.31l.06.12c.04.08.09.17.16.25s.11.17.16.25l.06.12h.22Z"/>
  <path class="st5" d="M187.07,45.76c.33-.17.61-.41.84-.72s.45-.2.66.34c.38-.21.71-.24,1-.09s.44-.07.44-.66c-.46-.5-.83-.88-1.12-1.12-.46-.25-.96-.38-1.5-.38-.17-.54-.07-1.05.28-1.53s.16-.8-.59-.97c.12-.58.18-1.07.16-1.47s.16-.78.53-1.16c-.54-.54-.81-1.07-.81-1.59s-.08-.97-.25-1.34v-2.94l1.06-2.62c.54-.33.82-.68.84-1.03s.11-.61.28-.78c-.71-.75-1.21-1.12-1.5-1.12-.38-.54-.5-1.14-.38-1.78s.02-1.16-.31-1.53c.5-.54.73-1.07.69-1.59s.23-.97.81-1.34c-.29-.5-.44-1.12-.44-1.88.54-.5.81-.85.81-1.06-.62-.38-1.05-.79-1.28-1.25s-.43-.79-.59-1c.33-.5.44-1.07.31-1.72s0-1.16.38-1.53c-.21-.29-.54-.67-1-1.12-.62.17-1.14.18-1.53.03s-.76-.05-1.09.28c-.38-.12-.61-.24-.72-.34s-.24.01-.41.34c-.46-.21-.83-.31-1.12-.31.38-.38.32-.73-.16-1.06s-.53-.6-.16-.81c-.58-.38-.82-.72-.72-1.03s-.03-.57-.41-.78c.38-.38.68-.78.91-1.22s.18-.76-.16-.97v-2.56l4.06-1.88c1.46,1,2.19,1.12,2.19.38h1.81c.75.71,1.25.94,1.5.69.5-.46.75-.81.75-1.06.33.21.67.28,1,.22s.62-.01.88.16c.71,0,1.51.03,2.41.09s1.53.26,1.91.59c.54.21,1.08.24,1.62.09s1-.05,1.38.28c1-.92,1.6-1.27,1.81-1.06.38.54.82,1.01,1.34,1.41s.7.78.53,1.16l-1.44,2.19c.5.5.85.75,1.06.75,0,.58-.05,1.12-.16,1.62s-.16.94-.16,1.31c-.62.38-.95.77-.97,1.19s-.22.62-.59.62c-1.08-.33-2.08-.42-3-.25s-1.85.25-2.81.25c.33.42.65.78.94,1.09l.44.47c0,.54-.05,1.12-.16,1.75s-.16,1.12-.16,1.5c.21.5.31,1.1.31,1.81.21,0,.15.2-.19.59l-.5.59c0,.54.11.95.34,1.22s.34.57.34.91v4.06c-.71.79-1.06,1.29-1.06,1.5.5.38.81.73.94,1.06s.31.6.56.81c-.58.54-.85,1.04-.81,1.5s-.19.69-.69.69c.17.38.18.74.03,1.09s-.03.59.34.72c-.25.75-.38,1.48-.38,2.19.17.25.34.46.53.62s.36.35.53.56v3.62c-.46.5-.69.9-.69,1.19,0,.33.19.67.56,1s.56.58.56.75v2.56l-1.81,1.5h-1.88c-.54,0-.96-.25-1.25-.75s-.62-.75-1-.75c-.54.42-.81.79-.81,1.12s-.08.58-.25.75c-.38-.17-.73-.18-1.06-.03s-.6.03-.81-.34l-.34.19-.34.19c-.54-.46-.92-.81-1.12-1.06ZM190.01,25.08c-.21-.12-.41-.33-.59-.62s-.47-.19-.84.31l.03.22c.02.15.11.3.28.47.29,0,.67-.12,1.12-.38ZM190.95,29.36l.19-.16c0-.25-.25-.65-.75-1.19-.38.25-.46.48-.25.69s.42.48.62.81l.19-.16ZM193.35,26.95h.34c0-.25-.12-.62-.38-1.12,0,.21-.16.35-.47.44s-.26.31.16.69h.34Z"/>
  <path class="st7" d="M211.07,47.04l-.19-.16h-4.06c.21,0,.16-.19-.16-.56l-.47-.56c.21-.54.31-1.17.31-1.88-.71-.67-.96-1.15-.75-1.44l1.03-1.03.47-.47c-.25-.5-.31-.98-.19-1.44s-.06-.69-.56-.69c.12-.71.07-1.42-.16-2.12s-.07-1.33.47-1.88c-.17-.75-.27-1.56-.31-2.44s.21-1.4.75-1.56v-1.19c-.54-.38-.85-.73-.94-1.06s-.12-.69-.12-1.06c.71-.83,1.06-1.33,1.06-1.5.12-.38.17-.72.12-1.03s.02-.57.19-.78l-1.38-1.88c-.25,0-.21-.18.12-.53l.5-.53c-.42-.46-.62-.83-.62-1.12-.25-.67-.29-1.3-.12-1.91s.06-1.18-.31-1.72c.21-.5.64-1.02,1.28-1.56s.97-1,.97-1.38c-.62-.5-.83-.89-.62-1.16s.02-.59-.56-.97v-2.62c0-.38-.2-.72-.59-1.03s-.41-.57-.03-.78c.12-.33.23-.54.31-.62s-.02-.23-.31-.44v-1.88c.29-.5.48-.89.56-1.16s.25-.61.5-1.03c.38,0,.73-.19,1.06-.56s.58-.56.75-.56c.88,0,1.65-.05,2.31-.16s1.38-.16,2.12-.16c.46.21.81.31,1.06.31l1.75,2.62c-.96.96-1.31,1.56-1.06,1.81l1.5,1.81c-.25.54-.3,1.12-.16,1.75s-.05,1.02-.59,1.19c.12.38.11.74-.03,1.09s-.03.61.34.78c-.38.88-.42,1.65-.12,2.31s.33,1.33.12,2c-.46.25-.81.38-1.06.38-.21.17-.38.33-.5.5l-.19.25c.12.54.52.98,1.19,1.31s1,.75,1,1.25v3.69c-.38.54-.59,1.06-.66,1.56s-.09.92-.09,1.25c.12.62.29,1.18.5,1.66s.04.78-.5.91c.12.38.17.74.12,1.09s.02.64.19.84l-.31,3.56c-.38.62-.71.94-1,.94s-.44.19-.44.56c.33.54.66,1.01.97,1.41s.47.78.47,1.16c-.75.75-1,1.23-.75,1.44,0-.12.18-.03.53.28l.53.47c-.75,0-.86.18-.34.53l.78.53c-.58.38-.73.78-.44,1.22s.06.66-.69.66c.17.58.22,1,.16,1.25s.01.56.22.94c-.83.75-1.31,1.12-1.44,1.12h-2.25c-.46.21-.81.31-1.06.31l-.19-.16ZM211.98,11.64l.34-.19c-.38-.38-.7-.48-.97-.31s-.66.12-1.16-.12c.17,0,.35.09.56.28s.5.36.88.53l.34-.19Z"/>
  <path class="st6" d="M228.82,47.04l-.19-.16h-2.06c-.17-.08-.54-.44-1.12-1.06.17-.33.11-.73-.16-1.19s-.22-.77.16-.94c0,.17-.17.09-.5-.22l-.5-.47c-.5.17-.95.47-1.34.91s-.76.47-1.09.09c-.38-.62-.8-1.31-1.28-2.06s-.89-1.21-1.22-1.38c.12-.54.11-.94-.03-1.19s-.03-.56.34-.94c-.17-.5-.4-.95-.69-1.34s-.52-.78-.69-1.16l-.31-6c.21-.46.31-.79.31-1-.38-.54-.59-.99-.66-1.34s-.09-.72-.09-1.09c.38-1.33.38-2.52,0-3.56.21-.38.24-.66.09-.84s-.03-.39.34-.59c.5.21.76.14.78-.22s.22-.61.59-.78c-.71,0-.89-.17-.53-.5l.53-.5c-.38-.21-.79-.52-1.25-.94s-.75-.71-.88-.88c.12-.5.25-.95.38-1.34s0-.78-.38-1.16c.5-.5.72-.98.66-1.44s.2-.69.78-.69c0-1.38.33-2.06,1-2.06v-2.5c.38-.29.72-.6,1.03-.94s.22-.6-.28-.81c.12-.33.3-.54.53-.62s.16-.21-.22-.38l4.25-3.19c.46.21,1.04.31,1.75.31-.75,0-.88.19-.38.56l.75.56c.42-.5.77-.75,1.06-.75-.54,0-.8-.19-.78-.56s.03-.67.03-.88c0-.67.18-.83.53-.5l.53.5c.33-.33.61-.44.84-.31s.43,0,.59-.38c.67,0,1.34-.04,2.03-.12s1.28-.04,1.78.12c.5.38.94.68,1.31.91s.75.16,1.12-.22h1.81c.5.54.99.89,1.47,1.03s.91.41,1.28.78c-.38.38-.27.66.31.84s.62.39.12.59c.12.12.28.29.47.5s.36.38.53.5c-.38.21-.7.25-.97.12s-.28.06-.03.56h1.38v1.12c.29.33.58.64.88.91l.44.41c-.12.38-.11.68.03.91s.05.41-.28.53c.5.38.8.73.91,1.06s.26.56.47.69c-.38.58-.42.99-.12,1.22s.44.53.44.91v2.44c-.5.38-.81.73-.94,1.06s-.29.58-.5.75c.38.54.77.68,1.19.41s.62-.05.62.66c-.21.5-.28.89-.22,1.16s.01.57-.16.91c.17.54.22,1,.16,1.38s.01.75.22,1.12v1.75c-.38.38-.5.72-.38,1.03s.02.53-.31.66c.12.58.17,1.06.12,1.44s.02.73.19,1.06v3.19l-.84,1.22c-.19.27-.39.55-.59.84.21.58.15,1.18-.19,1.78s-.5,1.09-.5,1.47c.21.33.24.61.09.84s-.03.41.34.53l-2.88,3.81c-.38,0-.72.2-1.03.59s-.55.32-.72-.22l-4.19,1.81c-.71-.25-1.4-.38-2.06-.38-.25.21-.45.41-.59.59s-.32.34-.53.47h-1.69c-.5.21-.85.31-1.06.31l-.19-.16ZM225.45,32.48v-.34c-.38-.17-.51-.42-.41-.75s-.09-.69-.59-1.06c-.5.38-.46.76.12,1.16s.88.84.88,1.34v-.34ZM226.2,42.86l.38-.16c0-.29-.15-.67-.44-1.12-.17.21-.4.41-.69.59s-.17.47.38.84l.38-.16ZM227.26,4.64l-.25-.19c-.17-.12-.31-.27-.44-.44-.5.21-.75.79-.75,1.75.21,0,.69-.38,1.44-1.12ZM229.7,36.79c.33-.02.69-.3,1.06-.84.17,0,.47.05.91.16s.84.16,1.22.16c0-.25.33-.69,1-1.31,0-.33.02-.76.06-1.28s.25-1.03.62-1.53c0-.17-.03-.48-.09-.94s-.26-.88-.59-1.25l.38-12.62c0-.25.23-.6.69-1.06.33-.17.26-.41-.22-.72s-.53-.66-.16-1.03c-.38-.38-.67-.8-.88-1.28s-.48-.97-.81-1.47h-1.75c-.92.42-1.75.62-2.5.62-.21,0-.56.23-1.06.69.38.38.48.7.31.97s-.15.66.06,1.16c.33.38.44.7.31.97s0,.66.38,1.16v2.5c-.17.5-.21,1.08-.12,1.75s.12,1.35.12,2.06c0,.33-.35.81-1.06,1.44,0,.54.04.96.12,1.25s.4.69.94,1.19v2.44c.21.25.1.85-.31,1.81,0,.25-.12.6-.38,1.06.17.17.39.35.66.56s.41.5.41.88c.12.38.01.64-.34.78s-.72.22-1.09.22c0,.5.24.74.72.72s.72.32.72,1.03c.12-.12.35-.2.69-.22ZM232.45,5.76c-.46.58-.69.92-.69,1,.46-.29.69-.62.69-1ZM237.38,18.76l-.25-.22c-.17-.15-.31-.32-.44-.53-.21.21-.28.35-.22.44s.01.29-.16.62c.25,0,.6-.1,1.06-.31ZM240.23,34.95h.34c0-.17-.08-.35-.25-.56s-.31-.5-.44-.88c-.38.17-.47.36-.28.59s.28.51.28.84h.34ZM240.88,24.01c-.21,0-.54.23-1,.69.21,0,.54-.23,1-.69ZM241.13,8.01c.17-.12.33-.31.5-.56-.17-.5-.38-.5-.62,0s-.29.75-.12.75l.25-.19Z"/>
  <path class="st12" d="M264.7,45.58c-.62-.33-.75-.77-.38-1.31,0-.33-.19-.68-.56-1.03s-.56-.61-.56-.78c-.21-.5-.31-.98-.31-1.44v-1.88c-.21-.33-.35-.54-.44-.62s.06-.23.44-.44c-.21-.88-.56-1.51-1.06-1.91s-.65-.84-.44-1.34c.29-.54.44-.92.44-1.12-.42-.38-.77-.71-1.06-1l-.44-.44c.12-.75.14-1.41.03-1.97s.11-1.14.66-1.72c-.54-.71-1.03-1.09-1.47-1.16s-.66-.28-.66-.66c.12-.5,0-.92-.38-1.25s-.75-.5-1.12-.5c-.46.46-.69.81-.69,1.06.25.46.38.81.38,1.06-.21.38-.47.73-.78,1.06s-.53.6-.66.81v1.75c.5.38.77.77.81,1.19s.25.62.62.62v2.62c-.38.71-.77,1.24-1.19,1.59s-.5.78-.25,1.28c.17.46.25.81.25,1.06-.17.46-.25.83-.25,1.12.33,0,.66.2.97.59s.47.68.47.84v1.06c-.21.42-.39.73-.53.94s-.22.4-.22.56c-.25.54-.3,1.06-.16,1.56s-.03.83-.53,1c-.75-.17-1.49-.18-2.22-.03s-1.34.03-1.84-.34c.12,0,.03-.19-.28-.56l-.47-.56c-.5.21-.9.24-1.19.09s-.62-.05-1,.28c-.17-.17-.34-.33-.53-.5s-.36-.38-.53-.62c.17-.5.18-1.01.03-1.53s-.03-.97.34-1.34c0,.75.18.88.53.38l.53-.75c-.42-.75-.9-1.35-1.44-1.81,0-.5.12-.9.38-1.19s.38-.62.38-1c-.5-.5-.75-.85-.75-1.06,0-.5.03-1.04.09-1.62s.28-1.15.66-1.69c-.38-.5-.47-1.03-.28-1.59s.03-1.11-.47-1.66l-.38-5.12c.54-.17.8-.46.78-.88s-.03-.73-.03-.94c-.38-.12-.58-.43-.62-.91s.04-.91.25-1.28c-.21-.5-.23-.89-.06-1.16s.06-.61-.31-1.03c0-.5.17-1.07.5-1.72s.42-1.16.25-1.53c-.38-.54-.59-1.06-.66-1.56s-.09-.96-.09-1.38l1.81-3.62-1.81-2.19c.38-.5.81-.96,1.31-1.38s.67-.81.5-1.19c-.71-.71-1.06-1.19-1.06-1.44.5-.33.9-.71,1.19-1.12s.62-.52,1-.31c.25.5.38.85.38,1.06.46.25.81.38,1.06.38,0-.33.14-.61.41-.84s.49-.43.66-.59c.75.21,1.48.31,2.19.31.38,0,.73-.21,1.06-.62s.6-.46.81-.12c.5.62.9,1.19,1.19,1.69s.62.92,1,1.25c-.38.42-.35.79.06,1.12s.62.58.62.75c.17.38.22.73.16,1.06s.01.58.22.75c-.21.54-.28,1.01-.22,1.41s.01.78-.16,1.16l1.44,1.81c.17.54.19,1.04.06,1.5s.12.69.75.69v2.12c.71.71,1.06,1.21,1.06,1.5,0,.92.23,1.75.69,2.5v1.88c.5.38.91.76,1.22,1.16s.66.49,1.03.28c.12-.17.27-.32.44-.47l.25-.22c-.25-.5-.38-1.12-.38-1.88-.17,0-.08-.18.25-.53l.5-.53c-.5-.5-.75-.88-.75-1.12-.17-.5-.18-1.01-.03-1.53s.05-.99-.28-1.41c.21-.46.31-1.04.31-1.75-.21-.46-.31-1.08-.31-1.88,0-.33.18-.66.53-.97s.53-.59.53-.84v-1.81c-.5-.46-.75-.81-.75-1.06v-2.19c.38-.33.66-.54.84-.62s.41-.25.66-.5c-.38-.33-.57-.67-.59-1s-.2-.6-.53-.81c.17-.12.33-.29.5-.5s.38-.4.62-.56l5.06.31c.54.58,1.01.78,1.41.59s.76-.01,1.09.53l-.31,8.06c.21.71.31,1.42.31,2.12-.42.29-.77.44-1.06.44-.38,0-.67.14-.88.41s-.4.47-.56.59c.54.58.95.89,1.22.91s.59.2.97.53c-.75,0-.89.18-.41.53l.72.53c0,.62-.18,1.26-.53,1.91s-.53,1.11-.53,1.41c.5.75.8,1.43.91,2.03s.16,1.16.16,1.66c-.17.38-.26.73-.28,1.06s-.03.56-.03.69c-.38.42-.61.74-.72.97s-.22.41-.34.53c.71.71,1.06,1.21,1.06,1.5v1.06c-.21.46-.31,1.08-.31,1.88.42.46.62.81.62,1.06v8.75c-.33.38-.5.73-.5,1.06s-.19.56-.56.69l1.06,2.56c-.17.21-.31.38-.44.5l-.19.19h-1.88c-.54.62-.95.94-1.22.94s-.57.08-.91.25c-.25-.17-.45-.33-.59-.5l-.22-.25v-2.56c-.38.21-.78.29-1.22.25s-.66.1-.66.44c.21.38.24.68.09.91s-.03.41.34.53c-.46.54-.83.94-1.12,1.19h-.69c-.58-.75-1.19-1.29-1.81-1.62ZM251.57,14.64c.33.04.69-.02,1.06-.19v-1.44h-1.06c0,.12-.12.35-.38.69s-.38.69-.38,1.06c.17-.12.42-.17.75-.12ZM254.51,4.95c0-.21-.27-.11-.81.28s-.52.66.06.78c0-.21.25-.56.75-1.06ZM254.82,20.26c-.29-.38-.77-.38-1.44,0l.19.16.19.16c.25,0,.6-.1,1.06-.31ZM270.13,12.04c.5-.35.38-.53-.38-.53-.38-.17-.62-.12-.75.12s0,.56.38.94l.75-.53ZM270.73,9.48l.16-.22.53.56c.35.38.53.19.53-.56l-.22-.19c-.15-.12-.3-.29-.47-.5,0,.21-.11.35-.34.44s-.34.31-.34.69l.16-.22Z"/>
  <path class="st11" d="M279.57,45.76c0,.08-.06.21-.19.38s-.27.31-.44.44-.33.23-.5.31-.29.08-.38,0c-.21,0-.4-.06-.56-.19s-.32-.27-.47-.44-.26-.33-.34-.5-.12-.29-.12-.38v-1.5c.21-.17.36-.3.47-.41l.25-.25c.06-.06.11-.12.16-.19s.12-.14.25-.22c0-.29-.04-.54-.12-.75s-.17-.39-.25-.53l-.25-.44c-.08-.15-.12-.32-.12-.53.21-.33.32-.67.34-1s.03-.58.03-.75c0-.21.08-.43.25-.66s.34-.44.53-.62.35-.34.5-.47l.22-.19.38-8.12c.08-.25.19-.47.31-.66s.25-.33.38-.44.22-.18.28-.22l.09-.06c-.08-.29-.11-.54-.09-.75s.04-.4.06-.56.02-.32,0-.47-.14-.3-.34-.47c.21-.29.35-.55.44-.78s.16-.45.22-.66.09-.41.09-.59v-.53c.21-.21.42-.36.62-.47s.41-.2.59-.28.33-.18.44-.28.16-.24.16-.41c-.38-.38-.65-.69-.81-.94s-.25-.46-.25-.62v-2.19c.21-.21.35-.36.44-.47s.15-.19.19-.25.07-.11.09-.16.03-.1.03-.19c-.12-.29-.2-.55-.22-.78s-.03-.45-.03-.66v-.59c0-.19-.06-.39-.19-.59l1.88-1.81c.12-.17.2-.33.22-.5s.02-.33,0-.5-.05-.34-.09-.53l-.12-.56c-.04-.19-.07-.35-.09-.5s0-.27.06-.38.16-.19.28-.25.31-.09.56-.09l.38-.47c.08-.1.17-.19.25-.25s.15-.12.19-.19.12-.14.25-.22c-.21-.17-.35-.3-.44-.41s-.17-.18-.25-.22l-.19-.09s-.1-.03-.19-.03c0-.17.02-.36.06-.59s.09-.45.16-.66.14-.4.22-.56.17-.31.25-.44v-1.38h1.06c.21-.17.34-.34.41-.53s.11-.36.16-.53.09-.32.16-.47.2-.26.41-.34c.38-.17.68-.33.91-.5s.43-.25.59-.25h1.44c.29.17.55.3.78.41s.45.18.66.22.41.07.59.09.36.03.53.03c.29-.08.53-.16.72-.22s.36-.1.53-.12.33-.03.5-.03h.5l2.56,2.56c0,.21-.07.4-.22.56l-.44.5c-.15.17-.24.31-.28.44s.04.23.25.31c0,.29.07.54.22.75s.31.4.5.56.35.32.5.47.22.3.22.47c-.12.29-.19.53-.19.72v.53c0,.17-.01.32-.03.47s-.07.32-.16.53c.33.33.6.61.81.84s.31.45.31.66c-.12.17-.18.31-.16.44l.06.38c.02.12.02.23,0,.31s-.14.17-.34.25c0,.21.07.4.22.56l.44.5c.15.17.25.32.31.47s-.01.28-.22.41c0,.17-.04.32-.12.47s-.18.27-.28.38-.22.2-.34.28-.23.17-.31.25c.17.12.3.21.41.25s.19.07.25.09l.19.06c.06.02.14.03.22.03.21.17.36.32.47.47s.19.27.25.38l.19.31c.06.1.16.22.28.34-.21.17-.35.35-.44.56s-.16.42-.22.62-.09.4-.09.56v.38c.17.17.3.31.41.44s.19.21.25.25.12.06.19.06h.22c.29.54.47,1.09.53,1.66s.12,1.1.19,1.62.14,1.03.22,1.53.25,1,.5,1.5c-.17.33-.27.67-.31,1s-.06.58-.06.75c.21.38.39.68.53.91s.22.43.22.59v1.81c-.21.21-.38.36-.5.47s-.24.19-.34.25l-.31.19c-.1.06-.2.16-.28.28.25.25.51.46.78.62s.51.32.72.47.38.3.5.47.19.4.19.69c-.08.33-.11.66-.09.97l.06.94c.02.31.02.6,0,.88s-.11.55-.28.84c.17.25.32.53.47.84s.26.61.34.91.15.57.19.84.06.51.06.72l.41.41c.1.1.19.2.25.28s.12.15.19.19.14.12.22.25c.21.33.33.61.38.84s.06.41.06.53c-.21.42-.46.79-.75,1.12s-.54.6-.75.81c0-.38-.05-.57-.16-.59s-.23.04-.38.19-.27.3-.38.47l-.16.25-4.5-.31c-.17-.21-.32-.32-.47-.34s-.27-.03-.38-.03-.21-.02-.31-.06-.2-.15-.28-.31c-.33.17-.68.26-1.03.28s-.64.03-.84.03c.12,0,.16-.05.09-.16s-.16-.22-.28-.34-.24-.25-.34-.38l-.16-.19c.17-.17.3-.36.41-.59s.18-.45.22-.66.06-.4.06-.56v-.44l-.53-.53-.53-.53c0-.17-.02-.36-.06-.59s-.08-.45-.12-.66-.09-.4-.16-.56-.09-.29-.09-.38c-.17-.29-.33-.49-.5-.59s-.33-.18-.5-.22-.31-.07-.44-.09-.23-.07-.31-.16c-.21.08-.42.12-.62.12s-.41.02-.59.06-.34.09-.47.16-.19.18-.19.34h-1.12c-.17,0-.33.06-.5.19l-.5.38c-.17.12-.32.24-.47.34s-.26.16-.34.16c-.38-.17-.67-.32-.88-.47s-.42-.22-.62-.22c-.25.08-.43.21-.53.38s-.18.33-.22.5-.04.33,0,.5.06.29.06.38c.17.25.32.45.47.59l.22.22c.21-.08.4-.07.56.03s.32.24.47.41.26.32.34.47l.12.22v.69c-.21.17-.36.3-.47.41s-.18.19-.22.25-.06.14-.06.22v.25c-.08.21-.14.42-.16.62s-.04.4-.06.56-.06.31-.12.44-.2.19-.41.19c-.33,0-.68-.02-1.03-.06l-1.06-.12c-.35-.04-.7-.07-1.03-.09s-.65-.03-.94-.03l-.06.03s-.07.05-.09.09-.05.08-.09.12l-.06.06-1.81-1.44ZM283.35,31.26c.06-.08.09-.19.09-.31v-.47c0-.19.04-.36.12-.53-.17,0-.35.08-.56.25s-.5.44-.88.81l.22.06c.15.04.32.15.53.31.25,0,.41-.04.47-.12ZM292.98,30.26h.84v-.19s-.02-.1-.06-.19-.11-.18-.22-.28l-.41-.41v-3c-.17-.08-.28-.15-.34-.19s-.08-.1-.06-.19.07-.18.16-.28.17-.24.25-.41c0-.17-.01-.34-.03-.53s-.05-.39-.09-.59-.1-.43-.19-.66-.21-.49-.38-.78v-1.88c0-.17.01-.36.03-.59s.11-.51.28-.84c0-.21-.08-.42-.25-.62s-.44-.48-.81-.81c-.17-.12-.23-.26-.19-.41s.14-.3.28-.47l.44-.5c.15-.17.22-.35.22-.56l-1.5-1.38c-.29.08-.46.19-.5.31s-.06.27-.06.44-.02.33-.06.5-.21.35-.5.56c.17.17.22.36.16.59s-.17.47-.31.72-.31.51-.5.78-.32.55-.41.84c-.21.08-.28.19-.22.31s.16.27.28.44.26.34.41.53.22.39.22.59c0,.25-.02.46-.06.62s-.12.32-.25.47-.28.33-.47.56-.41.53-.66.91c.17.08.27.17.31.25s.05.19.03.31-.04.26-.06.41.01.3.09.47c-.08.17-.14.35-.16.56s-.03.42-.03.62-.01.43-.03.66-.07.47-.16.72c.08.29.22.47.41.53s.39.09.59.09h.72c.27,0,.53.04.78.12l.22.25c.15.17.32.35.53.56s.45.41.72.59.53.32.78.41h.22ZM288.79,37.2s.05-.08.09-.12l.12-.12.06-.06c-.08-.08-.14-.19-.16-.31s-.03-.27-.03-.44v-.53c0-.19-.04-.36-.12-.53-.29-.08-.47-.07-.53.03s-.09.26-.09.47v.69c0,.25-.04.46-.12.62l.12.06.25.12.25.12.12.06.03-.06ZM290.38,33.83l.38-.38c.12-.12.25-.22.38-.28s.19-.03.19.09h.72s0-.01-.06-.03-.14-.03-.22-.03-.19-.01-.31-.03-.24-.05-.34-.09l-.31-.12c-.1-.04-.2-.08-.28-.12l-.06.06s-.09.08-.16.12-.14.09-.22.16-.17.14-.25.22-.14.16-.16.22-.03.12-.03.19.05.11.16.16.24.06.41.06l.19-.19ZM290.54,13.48l.06-.19c.02-.06.06-.15.12-.25s.14-.26.22-.47l-.25-.22c-.17-.15-.33-.3-.5-.47-.29.08-.44.2-.44.34s.06.29.19.44.25.31.38.5.19.36.19.53c0-.08.01-.16.03-.22ZM295.88,26.64h.62c.08-.12.12-.24.12-.34s-.02-.19-.06-.25-.1-.1-.19-.12-.18-.02-.28,0-.2.05-.28.09-.15.09-.19.16-.05.14-.03.22.07.17.16.25h.12ZM297.04,38.64c.1-.12.21-.26.31-.41s.19-.28.25-.41.05-.19-.03-.19c-.25-.08-.42-.1-.5-.06s-.12.11-.12.22.01.25.03.44-.01.39-.09.59l.16-.19ZM299.98,34.54c.19-.19.39-.36.59-.53h-.53c-.15,0-.26.03-.34.09s-.16.17-.22.31-.09.36-.09.66c.21-.17.41-.34.59-.53ZM300.04,43.89h.84l-.12-.25c-.08-.17-.2-.33-.34-.5s-.3-.27-.47-.31-.35.06-.56.31l.06.12c.04.08.09.17.16.25s.11.17.16.25l.06.12h.22Z"/>
  <path class="st10" d="M312.85,47.01l-.22-.19c-.54-.17-1.23-.21-2.06-.12s-1.25-.25-1.25-1c-.54-.54-.94-.89-1.19-1.03s-.56-.41-.94-.78c.96-1.42,1.08-2.27.38-2.56.17-.5.19-.99.06-1.47s.08-.72.62-.72v-1.06c-.38-.38-.6-.66-.69-.84s-.21-.41-.38-.66c.38-.5.81-.84,1.31-1.03s.69-.55.56-1.09c-.42,0-.73-.14-.94-.41s-.4-.53-.56-.78c.17-.71.44-1.38.81-2s.23-1.04-.44-1.25c.12-.38.17-.73.12-1.06s.02-.58.19-.75c-.17-.38-.32-.66-.47-.84s-.22-.39-.22-.59v-1.81c.25-.5.38-.88.38-1.12-.25-.46-.38-.81-.38-1.06.5-.54.71-1.05.62-1.53s-.29-.72-.62-.72v-3.25c-.21-.38-.34-.61-.41-.72s.07-.22.41-.34v-1.81c.71-.75,1.06-1.23,1.06-1.44-.71-.83-1.06-1.33-1.06-1.5.33-.38.53-.78.59-1.22s.09-.78.09-1.03c0-.33-.18-.67-.53-1s-.53-.58-.53-.75c.38-.88.43-1.77.16-2.69s-.07-1.73.59-2.44c0,.21.19.15.56-.19l.56-.5c.33.38.67.33,1-.12s.58-.69.75-.69c.75,0,1.41-.06,1.97-.19s1.14-.19,1.72-.19c.5.38,1.01.57,1.53.59s.97.22,1.34.59c.17.54.18,1.05.03,1.53s-.03.91.34,1.28c-.21.38-.29.78-.25,1.22s-.1.66-.44.66l.31,6.62.38,7.56c0,.58-.28,1.07-.84,1.47s-.76.78-.59,1.16c.5.17.71.47.62.91s.06.84.44,1.22c0,.58-.03,1.15-.09,1.69s-.28,1.06-.66,1.56c.5.5.75,1.12.75,1.88-.21.75-.31,1.48-.31,2.19.21.75.31,1.48.31,2.19-.17.21-.33.39-.5.53l-.25.22c.38.75.89,1.04,1.53.88s1.26.04,1.84.62c.42-.29,1.02-.44,1.81-.44.46.29.81.44,1.06.44.46-.29.83-.44,1.12-.44.17.25.32.43.47.53l.22.16c-.21.54-.31.94-.31,1.19l1.44,1.38c.21.5.31,1,.31,1.5,0,.38-.18.73-.53,1.06s-.53.6-.53.81v1.38c-.54.38-1.01.73-1.41,1.06s-.78.6-1.16.81c-.75.21-1.41.23-1.97.06s-1.11-.06-1.66.31l-2.56-1.12c-.5.5-.85.88-1.06,1.12-.58.21-1.01.28-1.28.22s-.57-.01-.91.16l-.22-.19ZM311.13,4.76h1.31c.12-.17,0-.45-.38-.84s-.65-.59-.81-.59c-.38-.17-.57-.11-.59.16s-.28.57-.78.91l.16.19.16.19h.94ZM315.16,34.51h.34v-1.12c-.21-.17-.47-.11-.78.16s-.28.59.09.97h.34Z"/>
</svg>